<svg width="480" height="406" viewBox="0 0 480 406" fill="none" xmlns="http://www.w3.org/2000/svg">
<g clip-path="url(#clip0)">
<path d="M473.537 138.789C474.101 140.991 474.629 143.205 475.121 145.429H307.539V138.789H473.537Z" fill="#E6E6E6"/>
<path d="M468.194 121.291C465.496 113.668 462.35 106.211 458.772 98.9596C457.672 96.7238 456.529 94.5104 455.343 92.3194C455.148 91.9434 454.94 91.5674 454.732 91.1914V140.607H469.214V124.232L468.194 121.291Z" fill="#E6E6E6"/>
<path d="M458.776 98.9459H454.736V92.3057H455.347C456.535 94.4945 457.678 96.7079 458.776 98.9459Z" fill="#CCCCCC"/>
<path d="M468.198 121.289H454.736V127.929H469.218V124.23L468.198 121.289Z" fill="#CCCCCC"/>
<path d="M446.891 83.2617H432.412V140.603H446.891V83.2617Z" fill="#E6E6E6"/>
<path d="M446.891 92.3242H432.412V98.9638H446.891V92.3242Z" fill="#CCCCCC"/>
<path d="M446.891 121.289H432.412V127.929H446.891V121.289Z" fill="#CCCCCC"/>
<path d="M380.867 82.9287H328.928C328.127 82.9299 327.36 83.2486 326.794 83.815C326.228 84.3813 325.909 85.1491 325.908 85.9501V137.917C325.909 138.213 325.952 138.507 326.036 138.79C326.224 139.411 326.607 139.955 327.128 140.342C327.648 140.729 328.279 140.938 328.928 140.939H380.867C381.516 140.938 382.147 140.729 382.668 140.342C383.188 139.955 383.571 139.411 383.759 138.79C383.843 138.507 383.886 138.213 383.887 137.917V85.9501C383.886 85.1491 383.567 84.3813 383.001 83.815C382.435 83.2486 381.668 82.9299 380.867 82.9287Z" fill="#E6E6E6"/>
<path d="M377.177 86.6396H332.619C331.819 86.6409 331.051 86.9596 330.485 87.5259C329.919 88.0923 329.601 88.8601 329.6 89.661V134.243C329.601 135.044 329.919 135.812 330.485 136.378C331.051 136.944 331.819 137.263 332.619 137.264H377.177C377.978 137.263 378.745 136.944 379.311 136.378C379.877 135.812 380.196 135.044 380.197 134.243V89.661C380.196 88.8601 379.877 88.0923 379.311 87.5259C378.745 86.9596 377.978 86.6409 377.177 86.6396Z" fill="white"/>
<path d="M369.405 94.3955H340.389C339.588 94.3967 338.821 94.7154 338.255 95.2818C337.689 95.8481 337.37 96.6159 337.369 97.4169V126.449C337.37 127.25 337.689 128.017 338.255 128.584C338.821 129.15 339.588 129.469 340.389 129.47H369.405C370.205 129.466 370.971 129.146 371.536 128.581C372.101 128.015 372.421 127.249 372.425 126.449V97.4169C372.424 96.6159 372.105 95.8481 371.539 95.2818C370.973 94.7154 370.206 94.3967 369.405 94.3955Z" fill="#CCCCCC"/>
<path d="M367.618 121.344L361.489 110.723C361.372 110.518 361.202 110.349 360.998 110.231C360.794 110.113 360.563 110.051 360.327 110.051C360.091 110.051 359.86 110.113 359.656 110.231C359.452 110.349 359.282 110.518 359.165 110.723L354.689 118.478L348.82 108.308C348.703 108.104 348.533 107.934 348.329 107.817C348.125 107.699 347.894 107.637 347.658 107.637C347.422 107.637 347.191 107.699 346.987 107.817C346.783 107.934 346.614 108.104 346.496 108.308L340.367 118.929L333.076 131.565H347.138L345.745 133.979H374.909L367.618 121.344Z" fill="white"/>
<path d="M365.453 104.993C367.786 104.993 369.676 103.102 369.676 100.768C369.676 98.4346 367.786 96.543 365.453 96.543C363.121 96.543 361.23 98.4346 361.23 100.768C361.23 103.102 363.121 104.993 365.453 104.993Z" fill="white"/>
<path d="M479.946 185.726C479.899 183.12 479.796 180.529 479.637 177.951C479.57 176.715 479.489 175.486 479.389 174.258H451.057C450.256 174.259 449.489 174.578 448.923 175.144C448.357 175.71 448.038 176.478 448.037 177.279V229.246C448.036 229.484 448.065 229.721 448.124 229.951C448.283 230.61 448.658 231.197 449.19 231.617C449.722 232.037 450.379 232.266 451.057 232.268H477.174C477.309 231.502 477.436 230.723 477.55 229.951C477.624 229.495 477.698 229.031 477.765 228.575C477.926 227.481 478.08 226.386 478.221 225.292C478.423 223.801 478.604 222.304 478.765 220.8C479.355 215.409 479.735 209.959 479.906 204.451V204.444C479.966 202.37 479.997 200.286 479.999 198.194V190.137C479.999 188.66 479.986 187.189 479.946 185.726Z" fill="#E6E6E6"/>
<path d="M479.946 185.724C479.899 183.119 479.796 180.527 479.637 177.949H454.748C453.948 177.95 453.18 178.269 452.614 178.835C452.048 179.402 451.73 180.17 451.729 180.971V225.552C451.73 226.353 452.048 227.121 452.614 227.687C453.18 228.254 453.948 228.572 454.748 228.574H477.765C477.926 227.479 478.08 226.385 478.221 225.29C478.423 223.8 478.604 222.303 478.765 220.799C479.355 215.407 479.736 209.958 479.906 204.45V204.443C479.966 202.368 479.997 200.285 480 198.192V190.135C480 188.658 479.986 187.188 479.946 185.724Z" fill="white"/>
<path d="M479.945 185.703H462.518C461.717 185.704 460.95 186.023 460.384 186.589C459.818 187.156 459.499 187.924 459.498 188.724V217.756C459.499 218.557 459.818 219.325 460.384 219.892C460.95 220.458 461.717 220.777 462.518 220.778H478.764C479.354 215.386 479.734 209.937 479.905 204.429V204.422C479.965 202.347 479.996 200.264 479.998 198.171V190.114C479.998 188.637 479.985 187.167 479.945 185.703Z" fill="#CCCCCC"/>
<path d="M479.907 204.448C479.739 209.953 479.359 215.403 478.766 220.797C478.605 222.301 478.424 223.798 478.222 225.288H467.875L469.27 222.878H455.205L459.5 215.432L462.493 210.242L468.626 199.62C468.743 199.415 468.912 199.245 469.116 199.126C469.32 199.008 469.551 198.945 469.787 198.945C470.023 198.945 470.254 199.008 470.458 199.126C470.662 199.245 470.831 199.415 470.948 199.62L476.82 209.792L479.907 204.448Z" fill="white"/>
<path d="M429.06 54.2965H307.539V47.6562H423.034C425.087 49.8249 427.096 52.0383 429.06 54.2965Z" fill="#E6E6E6"/>
<path d="M372.09 8.24316C377.042 10.9691 381.869 13.8897 386.571 17.0051V49.4612H372.09V8.24316Z" fill="#E6E6E6"/>
<path d="M386.564 30.1377H372.086V36.7772H386.564V30.1377Z" fill="#CCCCCC"/>
<path d="M408.89 34.0572V49.4594H394.408V22.4619C397.784 24.926 401.083 27.4886 404.306 30.1496C405.849 31.4253 407.377 32.7278 408.89 34.0572Z" fill="#E6E6E6"/>
<path d="M408.89 34.0639V36.7898H394.408V30.1562H404.306C405.849 31.4319 407.377 32.7345 408.89 34.0639Z" fill="#CCCCCC"/>
<path d="M357.303 0.845986C361.135 2.57147 364.902 4.41114 368.604 6.36499L365.624 12.3808L355.726 32.3956L352.781 38.3443L348.17 47.6568L347.157 49.7046L343.03 47.6568L334.186 43.2725L339.802 31.9122H339.809L342.748 25.9635L352.653 5.94871L355.565 0.0671453L355.599 0L357.303 0.845986Z" fill="#E6E6E6"/>
<path d="M368.57 6.42541L365.624 12.3808L352.652 5.94871L355.565 0.0671412L355.598 0L357.303 0.845979L368.57 6.42541Z" fill="#CCCCCC"/>
<path d="M342.749 25.9639L339.805 31.9141L352.78 38.3414L355.724 32.3912L342.749 25.9639Z" fill="#CCCCCC"/>
<path d="M477.55 229.941C477.436 230.714 477.308 231.492 477.174 232.258C476.939 233.708 476.684 235.145 476.409 236.582H307.539V229.941H477.55Z" fill="#E6E6E6"/>
<path d="M386.564 174.395H372.086V231.736H386.564V174.395Z" fill="#E6E6E6"/>
<path d="M386.564 183.457H372.086V190.097H386.564V183.457Z" fill="#CCCCCC"/>
<path d="M386.564 212.441H372.086V219.081H386.564V212.441Z" fill="#CCCCCC"/>
<path d="M408.889 174.395H394.41V231.736H408.889V174.395Z" fill="#E6E6E6"/>
<path d="M408.889 183.457H394.41V190.097H408.889V183.457Z" fill="#CCCCCC"/>
<path d="M408.889 212.441H394.41V219.081H408.889V212.441Z" fill="#CCCCCC"/>
<path d="M359.612 174.159L334.184 225.547L347.159 231.974L372.587 180.586L359.612 174.159Z" fill="#E6E6E6"/>
<path d="M355.597 182.292L352.652 188.242L365.628 194.67L368.572 188.719L355.597 182.292Z" fill="#CCCCCC"/>
<path d="M342.749 208.249L339.805 214.199L352.78 220.627L355.724 214.676L342.749 208.249Z" fill="#CCCCCC"/>
<path d="M196.485 255.531C197.09 255.879 197.666 256.274 198.209 256.714L257.952 238.111L261.321 223.281L284.355 225.443L280.941 252.277C280.665 254.445 279.694 256.464 278.173 258.033C276.653 259.602 274.664 260.634 272.507 260.976L202.199 272.113C201.173 274.601 199.415 276.717 197.158 278.18C194.901 279.643 192.252 280.384 189.564 280.304C186.876 280.225 184.275 279.328 182.109 277.733C179.943 276.139 178.313 273.922 177.436 271.379C176.56 268.835 176.478 266.084 177.202 263.493C177.926 260.901 179.421 258.592 181.489 256.871C183.557 255.151 186.099 254.101 188.778 253.861C191.457 253.622 194.145 254.204 196.485 255.531Z" fill="#FFB8B8"/>
<path d="M294.994 234.348L294.598 227.581V227.574L294.491 225.721L293.323 205.793C293.673 201.639 292.363 197.515 289.68 194.325C286.997 191.135 283.161 189.139 279.01 188.773C277.816 188.666 276.613 188.697 275.427 188.867C271.901 189.366 268.647 191.042 266.192 193.623C263.738 196.204 262.227 199.539 261.905 203.088L259.482 213.172L255.248 230.81C254.948 232.044 255.072 233.343 255.601 234.498C256.129 235.653 257.031 236.596 258.16 237.175C258.813 237.518 259.527 237.728 260.261 237.793L267.32 238.424L274.118 239.028L281.962 239.727L282.526 239.774L283.976 239.908L288.827 240.337H288.841C289.651 240.403 290.466 240.295 291.232 240.022C291.998 239.749 292.697 239.316 293.283 238.753C293.71 238.337 294.07 237.856 294.35 237.33C294.839 236.416 295.063 235.383 294.994 234.348V234.348Z" fill="#47E6B1"/>
<path d="M360.556 152.285C360.556 175.264 339.319 171.789 313.123 171.789C286.926 171.789 265.689 175.264 265.689 152.285C265.689 129.306 276.063 88.5732 313.123 88.5732C351.459 88.5732 360.556 129.306 360.556 152.285Z" fill="#2F2E41"/>
<path d="M335.536 162.386C348.001 149.915 348.001 129.695 335.536 117.223C323.072 104.752 302.862 104.752 290.398 117.223C277.933 129.695 277.933 149.915 290.398 162.386C302.862 174.858 323.072 174.858 335.536 162.386Z" fill="#FFB8B8"/>
<path d="M357.895 185.164C357.28 184.571 356.628 184.02 355.942 183.512C351.603 180.232 346.149 178.788 340.756 179.49L281.939 186.936C276.551 187.605 271.636 190.348 268.235 194.582C264.834 198.816 263.214 204.208 263.72 209.617C263.887 211.497 264.076 213.477 264.283 215.538C264.552 218.123 264.854 220.836 265.203 223.642C265.78 228.362 266.485 233.344 267.323 238.413C268.055 242.778 268.887 247.202 269.84 251.573C270.115 252.835 270.401 254.093 270.699 255.346C270.698 255.35 270.698 255.354 270.7 255.357C270.701 255.361 270.703 255.364 270.705 255.367C270.739 255.521 270.772 255.675 270.813 255.823C270.811 255.835 270.813 255.847 270.819 255.857C271.236 257.602 271.672 259.328 272.128 261.033C272.302 261.665 272.47 262.289 272.645 262.907C273.114 264.585 273.611 266.23 274.121 267.848C277.953 279.887 283.019 290.139 289.71 295.591C289.797 295.672 289.884 295.739 289.978 295.813L290.247 296.021L290.635 295.9L292.286 295.41L293.696 294.98L312.056 289.454L316.625 288.078L331.308 283.653H331.315L344.743 279.611L346.38 279.114L357.915 275.643L358.284 271.333L358.781 265.612L359.076 262.175L361.411 235.063L362.773 219.245L364.25 202.07C364.524 198.956 364.096 195.819 362.996 192.893C361.896 189.967 360.152 187.325 357.895 185.164Z" fill="#2F2E41"/>
<path d="M390.784 316.338C390.63 315.888 390.482 315.438 390.328 314.995C383.429 294.853 373.256 279.618 358.285 271.32C358.278 271.32 358.278 271.313 358.272 271.313L358.017 271.172L344.971 275.69L343.361 276.248L341.683 276.832L341.663 276.839L329.45 281.068L329.43 281.075L319.847 284.392H319.84L310.976 287.46H310.969L308.909 288.179L293.414 293.543L291.616 294.168L290.005 294.725L289.757 294.812L289.71 295.578L288.603 314.995L288.529 316.338L287.147 340.569L241.24 405.635H272.645C283.168 405.638 293.676 404.836 304.078 403.238L333.543 371.467C333.79 371.211 334.102 371.028 334.446 370.937C334.789 370.845 335.151 370.85 335.493 370.949C335.834 371.049 336.141 371.24 336.382 371.501C336.623 371.763 336.788 372.086 336.858 372.434L341.187 393.919C362.51 386.375 382.457 375.394 400.239 361.41C398.172 344.725 395.152 329.518 390.784 316.338Z" fill="#2F2E41"/>
<path d="M276.088 136.658H288.712L294.281 121.055L295.395 136.658H301.429L304.678 127.556L305.328 136.658H350.162C350.162 132.218 349.288 127.822 347.59 123.721C345.892 119.619 343.403 115.892 340.265 112.753C337.128 109.614 333.403 107.124 329.304 105.425C325.204 103.726 320.811 102.852 316.374 102.852H309.876C300.915 102.852 292.321 106.413 285.984 112.753C279.648 119.093 276.088 127.692 276.088 136.658Z" fill="#2F2E41"/>
<path d="M198.437 305.878C196.376 306.744 194.15 307.148 191.916 307.061C189.682 306.973 187.495 306.397 185.507 305.372C183.52 304.348 181.782 302.899 180.415 301.13C179.047 299.36 178.085 297.312 177.594 295.13L123.598 289.011L141.698 267.324L190.199 276.459C193.918 275.878 197.72 276.681 200.886 278.718C204.053 280.754 206.362 283.882 207.378 287.508C208.393 291.134 208.044 295.007 206.396 298.393C204.748 301.778 201.916 304.442 198.437 305.878L198.437 305.878Z" fill="#A0616A"/>
<path d="M169.323 265.727L146.5 261.645L144.843 261.35C143.518 261.113 142.259 260.599 141.147 259.84C140.036 259.082 139.097 258.097 138.393 256.95C137.689 255.803 137.235 254.519 137.062 253.184C136.889 251.85 137 250.493 137.388 249.204L148.594 211.947L148.93 210.839C150.329 206.104 150.08 201.034 148.223 196.458C146.366 191.883 143.012 188.074 138.709 185.655C135.797 184.037 132.551 183.113 129.223 182.954C125.896 182.796 122.577 183.408 119.524 184.742C116.471 186.076 113.767 188.097 111.622 190.647C109.477 193.197 107.949 196.208 107.157 199.446L92.8634 257.811L92.3332 259.973C91.3349 264.046 91.226 268.286 92.014 272.405C92.8021 276.523 94.4684 280.423 96.8995 283.839C99.3306 287.255 102.469 290.106 106.102 292.198C109.734 294.289 113.774 295.573 117.947 295.961C117.994 295.968 118.034 295.968 118.082 295.975L126.637 296.733L137.736 297.72L151.694 298.962L164.72 300.124C166.426 300.279 168.127 299.786 169.487 298.744C170.847 297.701 171.766 296.186 172.061 294.497C172.081 294.403 172.094 294.309 172.108 294.215L174.873 273.563L174.899 273.375C175.138 271.626 174.69 269.853 173.651 268.427C172.611 267.002 171.06 266.034 169.323 265.727Z" fill="#CCCCCC"/>
<path d="M134.161 109.251C125.05 127.172 117.87 145.657 97.7739 145.657C88.1234 145.657 78.8682 141.822 72.0443 134.994C65.2203 128.166 61.3867 118.906 61.3867 109.251C61.3867 89.1437 77.6792 73.0955 97.7739 72.8438C118.197 72.588 151.119 75.8924 134.161 109.251Z" fill="#2F2E41"/>
<path d="M157.019 343.694L156.194 335.449L155.576 335.483L47.0742 340.713L47.356 349.059L47.8328 363.353C64.6218 376.149 83.2661 386.304 103.12 393.466L103.825 388.001C103.887 387.555 104.1 387.145 104.43 386.839C104.759 386.533 105.184 386.35 105.632 386.322C106.081 386.294 106.525 386.421 106.89 386.683C107.256 386.945 107.519 387.325 107.637 387.759L109.777 395.742C127.073 401.323 145.033 404.576 163.186 405.417L157.019 343.694Z" fill="#2F2E41"/>
<path d="M122.132 136.996C134.597 124.524 134.597 104.304 122.132 91.8324C109.668 79.3609 89.4581 79.3609 76.9933 91.8324C64.5285 104.304 64.5285 124.524 76.9933 136.996C89.4581 149.467 109.668 149.467 122.132 136.996Z" fill="#A0616A"/>
<path d="M163.251 336.017L156.923 316.358L156.816 316.022L156.493 315.015L154.688 309.415C154.104 307.596 153.547 305.77 153.031 303.937C152.554 302.285 152.109 300.629 151.695 298.968C151.105 296.658 150.568 294.34 150.085 292.012C148.447 284.191 147.355 276.264 146.817 268.291C146.669 266.082 146.564 263.869 146.501 261.651C146.108 248.057 147.332 234.464 150.145 221.158C152.595 209.652 151.286 197.663 146.413 186.957C141.54 176.252 133.359 167.395 123.075 161.691C116.327 157.96 108.859 155.718 101.172 155.118C100.642 155.078 100.112 155.044 99.575 155.011C91.4553 154.497 83.3241 155.815 75.7816 158.867C68.239 161.918 61.4778 166.626 55.997 172.642C53.0614 175.841 50.5117 179.375 48.4004 183.17C42.5425 193.73 40.3434 205.933 42.1464 217.875L49.6888 268.546L47.9712 289.877L45.9446 315.015L45.8372 316.358L43.6762 343.161C43.5739 344.41 43.8762 345.659 44.5385 346.723C45.2008 347.787 46.1878 348.61 47.3536 349.069C48.0364 349.343 48.7656 349.482 49.5011 349.479C49.6086 349.479 49.7092 349.479 49.8166 349.472L157.017 343.704L157.997 343.651C158.891 343.604 159.762 343.353 160.544 342.915C161.326 342.478 161.996 341.867 162.504 341.129C163.012 340.391 163.343 339.546 163.473 338.66C163.602 337.774 163.527 336.869 163.251 336.017L163.251 336.017Z" fill="#CCCCCC"/>
<path d="M133.438 96.3785C126.145 101.408 117.488 104.085 108.629 104.05C111.789 106.242 115.386 107.723 119.173 108.39C107.396 110.918 95.2231 110.986 83.4177 108.591C80.7936 108.17 78.2616 107.3 75.9327 106.019C73.6659 104.642 71.7697 102.45 71.3125 99.8365C70.5281 95.3526 74.0201 91.2789 77.6491 88.5334C83.2053 84.3941 89.6117 81.5422 96.4048 80.184C103.198 78.8258 110.208 78.9954 116.927 80.6804C121.315 81.8152 125.71 83.7324 128.56 87.2579C131.41 90.7833 132.254 96.2185 129.539 99.8488L133.438 96.3785Z" fill="#2F2E41"/>
<path d="M135.065 299.23C133.024 300.141 130.807 300.592 128.572 300.553C126.337 300.515 124.137 299.986 122.128 299.004C120.119 298.023 118.35 296.613 116.945 294.873C115.54 293.133 114.533 291.106 113.995 288.935L59.8789 283.988L77.5057 261.914L126.193 269.996C129.898 269.335 133.717 270.055 136.927 272.023C140.136 273.99 142.513 277.067 143.607 280.67C144.7 284.274 144.435 288.153 142.861 291.574C141.286 294.994 138.513 297.718 135.065 299.23L135.065 299.23Z" fill="#A0616A"/>
<path d="M105.098 259.728L92.8648 257.814L80.5241 255.881C79.195 255.673 77.9249 255.186 76.7972 254.452C75.6695 253.719 74.7097 252.755 73.9809 251.623C73.252 250.492 72.7707 249.219 72.5684 247.889C72.366 246.558 72.4474 245.2 72.807 243.903L83.517 205.297C84.813 200.532 84.4539 195.468 82.4985 190.934C80.5431 186.401 77.1072 182.665 72.7533 180.34C69.8121 178.77 66.5459 177.907 63.2134 177.82C59.881 177.732 56.574 178.423 53.5547 179.837C50.526 181.228 47.8616 183.304 45.7713 185.901C43.6811 188.498 42.222 191.545 41.5091 194.802L28.001 255.639C27.091 259.743 27.0778 263.995 27.9624 268.104C28.847 272.213 30.6084 276.083 33.1261 279.448C35.6438 282.813 38.8584 285.594 42.5499 287.601C46.2414 289.608 50.3226 290.794 54.5144 291.076L101.24 294.212C102.948 294.328 104.638 293.799 105.975 292.728C107.312 291.658 108.199 290.124 108.46 288.431C108.48 288.337 108.487 288.243 108.5 288.149L110.815 267.442L110.835 267.254C111.035 265.502 110.549 263.739 109.48 262.337C108.411 260.934 106.84 259.999 105.098 259.728Z" fill="#CCCCCC"/>
<path d="M312.103 227.626L309.303 229.154L274.803 247.988L272.002 249.517C270.644 250.261 269.635 251.514 269.198 253C268.762 254.487 268.932 256.086 269.672 257.448L295.364 304.559C296.107 305.919 297.359 306.928 298.845 307.365C300.331 307.802 301.929 307.631 303.29 306.89L303.297 306.887L343.383 285.003L343.39 284.999C344.749 284.255 345.757 283.003 346.194 281.516C346.631 280.029 346.461 278.43 345.72 277.069L320.029 229.957C319.286 228.598 318.034 227.589 316.548 227.152C315.062 226.715 313.463 226.885 312.103 227.626Z" fill="#E6E6E6"/>
<path d="M312.905 229.101L309.588 230.911L276.121 249.181L272.805 250.992C271.837 251.522 271.119 252.414 270.808 253.472C270.497 254.531 270.618 255.67 271.145 256.64L296.836 303.751C297.366 304.719 298.257 305.438 299.316 305.749C300.374 306.06 301.512 305.939 302.481 305.411L302.488 305.407L342.574 283.524L342.581 283.52C343.549 282.99 344.267 282.098 344.578 281.039C344.889 279.981 344.768 278.842 344.241 277.872L318.549 230.761C318.02 229.793 317.128 229.074 316.07 228.763C315.012 228.452 313.874 228.573 312.905 229.101Z" fill="white"/>
<path d="M313.85 242.401C313.726 242.175 313.517 242.007 313.269 241.934C313.022 241.861 312.755 241.889 312.528 242.012L311.193 242.744L297.577 250.176C297.352 250.301 297.185 250.509 297.113 250.757C297.041 251.004 297.07 251.27 297.193 251.496C297.316 251.722 297.524 251.89 297.771 251.964C298.017 252.037 298.283 252.01 298.51 251.888L313.461 243.724C313.687 243.599 313.855 243.39 313.928 243.143C314 242.895 313.973 242.628 313.85 242.401Z" fill="#E6E6E6"/>
<path d="M318.941 243.375C318.88 243.263 318.798 243.165 318.699 243.085C318.6 243.005 318.486 242.945 318.363 242.909C318.241 242.874 318.113 242.863 317.986 242.877C317.86 242.891 317.737 242.931 317.626 242.993L299.152 253.077C299.04 253.139 298.941 253.221 298.861 253.321C298.781 253.42 298.721 253.535 298.686 253.657C298.65 253.78 298.638 253.908 298.652 254.035C298.666 254.162 298.705 254.285 298.766 254.397C298.827 254.509 298.91 254.608 299.009 254.688C299.109 254.768 299.223 254.827 299.345 254.863C299.468 254.899 299.596 254.91 299.723 254.896C299.85 254.883 299.973 254.844 300.084 254.783L300.944 254.313L306.319 251.379H306.325L318.552 244.698C318.665 244.638 318.765 244.555 318.846 244.456C318.927 244.356 318.987 244.242 319.024 244.118C319.06 243.995 319.071 243.866 319.057 243.739C319.043 243.611 319.004 243.488 318.941 243.375Z" fill="#E6E6E6"/>
<path d="M298.861 259.44L292.996 248.677C292.935 248.569 292.834 248.489 292.715 248.455C292.595 248.422 292.468 248.436 292.359 248.496L289.513 250.047L288.037 250.853L280.112 255.176L278.575 256.016C278.467 256.077 278.388 256.178 278.354 256.297C278.32 256.417 278.334 256.545 278.394 256.654L278.77 257.345L284.259 267.416C284.319 267.524 284.419 267.603 284.537 267.637C284.655 267.671 284.782 267.657 284.89 267.598L294.352 262.434L295.828 261.629L298.673 260.078C298.728 260.048 298.776 260.009 298.815 259.961C298.854 259.913 298.883 259.857 298.9 259.798C298.918 259.739 298.923 259.677 298.917 259.615C298.91 259.554 298.891 259.494 298.861 259.44Z" fill="#E6E6E6"/>
<path d="M321.26 256.053C321.137 255.828 320.929 255.66 320.683 255.587C320.436 255.514 320.171 255.542 319.945 255.664L299.666 266.736C299.487 266.834 299.343 266.986 299.255 267.17C299.167 267.355 299.139 267.562 299.176 267.763C299.19 267.867 299.224 267.967 299.277 268.058C299.328 268.151 299.394 268.235 299.471 268.307L299.478 268.313C299.628 268.449 299.816 268.534 300.017 268.558C300.217 268.582 300.421 268.544 300.598 268.448L320.878 257.376C320.99 257.315 321.089 257.232 321.169 257.132C321.249 257.032 321.308 256.917 321.344 256.794C321.379 256.671 321.39 256.543 321.376 256.416C321.361 256.288 321.322 256.165 321.26 256.053Z" fill="#E6E6E6"/>
<path d="M326.362 257.027C326.301 256.915 326.218 256.816 326.118 256.737C326.018 256.657 325.903 256.597 325.781 256.562C325.658 256.526 325.529 256.515 325.402 256.529C325.275 256.544 325.152 256.583 325.04 256.645L301.238 269.636C301.059 269.731 300.915 269.88 300.827 270.063C300.739 270.245 300.711 270.451 300.748 270.65V270.657C300.763 270.761 300.797 270.861 300.849 270.952C300.901 271.048 300.969 271.135 301.05 271.207C301.199 271.345 301.387 271.433 301.589 271.457C301.79 271.481 301.994 271.441 302.171 271.342L325.973 258.35C326.2 258.226 326.367 258.017 326.44 257.769C326.513 257.521 326.485 257.254 326.362 257.027Z" fill="#E6E6E6"/>
<path d="M292.877 277.517C295.157 277.517 297.004 275.668 297.004 273.387C297.004 271.107 295.157 269.258 292.877 269.258C290.598 269.258 288.75 271.107 288.75 273.387C288.75 275.668 290.598 277.517 292.877 277.517Z" fill="#E6E6E6"/>
<path d="M324.181 209.501L321.381 211.029L286.881 229.863L284.081 231.392C282.722 232.136 281.713 233.389 281.277 234.875C280.84 236.362 281.01 237.962 281.75 239.323L307.442 286.434C308.185 287.794 309.437 288.803 310.923 289.24C312.409 289.677 314.007 289.506 315.368 288.766L315.375 288.762L355.461 266.878L355.468 266.874C356.827 266.13 357.835 264.878 358.272 263.391C358.709 261.904 358.539 260.305 357.798 258.944L332.107 211.832C331.364 210.473 330.112 209.464 328.626 209.027C327.14 208.59 325.541 208.76 324.181 209.501Z" fill="#CCCCCC"/>
<path d="M324.985 210.976L321.668 212.786L288.201 231.056L284.885 232.867C283.917 233.397 283.199 234.289 282.888 235.347C282.577 236.406 282.698 237.545 283.225 238.514L308.917 285.626C309.446 286.594 310.337 287.313 311.396 287.624C312.454 287.935 313.592 287.814 314.561 287.286L314.568 287.282L354.654 265.399L354.661 265.395C355.629 264.865 356.347 263.973 356.658 262.914C356.969 261.856 356.848 260.717 356.321 259.747L330.629 212.636C330.1 211.668 329.209 210.949 328.15 210.638C327.092 210.327 325.954 210.448 324.985 210.976Z" fill="white"/>
<path d="M325.927 224.276C325.802 224.05 325.593 223.882 325.345 223.809C325.098 223.736 324.832 223.764 324.604 223.887L317.72 227.647L315.8 228.694L309.654 232.051C309.428 232.176 309.261 232.384 309.189 232.632C309.117 232.879 309.146 233.145 309.269 233.371C309.392 233.597 309.6 233.765 309.847 233.839C310.093 233.912 310.359 233.885 310.586 233.763L317.834 229.809L319.35 228.976L325.537 225.599C325.763 225.474 325.931 225.265 326.004 225.018C326.077 224.77 326.049 224.503 325.927 224.276Z" fill="#CCCCCC"/>
<path d="M331.021 225.25C330.96 225.138 330.878 225.04 330.779 224.96C330.68 224.88 330.566 224.82 330.443 224.784C330.321 224.749 330.193 224.738 330.066 224.752C329.94 224.766 329.817 224.806 329.706 224.868L320.103 230.111L318.627 230.917L311.232 234.952C311.12 235.014 311.021 235.096 310.941 235.196C310.861 235.295 310.801 235.41 310.766 235.532C310.73 235.655 310.718 235.783 310.732 235.91C310.746 236.037 310.785 236.16 310.846 236.272C310.907 236.384 310.99 236.483 311.089 236.563C311.189 236.643 311.303 236.702 311.425 236.738C311.548 236.774 311.676 236.785 311.803 236.771C311.93 236.758 312.053 236.719 312.164 236.658L319.559 232.623L321.036 231.817L330.632 226.573C330.745 226.513 330.845 226.43 330.926 226.331C331.007 226.231 331.067 226.117 331.104 225.993C331.14 225.87 331.151 225.741 331.137 225.614C331.123 225.486 331.083 225.363 331.021 225.25Z" fill="#CCCCCC"/>
<path d="M310.941 241.315L306.264 232.734L305.459 231.257L305.076 230.552C305.015 230.444 304.914 230.364 304.795 230.33C304.676 230.297 304.548 230.311 304.439 230.371L294.944 235.554L290.656 237.891C290.548 237.952 290.468 238.053 290.434 238.172C290.4 238.292 290.415 238.42 290.474 238.529L290.857 239.227L291.273 239.999L291.662 240.704V240.711L296.339 249.291C296.399 249.399 296.499 249.478 296.617 249.512C296.735 249.546 296.862 249.532 296.97 249.472L310.753 241.953C310.808 241.923 310.856 241.884 310.895 241.836C310.934 241.788 310.963 241.732 310.98 241.673C310.998 241.614 311.003 241.551 310.997 241.49C310.99 241.429 310.971 241.369 310.941 241.315Z" fill="#47E6B1"/>
<path d="M333.343 237.929C333.22 237.703 333.012 237.535 332.766 237.462C332.519 237.389 332.254 237.417 332.028 237.539L325.968 240.849L324.492 241.655L318.64 244.844L311.748 248.611C311.636 248.672 311.537 248.755 311.456 248.854C311.376 248.954 311.316 249.069 311.28 249.191C311.244 249.314 311.232 249.443 311.246 249.57C311.259 249.698 311.298 249.821 311.359 249.933C311.42 250.046 311.503 250.145 311.603 250.226C311.702 250.306 311.817 250.366 311.94 250.402C312.062 250.438 312.191 250.45 312.318 250.436C312.445 250.423 312.569 250.384 312.681 250.323L325.425 243.367L326.901 242.561L332.96 239.251C333.073 239.19 333.171 239.107 333.251 239.007C333.331 238.907 333.391 238.792 333.426 238.669C333.462 238.546 333.473 238.418 333.458 238.291C333.444 238.163 333.405 238.04 333.343 237.929Z" fill="#CCCCCC"/>
<path d="M338.442 238.883C338.38 238.771 338.297 238.672 338.197 238.592C338.097 238.512 337.983 238.453 337.86 238.417C337.737 238.382 337.609 238.371 337.482 238.385C337.355 238.399 337.232 238.438 337.12 238.5L327.544 243.73L326.068 244.536L313.318 251.492C313.205 251.553 313.106 251.635 313.025 251.735C312.945 251.834 312.885 251.949 312.848 252.072C312.812 252.194 312.8 252.323 312.814 252.45C312.828 252.578 312.866 252.701 312.928 252.813C312.989 252.926 313.072 253.025 313.172 253.105C313.272 253.185 313.386 253.245 313.509 253.28C313.632 253.316 313.761 253.327 313.888 253.313C314.015 253.299 314.138 253.259 314.25 253.197L326.994 246.241L328.47 245.436L338.053 240.205C338.279 240.081 338.447 239.872 338.52 239.624C338.593 239.377 338.565 239.11 338.442 238.883Z" fill="#CCCCCC"/>
<path d="M304.957 259.392C307.237 259.392 309.085 257.543 309.085 255.262C309.085 252.982 307.237 251.133 304.957 251.133C302.678 251.133 300.83 252.982 300.83 255.262C300.83 257.543 302.678 259.392 304.957 259.392Z" fill="#CCCCCC"/>
<path d="M307.725 278.492C308.42 278.561 309.108 278.684 309.784 278.861L356.59 237.316L353.563 222.412L375.446 214.902L383.367 240.766C384.007 242.855 383.952 245.096 383.211 247.152C382.47 249.207 381.082 250.967 379.256 252.166L319.752 291.255C319.839 293.945 319.107 296.597 317.651 298.86C316.195 301.122 314.086 302.888 311.603 303.921C309.12 304.955 306.381 305.208 303.751 304.646C301.121 304.085 298.724 302.735 296.879 300.777C295.034 298.82 293.829 296.346 293.423 293.686C293.017 291.026 293.431 288.305 294.608 285.886C295.786 283.467 297.671 281.464 300.015 280.143C302.358 278.822 305.047 278.246 307.725 278.492Z" fill="#FFB8B8"/>
<path d="M388.814 218.611L375.554 193.272C374.189 189.418 371.381 186.246 367.723 184.424C364.064 182.603 359.841 182.275 355.946 183.51C355.798 183.55 355.657 183.597 355.51 183.651C351.562 185.031 348.323 187.923 346.504 191.69C344.685 195.458 344.434 199.794 345.806 203.746L351.128 231.751C351.28 232.552 351.603 233.312 352.076 233.977C352.549 234.642 353.159 235.197 353.866 235.605C354.638 236.057 355.508 236.315 356.402 236.357C357.137 236.403 357.875 236.301 358.569 236.055L361.415 235.061L379.681 228.696L385.653 226.614C386.424 226.345 387.127 225.913 387.715 225.347C388.303 224.781 388.763 224.095 389.063 223.336C389.363 222.577 389.496 221.762 389.453 220.946C389.41 220.131 389.192 219.335 388.814 218.611Z" fill="#47E6B1"/>
<path d="M438.867 316.343H0.671051C0.493077 316.343 0.322392 316.272 0.196546 316.146C0.0706993 316.02 0 315.849 0 315.671C0 315.493 0.0706993 315.323 0.196546 315.197C0.322392 315.071 0.493077 315 0.671051 315H438.867C439.045 315 439.216 315.071 439.342 315.197C439.468 315.323 439.538 315.493 439.538 315.671C439.538 315.849 439.468 316.02 439.342 316.146C439.216 316.272 439.045 316.343 438.867 316.343Z" fill="#3F3D56"/>
<path d="M76.1621 303.926V304.261C76.1644 306.538 76.827 308.764 78.0694 310.671C79.3118 312.578 81.0806 314.083 83.1613 315.004C84.6537 315.672 86.2707 316.015 87.9055 316.011H196.28V303.926H76.1621Z" fill="#3F3D56"/>
<path d="M271.947 224.267C270.228 220.715 267.58 217.695 264.284 215.526C262.79 214.536 261.178 213.738 259.486 213.149C257.18 212.343 254.755 211.932 252.312 211.934H148.299C142.517 211.94 136.974 214.241 132.885 218.332C128.797 222.423 126.497 227.969 126.49 233.754V294.181C126.488 295.03 126.538 295.877 126.638 296.719C126.785 297.979 127.041 299.223 127.403 300.439C127.761 301.636 128.224 302.8 128.785 303.917C130.592 307.549 133.375 310.604 136.823 312.739C140.27 314.874 144.245 316.004 148.299 316.002H252.312C255.177 316.003 258.013 315.44 260.66 314.343C263.306 313.247 265.711 311.64 267.736 309.614C269.762 307.587 271.368 305.181 272.464 302.533C273.559 299.885 274.123 297.047 274.122 294.181V233.754C274.127 230.468 273.383 227.223 271.947 224.267Z" fill="#3F3D56"/>
<path d="M206.009 269.336C208.974 269.336 211.377 266.932 211.377 263.965C211.377 260.999 208.974 258.594 206.009 258.594C203.044 258.594 200.641 260.999 200.641 263.965C200.641 266.932 203.044 269.336 206.009 269.336Z" fill="white"/>
</g>
<defs>
<clipPath id="clip0">
<rect width="480" height="405.647" fill="white"/>
</clipPath>
</defs>
</svg>
