<svg width="428" height="426" viewBox="0 0 428 426" fill="none" xmlns="http://www.w3.org/2000/svg">
<g clip-path="url(#clip0)">
<path d="M145.69 112.863H215.939C217.477 112.868 218.995 112.522 220.379 111.851C221.763 111.18 222.976 110.203 223.925 108.992C224.892 107.771 225.567 106.345 225.899 104.823C226.231 103.301 226.212 101.723 225.843 100.21C219.368 73.0877 219.368 44.8221 225.843 17.6999C226.212 16.1866 226.231 14.6091 225.899 13.0873C225.567 11.5655 224.892 10.1396 223.925 8.91798C222.976 7.70774 221.763 6.73002 220.379 6.05921C218.995 5.38841 217.477 5.04219 215.939 5.04692H145.69C143.264 5.05389 140.92 5.92169 139.075 7.49575C137.229 9.0698 136.002 11.2479 135.612 13.6421C130.989 43.6739 130.989 74.2364 135.612 104.268C136.002 106.662 137.229 108.841 139.075 110.415C140.92 111.989 143.264 112.856 145.69 112.863Z" fill="#E6E6E6"/>
<path d="M215.938 10.333C216.676 10.3306 217.406 10.4966 218.071 10.8185C218.735 11.1404 219.318 11.6097 219.774 12.1907C220.244 12.786 220.571 13.4805 220.732 14.2216C220.893 14.9626 220.883 15.7305 220.702 16.467C214.034 44.3996 214.034 73.5099 220.702 101.443C220.883 102.179 220.893 102.947 220.732 103.688C220.571 104.428 220.244 105.123 219.774 105.718L219.774 105.718C219.318 106.3 218.735 106.769 218.071 107.091C217.406 107.413 216.676 107.579 215.938 107.577H145.689C144.524 107.577 143.397 107.164 142.508 106.411C141.619 105.658 141.027 104.614 140.836 103.465C136.295 73.9652 136.295 43.9444 140.836 14.445C141.027 13.2958 141.619 12.2518 142.508 11.4988C143.397 10.7457 144.524 10.3326 145.689 10.333L215.938 10.333Z" fill="white"/>
<path d="M161.019 35.7526H197.882C199.284 35.751 200.627 35.1936 201.618 34.2026C202.609 33.2115 203.166 31.8678 203.168 30.4663V28.4005C203.166 26.999 202.609 25.6553 201.618 24.6643C200.627 23.6732 199.284 23.1158 197.882 23.1143H161.019C159.617 23.1158 158.274 23.6732 157.283 24.6643C156.292 25.6553 155.735 26.999 155.733 28.4005V30.4664C155.735 31.8679 156.292 33.2116 157.283 34.2026C158.274 35.1936 159.617 35.751 161.019 35.7526Z" fill="#E6E6E6"/>
<path d="M161.019 61.8551H197.882C199.284 61.8535 200.627 61.2961 201.618 60.3051C202.609 59.314 203.166 57.9704 203.168 56.5688V54.503C203.166 53.1015 202.609 51.7578 201.618 50.7668C200.627 49.7757 199.284 49.2183 197.882 49.2168H161.019C159.617 49.2183 158.274 49.7757 157.283 50.7668C156.292 51.7578 155.735 53.1015 155.733 54.503V56.5688C155.735 57.9704 156.292 59.314 157.283 60.3051C158.274 61.2961 159.617 61.8535 161.019 61.8551Z" fill="#E6E6E6"/>
<path d="M161.019 87.9576H197.882C199.284 87.9561 200.627 87.3986 201.618 86.4076C202.609 85.4166 203.166 84.0729 203.168 82.6713V80.6056C203.166 79.204 202.609 77.8603 201.618 76.8693C200.627 75.8783 199.284 75.3209 197.882 75.3193H161.019C159.617 75.3209 158.274 75.8783 157.283 76.8693C156.292 77.8603 155.735 79.204 155.733 80.6056V82.6713C155.735 84.0729 156.292 85.4166 157.283 86.4076C158.274 87.3986 159.617 87.9561 161.019 87.9576Z" fill="#E6E6E6"/>
<path d="M13.5451 179.825H83.7941C85.332 179.83 86.8507 179.484 88.2347 178.813C89.6186 178.142 90.8314 177.164 91.7806 175.954C92.7471 174.733 93.4222 173.307 93.7545 171.785C94.0868 170.263 94.0674 168.685 93.698 167.172C87.2236 140.05 87.2237 111.784 93.6985 84.6618C94.0676 83.1485 94.0867 81.571 93.7544 80.0492C93.4221 78.5274 92.7471 77.1015 91.7808 75.8799C90.8316 74.6697 89.6188 73.6919 88.2348 73.0211C86.8508 72.3503 85.3321 72.0041 83.7941 72.0088H13.5451C11.1197 72.0158 8.77546 72.8836 6.92999 74.4577C5.08452 76.0317 3.85763 78.2098 3.46783 80.6041C-1.15549 110.636 -1.15549 141.198 3.46783 171.23C3.85763 173.624 5.08452 175.802 6.92999 177.376C8.77546 178.951 11.1197 179.818 13.5451 179.825Z" fill="#E6E6E6"/>
<path d="M83.7933 77.2949C84.5319 77.2925 85.2613 77.4585 85.926 77.7804C86.5908 78.1023 87.1734 78.5716 87.6294 79.1526C88.0991 79.7479 88.4268 80.4425 88.5877 81.1835C88.7485 81.9245 88.7383 82.6925 88.5577 83.4289C81.8895 111.362 81.8894 140.472 88.5573 168.405C88.738 169.141 88.7484 169.909 88.5876 170.65C88.4269 171.39 88.0993 172.085 87.6297 172.68L87.6292 172.68C87.1733 173.262 86.5908 173.731 85.926 174.053C85.2613 174.375 84.5319 174.541 83.7933 174.538H13.5443C12.3795 174.539 11.2524 174.126 10.3637 173.373C9.47497 172.62 8.88232 171.576 8.69131 170.427C4.15015 140.927 4.15015 110.906 8.69131 81.4069C8.88232 80.2578 9.47497 79.2137 10.3637 78.4607C11.2524 77.7076 12.3795 77.2945 13.5443 77.2949L83.7933 77.2949Z" fill="white"/>
<path d="M153.618 256.037H223.867C225.472 256.042 227.056 255.681 228.5 254.981C229.944 254.281 231.209 253.261 232.199 251.999C233.207 250.725 233.911 249.238 234.258 247.651C234.604 246.064 234.584 244.419 234.199 242.841C227.741 215.786 227.741 187.591 234.2 160.536C234.585 158.958 234.605 157.313 234.258 155.726C233.911 154.139 233.207 152.653 232.2 151.379C231.209 150.116 229.944 149.096 228.5 148.396C227.056 147.696 225.472 147.335 223.867 147.34H153.618C151.088 147.347 148.642 148.253 146.717 149.896C144.792 151.538 143.512 153.811 143.106 156.309C138.475 186.385 138.475 216.993 143.106 247.069C143.512 249.567 144.792 251.839 146.717 253.482C148.642 255.124 151.088 256.03 153.618 256.037Z" fill="#F2F2F2"/>
<path d="M28.8741 115.931H65.7379C67.1392 115.93 68.4827 115.372 69.4736 114.381C70.4645 113.39 71.0219 112.047 71.0234 110.645V108.579C71.0219 107.178 70.4645 105.834 69.4736 104.843C68.4827 103.852 67.1392 103.294 65.7379 103.293H28.8741C27.4728 103.295 26.1293 103.852 25.1384 104.843C24.1475 105.834 23.5901 107.178 23.5886 108.579V110.645C23.5901 112.047 24.1475 113.39 25.1384 114.381C26.1293 115.372 27.4728 115.93 28.8741 115.931Z" fill="#E6E6E6"/>
<path d="M28.8741 142.033H65.7379C67.1392 142.031 68.4827 141.474 69.4736 140.483C70.4645 139.492 71.0219 138.148 71.0234 136.747V134.681C71.0219 133.279 70.4645 131.936 69.4736 130.945C68.4827 129.953 67.1392 129.396 65.7379 129.395H28.8741C27.4728 129.396 26.1293 129.953 25.1384 130.945C24.1475 131.936 23.5901 133.279 23.5886 134.681V136.747C23.5901 138.148 24.1475 139.492 25.1384 140.483C26.1293 141.474 27.4728 142.031 28.8741 142.033Z" fill="#E6E6E6"/>
<path d="M188.545 221.59C177.354 221.59 168.282 212.517 168.282 201.325C168.282 190.133 177.354 181.061 188.545 181.061C199.735 181.061 208.807 190.133 208.807 201.325C208.807 212.517 199.735 221.59 188.545 221.59Z" fill="white"/>
<path d="M178.855 198.682H185.903V191.633C185.903 190.932 186.181 190.26 186.677 189.764C187.172 189.269 187.845 188.99 188.545 188.99C189.246 188.99 189.919 189.269 190.414 189.764C190.91 190.26 191.188 190.932 191.188 191.633V198.682H198.236C198.937 198.682 199.609 198.961 200.105 199.456C200.6 199.952 200.879 200.624 200.879 201.325C200.879 202.026 200.6 202.699 200.105 203.194C199.609 203.69 198.937 203.969 198.236 203.969H191.188V211.017C191.188 211.718 190.91 212.39 190.414 212.886C189.919 213.382 189.246 213.66 188.545 213.66C187.845 213.66 187.172 213.382 186.677 212.886C186.181 212.39 185.903 211.718 185.903 211.017V203.969H178.855C178.154 203.969 177.482 203.69 176.986 203.194C176.49 202.699 176.212 202.026 176.212 201.325C176.212 200.624 176.49 199.952 176.986 199.456C177.482 198.961 178.154 198.682 178.855 198.682Z" fill="#E6E6E6"/>
<path d="M162.998 14.9783H199.999C201.05 14.9771 202.057 14.559 202.8 13.8157C203.544 13.0724 203.962 12.0646 203.963 11.0134V3.96484C203.962 2.91366 203.544 1.90588 202.8 1.16258C202.057 0.419287 201.05 0.00118466 199.999 0H162.998C161.947 0.00118466 160.94 0.419287 160.196 1.16258C159.453 1.90588 159.035 2.91366 159.034 3.96484V11.0134C159.035 12.0646 159.453 13.0724 160.196 13.8157C160.94 14.559 161.947 14.9771 162.998 14.9783Z" fill="#CCCCCC"/>
<path d="M29.092 82.8211H66.0923C67.1434 82.8199 68.151 82.4018 68.8942 81.6585C69.6374 80.9152 70.0555 79.9074 70.0566 78.8562V71.8076C70.0555 70.7564 69.6374 69.7487 68.8942 69.0054C68.151 68.2621 67.1434 67.844 66.0923 67.8428H29.092C28.041 67.844 27.0334 68.2621 26.2902 69.0054C25.547 69.7487 25.1289 70.7564 25.1277 71.8076V78.8562C25.1289 79.9074 25.547 80.9152 26.2902 81.6585C27.0334 82.4018 28.041 82.8199 29.092 82.8211Z" fill="#CCCCCC"/>
<path d="M349.951 415.041H339.151L335.774 373.377H349.953L349.951 415.041Z" fill="#FFB8B8"/>
<path d="M352.705 411.515L331.435 411.514H331.434C329.654 411.514 327.892 411.864 326.247 412.545C324.603 413.227 323.108 414.225 321.85 415.484C320.591 416.743 319.593 418.237 318.911 419.882C318.23 421.527 317.88 423.29 317.88 425.07V425.511L352.704 425.512L352.705 411.515Z" fill="#2F2E41"/>
<path d="M408.094 415.041H397.293L392.155 373.377H408.096L408.094 415.041Z" fill="#FFB8B8"/>
<path d="M410.848 411.515L389.578 411.514H389.577C387.797 411.514 386.034 411.864 384.39 412.545C382.745 413.227 381.251 414.225 379.992 415.484C378.734 416.743 377.735 418.237 377.054 419.882C376.373 421.527 376.022 423.29 376.022 425.07V425.511L410.847 425.512L410.848 411.515Z" fill="#2F2E41"/>
<path d="M406.178 401.879C407.28 401.879 408.341 401.464 409.151 400.718C409.586 400.321 409.937 399.84 410.181 399.305C410.426 398.769 410.56 398.19 410.575 397.601L414.906 242.344L353.405 257.72L334.43 314.653C331.983 321.978 330.924 329.694 331.307 337.407L333.663 392.594C333.716 393.725 334.204 394.791 335.023 395.572C335.842 396.353 336.931 396.788 338.063 396.787H348.378C349.442 396.783 350.47 396.395 351.272 395.694C352.073 394.993 352.596 394.027 352.743 392.972L360.115 332.053C360.76 327.301 362.422 322.744 364.989 318.693L379.498 295.718C379.595 295.564 379.737 295.444 379.904 295.375C380.072 295.305 380.257 295.289 380.434 295.329C380.611 295.368 380.772 295.461 380.894 295.596C381.016 295.73 381.094 295.899 381.117 296.079L392.503 397.481C392.625 398.509 393.106 399.461 393.861 400.17C394.617 400.879 395.598 401.298 396.632 401.354L405.927 401.871C406.011 401.876 406.095 401.879 406.178 401.879Z" fill="#2F2E41"/>
<path d="M363.64 141.824C351.69 141.824 342.003 132.136 342.003 120.184C342.003 108.233 351.69 98.5439 363.64 98.5439C375.59 98.5439 385.277 108.233 385.277 120.184C385.277 132.136 375.59 141.824 363.64 141.824Z" fill="#FFB8B8"/>
<path d="M353.7 264.033C354.072 264.033 354.443 263.986 354.804 263.893H354.805L415.824 248.245C416.915 247.966 417.857 247.279 418.457 246.326C419.057 245.373 419.27 244.226 419.05 243.121L405.037 167.621C404.164 163.257 402.245 159.17 399.444 155.711C396.644 152.252 393.046 149.524 388.96 147.762C384.978 146 380.623 145.245 376.281 145.563C371.938 145.882 367.741 147.265 364.059 149.591C363.204 150.124 362.344 150.705 361.502 151.318C358.111 153.82 355.346 157.073 353.423 160.823C351.501 164.573 350.473 168.717 350.42 172.931L349.306 259.565C349.298 260.148 349.406 260.726 349.624 261.267C349.841 261.808 350.163 262.3 350.572 262.715C350.98 263.131 351.467 263.461 352.004 263.687C352.541 263.914 353.118 264.031 353.7 264.033Z" fill="#47E6B1"/>
<path d="M409.545 264.923C410.272 263.851 410.757 262.633 410.963 261.355C411.169 260.076 411.093 258.768 410.739 257.522C410.385 256.276 409.762 255.122 408.914 254.143C408.067 253.164 407.015 252.383 405.832 251.854L408.546 220.486L394.164 228.283L393.791 256.875C393.035 258.92 393.056 261.172 393.849 263.203C394.642 265.235 396.152 266.905 398.094 267.897C400.036 268.889 402.274 269.134 404.384 268.586C406.495 268.038 408.331 266.734 409.545 264.923H409.545Z" fill="#FFB8B8"/>
<path d="M404.406 247.705C404.812 247.705 405.216 247.654 405.609 247.553C406.455 247.337 407.226 246.897 407.842 246.279C408.458 245.66 408.896 244.887 409.108 244.041L416.176 215.949C418.646 206.137 417.469 195.762 412.863 186.754L398.055 157.783C397.119 154.314 394.857 151.353 391.757 149.536C388.658 147.72 384.969 147.195 381.486 148.075C379.75 148.513 378.118 149.292 376.685 150.366C375.252 151.44 374.047 152.788 373.139 154.331C372.212 155.896 371.606 157.631 371.356 159.433C371.105 161.235 371.216 163.068 371.682 164.827L392.761 211.97L392.51 240.196C392.504 241.192 392.803 242.165 393.368 242.985C393.933 243.806 394.736 244.432 395.668 244.781L402.722 247.401C403.261 247.602 403.831 247.705 404.406 247.705Z" fill="#47E6B1"/>
<path d="M303.505 253.383C304.792 253.236 306.031 252.808 307.134 252.131C308.238 251.453 309.18 250.542 309.893 249.46C310.606 248.379 311.074 247.155 311.263 245.874C311.452 244.592 311.358 243.285 310.987 242.044L336.529 223.639L321.239 217.822L299.328 236.192C297.285 236.953 295.591 238.437 294.569 240.363C293.547 242.29 293.267 244.524 293.782 246.643C294.297 248.762 295.571 250.619 297.363 251.861C299.155 253.103 301.341 253.645 303.505 253.383H303.505Z" fill="#FFB8B8"/>
<path d="M316.876 239.945C317.629 239.944 318.372 239.769 319.046 239.432L344.945 226.465C353.992 221.937 361.086 214.277 364.908 204.91L377.204 174.785C379.222 171.813 379.991 168.166 379.345 164.632C378.7 161.097 376.691 157.958 373.753 155.891C372.285 154.859 370.626 154.129 368.873 153.744C367.12 153.359 365.308 153.327 363.542 153.65C361.756 153.971 360.051 154.644 358.527 155.629C357.002 156.614 355.689 157.891 354.661 159.388L332.686 206.12L311.132 224.343C310.373 224.987 309.831 225.849 309.578 226.812C309.324 227.775 309.373 228.793 309.717 229.728L312.333 236.784C312.675 237.709 313.292 238.507 314.101 239.071C314.915 239.64 315.884 239.945 316.876 239.945Z" fill="#47E6B1"/>
<path d="M368.182 142.155C367.033 142.659 364.678 133.497 365.733 131.664C367.301 128.939 367.208 128.959 368.25 127.156C369.291 125.353 369.524 122.885 368.175 121.299C366.827 119.713 363.707 119.923 363.092 121.912C363.488 118.134 359.751 115.097 356.05 114.244C352.349 113.39 348.446 113.92 344.724 113.161C340.405 112.28 335.912 108.659 337.635 103.909C337.931 103.118 338.373 102.39 338.94 101.764C340.931 99.5256 343.716 98.5696 346.438 97.6453C352.103 95.7224 357.923 93.7753 363.901 93.9876C368.827 94.2452 373.571 95.9333 377.552 98.8454C381.533 101.757 384.58 105.767 386.318 110.384C386.73 111.539 387.049 112.725 387.273 113.93C389.325 124.965 382.917 135.85 372.511 140.052L368.182 142.155Z" fill="#2F2E41"/>
<path opacity="0.2" d="M393.73 240.835L393.24 211.822L377.873 180.922L390.207 212.641L393.73 240.835Z" fill="black"/>
<path d="M254.382 313.647L319.255 286.69C320.677 286.105 321.946 285.202 322.967 284.052C323.988 282.901 324.732 281.533 325.145 280.051C325.569 278.552 325.645 276.976 325.368 275.443C325.091 273.91 324.468 272.461 323.546 271.205C307.162 248.643 296.319 222.541 291.893 195.01C291.653 193.471 291.066 192.006 290.175 190.729C289.285 189.451 288.114 188.393 286.753 187.636C285.412 186.882 283.917 186.445 282.382 186.357C280.846 186.268 279.311 186.531 277.893 187.126L213.02 214.083C210.783 215.02 208.951 216.721 207.851 218.883C206.75 221.044 206.453 223.527 207.012 225.887C214.263 255.395 225.988 283.618 241.779 309.577C243.057 311.638 245.026 313.179 247.334 313.925C249.642 314.67 252.14 314.572 254.382 313.647Z" fill="#E6E6E6"/>
<path d="M279.922 192.007C280.603 191.721 281.341 191.595 282.078 191.637C282.815 191.679 283.533 191.889 284.177 192.25C284.839 192.62 285.409 193.136 285.841 193.758C286.274 194.381 286.559 195.094 286.675 195.843C291.233 224.197 302.401 251.079 319.274 274.315C319.724 274.926 320.028 275.631 320.164 276.377C320.299 277.123 320.263 277.89 320.058 278.619L320.058 278.62C319.859 279.332 319.502 279.989 319.011 280.541C318.521 281.093 317.911 281.527 317.228 281.808L252.356 308.765C251.28 309.212 250.081 309.263 248.971 308.909C247.862 308.555 246.914 307.818 246.297 306.83C230.786 281.331 219.269 253.608 212.146 224.623C211.881 223.489 212.028 222.297 212.56 221.261C213.092 220.225 213.974 219.411 215.05 218.964L279.922 192.007Z" fill="white"/>
<path d="M245.38 252.015L279.422 237.869C280.715 237.33 281.742 236.299 282.277 235.004C282.812 233.708 282.811 232.254 282.275 230.959L281.482 229.051C280.943 227.757 279.913 226.731 278.618 226.196C277.323 225.661 275.868 225.661 274.573 226.198L240.531 240.344C239.238 240.883 238.211 241.913 237.676 243.209C237.141 244.504 237.142 245.959 237.678 247.254L238.471 249.161C239.01 250.455 240.04 251.482 241.335 252.017C242.63 252.552 244.085 252.551 245.38 252.015Z" fill="#47E6B1"/>
<path d="M255.393 276.12L289.436 261.974C290.729 261.435 291.756 260.405 292.291 259.109C292.826 257.814 292.825 256.359 292.289 255.064L291.496 253.157C290.957 251.863 289.927 250.836 288.632 250.301C287.336 249.766 285.882 249.767 284.587 250.303L250.545 264.449C249.251 264.988 248.224 266.019 247.69 267.314C247.155 268.609 247.155 270.064 247.692 271.359L248.484 273.267C249.023 274.56 250.053 275.587 251.349 276.122C252.644 276.657 254.099 276.656 255.393 276.12Z" fill="#47E6B1"/>
<path d="M231.74 218.138C232.249 218.137 232.754 218.038 233.226 217.846L267.529 203.976C268.503 203.581 269.28 202.815 269.691 201.848C270.101 200.88 270.111 199.789 269.718 198.814L267.077 192.279C266.682 191.304 265.917 190.526 264.949 190.116C263.981 189.705 262.89 189.696 261.915 190.09L227.612 203.96C226.639 204.355 225.861 205.121 225.451 206.088C225.04 207.056 225.03 208.147 225.423 209.122L228.065 215.657C228.362 216.389 228.87 217.016 229.524 217.457C230.179 217.899 230.95 218.136 231.74 218.138Z" fill="#CCCCCC"/>
<path d="M303.785 426H427.119C427.353 426 427.577 425.908 427.742 425.742C427.907 425.577 428 425.353 428 425.119C428 424.886 427.907 424.662 427.742 424.496C427.577 424.331 427.353 424.238 427.119 424.238H303.785C303.551 424.238 303.327 424.331 303.162 424.496C302.997 424.662 302.904 424.886 302.904 425.119C302.904 425.353 302.997 425.577 303.162 425.742C303.327 425.908 303.551 426 303.785 426Z" fill="#CCCCCC"/>
</g>
<defs>
<clipPath id="clip0">
<rect width="428" height="426" fill="white" transform="matrix(-1 0 0 1 428 0)"/>
</clipPath>
</defs>
</svg>
