<svg width="556" height="389" viewBox="0 0 556 389" fill="none" xmlns="http://www.w3.org/2000/svg">
<g clip-path="url(#clip0)">
<path opacity="0.1" d="M236.539 14.9531C213.938 6.35844 190.055 -0.820861 165.674 0.0816789C129.826 1.40472 95.4145 21.5734 78.5625 51.188C64.2644 76.2797 62.5002 105.689 56.3409 133.535C48.7611 167.836 34.2168 200.446 18.6879 232.327C10.3491 249.455 1.54867 266.952 0.179372 285.725C-1.71815 311.791 11.6004 337.765 32.4886 355.103C53.3767 372.441 81.1164 381.59 108.959 383.584C123.775 384.646 139.258 383.661 152.417 377.21C166.341 370.385 176.49 358.052 190.47 351.324C203.425 345.088 218.579 344.216 233.123 345.026C252.113 346.084 270.859 349.813 288.808 356.103C309.137 363.241 328.041 373.585 348.298 380.825C368.555 388.066 391.244 392.107 411.973 386.066C431.461 380.39 446.846 366.605 460.719 352.647C483.402 329.864 504.193 305.272 522.885 279.115C535.404 261.572 547.056 243.065 552.589 222.619C563.175 183.528 548.61 139.427 516.306 112.73C489.54 90.6126 453.621 81.0129 418.46 75.1874C386.397 69.8747 349.324 69.5465 319.81 55.7007C291.665 42.4806 266.053 26.1836 236.539 14.9531Z" fill="#47E6B1"/>
<path d="M324.414 317.428V336.058H329.712L328.686 316.059L324.414 317.428Z" fill="#AAABB0"/>
<path d="M244.836 313.668V332.298H250.139L249.113 312.299L244.836 313.668Z" fill="#AAABB0"/>
<path d="M337.405 286.321C337.405 284.432 335.874 282.9 333.986 282.9C332.099 282.9 330.568 284.432 330.568 286.321V312.643C330.568 314.532 332.099 316.064 333.986 316.064C335.874 316.064 337.405 314.532 337.405 312.643V286.321Z" fill="#AAABB0"/>
<path d="M249.709 278.967C249.709 277.078 248.179 275.547 246.291 275.547C244.403 275.547 242.873 277.078 242.873 278.967V312.638C242.873 314.527 244.403 316.059 246.291 316.059C248.179 316.059 249.709 314.527 249.709 312.638V278.967Z" fill="#AAABB0"/>
<path d="M346.129 84.4436C346.129 84.4436 352.965 81.536 353.991 84.4436C355.017 87.3513 355.529 112.479 355.529 112.479H349.032L346.129 84.4436Z" fill="#AAABB0"/>
<path d="M271.253 84.4436C271.253 84.4436 264.412 81.536 263.386 84.4436C262.361 87.3513 261.848 112.479 261.848 112.479H268.345L271.253 84.4436Z" fill="#AAABB0"/>
<path d="M272.274 59.4855L271.248 80.3413H275.864V58.9727L272.274 59.4855Z" fill="#AAABB0"/>
<path d="M268.346 112.478L269.715 82.392C269.715 82.392 269.202 75.7256 285.439 77.7768C301.675 79.828 349.206 83.9305 349.206 83.9305V112.478H268.346Z" fill="#33323D"/>
<path d="M333.308 270.936L330.743 316.914C330.743 316.914 293.131 337.77 247.488 317.939L251.591 269.566L333.308 270.936Z" fill="#33323D"/>
<path d="M297.578 89.9108L298.429 119.654H351.427L348.35 80.3418L297.578 89.9108Z" fill="#444053"/>
<path d="M302.963 251.275H253.043V314.52H302.963V251.275Z" fill="#4C4981"/>
<path d="M284.587 277.089C284.587 277.089 291.767 271.448 292.962 273.156C294.157 274.864 288.695 282.217 286.47 281.361C284.244 280.505 284.587 277.089 284.587 277.089Z" fill="#FFB9B9"/>
<path d="M483.858 110.766H156.166V274.864H483.858V110.766Z" fill="#504F60"/>
<path d="M268.515 58.2911C268.515 58.2911 265.95 34.3584 268.515 31.4559C271.079 28.5534 314.158 1.02592 353.99 33.3328C353.99 33.3328 357.749 33.5071 357.067 42.0505C356.665 47.4577 356.693 52.8882 357.149 58.2911C357.149 58.2911 271.422 64.4448 268.515 58.2911Z" fill="#33323D"/>
<path opacity="0.1" d="M268.515 58.2911C268.515 58.2911 265.95 34.3584 268.515 31.4559C271.079 28.5534 314.158 1.02592 353.99 33.3328C353.99 33.3328 357.749 33.5071 357.067 42.0505C356.665 47.4577 356.693 52.8882 357.149 58.2911C357.149 58.2911 271.422 64.4448 268.515 58.2911Z" fill="black"/>
<path d="M268.515 61.3682C268.515 61.3682 265.95 37.4355 268.515 34.533C271.079 31.6305 314.158 4.10308 353.99 36.4099C353.99 36.4099 357.749 36.5843 357.067 45.1276C356.665 50.5348 356.693 55.9654 357.149 61.3682C357.149 61.3682 271.422 67.5219 268.515 61.3682Z" fill="#33323D"/>
<path d="M358.605 50.4297C358.605 50.4297 361.339 60.6858 360.488 62.3935C359.636 64.1011 359.79 68.8907 359.79 68.8907C359.79 68.8907 359.975 71.9676 358.605 72.306C357.236 72.6445 356.041 72.8188 357.149 73.8445C358.257 74.8701 357.149 76.4085 357.149 76.4085C357.149 76.4085 356.549 78.8033 357.149 80.3417C357.749 81.8801 353.641 82.5212 353.99 84.4442C354.339 86.3672 355.487 91.7927 353.99 91.9671C352.492 92.1414 354.503 98.8028 353.154 98.8028C351.805 98.8028 350.846 110.767 350.846 110.767C350.846 110.767 341.359 102.736 335.035 104.956C335.035 104.956 335.548 98.29 337.599 95.8952C339.651 93.5003 339.03 87.3518 339.03 87.3518L349.205 56.7526L358.605 50.4297Z" fill="#4C4981"/>
<path d="M307.835 191.853C305.614 194.309 303.22 181.191 303.22 181.191C303.22 181.191 296.896 189.909 292.793 184.099C289.952 180.073 292.193 168.669 293.819 162.048C294.547 159.105 295.163 157.105 295.163 157.105L304.394 155.566C304.394 155.566 304.425 157.577 304.63 160.018C304.907 163.315 305.507 167.407 306.784 168.387C309.035 170.084 310.061 189.376 307.835 191.853Z" fill="#AE6E79"/>
<path opacity="0.1" d="M303.051 38.2907C303.051 38.2907 286.978 38.1215 283.05 46.6648C279.121 55.2082 278.947 58.1209 277.408 59.485C275.87 60.8491 294.158 68.0335 294.158 68.0335L295.014 97.4327C295.014 97.4327 298.604 93.7969 304.415 95.443C310.225 97.0891 317.579 95.443 317.579 95.443C317.579 95.443 317.236 94.8225 322.026 95.443C326.816 96.0635 342.027 88.033 342.027 88.033C342.027 88.033 342.278 75.1718 341.939 72.4334C341.601 69.695 352.791 49.5724 352.791 49.5724C352.791 49.5724 361.51 41.1983 352.453 38.2907C352.453 38.2907 349.248 33.46 341.001 33.5062C332.754 33.5523 303.051 38.2907 303.051 38.2907Z" fill="black"/>
<path d="M303.051 37.778C303.051 37.778 286.978 37.6088 283.05 46.1521C279.121 54.6955 278.947 57.6082 277.408 58.9723C275.87 60.3364 294.158 67.5208 294.158 67.5208L295.014 96.92C295.014 96.92 298.604 93.2842 304.415 94.9303C310.225 96.5764 317.579 94.9303 317.579 94.9303C317.579 94.9303 317.236 94.3098 322.026 94.9303C326.816 95.5508 342.027 87.5203 342.027 87.5203C342.027 87.5203 348.006 77.7769 347.668 75.0437C347.329 72.3104 359.633 51.6238 359.633 51.6238C359.633 51.6238 361.515 40.6856 352.453 37.778C352.453 37.778 349.247 32.9473 341.001 32.9935C332.754 33.0396 303.051 37.778 303.051 37.778Z" fill="#4C4981"/>
<path opacity="0.1" d="M304.67 160.001C301.147 158.904 295.618 161.324 293.859 162.052C294.588 159.109 295.203 157.109 295.203 157.109L304.434 155.57C304.434 155.57 304.45 157.581 304.67 160.001Z" fill="black"/>
<path d="M282.361 58.9727H277.407C277.407 58.9727 276.381 69.4031 277.407 72.48C278.433 75.5568 278.946 75.1107 278.602 77.3875C278.258 79.6644 280.997 83.1515 280.997 83.1515C280.997 83.1515 281.335 91.7461 283.048 94.9461C284.761 98.146 281.166 112.494 281.166 112.494C282.147 114.971 283.597 117.235 285.438 119.161C288.346 122.063 289.885 132.832 289.028 136.935C288.172 141.037 291.423 142.576 291.423 142.576C291.423 142.576 292.792 161.724 293.305 161.724C293.818 161.724 303.731 156.596 306.808 161.037L304.413 143.432L304.588 109.417C304.588 109.417 301.336 105.141 303.049 101.382C304.762 97.6229 301.68 88.7308 301.68 88.7308L297.234 68.9057L282.361 58.9727Z" fill="#4C4981"/>
<path d="M251.591 329.223C251.591 329.223 244.411 327.684 244.242 329.223C244.073 330.761 235.693 346.489 246.124 351.104C256.555 355.72 284.413 365.632 329.718 352.812C329.718 352.812 332.62 353.838 331.938 347.515C331.256 341.192 331.256 334.182 331.256 334.182C331.256 334.182 324.415 332.3 319.286 332.987C314.158 333.674 269.54 342.73 251.591 329.223Z" fill="#33323D"/>
<path opacity="0.1" d="M251.591 329.223C251.591 329.223 244.411 327.684 244.242 329.223C244.073 330.761 235.693 346.489 246.124 351.104C256.555 355.72 284.413 365.632 329.718 352.812C329.718 352.812 332.62 353.838 331.938 347.515C331.256 341.192 331.256 334.182 331.256 334.182C331.256 334.182 324.415 332.3 319.286 332.987C314.158 333.674 269.54 342.73 251.591 329.223Z" fill="black"/>
<path d="M251.591 327.172C251.591 327.172 244.411 325.634 244.242 327.172C244.073 328.71 235.693 344.438 246.124 349.054C256.555 353.669 284.413 363.581 329.718 350.761C329.718 350.761 332.62 351.787 331.938 345.464C331.256 339.141 331.256 332.131 331.256 332.131C331.256 332.131 324.415 330.249 319.286 330.936C314.158 331.623 269.54 340.679 251.591 327.172Z" fill="#33323D"/>
<path d="M293.46 65.1164C293.019 67.6241 292.019 70.0343 291.865 72.5726C291.711 75.111 292.691 77.9981 295.035 78.993C295.688 79.1884 296.322 79.4459 296.927 79.7622C297.83 80.3724 298.199 81.5211 298.389 82.598C298.64 83.9883 298.701 85.4066 298.568 86.8133C298.44 88.2286 298.137 89.7517 298.835 90.9875C300.06 93.1772 303.255 92.8542 305.686 92.2388L304.85 98.7155C304.784 99.2284 304.743 99.8078 305.117 100.157C305.294 100.281 305.494 100.369 305.705 100.415C305.917 100.461 306.135 100.463 306.348 100.423C308.461 100.29 310.635 99.9976 312.446 98.8848C314.256 97.772 315.605 95.7002 315.261 93.6131C314.861 91.1927 312.358 89.2696 312.697 86.8389C312.958 84.9569 314.8 83.7621 316.01 82.316C318.2 79.6699 318.318 75.6495 316.6 72.6547C314.882 69.6599 311.564 67.8035 308.148 67.4651C306.256 67.2754 304.286 67.5061 302.507 66.8497C301.888 66.6226 301.329 66.2554 300.876 65.7768C300.422 65.2982 300.085 64.7212 299.891 64.0908" fill="#444053"/>
<path d="M233.816 293.157L235.606 289.26C235.606 289.26 245.268 280.26 247.489 279.629C249.709 278.999 258.771 276.25 260.141 276.25C261.51 276.25 286.47 274.881 286.47 274.881L289.373 281.722L258.048 288.598L247.489 296.291L233.816 293.157Z" fill="#767D9F"/>
<path d="M309.076 188.199L307.44 200.788L306.809 205.634L299.46 206.66C299.46 206.66 298.665 204.957 297.542 202.342C294.132 194.404 287.711 178.035 291.434 175.209C296.383 171.445 297.588 183.927 297.588 183.927L303.23 181.189L309.076 188.199Z" fill="#FFB9B9"/>
<path d="M307.851 211.621H270.736V267.686H307.851V211.621Z" fill="white"/>
<path opacity="0.1" d="M307.851 211.621H270.736V267.686H307.851V211.621Z" fill="black"/>
<path d="M324.532 214.654L287.816 209.227L279.616 264.689L316.331 270.117L324.532 214.654Z" fill="white"/>
<path d="M310.17 217.311L291.271 214.518L287.051 243.063L305.949 245.857L310.17 217.311Z" fill="#47E6B1"/>
<path d="M307.921 254.57L285.025 251.186L284.109 257.385L307.005 260.769L307.921 254.57Z" fill="#47E6B1"/>
<path opacity="0.1" d="M317.579 70.1671C329.427 70.1671 339.032 60.5632 339.032 48.7163C339.032 36.8694 329.427 27.2656 317.579 27.2656C305.731 27.2656 296.127 36.8694 296.127 48.7163C296.127 60.5632 305.731 70.1671 317.579 70.1671Z" fill="black"/>
<path d="M317.579 69.6544C329.427 69.6544 339.032 60.0506 339.032 48.2036C339.032 36.3567 329.427 26.7529 317.579 26.7529C305.731 26.7529 296.127 36.3567 296.127 48.2036C296.127 60.0506 305.731 69.6544 317.579 69.6544Z" fill="#AE6E79"/>
<path d="M299.892 64.1005C299.746 63.548 299.798 62.9618 300.04 62.4441C300.856 60.7467 303.179 60.598 305.061 60.6852C309.487 60.8903 314.343 60.9159 317.805 58.1211C319.241 56.9724 320.846 54.0853 322.934 54.634C324.79 55.1212 325.565 57.6391 327.498 58.198C328.898 58.6032 330.349 57.957 331.775 57.6852C333.826 57.2801 335.929 57.6186 338.011 57.634C340.093 57.6493 342.355 57.2545 343.776 55.7314C345.694 53.6802 345.381 50.4752 345.212 47.665C345.001 44.035 345.248 40.3929 345.945 36.8243C346.642 33.2756 347.714 29.3065 345.755 26.2656C343.888 23.3682 340.022 22.5733 337.38 20.3529C334.909 18.3017 333.601 15.0146 330.99 13.1121C327.703 10.7172 323.236 11.0608 319.195 11.4762L310.425 12.4095C308.164 12.6505 305.81 12.9223 303.948 14.271C300.589 16.7017 300.127 21.7529 296.948 24.4143C295.532 25.5938 293.722 26.1784 292.107 27.0604C290.491 27.9424 288.932 29.3373 288.747 31.1629C288.594 32.7013 289.424 34.1218 289.83 35.6038C290.789 39.1421 289.291 42.7831 288.332 46.3471C287.373 49.9111 287.188 54.2392 289.973 56.6032C290.537 57.0853 291.194 57.4545 291.742 57.957C293.625 59.6749 293.881 62.5723 293.445 65.0748" fill="#444053"/>
<path d="M319.327 74.9976C319.611 74.9976 319.84 74.4236 319.84 73.7156C319.84 73.0076 319.611 72.4336 319.327 72.4336C319.044 72.4336 318.814 73.0076 318.814 73.7156C318.814 74.4236 319.044 74.9976 319.327 74.9976Z" fill="#444053"/>
<path d="M319.327 80.3414C319.611 80.3414 319.84 79.7674 319.84 79.0594C319.84 78.3513 319.611 77.7773 319.327 77.7773C319.044 77.7773 318.814 78.3513 318.814 79.0594C318.814 79.7674 319.044 80.3414 319.327 80.3414Z" fill="#444053"/>
<path d="M307.953 191.815C308.502 191.184 308.866 189.563 309.076 187.425L302.963 179.805C302.963 179.805 305.553 194.579 307.953 191.815Z" fill="#AE6E79"/>
<path opacity="0.1" d="M314.846 317.771C314.846 317.771 304.815 333.279 273.475 331.617C243.95 330.079 229.539 315.551 230.227 310.423C230.914 305.295 228.344 292.813 234.668 289.224C238.335 287.147 243.161 288.377 246.566 289.782C247.742 290.26 249.03 290.395 250.28 290.171C251.53 289.946 252.691 289.373 253.628 288.516C256.741 285.711 262.546 282.552 271.711 285.039C272.89 285.354 274.134 285.33 275.3 284.972C279.116 283.808 288.198 281.788 294.789 286.275C295.83 286.993 297.054 287.399 298.318 287.448C299.583 287.496 300.834 287.183 301.927 286.547L302.02 286.49C305.097 284.608 319.456 302.387 319.456 302.387C319.456 302.387 320.144 316.064 314.846 317.771Z" fill="black"/>
<path d="M314.846 318.283C314.846 318.283 304.815 333.79 273.475 332.129C243.95 330.591 229.539 316.063 230.227 310.935C230.914 305.807 228.344 293.325 234.668 289.735C238.335 287.658 243.161 288.889 246.566 290.294C247.742 290.772 249.03 290.907 250.28 290.682C251.53 290.458 252.691 289.884 253.628 289.028C256.741 286.222 262.546 283.064 271.711 285.551C272.89 285.865 274.134 285.842 275.3 285.484C279.116 284.32 288.198 282.3 294.789 286.787C295.83 287.504 297.054 287.911 298.318 287.959C299.583 288.007 300.834 287.695 301.927 287.058L302.02 287.002C305.097 285.12 319.456 302.899 319.456 302.899C319.456 302.899 320.144 316.576 314.846 318.283Z" fill="#767D9F"/>
<path opacity="0.1" d="M273.475 324.355C284.759 324.355 293.906 315.208 293.906 303.924C293.906 292.641 284.759 283.494 273.475 283.494C262.191 283.494 253.043 292.641 253.043 303.924C253.043 315.208 262.191 324.355 273.475 324.355Z" fill="black"/>
<path d="M273.475 324.868C284.759 324.868 293.906 315.721 293.906 304.438C293.906 293.155 284.759 284.008 273.475 284.008C262.191 284.008 253.043 293.155 253.043 304.438C253.043 315.721 262.191 324.868 273.475 324.868Z" fill="#FFB9B9"/>
<path d="M267.617 286.777C265.473 287.356 263.36 288.464 262.314 290.285C261.683 291.382 261.463 292.7 260.55 293.613C259.258 294.91 257.078 294.936 255.329 295.664C253.581 296.392 252.427 298.956 254.14 299.766C252.355 299.859 251.032 301.505 250.811 303.141C250.591 304.776 251.211 306.407 251.811 307.966C253.77 313.012 255.878 318.279 260.196 321.868C267.232 327.725 277.838 327.453 287.29 326.832C288.062 326.858 288.828 326.681 289.51 326.32C290.536 325.643 290.664 324.345 290.834 323.207C291.546 318.345 294.182 313.93 295.906 309.289C297.629 304.648 298.336 299.197 295.434 295.09C291.162 288.997 274.807 284.828 267.617 286.777Z" fill="#B96B6B"/>
<path opacity="0.1" d="M307.439 200.79L306.808 205.636L299.459 206.661C299.459 206.661 298.664 204.959 297.541 202.344L307.321 200.508L307.439 200.79Z" fill="black"/>
<path d="M315.184 307.858L319.461 302.899L318.605 275.551C319.026 273.578 319.312 271.578 319.461 269.566C319.631 266.659 317.323 260.167 317.323 260.167C317.681 258.867 318.167 257.606 318.774 256.403C319.8 254.351 317.328 249.736 317.328 249.736C317.328 249.736 313.646 237.772 315.184 231.788C316.723 225.803 314.81 222.388 314.81 222.388C314.81 222.388 313.307 215.722 313.476 212.988C313.646 210.255 310.056 207.686 310.056 207.686L307.322 201.02L296.383 203.071V226.147C296.383 226.147 297.065 248.198 296.383 252.475C295.701 256.751 297.747 260.849 297.747 260.849C297.747 260.849 296.553 267.172 297.578 269.566C298.604 271.961 300.655 277.771 300.655 277.771C300.275 279.848 300.392 281.985 300.999 284.007C302.025 287.002 300.999 288.71 300.999 288.71L315.184 307.858Z" fill="#767D9F"/>
<g opacity="0.1">
<path opacity="0.1" d="M345.96 35.1369C345.381 38.1387 345.122 41.1932 345.185 44.2495C345.229 41.7082 345.495 39.1755 345.98 36.6805C346.431 34.4036 347.006 31.9524 346.883 29.6807C346.694 31.5175 346.385 33.3401 345.96 35.1369Z" fill="black"/>
<path opacity="0.1" d="M291.757 56.3063C291.209 55.7935 290.552 55.4346 289.988 54.9474C288.491 53.6705 287.86 51.8193 287.737 49.8193C287.588 52.3834 288.111 54.8654 289.988 56.4858C290.552 56.973 291.209 57.3422 291.757 57.8448C292.905 58.9798 293.57 60.5136 293.614 62.1267C293.763 59.9729 293.327 57.7319 291.757 56.3063Z" fill="black"/>
<path opacity="0.1" d="M290.121 37.1574C290.21 36.0743 290.117 34.9838 289.844 33.9319C289.546 32.8345 289.013 31.7627 288.818 30.6602C288.818 30.7781 288.777 30.9012 288.762 31.0294C288.613 32.5678 289.444 33.9883 289.844 35.4703C289.991 36.0222 290.084 36.5873 290.121 37.1574Z" fill="black"/>
<path opacity="0.1" d="M343.791 54.044C342.37 55.5824 340.108 55.9619 338.026 55.9465C335.944 55.9311 333.836 55.5926 331.79 56.0029C330.364 56.29 328.913 56.9311 327.513 56.5157C325.579 55.9567 324.805 53.4388 322.954 52.9517C320.846 52.3978 319.241 55.2849 317.825 56.4336C314.364 59.2028 309.507 59.1772 305.081 58.9977C303.199 58.9105 300.876 59.0592 300.065 60.7617C299.818 61.278 299.765 61.8661 299.917 62.4181L293.65 63.4027C293.626 63.9186 293.569 64.4324 293.48 64.9411L299.917 63.9155C299.765 63.3635 299.818 62.7754 300.065 62.2591C300.876 60.5566 303.199 60.4079 305.081 60.4951C309.507 60.7002 314.364 60.7258 317.825 57.931C319.261 56.7823 320.866 53.8952 322.954 54.4491C324.805 54.9311 325.579 57.4541 327.513 58.0131C328.913 58.4131 330.364 57.7721 331.79 57.5003C333.841 57.09 335.944 57.4285 338.026 57.4439C340.108 57.4592 342.37 57.0644 343.791 55.5414C345.211 54.0183 345.416 51.7466 345.329 49.5312C345.268 51.2492 344.914 52.8389 343.791 54.044Z" fill="black"/>
</g>
<g opacity="0.1">
<path opacity="0.1" d="M296.317 78.6765C295.713 78.3585 295.079 78.1008 294.424 77.9073C293.311 77.4016 292.428 76.498 291.947 75.374C292.332 77.1432 293.306 78.7534 294.937 79.4457C295.592 79.6392 296.226 79.8969 296.83 80.2149C297.216 80.4877 297.528 80.8526 297.737 81.2764C297.532 80.2713 297.158 79.2457 296.317 78.6765Z" fill="black"/>
<path opacity="0.1" d="M305.075 91.1528C302.711 91.7528 299.624 92.0656 298.326 90.0605C298.367 90.5437 298.506 91.0133 298.736 91.44C299.844 93.4143 302.552 93.3476 304.855 92.8605L305.075 91.1528Z" fill="black"/>
<path opacity="0.1" d="M314.655 92.5586C314.983 94.6406 313.629 96.7175 311.834 97.8097C310.04 98.902 307.85 99.2046 305.737 99.3482C305.401 99.3916 305.059 99.3529 304.742 99.2354C304.646 99.4521 304.614 99.6923 304.652 99.9265C304.691 100.161 304.796 100.379 304.956 100.554C305.116 100.729 305.323 100.854 305.553 100.913C305.783 100.972 306.025 100.963 306.25 100.887C308.363 100.753 310.537 100.461 312.347 99.3482C314.158 98.2354 315.512 96.1636 315.163 94.0765C315.064 93.5496 314.894 93.0387 314.655 92.5586Z" fill="black"/>
<path opacity="0.1" d="M316.934 73.9941C317.247 75.2409 317.271 76.5428 317.004 77.8003C316.738 79.0578 316.187 80.2379 315.395 81.2504C314.185 82.717 312.344 83.8913 312.082 85.7733C311.995 86.6386 312.174 87.5098 312.595 88.2707C312.549 87.9527 312.549 87.6297 312.595 87.3117C312.857 85.4297 314.698 84.2349 315.908 82.7888C317.898 80.3837 318.175 76.8402 316.934 73.9941Z" fill="black"/>
</g>
<g opacity="0.1">
<path opacity="0.1" d="M255.336 296.453C257.079 295.73 259.259 295.705 260.557 294.402C261.469 293.489 261.69 292.171 262.321 291.079C263.346 289.254 265.475 288.151 267.618 287.572C274.798 285.623 291.168 289.787 295.435 295.823C296.686 297.649 297.367 299.804 297.394 302.017C297.558 299.462 296.871 296.925 295.44 294.802C291.173 288.766 274.819 284.602 267.624 286.551C265.48 287.131 263.367 288.233 262.326 290.059C261.695 291.151 261.475 292.469 260.562 293.382C259.264 294.679 257.085 294.705 255.341 295.433C254.013 295.982 253.028 297.602 253.387 298.689C253.53 298.197 253.779 297.743 254.115 297.357C254.452 296.97 254.868 296.662 255.336 296.453Z" fill="black"/>
<path opacity="0.1" d="M250.823 303.904C251.038 302.263 252.361 300.622 254.151 300.529C253.963 300.451 253.795 300.331 253.659 300.18C253.523 300.028 253.423 299.848 253.366 299.652C252.686 299.905 252.087 300.339 251.635 300.908C251.183 301.476 250.895 302.158 250.802 302.878C250.753 303.295 250.753 303.717 250.802 304.134C250.823 304.057 250.823 303.98 250.823 303.904Z" fill="black"/>
</g>
<path d="M359.458 118.068H312.789V178.923H359.458V118.068Z" fill="white"/>
<path opacity="0.1" d="M359.458 118.068H312.789V178.923H359.458V118.068Z" fill="black"/>
<path d="M377.288 121.638L331.295 129.549L341.612 189.523L387.605 181.612L377.288 121.638Z" fill="white"/>
<path d="M353.247 168.575L342.441 170.434L344.865 184.524L355.671 182.665L353.247 168.575Z" fill="#47E6B1"/>
<path d="M368.2 166.001L357.395 167.859L359.818 181.95L370.624 180.091L368.2 166.001Z" fill="#47E6B1"/>
<path d="M378.767 145.358L340.871 151.865L343.302 166.019L381.198 159.512L378.767 145.358Z" fill="#47E6B1"/>
<path d="M375.609 128.464L337.713 134.971L338.255 138.128L376.151 131.622L375.609 128.464Z" fill="#47E6B1"/>
<path d="M376.853 134.272L338.957 140.779L339.499 143.937L377.395 137.43L376.853 134.272Z" fill="#47E6B1"/>
<path d="M339.031 101.535C339.031 101.535 317.579 123.073 328.349 128.545C339.119 134.016 346.129 110.34 346.129 110.34L347.832 104.956L339.031 101.535Z" fill="#AE6E79"/>
<path opacity="0.1" d="M337.153 99.6325L334.502 105.489C334.502 105.489 347.579 107.325 350.313 111.278L348.692 100.945L346.769 96.5352L337.153 99.6325Z" fill="black"/>
<path d="M337.667 99.1208L335.016 104.977C335.016 104.977 348.093 106.813 350.827 110.767L349.206 100.434L347.283 96.0234L337.667 99.1208Z" fill="#4C4981"/>
<path d="M416.829 206.795L416.547 206.99L416.937 207.164L417.357 207.128L417.408 206.836L416.829 206.795Z" fill="#464A5F"/>
<path opacity="0.1" d="M416.829 206.795L416.547 206.99L416.937 207.164L417.357 207.128L417.408 206.836L416.829 206.795Z" fill="black"/>
<path d="M416.829 206.795L416.542 206.979L416.316 206.702L416.455 206.477L416.583 206.436L416.829 206.795Z" fill="#9C9CA1"/>
<path opacity="0.1" d="M416.829 206.795L416.542 206.979L416.316 206.702L416.455 206.477L416.583 206.436L416.829 206.795Z" fill="black"/>
<path d="M467.309 171.354L446.313 141.032C446.127 140.762 445.889 140.53 445.614 140.352C445.338 140.173 445.03 140.05 444.707 139.991C444.384 139.931 444.053 139.936 443.732 140.005C443.411 140.073 443.106 140.205 442.836 140.391L396.034 172.513C395.486 172.889 395.11 173.467 394.988 174.12C394.866 174.773 395.008 175.447 395.382 175.995L416.322 206.702L467.309 171.354Z" fill="#9C9CA1"/>
<path opacity="0.1" d="M467.309 171.354L446.313 141.032C446.127 140.762 445.889 140.53 445.614 140.352C445.338 140.173 445.03 140.05 444.707 139.991C444.384 139.931 444.053 139.936 443.732 140.005C443.411 140.073 443.106 140.205 442.836 140.391L396.034 172.513C395.486 172.889 395.11 173.467 394.988 174.12C394.866 174.773 395.008 175.447 395.382 175.995L416.322 206.702L467.309 171.354Z" fill="black"/>
<path d="M467.822 171.427L446.826 141.105C446.64 140.834 446.402 140.603 446.126 140.424C445.85 140.245 445.541 140.122 445.218 140.063C444.895 140.003 444.563 140.008 444.241 140.077C443.919 140.146 443.615 140.277 443.344 140.464L396.547 172.607C396 172.983 395.624 173.56 395.501 174.212C395.378 174.865 395.518 175.539 395.891 176.089L416.83 206.811L467.822 171.427Z" fill="#9C9CA1"/>
<path d="M485.371 177.42L467.935 171.82L416.938 207.168L434.651 212.963C435.048 213.092 435.469 213.126 435.881 213.064C436.293 213.002 436.685 212.844 437.026 212.604L485.515 178.369C485.606 178.318 485.679 178.24 485.725 178.147C485.771 178.053 485.787 177.948 485.771 177.845C485.756 177.742 485.709 177.646 485.638 177.57C485.566 177.494 485.473 177.442 485.371 177.42Z" fill="#464A5F"/>
<path opacity="0.1" d="M485.371 177.42L467.935 171.82L416.938 207.168L434.651 212.963C435.048 213.092 435.469 213.126 435.881 213.064C436.293 213.002 436.685 212.844 437.026 212.604L485.515 178.369C485.606 178.318 485.679 178.24 485.725 178.147C485.771 178.053 485.787 177.948 485.771 177.845C485.756 177.742 485.709 177.646 485.638 177.57C485.566 177.494 485.473 177.442 485.371 177.42Z" fill="black"/>
<path d="M485.264 177.068L467.827 171.463L416.83 206.811L434.544 212.595C434.94 212.726 435.361 212.763 435.773 212.701C436.186 212.64 436.578 212.482 436.918 212.241L485.408 178.006C485.495 177.954 485.565 177.877 485.608 177.785C485.651 177.693 485.666 177.59 485.651 177.489C485.636 177.388 485.591 177.294 485.522 177.219C485.453 177.144 485.363 177.092 485.264 177.068Z" fill="#464A5F"/>
<g opacity="0.1">
<path opacity="0.1" d="M459.586 170.07L458.298 168.224C458.221 168.117 458.105 168.044 457.975 168.02C457.845 167.996 457.711 168.023 457.601 168.096L455.688 169.373C455.581 169.449 455.506 169.563 455.481 169.691C455.455 169.82 455.48 169.954 455.55 170.065L456.734 171.886C456.808 171.995 456.922 172.071 457.051 172.099C457.18 172.126 457.314 172.103 457.427 172.034L459.442 170.768C459.552 170.693 459.628 170.578 459.655 170.448C459.681 170.318 459.657 170.183 459.586 170.07Z" fill="black"/>
<path opacity="0.1" d="M456.15 172.45L454.857 170.609C454.78 170.502 454.664 170.429 454.534 170.405C454.404 170.381 454.27 170.408 454.16 170.481L452.252 171.768C452.144 171.843 452.069 171.957 452.042 172.085C452.015 172.214 452.039 172.348 452.109 172.46L453.293 174.281C453.367 174.391 453.479 174.468 453.608 174.497C453.737 174.525 453.873 174.503 453.986 174.435L456.006 173.168C456.063 173.131 456.112 173.082 456.15 173.026C456.189 172.969 456.215 172.906 456.229 172.839C456.242 172.772 456.242 172.703 456.228 172.637C456.215 172.57 456.188 172.506 456.15 172.45Z" fill="black"/>
<path opacity="0.1" d="M452.54 174.948L451.248 173.107C451.171 173 451.055 172.927 450.925 172.903C450.795 172.879 450.661 172.906 450.55 172.979L448.638 174.266C448.529 174.342 448.454 174.457 448.428 174.587C448.402 174.717 448.428 174.852 448.499 174.963L449.684 176.784C449.758 176.893 449.871 176.969 450 176.997C450.129 177.025 450.264 177.002 450.376 176.933L452.392 175.666C452.449 175.629 452.499 175.581 452.537 175.525C452.576 175.469 452.603 175.405 452.617 175.338C452.631 175.271 452.631 175.202 452.618 175.135C452.605 175.068 452.578 175.005 452.54 174.948Z" fill="black"/>
<path opacity="0.1" d="M448.882 177.48L447.59 175.634C447.513 175.528 447.398 175.456 447.269 175.432C447.141 175.409 447.008 175.435 446.898 175.506L444.985 176.798C444.878 176.874 444.803 176.988 444.778 177.117C444.752 177.245 444.776 177.379 444.846 177.49L446.031 179.311C446.104 179.419 446.216 179.496 446.344 179.524C446.472 179.553 446.606 179.532 446.718 179.465L448.739 178.193C448.795 178.156 448.844 178.108 448.881 178.052C448.919 177.996 448.945 177.933 448.959 177.866C448.972 177.8 448.972 177.732 448.959 177.666C448.946 177.599 448.92 177.536 448.882 177.48Z" fill="black"/>
<path opacity="0.1" d="M445.232 180.009L443.939 178.168C443.862 178.061 443.746 177.987 443.616 177.964C443.487 177.94 443.352 177.967 443.242 178.039L441.334 179.327C441.226 179.401 441.151 179.515 441.124 179.644C441.097 179.773 441.121 179.907 441.191 180.019L442.375 181.839C442.449 181.949 442.562 182.027 442.691 182.055C442.82 182.084 442.955 182.062 443.068 181.993L445.088 180.721C445.145 180.684 445.193 180.636 445.231 180.58C445.269 180.524 445.295 180.461 445.308 180.395C445.322 180.329 445.322 180.26 445.309 180.194C445.295 180.128 445.269 180.065 445.232 180.009Z" fill="black"/>
<path opacity="0.1" d="M441.739 182.769L440.133 180.481C440.116 180.456 440.095 180.434 440.069 180.417C440.043 180.4 440.015 180.389 439.985 180.383C439.955 180.377 439.924 180.378 439.894 180.384C439.864 180.39 439.836 180.402 439.81 180.42L437.462 182.004C437.436 182.021 437.413 182.043 437.396 182.068C437.379 182.093 437.366 182.122 437.36 182.152C437.354 182.182 437.354 182.213 437.36 182.243C437.366 182.273 437.378 182.302 437.395 182.327L438.867 184.589C438.9 184.641 438.953 184.678 439.014 184.691C439.074 184.704 439.137 184.694 439.19 184.661L441.672 183.122C441.702 183.105 441.728 183.082 441.747 183.054C441.767 183.026 441.781 182.995 441.787 182.961C441.794 182.927 441.793 182.893 441.784 182.859C441.776 182.826 441.76 182.795 441.739 182.769Z" fill="black"/>
<path opacity="0.1" d="M438.086 185.296L436.471 183.009C436.453 182.984 436.431 182.962 436.405 182.945C436.379 182.928 436.35 182.916 436.32 182.91C436.289 182.905 436.258 182.905 436.227 182.911C436.197 182.918 436.168 182.93 436.143 182.948L433.794 184.532C433.744 184.567 433.709 184.621 433.698 184.681C433.686 184.742 433.699 184.804 433.732 184.855L435.204 187.117C435.22 187.144 435.241 187.167 435.266 187.185C435.291 187.203 435.32 187.216 435.35 187.223C435.38 187.23 435.412 187.23 435.442 187.224C435.473 187.218 435.502 187.206 435.527 187.189L438.004 185.65C438.036 185.635 438.064 185.613 438.086 185.586C438.108 185.559 438.124 185.527 438.131 185.493C438.139 185.459 438.139 185.424 438.132 185.389C438.124 185.355 438.108 185.323 438.086 185.296Z" fill="black"/>
<path opacity="0.1" d="M434.852 187.538L433.247 185.271C433.211 185.221 433.157 185.188 433.097 185.177C433.037 185.167 432.975 185.18 432.924 185.214L430.575 186.794C430.524 186.829 430.488 186.883 430.476 186.945C430.463 187.006 430.475 187.069 430.509 187.122L431.98 189.384C432.015 189.435 432.068 189.47 432.128 189.484C432.188 189.497 432.251 189.487 432.303 189.455L434.786 187.917C434.82 187.901 434.85 187.877 434.872 187.847C434.895 187.817 434.911 187.782 434.917 187.745C434.924 187.707 434.921 187.669 434.91 187.633C434.899 187.597 434.879 187.564 434.852 187.538Z" fill="black"/>
<path opacity="0.1" d="M431.231 190.04L429.626 187.753C429.59 187.704 429.536 187.67 429.476 187.66C429.416 187.649 429.354 187.663 429.303 187.697L426.954 189.276C426.928 189.293 426.906 189.315 426.888 189.341C426.871 189.367 426.859 189.396 426.852 189.427C426.846 189.457 426.846 189.488 426.852 189.519C426.858 189.55 426.87 189.579 426.887 189.605L428.359 191.866C428.394 191.917 428.446 191.953 428.507 191.966C428.567 191.979 428.63 191.969 428.682 191.938L431.165 190.399C431.194 190.382 431.22 190.358 431.24 190.33C431.26 190.302 431.274 190.269 431.28 190.235C431.286 190.201 431.285 190.166 431.277 190.132C431.268 190.099 431.253 190.067 431.231 190.04Z" fill="black"/>
<path opacity="0.1" d="M427.723 192.45L426.118 190.163C426.101 190.138 426.079 190.116 426.053 190.099C426.028 190.082 425.999 190.07 425.969 190.065C425.939 190.059 425.908 190.059 425.878 190.066C425.848 190.072 425.82 190.084 425.795 190.102L423.446 191.686C423.42 191.703 423.398 191.724 423.38 191.75C423.363 191.775 423.351 191.804 423.345 191.834C423.338 191.864 423.338 191.895 423.344 191.925C423.35 191.955 423.362 191.984 423.379 192.009L424.851 194.271C424.885 194.323 424.937 194.359 424.998 194.373C425.058 194.386 425.122 194.375 425.174 194.342L427.656 192.804C427.686 192.787 427.712 192.764 427.732 192.736C427.752 192.708 427.765 192.676 427.772 192.643C427.778 192.609 427.777 192.574 427.769 192.541C427.76 192.508 427.745 192.477 427.723 192.45Z" fill="black"/>
<path opacity="0.1" d="M424.214 194.901L422.624 192.609C422.588 192.559 422.534 192.526 422.474 192.515C422.414 192.505 422.352 192.518 422.301 192.552L419.952 194.132C419.926 194.149 419.904 194.171 419.886 194.197C419.869 194.223 419.857 194.252 419.85 194.282C419.844 194.313 419.844 194.344 419.85 194.375C419.856 194.405 419.868 194.434 419.885 194.46L421.357 196.721C421.392 196.772 421.445 196.808 421.505 196.822C421.565 196.835 421.628 196.825 421.68 196.793L424.163 195.255C424.191 195.237 424.216 195.212 424.234 195.184C424.252 195.155 424.265 195.123 424.269 195.09C424.274 195.056 424.272 195.022 424.262 194.989C424.253 194.957 424.236 194.927 424.214 194.901Z" fill="black"/>
<path opacity="0.1" d="M420.707 197.327L419.102 195.04C419.085 195.015 419.063 194.993 419.038 194.976C419.012 194.959 418.984 194.947 418.954 194.942C418.923 194.936 418.893 194.936 418.863 194.942C418.833 194.949 418.804 194.961 418.779 194.978L416.43 196.553C416.404 196.569 416.382 196.591 416.365 196.616C416.347 196.642 416.335 196.67 416.329 196.7C416.323 196.73 416.323 196.761 416.329 196.792C416.335 196.822 416.346 196.85 416.364 196.876L417.835 199.137C417.869 199.189 417.922 199.226 417.982 199.239C418.043 199.253 418.106 199.242 418.159 199.209L420.641 197.671C420.669 197.654 420.693 197.631 420.712 197.604C420.731 197.577 420.744 197.546 420.75 197.514C420.757 197.481 420.756 197.448 420.749 197.416C420.741 197.384 420.727 197.353 420.707 197.327Z" fill="black"/>
<path opacity="0.1" d="M457.277 166.732L455.985 164.886C455.907 164.779 455.792 164.706 455.662 164.682C455.532 164.658 455.397 164.686 455.287 164.758L453.395 166.05C453.287 166.125 453.211 166.239 453.185 166.368C453.158 166.497 453.182 166.631 453.251 166.743L454.436 168.563C454.51 168.672 454.623 168.748 454.752 168.776C454.881 168.804 455.016 168.781 455.128 168.712L457.149 167.445C457.26 167.368 457.336 167.249 457.36 167.115C457.384 166.982 457.354 166.844 457.277 166.732Z" fill="black"/>
<path opacity="0.1" d="M452.226 159.436L450.933 157.579C450.856 157.474 450.742 157.402 450.613 157.378C450.484 157.354 450.351 157.38 450.241 157.451L448.328 158.738C448.22 158.813 448.145 158.927 448.118 159.056C448.091 159.185 448.115 159.319 448.185 159.431L449.369 161.251C449.443 161.361 449.556 161.438 449.685 161.467C449.814 161.496 449.949 161.473 450.062 161.405L452.082 160.138C452.193 160.063 452.27 159.948 452.297 159.816C452.324 159.685 452.298 159.548 452.226 159.436Z" fill="black"/>
<path opacity="0.1" d="M453.838 169.112L452.545 167.271C452.468 167.165 452.353 167.093 452.225 167.069C452.096 167.045 451.963 167.072 451.853 167.143L449.94 168.43C449.833 168.505 449.758 168.619 449.733 168.748C449.707 168.877 449.731 169.011 449.801 169.122L450.981 170.942C451.054 171.052 451.167 171.13 451.296 171.158C451.425 171.187 451.56 171.165 451.673 171.096L453.694 169.83C453.751 169.792 453.8 169.744 453.838 169.688C453.877 169.631 453.903 169.568 453.917 169.501C453.93 169.434 453.93 169.365 453.916 169.298C453.903 169.232 453.876 169.168 453.838 169.112Z" fill="black"/>
<path opacity="0.1" d="M450.226 171.61L448.934 169.769C448.856 169.662 448.741 169.589 448.611 169.565C448.481 169.541 448.347 169.568 448.236 169.641L446.329 170.913C446.219 170.988 446.143 171.102 446.116 171.232C446.089 171.363 446.114 171.498 446.185 171.61L447.37 173.431C447.444 173.54 447.557 173.616 447.686 173.644C447.815 173.671 447.95 173.648 448.062 173.579L450.083 172.313C450.194 172.238 450.271 172.122 450.298 171.991C450.324 171.859 450.299 171.723 450.226 171.61Z" fill="black"/>
<path opacity="0.1" d="M446.57 174.143L445.283 172.297C445.205 172.189 445.09 172.116 444.96 172.092C444.83 172.069 444.696 172.096 444.585 172.168L442.672 173.476C442.565 173.552 442.491 173.666 442.465 173.794C442.439 173.923 442.464 174.057 442.534 174.168L443.719 175.989C443.793 176.098 443.906 176.174 444.035 176.202C444.164 176.229 444.299 176.206 444.411 176.137L446.426 174.871C446.485 174.834 446.535 174.785 446.574 174.727C446.614 174.67 446.641 174.606 446.654 174.537C446.668 174.469 446.667 174.399 446.653 174.331C446.638 174.264 446.61 174.199 446.57 174.143Z" fill="black"/>
<path opacity="0.1" d="M448.867 161.932L447.574 160.091C447.497 159.985 447.382 159.913 447.253 159.889C447.125 159.866 446.992 159.892 446.882 159.963L444.969 161.25C444.861 161.325 444.785 161.439 444.759 161.568C444.732 161.696 444.756 161.831 444.825 161.942L446.01 163.763C446.083 163.873 446.196 163.95 446.325 163.979C446.454 164.007 446.589 163.985 446.702 163.917L448.723 162.65C448.78 162.613 448.829 162.564 448.867 162.508C448.906 162.452 448.932 162.388 448.946 162.321C448.959 162.254 448.959 162.186 448.945 162.119C448.932 162.052 448.905 161.988 448.867 161.932Z" fill="black"/>
<path opacity="0.1" d="M445.257 164.436L443.965 162.589C443.887 162.482 443.772 162.409 443.642 162.385C443.512 162.362 443.378 162.389 443.267 162.461L441.36 163.733C441.251 163.808 441.176 163.922 441.149 164.05C441.123 164.179 441.146 164.314 441.216 164.425L442.401 166.246C442.475 166.355 442.588 166.431 442.717 166.459C442.846 166.487 442.981 166.463 443.093 166.395L445.114 165.128C445.222 165.053 445.297 164.939 445.324 164.81C445.35 164.682 445.327 164.547 445.257 164.436Z" fill="black"/>
<path opacity="0.1" d="M441.599 166.963L440.307 165.122C440.23 165.015 440.116 164.942 439.987 164.917C439.859 164.893 439.725 164.918 439.615 164.989L437.702 166.296C437.594 166.372 437.52 166.486 437.494 166.615C437.469 166.744 437.493 166.877 437.563 166.989L438.748 168.809C438.821 168.919 438.934 168.996 439.063 169.025C439.192 169.054 439.327 169.031 439.44 168.963L441.456 167.691C441.514 167.654 441.565 167.605 441.604 167.548C441.643 167.49 441.67 167.426 441.683 167.358C441.697 167.29 441.696 167.22 441.682 167.152C441.667 167.084 441.639 167.02 441.599 166.963Z" fill="black"/>
<path opacity="0.1" d="M442.918 176.672L441.626 174.831C441.549 174.724 441.435 174.651 441.306 174.626C441.177 174.602 441.044 174.627 440.933 174.698L439.036 175.99C438.928 176.066 438.854 176.18 438.828 176.308C438.803 176.437 438.827 176.571 438.897 176.682L440.061 178.503C440.135 178.611 440.247 178.688 440.374 178.716C440.502 178.745 440.636 178.723 440.749 178.656L442.769 177.385C442.826 177.348 442.875 177.3 442.913 177.244C442.951 177.188 442.978 177.126 442.992 177.059C443.006 176.993 443.006 176.925 442.994 176.858C442.981 176.792 442.955 176.728 442.918 176.672Z" fill="black"/>
<path opacity="0.1" d="M439.267 179.198L437.975 177.357C437.897 177.25 437.781 177.177 437.652 177.153C437.522 177.129 437.387 177.156 437.277 177.229L435.369 178.516C435.261 178.591 435.186 178.705 435.159 178.833C435.132 178.962 435.156 179.097 435.226 179.208L436.41 181.029C436.484 181.139 436.597 181.216 436.726 181.245C436.855 181.273 436.99 181.251 437.103 181.183L439.123 179.916C439.18 179.879 439.23 179.83 439.268 179.774C439.306 179.717 439.332 179.654 439.346 179.587C439.359 179.52 439.359 179.451 439.346 179.385C439.332 179.318 439.305 179.254 439.267 179.198Z" fill="black"/>
<path opacity="0.1" d="M435.774 181.958L434.169 179.671C434.152 179.645 434.13 179.624 434.104 179.607C434.079 179.59 434.05 179.578 434.02 179.572C433.99 179.567 433.959 179.567 433.929 179.573C433.899 179.58 433.871 179.592 433.846 179.609L431.497 181.194C431.471 181.21 431.449 181.232 431.431 181.257C431.414 181.283 431.402 181.311 431.395 181.341C431.389 181.371 431.389 181.403 431.395 181.433C431.401 181.463 431.413 181.491 431.43 181.517L432.902 183.778C432.918 183.805 432.939 183.827 432.964 183.845C432.99 183.863 433.018 183.876 433.048 183.883C433.078 183.889 433.11 183.89 433.14 183.884C433.17 183.879 433.199 183.867 433.225 183.85L435.707 182.312C435.737 182.295 435.763 182.272 435.783 182.244C435.803 182.216 435.816 182.184 435.822 182.15C435.829 182.117 435.828 182.082 435.819 182.049C435.811 182.016 435.795 181.985 435.774 181.958Z" fill="black"/>
<path opacity="0.1" d="M432.539 184.2L430.933 181.908C430.897 181.858 430.843 181.825 430.783 181.814C430.723 181.804 430.661 181.817 430.61 181.851L428.267 183.431C428.215 183.466 428.179 183.52 428.167 183.581C428.154 183.642 428.166 183.706 428.2 183.759L429.672 186.02C429.706 186.071 429.759 186.107 429.819 186.12C429.879 186.134 429.942 186.124 429.995 186.092L432.477 184.554C432.508 184.538 432.535 184.515 432.555 184.487C432.576 184.459 432.59 184.426 432.595 184.392C432.601 184.358 432.599 184.323 432.59 184.289C432.58 184.256 432.562 184.225 432.539 184.2Z" fill="black"/>
<path opacity="0.1" d="M428.918 186.701L427.313 184.413C427.277 184.364 427.223 184.33 427.163 184.32C427.103 184.309 427.041 184.323 426.99 184.357L424.641 185.936C424.615 185.953 424.593 185.975 424.576 186C424.558 186.025 424.546 186.054 424.54 186.084C424.534 186.114 424.534 186.145 424.54 186.175C424.545 186.205 424.557 186.234 424.575 186.26L426.046 188.526C426.081 188.577 426.134 188.613 426.194 188.626C426.254 188.64 426.317 188.63 426.369 188.598L428.852 187.06C428.882 187.042 428.907 187.018 428.927 186.99C428.947 186.962 428.961 186.929 428.967 186.895C428.974 186.861 428.973 186.826 428.964 186.793C428.956 186.759 428.94 186.728 428.918 186.701Z" fill="black"/>
<path opacity="0.1" d="M425.411 189.134L423.805 186.847C423.788 186.821 423.766 186.799 423.741 186.782C423.715 186.766 423.687 186.754 423.657 186.748C423.627 186.742 423.596 186.743 423.566 186.749C423.536 186.755 423.507 186.768 423.482 186.785L421.133 188.349C421.108 188.366 421.085 188.387 421.068 188.413C421.05 188.438 421.038 188.467 421.032 188.497C421.026 188.527 421.026 188.558 421.032 188.588C421.038 188.618 421.05 188.647 421.067 188.672L422.539 190.934C422.572 190.986 422.625 191.022 422.685 191.036C422.746 191.049 422.809 191.038 422.862 191.005L425.344 189.467C425.371 189.45 425.394 189.428 425.412 189.401C425.429 189.375 425.442 189.346 425.448 189.315C425.454 189.283 425.454 189.251 425.448 189.22C425.441 189.189 425.429 189.16 425.411 189.134Z" fill="black"/>
<path opacity="0.1" d="M447.822 168.139L446.53 166.298C446.452 166.192 446.338 166.12 446.209 166.096C446.08 166.073 445.947 166.099 445.837 166.17L443.924 167.462C443.817 167.538 443.743 167.652 443.717 167.781C443.691 167.91 443.716 168.043 443.786 168.155L444.971 169.975C445.045 170.083 445.157 170.158 445.285 170.186C445.412 170.213 445.546 170.191 445.658 170.124L447.678 168.857C447.735 168.82 447.785 168.772 447.823 168.715C447.861 168.659 447.887 168.595 447.901 168.528C447.914 168.461 447.914 168.393 447.901 168.326C447.887 168.259 447.86 168.195 447.822 168.139Z" fill="black"/>
<path opacity="0.1" d="M444.165 170.672L442.873 168.826C442.796 168.719 442.68 168.646 442.55 168.622C442.42 168.598 442.286 168.625 442.176 168.698L440.268 169.99C440.16 170.065 440.084 170.178 440.058 170.307C440.031 170.436 440.055 170.57 440.124 170.682L441.309 172.503C441.382 172.613 441.495 172.69 441.624 172.719C441.753 172.747 441.888 172.725 442.001 172.656L444.022 171.385C444.078 171.347 444.127 171.299 444.164 171.243C444.202 171.187 444.228 171.124 444.242 171.058C444.255 170.992 444.255 170.924 444.242 170.857C444.229 170.791 444.203 170.728 444.165 170.672Z" fill="black"/>
<path opacity="0.1" d="M440.518 173.2L439.226 171.359C439.149 171.252 439.033 171.179 438.903 171.155C438.773 171.131 438.639 171.158 438.529 171.231L436.616 172.518C436.508 172.594 436.434 172.708 436.408 172.836C436.383 172.965 436.407 173.099 436.477 173.21L437.662 175.031C437.735 175.141 437.848 175.218 437.977 175.247C438.106 175.275 438.241 175.253 438.354 175.185L440.37 173.913C440.426 173.876 440.475 173.828 440.514 173.772C440.552 173.717 440.579 173.654 440.593 173.587C440.606 173.521 440.607 173.453 440.594 173.386C440.581 173.32 440.556 173.256 440.518 173.2Z" fill="black"/>
<path opacity="0.1" d="M436.861 175.727L435.569 173.886C435.491 173.78 435.377 173.708 435.248 173.684C435.119 173.661 434.986 173.687 434.876 173.758L432.963 175.045C432.856 175.121 432.782 175.235 432.756 175.364C432.73 175.492 432.755 175.626 432.825 175.737L434.01 177.578C434.083 177.687 434.195 177.763 434.323 177.792C434.45 177.82 434.584 177.799 434.697 177.732L436.717 176.465C436.778 176.428 436.829 176.379 436.869 176.321C436.909 176.263 436.937 176.197 436.951 176.128C436.964 176.058 436.963 175.987 436.948 175.918C436.932 175.849 436.903 175.784 436.861 175.727Z" fill="black"/>
<path opacity="0.1" d="M433.395 178.487L431.79 176.2C431.773 176.175 431.751 176.153 431.725 176.136C431.7 176.119 431.671 176.107 431.641 176.102C431.611 176.096 431.58 176.096 431.55 176.103C431.52 176.109 431.492 176.121 431.467 176.139L429.118 177.723C429.067 177.758 429.031 177.811 429.019 177.871C429.006 177.932 429.018 177.994 429.051 178.046L430.523 180.313C430.54 180.339 430.561 180.361 430.586 180.378C430.612 180.396 430.64 180.408 430.67 180.414C430.701 180.42 430.732 180.421 430.762 180.415C430.792 180.409 430.821 180.397 430.846 180.38L433.328 178.841C433.358 178.824 433.384 178.801 433.404 178.773C433.424 178.745 433.437 178.713 433.444 178.68C433.45 178.646 433.449 178.611 433.44 178.578C433.432 178.545 433.416 178.514 433.395 178.487Z" fill="black"/>
<path opacity="0.1" d="M430.137 180.728L428.532 178.435C428.495 178.386 428.441 178.352 428.379 178.341C428.318 178.331 428.256 178.344 428.204 178.379L425.86 179.958C425.809 179.994 425.773 180.048 425.761 180.109C425.748 180.17 425.76 180.234 425.794 180.287L427.266 182.548C427.299 182.6 427.352 182.637 427.412 182.65C427.473 182.664 427.536 182.653 427.589 182.62L430.071 181.081C430.101 181.065 430.126 181.041 430.146 181.013C430.166 180.986 430.18 180.954 430.186 180.92C430.193 180.886 430.191 180.852 430.183 180.818C430.175 180.785 430.159 180.754 430.137 180.728Z" fill="black"/>
<path opacity="0.1" d="M426.518 183.22L424.913 180.928C424.876 180.878 424.821 180.844 424.76 180.834C424.699 180.823 424.636 180.837 424.584 180.871L422.235 182.451C422.185 182.487 422.15 182.541 422.138 182.602C422.125 182.662 422.136 182.726 422.169 182.779L423.646 185.04C423.679 185.092 423.732 185.129 423.793 185.142C423.853 185.156 423.916 185.145 423.969 185.112L426.446 183.574C426.477 183.558 426.504 183.535 426.525 183.508C426.546 183.48 426.56 183.448 426.567 183.414C426.574 183.38 426.573 183.345 426.565 183.311C426.556 183.278 426.54 183.246 426.518 183.22Z" fill="black"/>
<path opacity="0.1" d="M423.01 185.661L421.405 183.374C421.387 183.349 421.365 183.327 421.339 183.31C421.313 183.293 421.284 183.281 421.253 183.276C421.223 183.27 421.191 183.27 421.161 183.277C421.131 183.283 421.102 183.295 421.076 183.313L418.727 184.897C418.677 184.933 418.643 184.986 418.631 185.046C418.62 185.107 418.632 185.169 418.666 185.22L420.138 187.482C420.153 187.509 420.175 187.532 420.2 187.55C420.225 187.569 420.253 187.582 420.284 187.588C420.314 187.595 420.345 187.595 420.376 187.59C420.406 187.584 420.435 187.571 420.461 187.554L422.938 186.015C422.969 186 422.996 185.977 423.017 185.949C423.038 185.922 423.052 185.89 423.059 185.856C423.066 185.822 423.065 185.787 423.057 185.753C423.048 185.719 423.032 185.688 423.01 185.661Z" fill="black"/>
<path opacity="0.1" d="M421.903 191.558L420.297 189.271C420.261 189.221 420.208 189.188 420.147 189.177C420.087 189.167 420.025 189.18 419.974 189.214L417.626 190.794C417.6 190.811 417.577 190.832 417.56 190.857C417.543 190.883 417.531 190.911 417.524 190.941C417.518 190.972 417.518 191.003 417.524 191.033C417.53 191.063 417.542 191.091 417.559 191.117L419.031 193.384C419.065 193.435 419.118 193.47 419.178 193.484C419.238 193.497 419.301 193.487 419.354 193.455L421.836 191.917C421.866 191.9 421.892 191.876 421.912 191.847C421.932 191.819 421.945 191.787 421.952 191.753C421.958 191.719 421.957 191.684 421.948 191.65C421.94 191.616 421.924 191.585 421.903 191.558Z" fill="black"/>
<path opacity="0.1" d="M418.395 193.989L416.79 191.702C416.773 191.677 416.751 191.655 416.725 191.638C416.7 191.621 416.671 191.609 416.641 191.604C416.611 191.598 416.58 191.598 416.55 191.605C416.52 191.611 416.492 191.623 416.467 191.641L414.118 193.225C414.092 193.242 414.07 193.263 414.052 193.289C414.035 193.314 414.023 193.343 414.016 193.373C414.01 193.403 414.01 193.434 414.016 193.464C414.022 193.494 414.034 193.523 414.051 193.548L415.523 195.81C415.557 195.862 415.609 195.898 415.67 195.912C415.73 195.925 415.794 195.914 415.846 195.881L418.328 194.343C418.358 194.326 418.384 194.303 418.404 194.275C418.424 194.247 418.437 194.215 418.444 194.182C418.45 194.148 418.449 194.113 418.44 194.08C418.432 194.047 418.417 194.016 418.395 193.989Z" fill="black"/>
<path opacity="0.1" d="M423.903 179.455L422.364 177.302C422.316 177.235 422.243 177.189 422.162 177.175C422.081 177.16 421.997 177.178 421.928 177.225L419.713 178.717C419.678 178.74 419.649 178.769 419.626 178.803C419.603 178.838 419.586 178.876 419.578 178.917C419.57 178.957 419.57 178.999 419.578 179.039C419.586 179.08 419.603 179.118 419.626 179.153L421.01 181.281C421.032 181.316 421.06 181.347 421.094 181.371C421.127 181.395 421.165 181.412 421.205 181.421C421.245 181.43 421.287 181.431 421.327 181.423C421.368 181.416 421.407 181.401 421.441 181.378L423.785 179.907C423.823 179.886 423.857 179.857 423.885 179.823C423.912 179.789 423.931 179.749 423.942 179.707C423.953 179.664 423.956 179.62 423.949 179.577C423.942 179.534 423.926 179.492 423.903 179.455Z" fill="black"/>
<path opacity="0.1" d="M420.394 181.887L418.881 179.733C418.858 179.699 418.829 179.669 418.794 179.647C418.76 179.624 418.721 179.609 418.681 179.601C418.64 179.593 418.598 179.594 418.558 179.602C418.518 179.611 418.479 179.627 418.446 179.651L416.23 181.169C416.196 181.191 416.166 181.22 416.143 181.254C416.12 181.287 416.104 181.326 416.096 181.366C416.088 181.406 416.088 181.447 416.096 181.487C416.104 181.527 416.12 181.565 416.143 181.599L417.528 183.733C417.573 183.802 417.643 183.85 417.723 183.868C417.804 183.887 417.888 183.873 417.958 183.83L420.302 182.358C420.342 182.336 420.376 182.305 420.402 182.268C420.429 182.231 420.447 182.188 420.456 182.144C420.465 182.099 420.464 182.053 420.453 182.008C420.442 181.964 420.422 181.922 420.394 181.887Z" fill="black"/>
<path opacity="0.1" d="M416.887 184.318L415.374 182.159C415.326 182.092 415.253 182.047 415.172 182.032C415.09 182.018 415.006 182.036 414.938 182.082L412.723 183.574C412.688 183.597 412.658 183.626 412.635 183.661C412.612 183.695 412.596 183.734 412.588 183.774C412.58 183.815 412.58 183.856 412.588 183.897C412.596 183.937 412.612 183.976 412.635 184.01L414.02 186.138C414.042 186.173 414.07 186.204 414.103 186.228C414.137 186.252 414.175 186.269 414.215 186.278C414.255 186.287 414.297 186.288 414.337 186.281C414.378 186.274 414.416 186.258 414.451 186.236L416.795 184.764C416.831 184.742 416.862 184.712 416.887 184.677C416.911 184.642 416.928 184.603 416.937 184.561C416.946 184.519 416.946 184.476 416.937 184.434C416.928 184.392 416.911 184.353 416.887 184.318Z" fill="black"/>
<path opacity="0.1" d="M413.425 186.809L411.819 184.517C411.783 184.468 411.73 184.434 411.669 184.423C411.609 184.413 411.547 184.426 411.496 184.461L409.147 186.04C409.096 186.075 409.06 186.129 409.048 186.191C409.035 186.252 409.047 186.316 409.081 186.368L410.553 188.63C410.587 188.681 410.64 188.716 410.7 188.73C410.76 188.743 410.823 188.733 410.876 188.701L413.358 187.163C413.389 187.148 413.416 187.125 413.437 187.097C413.459 187.069 413.473 187.037 413.479 187.003C413.486 186.968 413.484 186.933 413.475 186.9C413.465 186.866 413.448 186.835 413.425 186.809Z" fill="black"/>
<path opacity="0.1" d="M454.934 163.144L453.544 161.17C453.466 161.064 453.35 160.992 453.22 160.969C453.09 160.946 452.956 160.974 452.846 161.047L447.421 164.847C447.315 164.923 447.243 165.037 447.218 165.164C447.194 165.292 447.218 165.424 447.287 165.534L448.595 167.554C448.633 167.61 448.681 167.658 448.737 167.696C448.793 167.733 448.856 167.759 448.923 167.772C448.989 167.784 449.057 167.784 449.123 167.771C449.189 167.757 449.252 167.731 449.308 167.693L454.816 163.842C454.921 163.763 454.992 163.646 455.014 163.517C455.036 163.387 455.007 163.253 454.934 163.144Z" fill="black"/>
<path opacity="0.1" d="M419.492 188.014L417.789 185.609C417.771 185.584 417.749 185.562 417.723 185.545C417.697 185.528 417.667 185.516 417.637 185.511C417.606 185.506 417.575 185.507 417.544 185.514C417.514 185.521 417.486 185.534 417.461 185.553L411.604 189.655C411.554 189.69 411.52 189.742 411.508 189.802C411.497 189.861 411.509 189.923 411.542 189.973L413.143 192.45C413.16 192.477 413.182 192.5 413.208 192.518C413.234 192.536 413.264 192.548 413.295 192.554C413.326 192.561 413.358 192.561 413.389 192.554C413.42 192.548 413.45 192.535 413.476 192.517L419.43 188.348C419.482 188.311 419.518 188.256 419.529 188.194C419.541 188.131 419.527 188.067 419.492 188.014Z" fill="black"/>
<path opacity="0.1" d="M438.123 169.619L436.554 167.321C436.519 167.271 436.465 167.236 436.405 167.225C436.345 167.213 436.282 167.226 436.231 167.26L423.225 176.039C423.174 176.073 423.138 176.127 423.126 176.187C423.114 176.247 423.125 176.31 423.158 176.362L424.764 178.823C424.781 178.85 424.803 178.873 424.829 178.891C424.856 178.909 424.885 178.922 424.916 178.928C424.947 178.934 424.979 178.934 425.01 178.927C425.042 178.921 425.071 178.908 425.097 178.89L438.062 169.947C438.087 169.929 438.109 169.907 438.126 169.881C438.143 169.855 438.155 169.826 438.161 169.795C438.166 169.765 438.166 169.734 438.16 169.703C438.153 169.673 438.141 169.644 438.123 169.619Z" fill="black"/>
</g>
<path d="M459.929 170.133L458.637 168.287C458.559 168.18 458.444 168.107 458.314 168.083C458.184 168.059 458.05 168.086 457.939 168.159L456.031 169.451C455.923 169.526 455.848 169.639 455.821 169.768C455.795 169.897 455.818 170.031 455.888 170.143L457.072 171.964C457.146 172.073 457.259 172.151 457.388 172.179C457.517 172.208 457.652 172.186 457.765 172.117L459.785 170.846C459.842 170.808 459.89 170.76 459.928 170.704C459.966 170.648 459.992 170.585 460.005 170.519C460.019 170.453 460.019 170.385 460.006 170.318C459.993 170.252 459.967 170.189 459.929 170.133Z" fill="#464A5F"/>
<path d="M456.472 172.514L455.18 170.673C455.102 170.567 454.988 170.495 454.859 170.471C454.73 170.448 454.597 170.474 454.487 170.545L452.574 171.832C452.466 171.907 452.391 172.021 452.364 172.15C452.337 172.278 452.361 172.413 452.431 172.524L453.615 174.345C453.689 174.455 453.802 174.532 453.931 174.561C454.06 174.589 454.195 174.567 454.308 174.499L456.328 173.232C456.385 173.195 456.435 173.147 456.473 173.09C456.511 173.034 456.538 172.97 456.551 172.903C456.564 172.836 456.564 172.768 456.551 172.701C456.537 172.634 456.51 172.57 456.472 172.514Z" fill="#464A5F"/>
<path d="M452.882 175.016L451.59 173.175C451.512 173.068 451.397 172.995 451.267 172.971C451.137 172.947 451.003 172.975 450.892 173.047L448.985 174.339C448.876 174.414 448.801 174.528 448.774 174.657C448.748 174.786 448.771 174.92 448.841 175.032L450.026 176.852C450.1 176.961 450.213 177.038 450.342 177.065C450.471 177.093 450.606 177.07 450.718 177.001L452.739 175.734C452.796 175.697 452.845 175.649 452.883 175.592C452.921 175.536 452.948 175.472 452.961 175.405C452.974 175.339 452.974 175.27 452.961 175.203C452.947 175.136 452.92 175.073 452.882 175.016Z" fill="#464A5F"/>
<path d="M449.221 177.543L447.928 175.697C447.851 175.591 447.736 175.519 447.608 175.495C447.479 175.471 447.346 175.497 447.236 175.568L445.323 176.861C445.267 176.899 445.219 176.948 445.181 177.004C445.144 177.061 445.119 177.125 445.106 177.192C445.094 177.259 445.095 177.327 445.109 177.394C445.124 177.46 445.151 177.523 445.19 177.579L446.374 179.399C446.448 179.509 446.561 179.586 446.69 179.615C446.819 179.644 446.954 179.621 447.067 179.553L449.082 178.281C449.142 178.243 449.193 178.194 449.233 178.136C449.272 178.077 449.299 178.011 449.312 177.942C449.325 177.873 449.324 177.802 449.308 177.733C449.292 177.664 449.263 177.599 449.221 177.543Z" fill="#464A5F"/>
<path d="M445.57 180.073L444.278 178.232C444.2 178.126 444.086 178.054 443.957 178.03C443.828 178.006 443.695 178.033 443.585 178.104L441.672 179.391C441.565 179.466 441.491 179.58 441.465 179.709C441.439 179.838 441.464 179.972 441.534 180.083L442.713 181.903C442.787 182.013 442.9 182.091 443.029 182.119C443.158 182.148 443.293 182.126 443.406 182.057L445.426 180.786C445.483 180.748 445.531 180.7 445.569 180.644C445.607 180.588 445.633 180.525 445.646 180.459C445.66 180.393 445.66 180.325 445.647 180.258C445.634 180.192 445.608 180.129 445.57 180.073Z" fill="#464A5F"/>
<path d="M442.077 182.831L440.471 180.544C440.454 180.518 440.432 180.497 440.407 180.48C440.381 180.463 440.353 180.451 440.323 180.445C440.293 180.44 440.262 180.44 440.232 180.446C440.202 180.453 440.173 180.465 440.148 180.482L437.799 182.067C437.774 182.084 437.751 182.105 437.734 182.13C437.716 182.156 437.704 182.184 437.698 182.214C437.692 182.245 437.692 182.276 437.698 182.306C437.704 182.336 437.716 182.365 437.733 182.39L439.205 184.651C439.238 184.703 439.291 184.74 439.351 184.754C439.412 184.767 439.475 184.756 439.528 184.723L442.01 183.185C442.04 183.168 442.065 183.145 442.085 183.117C442.105 183.089 442.119 183.057 442.125 183.023C442.132 182.99 442.131 182.955 442.122 182.922C442.114 182.889 442.098 182.858 442.077 182.831Z" fill="#464A5F"/>
<path d="M438.426 185.359L436.821 183.072C436.803 183.046 436.781 183.024 436.755 183.007C436.729 182.99 436.7 182.979 436.67 182.973C436.639 182.967 436.608 182.967 436.577 182.974C436.547 182.98 436.518 182.993 436.493 183.01L434.149 184.595C434.123 184.611 434.101 184.633 434.083 184.658C434.066 184.684 434.054 184.712 434.048 184.742C434.042 184.772 434.041 184.803 434.047 184.833C434.053 184.864 434.065 184.892 434.082 184.918L435.554 187.184C435.571 187.21 435.592 187.232 435.618 187.25C435.643 187.267 435.672 187.279 435.702 187.286C435.732 187.292 435.763 187.292 435.793 187.286C435.823 187.28 435.852 187.268 435.877 187.251L438.359 185.713C438.389 185.695 438.414 185.672 438.433 185.644C438.453 185.616 438.466 185.584 438.472 185.551C438.478 185.517 438.478 185.483 438.47 185.45C438.462 185.417 438.447 185.386 438.426 185.359Z" fill="#464A5F"/>
<path d="M435.19 187.6L433.585 185.308C433.549 185.259 433.495 185.225 433.435 185.214C433.375 185.204 433.313 185.217 433.262 185.252L430.913 186.811C430.862 186.846 430.826 186.9 430.813 186.961C430.801 187.022 430.813 187.086 430.846 187.139L432.318 189.4C432.353 189.451 432.405 189.487 432.466 189.5C432.526 189.514 432.589 189.504 432.641 189.472L435.123 187.934C435.15 187.916 435.173 187.894 435.191 187.868C435.209 187.842 435.222 187.812 435.228 187.781C435.234 187.75 435.234 187.718 435.227 187.687C435.221 187.656 435.208 187.626 435.19 187.6Z" fill="#464A5F"/>
<path d="M431.569 190.107L429.964 187.835C429.928 187.786 429.874 187.752 429.814 187.742C429.753 187.731 429.691 187.745 429.641 187.779L427.292 189.358C427.266 189.375 427.244 189.398 427.226 189.423C427.209 189.449 427.196 189.478 427.19 189.509C427.184 189.539 427.184 189.571 427.19 189.601C427.196 189.632 427.208 189.661 427.225 189.687L428.697 191.948C428.732 191.999 428.784 192.035 428.844 192.048C428.904 192.062 428.967 192.051 429.02 192.02L431.502 190.481C431.536 190.465 431.564 190.441 431.587 190.412C431.609 190.382 431.624 190.348 431.63 190.311C431.637 190.275 431.635 190.237 431.624 190.202C431.613 190.166 431.595 190.134 431.569 190.107Z" fill="#464A5F"/>
<path d="M428.061 192.532L426.456 190.245C426.439 190.22 426.417 190.198 426.391 190.181C426.366 190.164 426.337 190.152 426.307 190.147C426.277 190.141 426.246 190.141 426.216 190.148C426.186 190.154 426.158 190.166 426.133 190.184L423.784 191.768C423.758 191.785 423.736 191.806 423.718 191.832C423.701 191.857 423.689 191.886 423.682 191.916C423.676 191.946 423.676 191.977 423.682 192.007C423.688 192.037 423.7 192.066 423.717 192.091L425.189 194.353C425.205 194.379 425.226 194.402 425.252 194.42C425.277 194.437 425.305 194.45 425.335 194.457C425.365 194.464 425.397 194.464 425.427 194.459C425.457 194.453 425.486 194.441 425.512 194.424L427.994 192.886C428.024 192.869 428.05 192.846 428.07 192.818C428.09 192.79 428.103 192.758 428.11 192.725C428.116 192.691 428.115 192.656 428.107 192.623C428.098 192.59 428.083 192.559 428.061 192.532Z" fill="#464A5F"/>
<path d="M424.554 194.964L422.948 192.671C422.912 192.622 422.858 192.588 422.798 192.578C422.738 192.567 422.676 192.581 422.625 192.615L420.276 194.194C420.225 194.23 420.189 194.284 420.177 194.345C420.164 194.406 420.176 194.47 420.21 194.523L421.682 196.784C421.716 196.835 421.769 196.871 421.829 196.884C421.889 196.897 421.952 196.887 422.005 196.856L424.487 195.317C424.517 195.3 424.542 195.277 424.562 195.249C424.582 195.221 424.596 195.19 424.602 195.156C424.609 195.122 424.607 195.088 424.599 195.054C424.591 195.021 424.575 194.99 424.554 194.964Z" fill="#464A5F"/>
<path d="M421.045 197.39L419.44 195.102C419.423 195.077 419.401 195.055 419.376 195.038C419.35 195.021 419.321 195.01 419.291 195.004C419.261 194.998 419.23 194.999 419.2 195.005C419.171 195.011 419.142 195.024 419.117 195.041L416.768 196.626C416.742 196.642 416.72 196.664 416.703 196.689C416.685 196.714 416.673 196.743 416.667 196.773C416.661 196.803 416.661 196.834 416.666 196.864C416.672 196.894 416.684 196.923 416.701 196.949L418.173 199.21C418.19 199.236 418.211 199.259 418.236 199.277C418.261 199.295 418.29 199.308 418.32 199.314C418.35 199.321 418.381 199.321 418.411 199.316C418.442 199.31 418.471 199.299 418.496 199.282L420.979 197.743C421.008 197.727 421.034 197.703 421.054 197.675C421.074 197.648 421.088 197.616 421.094 197.582C421.1 197.548 421.099 197.514 421.091 197.48C421.082 197.447 421.067 197.416 421.045 197.39Z" fill="#464A5F"/>
<path d="M457.617 166.812L456.324 164.966C456.247 164.86 456.133 164.788 456.004 164.764C455.875 164.741 455.742 164.767 455.632 164.838L453.719 166.13C453.612 166.206 453.538 166.32 453.512 166.449C453.486 166.578 453.511 166.711 453.581 166.822L454.76 168.643C454.834 168.753 454.947 168.83 455.076 168.859C455.205 168.888 455.34 168.865 455.453 168.797L457.473 167.525C457.53 167.488 457.578 167.44 457.616 167.384C457.654 167.328 457.68 167.265 457.693 167.198C457.707 167.132 457.707 167.064 457.694 166.998C457.68 166.931 457.654 166.868 457.617 166.812Z" fill="#464A5F"/>
<path d="M452.564 159.499L451.272 157.658C451.195 157.552 451.08 157.48 450.951 157.456C450.822 157.432 450.689 157.458 450.579 157.529L448.667 158.816C448.559 158.892 448.485 159.006 448.459 159.135C448.433 159.264 448.458 159.398 448.528 159.509L449.713 161.329C449.786 161.438 449.898 161.514 450.026 161.543C450.154 161.571 450.287 161.55 450.4 161.483L452.42 160.216C452.478 160.179 452.527 160.131 452.565 160.074C452.603 160.018 452.63 159.954 452.643 159.888C452.656 159.821 452.656 159.752 452.643 159.685C452.629 159.618 452.602 159.555 452.564 159.499Z" fill="#464A5F"/>
<path d="M454.175 169.175L452.883 167.324C452.806 167.218 452.691 167.146 452.562 167.122C452.434 167.098 452.301 167.124 452.191 167.195L450.278 168.482C450.17 168.558 450.096 168.672 450.071 168.801C450.045 168.93 450.069 169.064 450.139 169.175L451.324 170.995C451.397 171.104 451.509 171.18 451.637 171.209C451.765 171.237 451.899 171.216 452.011 171.149L454.032 169.882C454.144 169.807 454.222 169.691 454.249 169.558C454.276 169.426 454.25 169.288 454.175 169.175Z" fill="#464A5F"/>
<path d="M450.565 171.672L449.294 169.831C449.216 169.726 449.102 169.654 448.973 169.63C448.844 169.606 448.711 169.632 448.601 169.703L446.688 170.99C446.58 171.066 446.504 171.181 446.479 171.311C446.453 171.441 446.478 171.576 446.55 171.688L447.729 173.508C447.804 173.617 447.917 173.694 448.046 173.721C448.175 173.749 448.309 173.726 448.422 173.657L450.442 172.39C450.498 172.351 450.545 172.302 450.581 172.245C450.617 172.188 450.642 172.124 450.653 172.057C450.665 171.99 450.663 171.922 450.648 171.856C450.633 171.79 450.605 171.727 450.565 171.672Z" fill="#464A5F"/>
<path d="M446.913 174.205L445.621 172.359C445.544 172.252 445.428 172.179 445.298 172.155C445.168 172.131 445.034 172.158 444.924 172.231L443.016 173.523C442.908 173.598 442.832 173.712 442.806 173.841C442.779 173.969 442.803 174.104 442.872 174.215L444.057 176.036C444.13 176.146 444.243 176.223 444.372 176.252C444.501 176.28 444.636 176.258 444.749 176.19L446.77 174.918C446.826 174.881 446.875 174.833 446.912 174.777C446.95 174.721 446.976 174.658 446.99 174.591C447.003 174.525 447.003 174.457 446.99 174.391C446.977 174.324 446.951 174.261 446.913 174.205Z" fill="#464A5F"/>
<path d="M449.205 161.995L447.912 160.144C447.835 160.038 447.72 159.966 447.592 159.942C447.463 159.918 447.33 159.945 447.22 160.016L445.307 161.303C445.2 161.379 445.126 161.493 445.1 161.621C445.074 161.75 445.099 161.884 445.169 161.995L446.353 163.816C446.427 163.924 446.539 164 446.666 164.029C446.794 164.058 446.928 164.036 447.041 163.969L449.061 162.703C449.174 162.628 449.252 162.511 449.279 162.378C449.305 162.246 449.279 162.108 449.205 161.995Z" fill="#464A5F"/>
<path d="M445.595 164.498L444.303 162.652C444.225 162.546 444.111 162.474 443.982 162.45C443.853 162.426 443.72 162.452 443.61 162.523L441.697 163.816C441.589 163.891 441.514 164.004 441.487 164.133C441.461 164.262 441.484 164.396 441.554 164.508L442.739 166.329C442.812 166.438 442.925 166.516 443.054 166.544C443.183 166.573 443.318 166.551 443.431 166.482L445.451 165.211C445.508 165.173 445.556 165.125 445.594 165.069C445.632 165.013 445.658 164.95 445.671 164.884C445.685 164.818 445.685 164.75 445.672 164.683C445.659 164.617 445.633 164.554 445.595 164.498Z" fill="#464A5F"/>
<path d="M441.943 167.026L440.65 165.185C440.573 165.078 440.457 165.005 440.327 164.981C440.197 164.957 440.063 164.984 439.953 165.057L438.045 166.344C437.937 166.419 437.862 166.533 437.835 166.662C437.808 166.79 437.832 166.925 437.901 167.036L439.086 168.862C439.159 168.972 439.272 169.049 439.401 169.078C439.53 169.107 439.665 169.084 439.778 169.016L441.794 167.744C441.851 167.707 441.901 167.659 441.94 167.603C441.978 167.547 442.005 167.483 442.019 167.416C442.033 167.35 442.034 167.281 442.02 167.214C442.007 167.147 441.981 167.083 441.943 167.026Z" fill="#464A5F"/>
<path d="M443.256 176.733L441.963 174.892C441.886 174.786 441.771 174.714 441.642 174.69C441.514 174.666 441.381 174.693 441.271 174.764L439.358 176.041C439.251 176.116 439.176 176.23 439.151 176.359C439.125 176.488 439.149 176.622 439.219 176.733L440.404 178.553C440.477 178.662 440.589 178.738 440.717 178.767C440.845 178.795 440.979 178.774 441.091 178.707L443.112 177.435C443.223 177.36 443.3 177.245 443.327 177.113C443.354 176.982 443.328 176.846 443.256 176.733Z" fill="#464A5F"/>
<path d="M439.605 179.262L438.312 177.421C438.235 177.316 438.12 177.243 437.992 177.22C437.863 177.196 437.73 177.222 437.62 177.293L435.707 178.606C435.599 178.681 435.524 178.794 435.497 178.923C435.47 179.052 435.494 179.186 435.564 179.298L436.748 181.119C436.822 181.228 436.935 181.306 437.064 181.334C437.193 181.363 437.328 181.341 437.441 181.272L439.461 180.006C439.522 179.969 439.574 179.919 439.615 179.861C439.656 179.802 439.684 179.736 439.697 179.666C439.711 179.596 439.709 179.524 439.693 179.454C439.678 179.385 439.647 179.319 439.605 179.262Z" fill="#464A5F"/>
<path d="M436.113 182.02L434.507 179.733C434.49 179.708 434.469 179.686 434.443 179.669C434.418 179.652 434.389 179.641 434.359 179.635C434.329 179.629 434.298 179.63 434.268 179.636C434.238 179.642 434.21 179.654 434.184 179.672L431.856 181.256C431.83 181.273 431.808 181.295 431.791 181.32C431.773 181.345 431.761 181.374 431.755 181.404C431.749 181.434 431.748 181.465 431.754 181.495C431.76 181.525 431.772 181.554 431.789 181.579L433.261 183.841C433.277 183.867 433.299 183.89 433.324 183.908C433.349 183.926 433.377 183.938 433.408 183.945C433.438 183.952 433.469 183.952 433.499 183.947C433.53 183.941 433.559 183.93 433.584 183.913L436.067 182.374C436.094 182.355 436.117 182.33 436.135 182.302C436.152 182.273 436.164 182.241 436.168 182.208C436.172 182.174 436.17 182.14 436.16 182.108C436.151 182.076 436.134 182.046 436.113 182.02Z" fill="#464A5F"/>
<path d="M432.881 184.245L431.276 181.953C431.239 181.903 431.184 181.869 431.123 181.859C431.062 181.848 430.999 181.862 430.948 181.897L428.599 183.476C428.548 183.512 428.513 183.566 428.501 183.627C428.489 183.688 428.5 183.751 428.532 183.804L430.009 186.066C430.043 186.118 430.095 186.154 430.156 186.168C430.216 186.181 430.28 186.17 430.332 186.137L432.809 184.599C432.84 184.583 432.867 184.561 432.888 184.533C432.909 184.505 432.924 184.473 432.93 184.439C432.937 184.405 432.936 184.37 432.928 184.337C432.919 184.303 432.903 184.272 432.881 184.245Z" fill="#464A5F"/>
<path d="M429.257 186.77L427.651 184.478C427.615 184.428 427.562 184.395 427.501 184.384C427.441 184.374 427.379 184.387 427.328 184.421L424.979 186.001C424.928 186.036 424.892 186.09 424.88 186.152C424.867 186.213 424.879 186.276 424.913 186.329L426.385 188.591C426.419 188.642 426.472 188.677 426.532 188.691C426.592 188.704 426.655 188.694 426.708 188.662L429.19 187.124C429.221 187.108 429.248 187.086 429.269 187.058C429.291 187.03 429.305 186.998 429.311 186.964C429.318 186.929 429.316 186.894 429.307 186.86C429.297 186.827 429.28 186.796 429.257 186.77Z" fill="#464A5F"/>
<path d="M425.753 189.196L424.163 186.909C424.146 186.884 424.124 186.862 424.098 186.845C424.073 186.828 424.044 186.816 424.014 186.811C423.984 186.805 423.953 186.805 423.923 186.812C423.893 186.818 423.865 186.83 423.84 186.848L421.491 188.432C421.44 188.467 421.404 188.52 421.392 188.58C421.379 188.64 421.391 188.703 421.424 188.755L422.896 191.017C422.93 191.069 422.982 191.105 423.043 191.119C423.103 191.132 423.167 191.121 423.219 191.089L425.701 189.55C425.731 189.532 425.756 189.509 425.775 189.48C425.794 189.452 425.806 189.419 425.811 189.385C425.816 189.351 425.813 189.317 425.803 189.284C425.793 189.252 425.776 189.221 425.753 189.196Z" fill="#464A5F"/>
<path d="M448.16 168.205L446.873 166.359C446.795 166.252 446.679 166.179 446.55 166.155C446.42 166.131 446.285 166.158 446.175 166.231L444.262 167.523C444.155 167.599 444.081 167.713 444.055 167.842C444.029 167.97 444.054 168.104 444.124 168.215L445.308 170.036C445.383 170.145 445.496 170.221 445.625 170.249C445.754 170.277 445.888 170.253 446.001 170.185L448.016 168.918C448.073 168.881 448.121 168.833 448.159 168.777C448.197 168.721 448.223 168.658 448.236 168.591C448.25 168.525 448.25 168.457 448.237 168.391C448.223 168.324 448.197 168.261 448.16 168.205Z" fill="#464A5F"/>
<path d="M444.507 170.734L443.215 168.893C443.139 168.787 443.024 168.714 442.896 168.689C442.767 168.664 442.633 168.69 442.523 168.76L440.61 170.052C440.503 170.128 440.428 170.242 440.403 170.371C440.377 170.5 440.401 170.634 440.471 170.745L441.656 172.565C441.729 172.674 441.841 172.75 441.969 172.779C442.097 172.807 442.231 172.786 442.343 172.719L444.364 171.447C444.42 171.41 444.469 171.362 444.506 171.306C444.544 171.25 444.571 171.187 444.584 171.121C444.597 171.054 444.597 170.986 444.584 170.92C444.571 170.854 444.545 170.791 444.507 170.734Z" fill="#464A5F"/>
<path d="M440.857 173.263L439.549 171.427C439.471 171.32 439.356 171.247 439.226 171.223C439.096 171.199 438.962 171.227 438.851 171.299L436.985 172.581C436.876 172.656 436.801 172.77 436.774 172.899C436.748 173.027 436.771 173.162 436.841 173.273L438.026 175.094C438.099 175.204 438.212 175.281 438.341 175.31C438.47 175.338 438.605 175.316 438.718 175.248L440.739 173.981C440.794 173.942 440.84 173.892 440.876 173.835C440.912 173.777 440.936 173.713 440.947 173.647C440.958 173.58 440.956 173.512 440.94 173.446C440.925 173.38 440.896 173.318 440.857 173.263Z" fill="#464A5F"/>
<path d="M437.199 175.79L435.907 173.949C435.829 173.843 435.715 173.771 435.586 173.747C435.457 173.723 435.324 173.749 435.214 173.82L433.301 175.107C433.194 175.183 433.12 175.297 433.094 175.426C433.068 175.555 433.093 175.689 433.163 175.8L434.347 177.62C434.421 177.729 434.533 177.805 434.661 177.834C434.788 177.862 434.922 177.841 435.035 177.774L437.055 176.507C437.112 176.47 437.161 176.422 437.2 176.365C437.238 176.309 437.264 176.245 437.278 176.179C437.291 176.112 437.291 176.043 437.278 175.976C437.264 175.909 437.237 175.846 437.199 175.79Z" fill="#464A5F"/>
<path d="M433.713 178.548L432.107 176.261C432.09 176.235 432.067 176.214 432.041 176.197C432.016 176.18 431.986 176.168 431.956 176.162C431.925 176.157 431.894 176.157 431.864 176.163C431.833 176.17 431.805 176.182 431.779 176.2L429.43 177.784C429.379 177.819 429.343 177.872 429.331 177.932C429.319 177.992 429.33 178.055 429.364 178.107L430.835 180.374C430.853 180.4 430.875 180.422 430.9 180.44C430.926 180.457 430.955 180.469 430.986 180.475C431.016 180.482 431.048 180.482 431.078 180.476C431.109 180.47 431.138 180.458 431.164 180.44L433.641 178.902C433.671 178.886 433.697 178.863 433.718 178.835C433.738 178.807 433.752 178.776 433.759 178.742C433.766 178.708 433.765 178.673 433.757 178.64C433.749 178.606 433.734 178.575 433.713 178.548Z" fill="#464A5F"/>
<path d="M430.476 180.79L428.87 178.503C428.853 178.477 428.831 178.456 428.806 178.439C428.78 178.422 428.752 178.41 428.722 178.404C428.692 178.399 428.661 178.399 428.631 178.405C428.601 178.412 428.572 178.424 428.547 178.441L426.214 180.021C426.162 180.056 426.127 180.11 426.114 180.171C426.102 180.233 426.114 180.296 426.147 180.349L427.619 182.61C427.654 182.661 427.706 182.697 427.766 182.711C427.826 182.724 427.889 182.714 427.942 182.682L430.424 181.144C430.453 181.126 430.477 181.101 430.496 181.073C430.514 181.044 430.526 181.012 430.531 180.979C430.536 180.945 430.533 180.911 430.524 180.878C430.514 180.846 430.498 180.816 430.476 180.79Z" fill="#464A5F"/>
<path d="M426.856 183.298L425.251 181.006C425.214 180.956 425.159 180.922 425.098 180.912C425.037 180.901 424.974 180.915 424.923 180.949L422.579 182.529C422.528 182.564 422.492 182.618 422.479 182.679C422.467 182.741 422.479 182.804 422.512 182.857L423.984 185.118C424.018 185.17 424.071 185.207 424.131 185.22C424.192 185.234 424.255 185.223 424.307 185.19L426.79 183.652C426.819 183.635 426.845 183.612 426.865 183.584C426.885 183.556 426.899 183.524 426.905 183.49C426.911 183.457 426.91 183.422 426.902 183.389C426.893 183.356 426.878 183.325 426.856 183.298Z" fill="#464A5F"/>
<path d="M423.348 185.724L421.743 183.437C421.725 183.411 421.703 183.389 421.677 183.372C421.651 183.355 421.622 183.344 421.591 183.338C421.561 183.332 421.53 183.333 421.499 183.339C421.469 183.345 421.44 183.358 421.415 183.375L419.071 184.96C419.045 184.977 419.023 184.998 419.005 185.023C418.988 185.049 418.976 185.077 418.97 185.107C418.963 185.138 418.963 185.169 418.969 185.199C418.975 185.229 418.987 185.257 419.004 185.283L420.476 187.55C420.493 187.575 420.514 187.598 420.54 187.615C420.565 187.632 420.594 187.645 420.624 187.651C420.654 187.657 420.685 187.657 420.715 187.651C420.745 187.645 420.774 187.633 420.799 187.616L423.281 186.078C423.31 186.06 423.336 186.037 423.355 186.009C423.374 185.981 423.388 185.949 423.394 185.916C423.4 185.882 423.399 185.848 423.392 185.815C423.384 185.782 423.369 185.751 423.348 185.724Z" fill="#464A5F"/>
<path d="M422.246 191.626L420.641 189.334C420.604 189.284 420.549 189.25 420.488 189.24C420.427 189.229 420.364 189.243 420.313 189.277L417.964 190.857C417.912 190.892 417.877 190.946 417.864 191.007C417.852 191.069 417.864 191.132 417.897 191.185L419.369 193.447C419.404 193.497 419.456 193.533 419.516 193.547C419.576 193.56 419.639 193.55 419.692 193.518L422.174 191.98C422.205 191.964 422.232 191.942 422.253 191.914C422.274 191.886 422.289 191.854 422.296 191.82C422.302 191.786 422.302 191.751 422.293 191.718C422.284 191.684 422.268 191.653 422.246 191.626Z" fill="#464A5F"/>
<path d="M418.738 194.05L417.133 191.763C417.115 191.737 417.093 191.715 417.067 191.699C417.041 191.682 417.012 191.67 416.981 191.664C416.951 191.658 416.919 191.659 416.889 191.665C416.859 191.672 416.83 191.684 416.804 191.701L414.456 193.286C414.404 193.321 414.369 193.374 414.356 193.434C414.344 193.494 414.356 193.557 414.389 193.609L415.861 195.871C415.877 195.897 415.899 195.92 415.925 195.938C415.95 195.956 415.979 195.968 416.01 195.975C416.04 195.982 416.072 195.982 416.103 195.977C416.134 195.971 416.163 195.959 416.189 195.942L418.666 194.404C418.697 194.388 418.724 194.366 418.745 194.338C418.766 194.31 418.78 194.278 418.787 194.244C418.794 194.21 418.793 194.175 418.785 194.142C418.776 194.108 418.76 194.077 418.738 194.05Z" fill="#464A5F"/>
<path d="M424.24 179.523L422.727 177.364C422.679 177.297 422.606 177.252 422.525 177.237C422.443 177.223 422.36 177.241 422.291 177.287L420.06 178.779C419.992 178.826 419.944 178.898 419.928 178.98C419.912 179.061 419.928 179.146 419.973 179.215L421.358 181.349C421.404 181.418 421.476 181.467 421.557 181.484C421.639 181.501 421.724 181.486 421.794 181.441L424.132 179.969C424.17 179.948 424.203 179.919 424.229 179.885C424.255 179.851 424.274 179.811 424.284 179.77C424.294 179.728 424.295 179.684 424.288 179.642C424.28 179.599 424.264 179.559 424.24 179.523Z" fill="#464A5F"/>
<path d="M420.732 181.949L419.219 179.795C419.196 179.761 419.166 179.732 419.132 179.709C419.098 179.687 419.059 179.671 419.018 179.664C418.978 179.656 418.936 179.656 418.896 179.665C418.856 179.673 418.817 179.69 418.783 179.713L416.568 181.211C416.5 181.257 416.452 181.327 416.436 181.408C416.42 181.489 416.436 181.573 416.481 181.641L417.865 183.775C417.912 183.844 417.983 183.893 418.064 183.911C418.145 183.929 418.23 183.915 418.301 183.872L420.645 182.4C420.681 182.377 420.711 182.346 420.735 182.31C420.758 182.275 420.775 182.235 420.783 182.193C420.791 182.151 420.791 182.108 420.782 182.066C420.773 182.024 420.756 181.984 420.732 181.949Z" fill="#464A5F"/>
<path d="M417.225 184.38L415.686 182.221C415.639 182.154 415.567 182.109 415.487 182.095C415.406 182.08 415.323 182.098 415.256 182.144L413.035 183.636C412.966 183.683 412.919 183.755 412.903 183.837C412.886 183.918 412.903 184.003 412.948 184.072L414.333 186.206C414.379 186.275 414.45 186.324 414.532 186.341C414.613 186.358 414.698 186.343 414.769 186.298L417.112 184.826C417.15 184.805 417.184 184.777 417.21 184.743C417.237 184.709 417.256 184.67 417.266 184.628C417.277 184.586 417.279 184.542 417.272 184.5C417.265 184.457 417.249 184.416 417.225 184.38Z" fill="#464A5F"/>
<path d="M413.768 186.878L412.163 184.586C412.126 184.536 412.071 184.502 412.01 184.492C411.949 184.481 411.886 184.495 411.835 184.529L409.486 186.109C409.435 186.145 409.4 186.199 409.389 186.261C409.377 186.322 409.39 186.385 409.424 186.437L410.896 188.698C410.93 188.75 410.982 188.787 411.043 188.801C411.103 188.814 411.167 188.803 411.219 188.77L413.701 187.232C413.731 187.215 413.757 187.192 413.777 187.164C413.797 187.136 413.81 187.104 413.817 187.07C413.823 187.037 413.822 187.002 413.814 186.969C413.805 186.936 413.79 186.905 413.768 186.878Z" fill="#464A5F"/>
<path d="M455.278 163.222L453.909 161.242C453.831 161.136 453.714 161.064 453.585 161.041C453.455 161.018 453.321 161.046 453.211 161.119L447.755 164.919C447.649 164.995 447.577 165.109 447.552 165.236C447.528 165.364 447.552 165.496 447.621 165.606L448.934 167.627C448.972 167.683 449.02 167.731 449.076 167.768C449.133 167.805 449.196 167.831 449.262 167.844C449.328 167.857 449.396 167.856 449.462 167.843C449.528 167.829 449.591 167.803 449.647 167.765L455.15 163.914C455.255 163.837 455.328 163.722 455.351 163.593C455.375 163.465 455.349 163.332 455.278 163.222Z" fill="#464A5F"/>
<path d="M419.83 188.077L418.127 185.672C418.11 185.646 418.087 185.624 418.061 185.607C418.035 185.59 418.006 185.579 417.975 185.574C417.944 185.568 417.913 185.569 417.883 185.577C417.853 185.584 417.824 185.597 417.799 185.615L411.942 189.718C411.892 189.753 411.857 189.807 411.846 189.867C411.834 189.927 411.847 189.99 411.881 190.041L413.486 192.513C413.503 192.539 413.525 192.562 413.552 192.58C413.578 192.598 413.607 192.611 413.638 192.617C413.67 192.623 413.702 192.623 413.733 192.617C413.764 192.61 413.793 192.597 413.819 192.579L419.773 188.41C419.825 188.373 419.859 188.317 419.87 188.255C419.88 188.193 419.866 188.129 419.83 188.077Z" fill="#464A5F"/>
<path d="M438.462 169.683L436.923 167.401C436.888 167.35 436.834 167.314 436.773 167.302C436.711 167.289 436.648 167.301 436.595 167.335L423.594 176.104C423.568 176.12 423.546 176.142 423.529 176.167C423.511 176.193 423.499 176.221 423.493 176.251C423.487 176.281 423.487 176.312 423.493 176.342C423.499 176.373 423.51 176.401 423.528 176.427L425.128 178.888C425.145 178.915 425.167 178.938 425.193 178.956C425.22 178.974 425.249 178.986 425.28 178.992C425.311 178.999 425.343 178.999 425.374 178.992C425.406 178.986 425.435 178.973 425.461 178.955L438.426 170.012C438.474 169.972 438.504 169.916 438.511 169.855C438.518 169.793 438.5 169.732 438.462 169.683Z" fill="#464A5F"/>
<path opacity="0.1" d="M438.522 161.848L431.609 151.802C431.418 151.522 431.124 151.33 430.792 151.267C430.459 151.203 430.115 151.274 429.835 151.463L410.793 164.247C410.652 164.342 410.532 164.464 410.439 164.605C410.346 164.746 410.282 164.905 410.25 165.071C410.218 165.237 410.219 165.408 410.253 165.574C410.287 165.74 410.354 165.897 410.449 166.037L417.496 176.37C417.59 176.511 417.712 176.631 417.854 176.724C417.995 176.817 418.154 176.881 418.32 176.913C418.486 176.944 418.657 176.942 418.823 176.907C418.989 176.872 419.146 176.805 419.285 176.709L438.194 163.627C438.333 163.532 438.451 163.41 438.543 163.269C438.634 163.128 438.697 162.971 438.728 162.805C438.758 162.64 438.756 162.47 438.721 162.306C438.685 162.142 438.618 161.986 438.522 161.848Z" fill="black"/>
<path d="M438.84 161.908L431.927 151.862C431.735 151.584 431.441 151.393 431.109 151.329C430.777 151.266 430.433 151.336 430.152 151.524L411.136 164.318C410.995 164.412 410.874 164.533 410.78 164.674C410.686 164.815 410.621 164.974 410.588 165.14C410.556 165.307 410.557 165.478 410.591 165.644C410.625 165.81 410.692 165.968 410.787 166.108L417.813 176.431C417.908 176.571 418.03 176.691 418.171 176.784C418.313 176.877 418.471 176.942 418.638 176.973C418.804 177.005 418.975 177.003 419.141 176.968C419.307 176.933 419.464 176.865 419.603 176.769L438.522 163.688C438.66 163.592 438.777 163.47 438.868 163.328C438.959 163.187 439.021 163.029 439.05 162.864C439.08 162.698 439.076 162.529 439.04 162.365C439.004 162.201 438.936 162.046 438.84 161.908Z" fill="#939498"/>
<path d="M481.709 178.144L467.041 173.252L419.998 205.928L434.558 210.671C434.95 210.8 435.367 210.835 435.776 210.774C436.184 210.714 436.573 210.559 436.912 210.323L481.842 179.083C481.929 179.031 482 178.955 482.044 178.863C482.088 178.772 482.103 178.669 482.089 178.569C482.075 178.468 482.031 178.374 481.963 178.299C481.896 178.223 481.807 178.169 481.709 178.144Z" fill="#47E6B1"/>
</g>
<defs>
<clipPath id="clip0">
<rect width="556" height="389" fill="white"/>
</clipPath>
</defs>
</svg>
