<svg width="480" height="430" viewBox="0 0 480 430" fill="none" xmlns="http://www.w3.org/2000/svg">
<g clip-path="url(#clip0)">
<path d="M449.376 84.0578C466.528 109.063 462.732 141.456 462.732 141.456C462.732 141.456 431.128 133.307 413.976 108.301C396.823 83.2961 400.619 50.9033 400.619 50.9033C400.619 50.9033 432.224 59.0524 449.376 84.0578Z" fill="#2F2E41"/>
<path d="M437.034 88.8329C439.041 119.081 462.079 142.184 462.079 142.184C462.079 142.184 481.864 116.245 479.857 85.996C477.85 55.7474 454.811 32.6445 454.811 32.6445C454.811 32.6445 435.027 58.5843 437.034 88.8329Z" fill="#47E6B1"/>
<path d="M240.107 1.12162L472.979 118.108C474.915 119.08 476.521 120.602 477.596 122.483C478.67 124.363 479.166 126.519 479.02 128.68L465.49 328.93C465.429 329.828 465.147 330.697 464.668 331.46C464.189 332.222 463.529 332.855 462.746 333.3C461.963 333.746 461.082 333.991 460.182 334.013C459.281 334.035 458.389 333.834 457.585 333.428L219.402 211.969L231.63 6.00321C231.688 5.03571 231.985 4.09762 232.495 3.27318C233.005 2.44874 233.712 1.76379 234.552 1.27982C235.392 0.795853 236.34 0.528036 237.31 0.500423C238.279 0.472809 239.24 0.686264 240.107 1.12162Z" fill="#D0CDE1"/>
<path d="M242.788 5.20298L469.94 119.316C471.829 120.264 473.395 121.749 474.443 123.583C475.492 125.418 475.975 127.52 475.832 129.628L462.635 324.96C462.576 325.836 462.3 326.684 461.833 327.427C461.366 328.171 460.722 328.788 459.958 329.222C459.195 329.657 458.335 329.896 457.457 329.918C456.578 329.939 455.708 329.743 454.924 329.347L222.592 210.871L234.519 9.96468C234.576 9.02094 234.865 8.10589 235.363 7.3017C235.86 6.49751 236.55 5.82938 237.369 5.3573C238.189 4.88522 239.113 4.62398 240.059 4.59704C241.005 4.57011 241.943 4.77832 242.788 5.20298Z" fill="#3F3D56"/>
<path d="M252.743 20.36L458.649 123.8C460.361 124.66 461.781 126.005 462.732 127.668C463.682 129.331 464.12 131.237 463.99 133.147L452.027 310.21C451.974 311.004 451.724 311.773 451.301 312.447C450.877 313.121 450.294 313.68 449.601 314.074C448.909 314.468 448.13 314.684 447.334 314.704C446.537 314.724 445.749 314.546 445.038 314.187L234.436 206.792L245.248 24.6763C245.298 23.8208 245.561 22.9914 246.012 22.2624C246.463 21.5334 247.088 20.9278 247.831 20.4998C248.574 20.0719 249.412 19.8351 250.269 19.8107C251.127 19.7863 251.976 19.975 252.743 20.36Z" fill="white"/>
<path d="M40.2785 310.506L273.448 427.84C275.618 428.93 278.014 429.496 280.442 429.493C282.871 429.49 285.266 428.917 287.433 427.821L459.925 340.328C461.948 338.307 461.665 335.312 461.018 333.064C460.704 331.975 460.277 330.922 459.743 329.923L436.237 317.57L238.609 219.043L226.801 212.78C223.675 211.126 220.195 210.255 216.658 210.24C213.12 210.226 209.633 211.07 206.494 212.698L40.2055 299.008C39.1476 299.555 38.2615 300.383 37.6455 301.401C37.0295 302.42 36.7074 303.589 36.715 304.779C36.7225 305.969 37.0594 307.134 37.6883 308.145C38.3172 309.155 39.2137 309.972 40.2785 310.506Z" fill="#D0CDE1"/>
<path opacity="0.1" d="M40.2773 310.505L273.447 427.839C275.617 428.93 278.012 429.496 280.441 429.493C282.87 429.49 285.264 428.917 287.432 427.821L459.924 340.328C461.947 338.307 461.664 335.312 461.017 333.064L289.04 422.382C286.942 423.472 284.615 424.051 282.25 424.071C279.885 424.091 277.549 423.552 275.432 422.499L36.797 303.705C36.5727 305.061 36.7896 306.454 37.4161 307.678C38.0426 308.902 39.0454 309.893 40.2773 310.505Z" fill="black"/>
<path opacity="0.1" d="M261.592 345.661L186.079 307.532C184.559 306.765 182.876 306.374 181.173 306.393C179.47 306.413 177.796 306.841 176.294 307.643L132.489 331.028C131.983 331.298 131.561 331.702 131.269 332.195C130.976 332.689 130.825 333.253 130.832 333.826C130.839 334.399 131.003 334.96 131.307 335.446C131.611 335.933 132.042 336.327 132.555 336.585L209.547 375.379C210.826 376.023 212.243 376.343 213.674 376.31C215.106 376.277 216.507 375.893 217.755 375.191L261.734 350.433C262.163 350.192 262.518 349.838 262.76 349.41C263.001 348.981 263.122 348.495 263.107 348.004C263.092 347.512 262.943 347.034 262.676 346.621C262.409 346.208 262.034 345.876 261.592 345.661Z" fill="black"/>
<path opacity="0.1" d="M439.436 339.283L358.178 382.417C357.243 382.913 356.203 383.178 355.144 383.189C354.085 383.199 353.039 382.956 352.095 382.478L122.506 266.467C121.859 266.14 121.316 265.64 120.937 265.022C120.559 264.404 120.36 263.693 120.363 262.969C120.366 262.244 120.571 261.535 120.955 260.921C121.339 260.306 121.886 259.81 122.536 259.489L201.886 220.246C203.082 219.654 204.399 219.349 205.734 219.354C207.068 219.358 208.383 219.673 209.575 220.273L439.401 335.978C439.706 336.131 439.963 336.366 440.143 336.655C440.324 336.945 440.421 337.278 440.425 337.62C440.429 337.961 440.338 338.296 440.164 338.59C439.99 338.883 439.738 339.123 439.436 339.283Z" fill="black"/>
<path d="M309.802 124.17L309.395 124.984L384.102 162.308L384.51 161.494L309.802 124.17Z" fill="#47E6B1"/>
<path d="M309.795 135.116L309.381 135.926L384.109 174.121L384.523 173.311L309.795 135.116Z" fill="#47E6B1"/>
<path d="M323.475 156.027L323.061 156.838L365.875 178.697L366.29 177.886L323.475 156.027Z" fill="#47E6B1"/>
<path d="M89.5656 201.604C89.5656 201.604 71.3476 193.672 62.7907 202.051C54.2338 210.429 85.7011 207.671 89.5656 201.604Z" fill="#3F3D56"/>
<path d="M58.1064 163.986C64.2286 153.65 76.341 153.168 76.341 153.168C76.341 153.168 88.1438 151.66 95.7153 167.402C102.772 182.076 112.512 196.243 97.2833 199.678L94.5325 191.123L92.829 200.315C90.6607 200.471 88.4854 200.508 86.3131 200.426C70.004 199.9 54.4722 200.58 54.9723 194.733C55.6371 186.959 52.2155 173.932 58.1064 163.986Z" fill="#2F2E41"/>
<path d="M49.5404 351.369C49.5404 351.369 57.2693 365.711 62.2378 365.711C67.2063 365.711 66.6543 375.089 65.5501 377.295C64.446 379.502 61.6857 384.466 66.1022 391.637C67.6449 394.142 67.3689 396.984 66.3566 399.621C63.5202 407.01 52.4867 404.771 52.8387 396.865C52.8426 396.778 52.8473 396.69 52.8528 396.602C53.4048 387.776 48.9884 373.986 44.5719 370.676C40.1554 367.366 36.291 358.54 36.291 358.54L49.5404 351.369Z" fill="#FFB8B8"/>
<path d="M102.538 348.059C102.538 348.059 94.8089 362.401 89.8404 362.401C84.8718 362.401 85.4239 371.778 86.528 373.985C87.6321 376.191 90.3924 381.156 85.976 388.327C84.4333 390.832 84.7093 393.673 85.7216 396.31C88.558 403.699 99.5915 401.461 99.2395 393.555C99.2356 393.467 99.2309 393.38 99.2254 393.291C98.6733 384.466 103.09 370.675 107.506 367.365C111.923 364.056 115.787 355.23 115.787 355.23L102.538 348.059Z" fill="#FFB8B8"/>
<path d="M96.4658 277.453L99.7781 284.624C99.7781 284.624 148.359 300.621 143.943 319.376C139.526 338.131 117.996 367.367 114.684 366.263C111.371 365.16 93.7055 361.85 93.1534 352.473C92.6014 343.095 105.851 326.547 105.851 326.547L87.6328 309.998L61.1227 309.447L38.4995 326.547C38.4995 326.547 62.2381 347.508 51.749 355.783C41.2598 364.057 25.8022 369.573 23.5939 366.263C21.3857 362.954 -3.45699 313.86 0.407424 309.447C4.27184 305.034 43.4681 288.485 43.4681 288.485L53.9572 273.591L94.8096 271.385L96.4658 277.453Z" fill="#2F2E41"/>
<path d="M86.5296 186.433C86.5296 186.433 83.7693 204.637 89.2899 206.843C94.8105 209.05 78.2487 218.427 78.2487 218.427H68.8637L62.791 205.74C62.791 205.74 68.3116 195.811 64.9993 186.433C61.6869 177.056 86.5296 186.433 86.5296 186.433Z" fill="#FFB8B8"/>
<path opacity="0.1" d="M86.5296 186.433C86.5296 186.433 83.7693 204.637 89.2899 206.843C94.8105 209.05 78.2487 218.427 78.2487 218.427H68.8637L62.791 205.74C62.791 205.74 68.3116 195.811 64.9993 186.433C61.6869 177.056 86.5296 186.433 86.5296 186.433Z" fill="black"/>
<path d="M90.3923 201.879C90.3923 201.879 84.3197 208.498 83.2156 209.602C82.1115 210.705 77.1429 216.773 66.6538 207.947C56.1647 199.121 55.0605 209.602 55.0605 209.602V275.796C55.0605 275.796 63.8935 271.935 71.0703 275.796C78.247 279.657 93.1526 274.693 93.1526 274.693L95.9129 206.292L90.3923 201.879Z" fill="#D0CDE1"/>
<path d="M86.3376 201.879C86.3376 201.879 91.4968 199.673 95.9133 201.879C100.33 204.086 115.787 215.118 114.683 220.083C113.579 225.047 99.2257 259.799 109.163 276.348C119.1 292.896 120.756 297.309 120.756 297.309L96.4654 284.622C96.4654 284.622 77.6954 273.038 79.3515 265.867C81.0077 258.696 86.3376 201.879 86.3376 201.879Z" fill="#3F3D56"/>
<path d="M64.4391 201.879C64.4391 201.879 52.8524 202.982 52.3003 204.085C51.7483 205.189 34.9105 209.877 36.0146 214.842C37.1187 219.807 52.3003 264.212 45.6756 272.486C39.0509 280.761 28.0097 292.345 31.8741 293.448C35.7386 294.551 42.3633 291.793 48.988 293.448C55.6127 295.103 71.0704 281.312 69.4142 266.418C67.758 251.525 69.4012 205.74 64.4391 201.879Z" fill="#3F3D56"/>
<path d="M92.0498 307.239V312.755C92.0498 312.755 94.8102 325.442 85.9772 324.89C77.1442 324.339 82.6648 309.445 82.6648 309.445L83.2169 304.48L92.0498 307.239Z" fill="#FFB8B8"/>
<path d="M67.2059 307.791C67.2059 307.791 73.2786 320.478 67.2059 321.582C61.1333 322.685 56.7168 314.41 56.7168 312.204C56.7168 309.997 67.2059 307.791 67.2059 307.791Z" fill="#FFB8B8"/>
<path d="M59.2018 181.194C59.8116 181.194 60.3059 180.206 60.3059 178.988C60.3059 177.769 59.8116 176.781 59.2018 176.781C58.592 176.781 58.0977 177.769 58.0977 178.988C58.0977 180.206 58.592 181.194 59.2018 181.194Z" fill="#FFB8B8"/>
<path d="M91.774 181.194C92.3838 181.194 92.8782 180.206 92.8782 178.988C92.8782 177.769 92.3838 176.781 91.774 176.781C91.1643 176.781 90.6699 177.769 90.6699 178.988C90.6699 180.206 91.1643 181.194 91.774 181.194Z" fill="#FFB8B8"/>
<path d="M49.5409 209.051C49.5409 209.051 35.7395 209.051 36.2915 214.567C36.8436 220.083 55.0615 314.962 55.0615 314.962C55.0615 314.962 62.7904 307.791 69.4151 309.446L49.5409 209.051Z" fill="#3F3D56"/>
<path d="M103.09 210.705C103.09 210.705 116.892 213.463 116.892 221.737C116.892 230.012 97.0175 309.445 94.2572 309.445C91.4969 309.445 81.0078 307.79 81.0078 305.032C81.0078 302.274 103.09 210.705 103.09 210.705Z" fill="#3F3D56"/>
<path opacity="0.2" d="M100.054 226.979L87.6328 275.516C87.6328 275.516 93.4294 233.046 100.054 226.979Z" fill="black"/>
<path opacity="0.2" d="M51.7402 220.158L64.3029 283.619C64.3029 283.619 60.2878 223.819 51.7402 220.158Z" fill="black"/>
<path d="M75.4882 195.26C84.3302 195.26 91.498 188.097 91.498 179.263C91.498 170.428 84.3302 163.266 75.4882 163.266C66.6463 163.266 59.4785 170.428 59.4785 179.263C59.4785 188.097 66.6463 195.26 75.4882 195.26Z" fill="#FFB8B8"/>
<path d="M60.8142 162.989L72.7808 156.727L89.3058 159.288L92.7246 174.377L84.214 174.05L81.8364 168.507V173.959L77.9091 173.808L75.6297 164.982L74.2052 174.377L60.2441 174.093L60.8142 162.989Z" fill="#2F2E41"/>
<path d="M240.257 70.1181L233.658 85.7999L289.356 115.013L308.121 60.1436" fill="#F2F2F2"/>
<path d="M288.073 105.391L312.678 47.5407L256.126 19.7344L232.375 76.1783L288.073 105.391Z" fill="#47E6B1"/>
<path d="M254.79 41.8572L254.375 42.668L297.19 64.5273L297.604 63.7165L254.79 41.8572Z" fill="white"/>
<path d="M251.579 49.5535L251.164 50.3643L293.979 72.2236L294.393 71.4128L251.579 49.5535Z" fill="white"/>
</g>
<defs>
<clipPath id="clip0">
<rect width="480" height="429" fill="white" transform="translate(0 0.492188)"/>
</clipPath>
</defs>
</svg>
