<svg width="525" height="357" viewBox="0 0 525 357" fill="none" xmlns="http://www.w3.org/2000/svg">
<g clip-path="url(#clip0)">
<path d="M464.626 167.652H67.873V355.873H464.626V167.652Z" fill="#E6E6E6"/>
<path d="M453.282 183.791H79.2188V340.829H453.282V183.791Z" fill="white"/>
<path d="M390.727 213.021H381.041V222.705H390.727V213.021Z" fill="#E6E6E6"/>
<path d="M132.36 213.021H122.674V222.705H132.36V213.021Z" fill="#47E6B1"/>
<path d="M154.683 240.76H122.395V273.04H154.683V240.76Z" fill="#E6E6E6"/>
<path d="M464.458 156.777H67.7051V173.628H464.458V156.777Z" fill="#47E6B1"/>
<path d="M80.2295 172.065C81.9549 172.065 83.3536 170.667 83.3536 168.942C83.3536 167.217 81.9549 165.818 80.2295 165.818C78.5042 165.818 77.1055 167.217 77.1055 168.942C77.1055 170.667 78.5042 172.065 80.2295 172.065Z" fill="white"/>
<path d="M92.0889 172.065C93.8143 172.065 95.213 170.667 95.213 168.942C95.213 167.217 93.8143 165.818 92.0889 165.818C90.3635 165.818 88.9648 167.217 88.9648 168.942C88.9648 170.667 90.3635 172.065 92.0889 172.065Z" fill="white"/>
<path d="M103.946 172.065C105.672 172.065 107.07 170.667 107.07 168.942C107.07 167.217 105.672 165.818 103.946 165.818C102.221 165.818 100.822 167.217 100.822 168.942C100.822 170.667 102.221 172.065 103.946 172.065Z" fill="white"/>
<path d="M525 355.873H0V357.001H525V355.873Z" fill="#E6E6E6"/>
<path d="M267.276 243.99H188.17V248.53H267.276V243.99Z" fill="#E6E6E6"/>
<path d="M310.327 260.549H188.17V265.089H310.327V260.549Z" fill="#47E6B1"/>
<path d="M287.725 276.15H188.17V280.69H287.725V276.15Z" fill="#E6E6E6"/>
<path d="M246.289 291.695H188.17V296.235H246.289V291.695Z" fill="#E6E6E6"/>
<path d="M275.886 307.236H188.17V311.776H275.886V307.236Z" fill="#E6E6E6"/>
<path d="M407.409 213.021H397.723V222.705H407.409V213.021Z" fill="#E6E6E6"/>
<path d="M424.093 213.021H414.406V222.705H424.093V213.021Z" fill="#E6E6E6"/>
<path opacity="0.997" d="M404.419 296.234C415.284 296.234 424.091 287.429 424.091 276.567C424.091 265.705 415.284 256.9 404.419 256.9C393.555 256.9 384.748 265.705 384.748 276.567C384.748 287.429 393.555 296.234 404.419 296.234Z" fill="#47E6B1"/>
<path d="M106.291 53.2527C118.522 53.2527 128.437 43.3398 128.437 31.1117C128.437 18.8836 118.522 8.9707 106.291 8.9707C94.0598 8.9707 84.1445 18.8836 84.1445 31.1117C84.1445 43.3398 94.0598 53.2527 106.291 53.2527Z" fill="#2F2E41"/>
<path d="M51.1759 220.553H41.4766L36.8633 183.16H51.1748L51.1759 220.553Z" fill="#FEB8B8"/>
<path d="M34.5543 217.783H53.2552V229.555H22.7793C22.7793 226.433 24.0199 223.439 26.2281 221.231C28.4364 219.023 31.4314 217.783 34.5543 217.783Z" fill="#2F2E41"/>
<path d="M36.0386 215.142L26.7871 212.239L33.5834 175.18L47.2379 179.464L36.0386 215.142Z" fill="#FEB8B8"/>
<path d="M21.0041 207.524L38.8476 213.123L35.3218 224.355L6.24414 215.232C6.70714 213.757 7.4562 212.387 8.44857 211.202C9.44093 210.016 10.6571 209.037 12.0278 208.322C13.3984 207.606 14.8966 207.167 16.4369 207.031C17.9771 206.894 19.5293 207.062 21.0046 207.524L21.0041 207.524Z" fill="#2F2E41"/>
<path d="M39.1941 200.221C38.7704 200.221 38.3502 200.145 37.9535 199.996L30.8172 197.322C30.0163 197.019 29.351 196.438 28.9425 195.686C28.5339 194.934 28.4094 194.059 28.5915 193.223C30.3875 185.149 36.5088 157.662 39.8607 142.919C43.8357 125.431 101.826 122.181 104.292 122.052L104.495 122.041L111.019 130.233C113.376 137.808 112.629 143.716 108.798 147.795C97.6197 159.693 64.2459 152.31 60.2664 151.376L42.5285 197.93C42.27 198.604 41.8131 199.184 41.2181 199.593C40.6231 200.002 39.9179 200.221 39.1958 200.221H39.1941Z" fill="#2F2E41"/>
<path d="M49.4771 205.757C49.0534 205.757 48.6331 205.681 48.2365 205.532L41.1025 202.857C40.3015 202.554 39.6361 201.974 39.2276 201.221C38.819 200.469 38.6945 199.595 38.8767 198.758C40.6728 190.684 46.794 163.197 50.1459 148.454C54.1209 130.966 112.111 127.717 114.578 127.587L114.781 127.576L121.302 135.771C123.659 143.345 122.912 149.254 119.081 153.332C107.903 165.228 74.5288 157.847 70.5493 156.913L52.8093 203.465C52.5507 204.14 52.0938 204.719 51.4988 205.129C50.9038 205.538 50.1987 205.757 49.4766 205.757L49.4771 205.757Z" fill="#2F2E41"/>
<path d="M28.838 91.8698C29.0999 92.2203 29.3339 92.591 29.5378 92.9782L68.5479 97.0869L74.1645 89.3892L86.8913 96.3433L75.8618 115.022L28.0192 102.827C26.8121 104.003 25.2753 104.784 23.6133 105.067C21.9513 105.349 20.2427 105.118 18.7149 104.406C17.1871 103.694 15.9124 102.533 15.0603 101.079C14.2083 99.6245 13.8193 97.9454 13.945 96.2647C14.0708 94.584 14.7054 92.9814 15.7644 91.67C16.8234 90.3587 18.2566 89.4007 19.8734 88.9235C21.4903 88.4464 23.2141 88.4727 24.8156 88.9989C26.4172 89.525 27.8205 90.5262 28.8391 91.8692L28.838 91.8698Z" fill="#FEB8B8"/>
<path d="M119.491 138.907C118.927 138.906 118.372 138.77 117.87 138.512C110.07 134.547 94.8801 127.679 80.7948 126.242C80.3127 126.195 79.8459 126.048 79.4242 125.809C79.0026 125.571 78.6354 125.247 78.3463 124.859C78.0516 124.466 77.8409 124.017 77.7275 123.539C77.6141 123.062 77.6003 122.566 77.6871 122.083C78.9581 115.049 81.8735 97.1365 81.498 82.7812C81.3874 78.3673 82.7823 74.0471 85.4533 70.5308C88.1243 67.0145 91.9125 64.5115 96.1952 63.4331C98.7727 62.7532 101.391 62.237 104.033 61.8878C107.072 61.5031 110.158 61.8352 113.045 62.8574C115.932 63.8796 118.54 65.5636 120.658 67.7745C122.777 69.9853 124.349 72.6616 125.247 75.5888C126.146 78.5161 126.346 81.613 125.831 84.6315C123.32 99.5083 120.787 120.287 122.988 134.791C123.089 135.441 123.008 136.107 122.754 136.714C122.501 137.321 122.084 137.846 121.55 138.23C120.952 138.668 120.232 138.905 119.491 138.907Z" fill="#CCCCCC"/>
<path d="M82.2195 101.067C81.7332 101.066 81.2523 100.966 80.8063 100.772L70.6441 96.3749C69.7785 95.9991 69.0973 95.2954 68.7501 94.4182C68.4028 93.541 68.4177 92.5618 68.7917 91.6956L76.6469 73.554C77.1135 72.4547 77.7922 71.458 78.644 70.6209C79.4959 69.7838 80.5044 69.1227 81.6118 68.6752C82.7193 68.2277 83.9041 68.0027 85.0985 68.013C86.293 68.0233 87.4737 68.2687 88.5733 68.7352C89.6729 69.2017 90.6698 69.8802 91.5071 70.7319C92.3444 71.5835 93.0057 72.5917 93.4533 73.6989C93.9009 74.8061 94.1259 75.9906 94.1156 77.1848C94.1053 78.3789 93.8598 79.5594 93.3932 80.6587C93.3763 80.6986 93.359 80.7384 93.3415 80.7782L85.4862 98.9203C85.2097 99.5571 84.7533 100.099 84.1731 100.481C83.5928 100.862 82.9139 101.066 82.2195 101.067Z" fill="#CCCCCC"/>
<path d="M105.481 55.716C116.21 55.716 124.908 47.0204 124.908 36.294C124.908 25.5676 116.21 16.8721 105.481 16.8721C94.7523 16.8721 86.0547 25.5676 86.0547 36.294C86.0547 47.0204 94.7523 55.716 105.481 55.716Z" fill="#FEB8B8"/>
<path d="M85.7051 26.7503C94.9068 32.3662 105.281 35.7835 116.019 36.7364L112.824 32.909C115.15 33.769 117.598 34.2549 120.077 34.3488C121.318 34.3848 122.55 34.1294 123.675 33.6032C124.8 33.0769 125.785 32.2945 126.552 31.3186C127.179 30.3056 127.551 29.1562 127.637 27.9684C127.723 26.7806 127.521 25.5896 127.047 24.4969C126.073 22.3167 124.558 20.4219 122.645 18.9928C119.253 16.3108 115.251 14.5092 110.994 13.7486C106.738 12.988 102.359 13.2921 98.2481 14.6337C95.4283 15.4762 92.9029 17.0957 90.9613 19.3068C89.1195 21.5783 85.5743 23.6022 86.5171 26.3698L85.7051 26.7503Z" fill="#2F2E41"/>
<path d="M107.219 10.3887C111.091 6.46195 115.777 3.43158 120.947 1.51093C124.229 0.13079 127.828 -0.315808 131.347 0.220459C134.817 0.918408 138.098 3.31782 139.066 6.72131C139.856 9.50409 139.04 12.5005 137.812 15.1215C136.584 17.7425 134.944 20.1707 133.95 22.888C132.937 25.6608 132.632 28.6427 133.063 31.5632C133.495 34.4836 134.649 37.2501 136.422 39.6114C138.194 41.9727 140.528 43.854 143.212 45.0847C145.896 46.3153 148.845 46.8562 151.791 46.6583C148.382 47.1156 145.24 48.7172 141.908 49.5691C138.576 50.421 134.643 50.364 132.167 47.977C129.547 45.4519 129.495 41.3465 129.622 37.7107L130.186 21.4955C130.282 18.7392 130.364 15.8944 129.369 13.3208C128.374 10.7472 126.012 8.49494 123.253 8.51862C121.162 8.5361 119.312 9.80289 117.635 11.0516C115.958 12.3004 114.183 13.6326 112.101 13.8186C110.018 14.0047 107.64 12.4656 107.796 10.3796" fill="#2F2E41"/>
<path d="M72.8202 133.918C71.533 133.916 70.2622 133.629 69.0993 133.078C67.9365 132.526 66.9104 131.723 66.0952 130.727C65.28 129.732 64.6958 128.567 64.3848 127.319C64.0738 126.07 64.0437 124.768 64.2967 123.506C64.5497 122.244 65.0794 121.054 65.8477 120.022C66.6161 118.989 67.6039 118.14 68.7401 117.535C69.8762 116.931 71.1324 116.585 72.4181 116.524C73.7038 116.463 74.9871 116.688 76.1754 117.182C76.5329 117.333 76.8794 117.509 77.2125 117.708L112.601 101.826L113.595 92.2304L128.849 91.8223L128.748 107.797C128.73 109.647 128.115 111.443 126.994 112.916C125.874 114.39 124.309 115.463 122.53 115.976L81.1474 127.751C81.0676 128.024 80.9735 128.293 80.8655 128.556C80.2015 130.142 79.0843 131.496 77.6539 132.45C76.2235 133.404 74.5434 133.914 72.8241 133.917L72.8202 133.918Z" fill="#FEB8B8"/>
<path d="M127.558 99.6493C127.124 99.8687 126.65 99.9969 126.164 100.026L115.112 100.705C114.17 100.762 113.244 100.443 112.537 99.8182C111.83 99.1933 111.4 98.3137 111.341 97.3722L110.128 77.6402C109.983 75.2345 110.798 72.8695 112.396 71.0648C113.994 69.2601 116.243 68.1632 118.649 68.0152C121.055 67.8672 123.422 68.6802 125.228 70.2755C127.035 71.8708 128.135 74.118 128.286 76.5234L129.499 96.2554C129.541 96.9485 129.38 97.6389 129.036 98.2417C128.691 98.8446 128.178 99.3338 127.559 99.6493H127.558Z" fill="#CCCCCC"/>
<path d="M105.302 130.377H39.2858C38.7321 130.377 38.2832 130.826 38.2832 131.379V134.91C38.2832 135.463 38.7321 135.912 39.2858 135.912H105.302C105.856 135.912 106.305 135.463 106.305 134.91V131.379C106.305 130.826 105.856 130.377 105.302 130.377Z" fill="#3F3D56"/>
<path d="M12.916 130.772V92.0247C12.9177 90.662 13.4598 89.3556 14.4236 88.392C15.3874 87.4285 16.6942 86.8864 18.0572 86.8848H88.4517C89.8148 86.8863 91.1216 87.4283 92.0854 88.3919C93.0493 89.3554 93.5914 90.6619 93.5929 92.0247V130.772C93.5914 132.135 93.0493 133.441 92.0854 134.405C91.1216 135.369 89.8148 135.911 88.4517 135.912H18.0572C16.6942 135.91 15.3874 135.368 14.4236 134.405C13.4598 133.441 12.9177 132.135 12.916 130.772Z" fill="#3F3D56"/>
<path d="M54.1013 116.146C56.7224 116.146 58.8472 114.021 58.8472 111.401C58.8472 108.781 56.7224 106.656 54.1013 106.656C51.4803 106.656 49.3555 108.781 49.3555 111.401C49.3555 114.021 51.4803 116.146 54.1013 116.146Z" fill="white"/>
</g>
<defs>
<clipPath id="clip0">
<rect width="525" height="357" fill="white"/>
</clipPath>
</defs>
</svg>
