<?xml version="1.0" encoding="utf-8"?>
<!-- Generator: Adobe Illustrator 25.0.1, SVG Export Plug-In . SVG Version: 6.00 Build 0)  -->
<svg version="1.1" id="fcaf27ad-0cd1-4b30-b749-00e238214d87"
	 xmlns="http://www.w3.org/2000/svg" xmlns:xlink="http://www.w3.org/1999/xlink" x="0px" y="0px" viewBox="0 0 910.9 705"
	 style="enable-background:new 0 0 910.9 705;" xml:space="preserve">
<style type="text/css">
	.st0{fill:#3F3D56;}
	.st1{fill:#FFFFFF;}
	.st2{fill:#E6E6E6;}
	.st3{fill:#FBD69A;}
	.st4{fill:#2F2E41;}
	.st5{fill:#FFB9B9;}
	.st6{fill:#D0CDE1;}
	.st7{opacity:0.15;enable-background:new    ;}
</style>
<ellipse class="st0" cx="697.3" cy="542.8" rx="48.5" ry="99"/>
<path class="st1" d="M692.8,704.8c19.4-116.6,0.2-232.7,0-233.8l-3.8,0.6c0.2,1.2,19.3,116.7,0,232.6L692.8,704.8z"/>
<rect x="673.7" y="510" transform="matrix(0.4717 -0.8818 0.8818 0.4717 -114.7021 878.3879)" class="st1" width="3.8" height="49.7"/>
<rect x="697.1" y="544.8" transform="matrix(0.8816 -0.4719 0.4719 0.8816 -172.5339 405.3813)" class="st1" width="49.7" height="3.8"/>
<ellipse class="st2" cx="813.9" cy="386.1" rx="94.9" ry="193.6"/>
<path class="st1" d="M803.3,702.7c37.9-227.7,0.4-454.5,0-456.8l-3.8,0.6c0.4,2.3,37.8,228.5,0,455.5L803.3,702.7z"/>
<rect x="769.5" y="322.1" transform="matrix(0.4717 -0.8818 0.8818 0.4717 80.6601 876.155)" class="st1" width="3.8" height="97.3"/>
<rect x="813.4" y="391.9" transform="matrix(0.8817 -0.4719 0.4719 0.8817 -83.8027 453.375)" class="st1" width="97.3" height="3.8"/>
<path class="st3" d="M593.5,370.4H88.9c-3.9,0-7,3.1-7,7v318.9c0,3.9,3.1,7,7,7h504.6c3.9,0,7-3.1,7-7V377.4
	C600.5,373.6,597.4,370.4,593.5,370.4z M550.1,412.1v45.5h-57.2v-48.5h54.2C548.8,409.1,550.1,410.4,550.1,412.1z M550.1,534.9
	h-57.2v-61.5h57.2V534.9z M550.1,616.6H373.4v-65.9h176.7V616.6z M132.3,550.7h49.5v65.9h-49.5V550.7z M132.3,473.4h49.5v61.5h-49.5
	V473.4z M477.1,534.9H373.4v-61.5h103.7V534.9z M197.7,534.9v-26.4h159.9v26.4H197.7z M357.6,492.7H197.7v-19.3h159.9V492.7z
	 M197.7,550.7h69.4v65.9h-69.4V550.7z M282.9,550.7h74.7v65.9h-74.7V550.7z M477.1,457.5H373.4v-48.5h103.7V457.5z M357.6,457.5
	H197.7v-48.5h159.9V457.5z M132.3,412.1c0-1.6,1.3-3,3-3h46.5v48.5h-49.5V412.1z M132.3,661.6v-29.3h134.8v32.3H135.3
	C133.7,664.6,132.3,663.3,132.3,661.6z M282.9,632.4h74.7v32.3h-74.7V632.4z M550.1,661.6c0,1.7-1.3,3-3,3H373.4v-32.3h176.7V661.6z
	"/>
<path class="st3" d="M550.1,473.4v-15.8h-57.2v-48.5h-15.8v48.5H373.4v-48.5h-15.8v48.5H197.7v-48.5h-15.8v48.5h-49.5v15.8h49.5
	v61.5h-49.5v15.8h49.5v65.9h-49.5v15.8h134.8v32.3h15.8v-32.3h74.7v32.3h15.8v-32.3h176.7v-15.8H373.4v-65.9h176.7v-15.8h-57.2
	v-61.5H550.1z M357.6,473.4v19.3H197.7v-19.3H357.6z M197.7,508.5h159.9v26.4H197.7V508.5z M197.7,616.6v-65.9h69.4v65.9H197.7z
	 M357.6,616.6h-74.7v-65.9h74.7V616.6z M477.1,534.9H373.4v-61.5h103.7V534.9z"/>
<rect x="126.6" y="457.5" class="st3" width="424.5" height="15.8"/>
<rect x="126.6" y="534.9" class="st3" width="424.5" height="15.8"/>
<rect x="189.8" y="492.7" class="st3" width="177.5" height="15.8"/>
<rect x="126.6" y="616.6" class="st3" width="424.5" height="15.8"/>
<rect x="181.9" y="408.1" class="st3" width="15.8" height="218.2"/>
<rect x="477.1" y="408.1" class="st3" width="15.8" height="135.6"/>
<rect x="357.6" y="408.1" class="st3" width="15.8" height="257.6"/>
<rect x="267.1" y="537.5" class="st3" width="15.8" height="128.2"/>
<circle class="st1" cx="365.5" cy="544.8" r="20.2"/>
<path class="st1" d="M367.9,175.4c-68.8,0-124.7,55.8-124.7,124.6c0,68.9,55.8,124.7,124.7,124.7c68.8,0,124.7-55.8,124.7-124.7
	C492.6,231.2,436.8,175.4,367.9,175.4z M368.9,344c-24.7,0-44.7-20-44.7-44.7s20-44.7,44.7-44.7s44.7,20,44.7,44.7
	S393.6,344,368.9,344z"/>
<polygon class="st1" points="369.1,502.7 329.8,435.4 290.4,368.2 368.3,367.7 446.3,367.2 407.7,435 "/>
<path class="st4" d="M365,0.6c0,0-26.7-7.5-34.6,28.9s-1.9,54.9-1.9,54.9l59.5-7C388.1,77.5,405,11.7,365,0.6z"/>
<path class="st5" d="M325.1,158.5c0,0-39.1,3.9-32.2,19.7s7,17.2,7,17.2l34.4,61.3l11.2-11.6c0,0-12.5-27.4-12.5-36.2
	s-13-24.2-13-24.2l22.8-1.9L325.1,158.5z"/>
<path class="st5" d="M432.3,177.2l13,28.3c0,0,9.8,9.8,20.4,48.8s13,37.6,13,37.6l-16.3,3.3c0,0-18.1-42.3-24.2-45.5
	s-13.5-33-13.5-33l-21.4-26.9l6.5-14.4L432.3,177.2z"/>
<path class="st4" d="M416.5,144.7l20,37.2c0,0-25.1-11.6-28.8,13.9L385,178.2c0,0-31.6,10.2-50.6,6.5c0,0,5.6-17.7-14.4-25.6
	l45.1-5.6l-1.9-9.8l4.6-9.3L416.5,144.7z"/>
<path class="st4" d="M337.1,248.3c0,0-12.5-1.9-9.3,9.3l6.5,22.3c0,0-8.4,22.8,4.6,17.7s21.4-36.7,21.4-36.7s5.6-24.2,0-24.2
	s-23.2-3.7-21.4,0S337.1,248.3,337.1,248.3z"/>
<path class="st4" d="M477.4,285.5c0,0-16.3-4.2-20,2.3s-2.8,27.9-2.8,28.3s5.6,5.1,7.4,5.1s13.5,20.9,29.3,13.5
	S477.4,285.5,477.4,285.5z"/>
<ellipse transform="matrix(0.1602 -0.9871 0.9871 0.1602 263.866 388.6483)" class="st5" cx="360.3" cy="39.3" rx="18.1" ry="18.1"/>
<path class="st5" d="M375.2,43c0,0,3.7,19.5,7,22.3s-24.6,7-24.6,7s4.2-13.5-0.9-20.4S375.2,43,375.2,43z"/>
<path class="st6" d="M424,153.5c-3.2,0-11.2-1.3-20.3-3c-7.8-1.5-16.4-3.2-23.1-4.6c-7.2-1.5-12.4-2.6-12.4-2.6s-1.9,11.6-7.9,10.2
	c-5.2-1.2-20.8-55.5-25-70.5c-0.6-2.3,0.3-4.6,2.3-5.9l21.4-13l5.5,2.1c0,0,9.2-7.1,14.6-7.3s14.7-1.5,14.7-1.5s10.7,0.9,12.5,8.8
	s2.8,57.1,9.8,66S432.8,153.5,424,153.5z"/>
<path class="st5" d="M358.9,179.6c0,0,0,18.1,12.1,15.3s0.9-19.5,0.9-19.5L358.9,179.6z"/>
<path class="st5" d="M392.4,181.4c0,0-4.2,21.4-13,18.1s0-22.3,0-22.3L392.4,181.4z"/>
<path class="st7" d="M411.9,130.8c0,0-4.5,10.9-8.2,19.8c-7.8-1.5-16.4-3.2-23.1-4.6c0.5-1.3,1.2-2.5,2-3.6c3.3-3.7,1.4-4.6,1.4-4.6
	c-2.8-5.6-0.5-13-0.5-13c-5.6-14.9,2.8-33.5,2.8-33.5L411.9,130.8z"/>
<path class="st6" d="M387.7,91.3c0,0-8.4,18.6-2.8,33.5c0,0-2.3,7.4,0.5,13c0,0,1.9,0.9-1.4,4.6s-6,16.7-3.7,19.5s-3.3,7.9-1.9,10.7
	s-2.3,6.5-2.3,6.5s13.9,2.8,16.3,7c0,0,2.8-3.3,1.4-7s-0.5-5.1,0.9-7.4s5.6-7.4,6-9.8s12.5-31.1,12.5-31.1l-5.7-52.5L387.7,91.3z"/>
<path class="st6" d="M339.4,78.3l-0.9,0.2c-2.5,0.5-4.3,2.6-4.3,5.2c0,4.7,0.3,12.9,1.4,24.4c1.9,18.6,8.4,46.5,9.8,49.2
	c2.2,4.9,4.7,9.7,7.4,14.4c4.2,7,5.1,4.6,4.2,7.9c-0.6,1.8,0,3.8,1.4,5.1c0,0,8.4-9.3,16.7-4.2c0.6-1.3,0.9-2.7,0.9-4.2
	c0-2.3,1.4-4.6-0.9-6s1.4-7.4-2.3-10.7s-4.2-2.8-3.7-6c0.2-2.2-0.1-4.4-0.9-6.5L339.4,78.3z"/>
<path class="st4" d="M367.1,16c0,0-7.5,19.9-25.9,28.2l-3-17.7L367.1,16z"/>
<ellipse class="st5" cx="378" cy="32.3" rx="2.6" ry="4.9"/>
</svg>
