<?xml version="1.0" encoding="utf-8"?>
<!-- Generator: Adobe Illustrator 25.0.1, SVG Export Plug-In . SVG Version: 6.00 Build 0)  -->
<svg version="1.1" id="b1a9ffcb-883a-40c3-a838-c4c452e3657e"
	 xmlns="http://www.w3.org/2000/svg" xmlns:xlink="http://www.w3.org/1999/xlink" x="0px" y="0px" viewBox="0 0 657.9 404.3"
	 style="enable-background:new 0 0 657.9 404.3;" xml:space="preserve">
<style type="text/css">
	.st0{fill:#2F2E41;}
	.st1{fill:#FFFFFF;}
	.st2{fill:#3F3D56;}
	.st3{fill:#E6E6E6;}
	.st4{fill:#F2F2F2;}
</style>
<circle class="st0" cx="486.9" cy="338.7" r="43.1"/>
<circle class="st1" cx="483.5" cy="328.3" r="14.7"/>
<circle class="st2" cx="477.6" cy="324.5" r="4.9"/>
<path class="st1" d="M485.2,309.6c-17.6,0-30-3.2-29.9-19.1s14.3-28.9,31.9-28.8s31.9,13,31.8,29C519,306.5,502.8,309.6,485.2,309.6
	z"/>
<path class="st3" d="M554.4,345.9c-5.1,17.5-19.8,29.8-35.2,40.2c-2.1,1.5-4.3,2.9-6.4,4.3c0,0,0,0,0,0c-0.1,0.1-0.2,0.1-0.3,0.2
	c-0.4,0.3-0.9,0.6-1.3,0.9l0.2,0.1c0,0,0.2,0.1,0,0c-0.1,0-0.2-0.1-0.2-0.1c-8.9-3.6-18-7.5-24.9-14.2c-7.1-7-11.3-18-7.4-27.2
	c0.5-1.2,1.1-2.4,1.9-3.4c0.3-0.4,0.6-0.9,1-1.3c6.6-8.1,18.5-9.2,26.5-2.6c2.7,2.2,4.7,5.1,5.8,8.4c1.1-10.5-7.5-19.3-15.9-25.8
	c-8.4-6.5-17.9-13.6-19.5-24.1c-0.9-5.8,1.1-11.5,4.8-16c0.1-0.1,0.2-0.3,0.3-0.4c4.5-5.3,10.8-8.7,17.7-9.5
	c12.8-1.3,25.3,5.5,34.6,14.4C551.1,303.9,560.2,325.9,554.4,345.9z"/>
<path class="st1" d="M530.4,322.9c2.5,3.8,4.3,8,5.6,12.4c1.1,3.9,1.5,8,1.4,12c-0.3,8.3-2.7,16.4-6.8,23.7
	c-3.1,5.5-6.9,10.6-11.3,15.1c-2.1,1.5-4.3,2.9-6.4,4.3c0,0,0,0,0,0c-0.1,0.1-0.2,0.1-0.3,0.2c-0.4,0.3-0.9,0.6-1.3,0.9
	c0,0,0.5,0.2,0.2,0.1c-0.1,0-0.2-0.1-0.2-0.1c1.6-13.3-3.3-26.6-13.2-35.7c-4.9-4.4-10.8-7.5-17.1-9.2c0.3-0.4,0.6-0.9,1-1.3
	c2.5,0.7,4.8,1.6,7.1,2.7c8.2,3.9,14.9,10.4,19.2,18.5c3.8,7.3,5.4,15.6,4.7,23.8c0.4-0.3,0.7-0.7,1.1-1c6.8-6.3,12.8-13.6,16.9-22
	c3.5-7.1,5.3-15,5.1-22.9c-0.3-8.7-3.8-16.7-8.8-23.6c-5.5-7.4-11.9-14.1-19.2-19.8c-7.3-5.9-15.4-10.8-23.9-14.8
	c-0.4-0.2-0.6-0.7-0.4-1.1c0.1-0.2,0.2-0.3,0.3-0.4c0.2-0.1,0.4-0.1,0.5,0c1.1,0.5,2.1,1,3.1,1.5c8.6,4.3,16.7,9.6,24.1,15.9
	C518.7,308.1,525.4,315,530.4,322.9z"/>
<ellipse class="st0" cx="132.8" cy="390.4" rx="10.9" ry="4.1"/>
<ellipse class="st0" cx="159" cy="389.8" rx="10.9" ry="4.1"/>
<ellipse transform="matrix(0.8664 -0.4994 0.4994 0.8664 -134.0412 137.7326)" class="st0" cx="190.3" cy="319.3" rx="21.5" ry="6.8"/>
<ellipse transform="matrix(0.1602 -0.9871 0.9871 0.1602 -209.69 419.2183)" class="st0" cx="141.5" cy="332.8" rx="43.1" ry="43.1"/>
<rect x="121.9" y="366.6" class="st0" width="13.1" height="23.4"/>
<rect x="148.1" y="366.6" class="st0" width="13.1" height="23.4"/>
<circle class="st1" cx="142.6" cy="321.9" r="14.7"/>
<circle class="st2" cx="142.6" cy="321.9" r="4.9"/>
<path class="st3" d="M99.7,292.8c-3.5-15.6,7.6-31.3,24.8-35.1s33.9,5.7,37.4,21.2s-7.9,21.3-25.1,25.2S103.2,308.4,99.7,292.8z"/>
<ellipse transform="matrix(0.4285 -0.9035 0.9035 0.4285 -229.5203 262.8278)" class="st0" cx="93" cy="312.9" rx="6.8" ry="21.5"/>
<path class="st1" d="M120.4,348.4c0,4.2,10.9,12.5,22.9,12.5s23.3-11.9,23.3-16.1s-11.3,0.8-23.3,0.8S120.4,344.2,120.4,348.4z"/>
<ellipse class="st0" cx="291.7" cy="390.4" rx="10.9" ry="4.1"/>
<ellipse class="st0" cx="265.5" cy="389.8" rx="10.9" ry="4.1"/>
<ellipse transform="matrix(0.4994 -0.8664 0.8664 0.4994 -159.4271 362.7076)" class="st0" cx="234.2" cy="319.3" rx="6.8" ry="21.5"/>
<circle class="st0" cx="283" cy="332.8" r="43.1"/>
<rect x="289.5" y="366.6" class="st0" width="13.1" height="23.4"/>
<rect x="263.3" y="366.6" class="st0" width="13.1" height="23.4"/>
<circle class="st1" cx="272.9" cy="321.9" r="14.7"/>
<ellipse transform="matrix(0.7074 -0.7068 0.7068 0.7074 -148.3375 281.5271)" class="st2" cx="265.9" cy="319.9" rx="4.9" ry="4.9"/>
<path class="st1" d="M287.6,304c-17.2-3.8-28.6-9.6-25.1-25.2s20.2-25.1,37.4-21.2s28.3,19.6,24.8,35.1S304.8,307.9,287.6,304z"/>
<ellipse transform="matrix(0.9665 -0.2567 0.2567 0.9665 -77.7198 94.3378)" class="st0" cx="322.5" cy="344.9" rx="6.8" ry="21.5"/>
<path class="st1" d="M273.2,345.7c-7.9,0-15.3-5-15.3-0.8s7.4,16.1,15.3,16.1s15-8.3,15-12.5S281.1,345.7,273.2,345.7z"/>
<path class="st1" d="M217.6,261.4h-3.8c-7.1,0-12.9-5.8-12.9-12.9v-3.2c0-8,1.5-14.6,4.5-19.8c3.6-6,7.8-11.7,12.5-16.9
	c3.1-3.2,6-6.6,8.5-10.3c1.8-2.9,2.8-6.2,2.7-9.6c0-8-5.2-11.9-15.9-11.9c-5.9,0.1-11.8,1-17.5,2.6c-7.8,2.2-16-2.3-18.2-10.1
	c-0.4-1.3-0.6-2.7-0.6-4v-6.5c0-5.7,3.3-10.9,8.5-13.3c10-4.3,20.9-6.4,31.8-6.3c11.4,0,21.8,1.9,30.7,5.7c8.9,3.8,16,9.2,21,15.9
	c5,6.7,7.6,14.9,7.5,23.2c0,9-2.5,16.8-7.3,23.2c-4.8,6.4-11.6,13.4-20.4,20.8c-4.6,3.8-9,7.9-13.1,12.3c-2.6,2.9-4.5,6.3-5.4,10.1
	C229.2,256.9,223.9,261.4,217.6,261.4z"/>
<path class="st1" d="M215.4,322.2h-0.5c-13.2,0-23.9-10.7-23.9-24c0-13.2,10.7-23.9,23.9-23.9h0.5c13.2,0,24,10.7,24,23.9
	C239.4,311.5,228.7,322.2,215.4,322.2C215.5,322.2,215.4,322.2,215.4,322.2z"/>
<ellipse transform="matrix(0.9998 -1.955360e-02 1.955360e-02 0.9998 -6.9269 9.4137)" class="st0" cx="477.9" cy="358.9" rx="21.5" ry="6.8"/>
<path class="st4" d="M544.4,198.4h-26c-2.8,0-5-2.2-5-5v-26c0-2.8,2.2-5,5-5h26c2.8,0,5,2.2,5,5v26
	C549.4,196.2,547.1,198.4,544.4,198.4z M518.4,164.4c-1.7,0-3,1.3-3,3v26c0,1.7,1.3,3,3,3h26c1.7,0,3-1.3,3-3v-26c0-1.7-1.3-3-3-3
	H518.4z"/>
<path class="st4" d="M556.4,181.4h-26c-2.8,0-5-2.2-5-5v-26c0-2.8,2.2-5,5-5h26c2.8,0,5,2.2,5,5v26
	C561.4,179.2,559.1,181.4,556.4,181.4z M530.4,147.4c-1.7,0-3,1.3-3,3v26c0,1.7,1.3,3,3,3h26c1.7,0,3-1.3,3-3v-26c0-1.7-1.3-3-3-3
	H530.4z"/>
<path class="st4" d="M264.2,101.4h-26c-2.8,0-5-2.2-5-5v-26c0-2.8,2.2-5,5-5h26c2.8,0,5,2.2,5,5v26
	C269.2,99.2,267,101.4,264.2,101.4z M238.2,67.4c-1.7,0-3,1.3-3,3v26c0,1.7,1.3,3,3,3h26c1.7,0,3-1.3,3-3v-26c0-1.7-1.3-3-3-3H238.2
	z"/>
<path class="st4" d="M248.2,88.4h-26c-2.8,0-5-2.2-5-5v-26c0-2.8,2.2-5,5-5h26c2.8,0,5,2.2,5,5v26C253.2,86.2,251,88.4,248.2,88.4z
	 M222.2,54.4c-1.7,0-3,1.3-3,3v26c0,1.7,1.3,3,3,3h26c1.7,0,3-1.3,3-3v-26c0-1.7-1.3-3-3-3H222.2z"/>
<circle class="st4" cx="380.3" cy="242.1" r="6.5"/>
<circle class="st4" cx="120.3" cy="219.1" r="6.5"/>
<circle class="st4" cx="556.3" cy="275.1" r="6.5"/>
</svg>
