<?xml version="1.0" encoding="utf-8"?>
<!-- Generator: Adobe Illustrator 25.0.1, SVG Export Plug-In . SVG Version: 6.00 Build 0)  -->
<svg version="1.1" id="b1a9ffcb-883a-40c3-a838-c4c452e3657e"
	 xmlns="http://www.w3.org/2000/svg" xmlns:xlink="http://www.w3.org/1999/xlink" x="0px" y="0px" viewBox="0 0 1068.3 404.3"
	 style="enable-background:new 0 0 1068.3 404.3;" xml:space="preserve">
<style type="text/css">
	.st0{fill:#2F2E41;}
	.st1{fill:#FFFFFF;}
	.st2{fill:#3F3D56;}
	.st3{fill:#E6E6E6;}
	.st4{fill:#F2F2F2;}
</style>
<circle class="st0" cx="709.8" cy="338.7" r="43.1"/>
<circle class="st1" cx="706.4" cy="328.3" r="14.7"/>
<circle class="st2" cx="700.5" cy="324.5" r="4.9"/>
<path class="st1" d="M708.1,309.6c-17.6,0-30-3.2-29.9-19.1c0.1-15.9,14.3-28.9,31.9-28.8c17.6,0.1,31.9,13,31.8,29
	C741.9,306.5,725.7,309.6,708.1,309.6z"/>
<path class="st3" d="M777.3,345.9c-5.1,17.5-19.8,29.8-35.2,40.2c-2.1,1.5-4.3,2.9-6.4,4.3l0,0c-0.1,0.1-0.2,0.1-0.3,0.2
	c-0.4,0.3-0.9,0.6-1.3,0.9l0.2,0.1c0,0,0.2,0.1,0,0c-0.1,0-0.2-0.1-0.2-0.1c-8.9-3.6-18-7.5-24.9-14.2c-7.1-7-11.3-18-7.4-27.2
	c0.5-1.2,1.1-2.4,1.9-3.4c0.3-0.4,0.6-0.9,1-1.3c6.6-8.1,18.5-9.2,26.5-2.6c2.7,2.2,4.7,5.1,5.8,8.4c1.1-10.5-7.5-19.3-15.9-25.8
	c-8.4-6.5-17.9-13.6-19.5-24.1c-0.9-5.8,1.1-11.5,4.8-16c0.1-0.1,0.2-0.3,0.3-0.4c4.5-5.3,10.8-8.7,17.7-9.5
	c12.8-1.3,25.3,5.5,34.6,14.4C774,303.9,783.1,325.9,777.3,345.9z"/>
<path class="st1" d="M753.3,322.9c2.5,3.8,4.3,8,5.6,12.4c1.1,3.9,1.5,8,1.4,12c-0.3,8.3-2.7,16.4-6.8,23.7
	c-3.1,5.5-6.9,10.6-11.3,15.1c-2.1,1.5-4.3,2.9-6.4,4.3l0,0c-0.1,0.1-0.2,0.1-0.3,0.2c-0.4,0.3-0.9,0.6-1.3,0.9c0,0,0.5,0.2,0.2,0.1
	c-0.1,0-0.2-0.1-0.2-0.1c1.6-13.3-3.3-26.6-13.2-35.7c-4.9-4.4-10.8-7.5-17.1-9.2c0.3-0.4,0.6-0.9,1-1.3c2.5,0.7,4.8,1.6,7.1,2.7
	c8.2,3.9,14.9,10.4,19.2,18.5c3.8,7.3,5.4,15.6,4.7,23.8c0.4-0.3,0.7-0.7,1.1-1c6.8-6.3,12.8-13.6,16.9-22c3.5-7.1,5.3-15,5.1-22.9
	c-0.3-8.7-3.8-16.7-8.8-23.6c-5.5-7.4-11.9-14.1-19.2-19.8c-7.3-5.9-15.4-10.8-23.9-14.8c-0.4-0.2-0.6-0.7-0.4-1.1
	c0.1-0.2,0.2-0.3,0.3-0.4c0.2-0.1,0.4-0.1,0.5,0c1.1,0.5,2.1,1,3.1,1.5c8.6,4.3,16.7,9.6,24.1,15.9
	C741.6,308.1,748.3,315,753.3,322.9z"/>
<ellipse class="st0" cx="355.7" cy="390.4" rx="10.9" ry="4.1"/>
<ellipse class="st0" cx="381.9" cy="389.8" rx="10.9" ry="4.1"/>
<ellipse transform="matrix(0.8664 -0.4994 0.4994 0.8664 -104.2687 248.9895)" class="st0" cx="413.1" cy="319.3" rx="21.5" ry="6.8"/>
<ellipse class="st0" cx="364.3" cy="332.9" rx="43.1" ry="43.1"/>
<rect x="344.8" y="366.6" class="st0" width="13.1" height="23.4"/>
<rect x="371" y="366.6" class="st0" width="13.1" height="23.4"/>
<circle class="st1" cx="365.5" cy="321.9" r="14.7"/>
<circle class="st2" cx="365.5" cy="321.9" r="4.9"/>
<g>
	<path class="st3" d="M322.6,292.8c-3.5-15.6,7.6-31.3,24.8-35.1s33.9,5.7,37.4,21.2s-7.9,21.3-25.1,25.2S326.1,308.4,322.6,292.8z"
		/>
</g>
<ellipse transform="matrix(0.4285 -0.9035 0.9035 0.4285 -102.1737 464.22)" class="st0" cx="315.9" cy="312.9" rx="6.8" ry="21.5"/>
<path class="st1" d="M343.3,348.4c0,4.2,10.9,12.5,22.9,12.5s23.3-11.9,23.3-16.1s-11.3,0.8-23.3,0.8S343.3,344.2,343.3,348.4z"/>
<ellipse class="st0" cx="514.6" cy="390.4" rx="10.9" ry="4.1"/>
<ellipse class="st0" cx="488.4" cy="389.8" rx="10.9" ry="4.1"/>
<ellipse transform="matrix(0.4994 -0.8664 0.8664 0.4994 -47.8035 555.7797)" class="st0" cx="457" cy="319.3" rx="6.8" ry="21.5"/>
<circle class="st0" cx="505.9" cy="332.8" r="43.1"/>
<rect x="512.4" y="366.6" class="st0" width="13.1" height="23.4"/>
<rect x="486.2" y="366.6" class="st0" width="13.1" height="23.4"/>
<circle class="st1" cx="495.8" cy="321.9" r="14.7"/>
<ellipse class="st2" cx="488.7" cy="319.9" rx="4.9" ry="4.9"/>
<g>
	<path class="st1" d="M510.5,304c-17.2-3.8-28.6-9.6-25.1-25.2s20.2-25.1,37.4-21.2c17.2,3.9,28.3,19.6,24.8,35.1
		S527.7,307.9,510.5,304z"/>
</g>
<ellipse transform="matrix(0.9665 -0.2567 0.2567 0.9665 -70.2603 151.5505)" class="st0" cx="545.4" cy="344.9" rx="6.8" ry="21.5"/>
<path class="st1" d="M496.1,345.7c-7.9,0-15.3-5-15.3-0.8s7.4,16.1,15.3,16.1s15-8.3,15-12.5S504,345.7,496.1,345.7z"/>
<g>
	<path class="st1" d="M440.5,261.4h-3.8c-7.1,0-12.9-5.8-12.9-12.9v-3.2c0-8,1.5-14.6,4.5-19.8c3.6-6,7.8-11.7,12.5-16.9
		c3.1-3.2,6-6.6,8.5-10.3c1.8-2.9,2.8-6.2,2.7-9.6c0-8-5.2-11.9-15.9-11.9c-5.9,0.1-11.8,1-17.5,2.6c-7.8,2.2-16-2.3-18.2-10.1
		c-0.4-1.3-0.6-2.7-0.6-4v-6.5c0-5.7,3.3-10.9,8.5-13.3c10-4.3,20.9-6.4,31.8-6.3c11.4,0,21.8,1.9,30.7,5.7c8.9,3.8,16,9.2,21,15.9
		s7.6,14.9,7.5,23.2c0,9-2.5,16.8-7.3,23.2s-11.6,13.4-20.4,20.8c-4.6,3.8-9,7.9-13.1,12.3c-2.6,2.9-4.5,6.3-5.4,10.1
		C452.1,256.9,446.8,261.4,440.5,261.4z"/>
</g>
<path class="st1" d="M438.3,322.2h-0.5c-13.2,0-23.9-10.7-23.9-24c0-13.2,10.7-23.9,23.9-23.9h0.5c13.2,0,24,10.7,24,23.9
	C462.3,311.5,451.6,322.2,438.3,322.2C438.4,322.2,438.3,322.2,438.3,322.2z"/>
<ellipse transform="matrix(0.9998 -1.955377e-02 1.955377e-02 0.9998 -6.8838 13.7709)" class="st0" cx="700.7" cy="358.9" rx="21.5" ry="6.8"/>
<g>
	<path class="st4" d="M767.3,198.4h-26c-2.8,0-5-2.2-5-5v-26c0-2.8,2.2-5,5-5h26c2.8,0,5,2.2,5,5v26
		C772.3,196.2,770,198.4,767.3,198.4z M741.3,164.4c-1.7,0-3,1.3-3,3v26c0,1.7,1.3,3,3,3h26c1.7,0,3-1.3,3-3v-26c0-1.7-1.3-3-3-3
		H741.3z"/>
</g>
<g>
	<path class="st4" d="M779.3,181.4h-26c-2.8,0-5-2.2-5-5v-26c0-2.8,2.2-5,5-5h26c2.8,0,5,2.2,5,5v26
		C784.3,179.2,782,181.4,779.3,181.4z M753.3,147.4c-1.7,0-3,1.3-3,3v26c0,1.7,1.3,3,3,3h26c1.7,0,3-1.3,3-3v-26c0-1.7-1.3-3-3-3
		H753.3z"/>
</g>
<g>
	<path class="st4" d="M487.1,101.4h-26c-2.8,0-5-2.2-5-5v-26c0-2.8,2.2-5,5-5h26c2.8,0,5,2.2,5,5v26
		C492.1,99.2,489.9,101.4,487.1,101.4z M461.1,67.4c-1.7,0-3,1.3-3,3v26c0,1.7,1.3,3,3,3h26c1.7,0,3-1.3,3-3v-26c0-1.7-1.3-3-3-3
		H461.1z"/>
</g>
<g>
	<path class="st4" d="M471.1,88.4h-26c-2.8,0-5-2.2-5-5v-26c0-2.8,2.2-5,5-5h26c2.8,0,5,2.2,5,5v26
		C476.1,86.2,473.9,88.4,471.1,88.4z M445.1,54.4c-1.7,0-3,1.3-3,3v26c0,1.7,1.3,3,3,3h26c1.7,0,3-1.3,3-3v-26c0-1.7-1.3-3-3-3
		H445.1z"/>
</g>
<g>
	<circle class="st4" cx="603.2" cy="242.1" r="6.5"/>
</g>
<g>
	<circle class="st4" cx="343.2" cy="219.1" r="6.5"/>
</g>
<circle class="st4" cx="779.2" cy="275.1" r="6.5"/>
<g>
	<path class="st1" d="M926.4,44.2l-182.8,2.2c-3.1,0,4.9-5.3,6.3-7.9V17.2c0-3.1,2.5-5.6,5.6-5.6h170.9c3.1,0,5.6,2.5,5.6,5.6v21.4
		C932,41.7,929.5,44.2,926.4,44.2z"/>
</g>
<g>
	<path class="st1" d="M1042.5,150.9l-188.2,2.2c-3.2,0,5-5.3,6.5-7.9V124c0-3.1,2.6-5.6,5.8-5.6h175.9c3.2,0,5.8,2.5,5.8,5.6v21.4
		C1048.3,148.4,1045.7,150.9,1042.5,150.9z"/>
</g>
<g>
	<path class="st1" d="M1010.7,238.9l-182.8,2.2c-3.1,0,4.9-5.3,6.3-7.9v-21.4c0-3.1,2.5-5.6,5.6-5.6h170.9c3.1,0,5.6,2.5,5.6,5.6
		v21.4C1016.3,236.3,1013.8,238.9,1010.7,238.9z"/>
</g>
<g>
	<path class="st1" d="M126.7,48.9L329,51.2c3.4,0-5.4-5.5-7-8.1V20.9c0-3.2-2.8-5.8-6.2-5.8H126.7c-3.4,0-6.2,2.6-6.2,5.8v22.1
		C120.5,46.3,123.2,48.9,126.7,48.9z"/>
</g>
<g>
	<path class="st1" d="M9.8,141.6l189.4,2.3c3.2,0-5.1-5.5-6.5-8.1v-22.1c0-3.2-2.6-5.8-5.8-5.8H9.8c-3.2,0-5.8,2.6-5.8,5.8v22.1
		C4,139,6.6,141.6,9.8,141.6z"/>
</g>
<g>
	<path class="st1" d="M60.4,261.8l176.1,2.3c3,0-4.7-5.5-6.1-8.1v-22.1c0-3.2-2.4-5.8-5.4-5.8H60.4c-3,0-5.4,2.6-5.4,5.8V256
		C55,259.2,57.5,261.8,60.4,261.8z"/>
</g>
<g>
	<path d="M766.9,30.2h3.3v1h-4.5v-9.4h1.2V30.2z"/>
	<path d="M772.9,30.9c-0.6-0.3-1-0.8-1.3-1.3c-0.3-0.6-0.5-1.3-0.5-2c0-0.8,0.2-1.4,0.5-2c0.3-0.6,0.8-1,1.3-1.3
		c0.6-0.3,1.2-0.5,1.9-0.5c0.7,0,1.3,0.2,1.9,0.5c0.6,0.3,1,0.8,1.3,1.3c0.3,0.6,0.5,1.2,0.5,2c0,0.8-0.2,1.4-0.5,2
		c-0.3,0.6-0.8,1-1.4,1.3c-0.6,0.3-1.2,0.5-1.9,0.5C774,31.4,773.4,31.2,772.9,30.9z M776,30c0.4-0.2,0.7-0.5,0.9-0.9
		c0.2-0.4,0.4-0.9,0.4-1.5c0-0.6-0.1-1.1-0.4-1.5c-0.2-0.4-0.5-0.7-0.9-0.9c-0.4-0.2-0.8-0.3-1.2-0.3c-0.5,0-0.9,0.1-1.2,0.3
		c-0.4,0.2-0.7,0.5-0.9,0.9c-0.2,0.4-0.3,0.9-0.3,1.5c0,0.6,0.1,1.1,0.3,1.5c0.2,0.4,0.5,0.7,0.9,0.9c0.4,0.2,0.8,0.3,1.2,0.3
		S775.6,30.2,776,30z"/>
	<path d="M782.9,30.1l2.3-6.3h1.3l-2.9,7.4h-1.4l-2.9-7.4h1.3L782.9,30.1z"/>
	<path d="M794.4,28h-5.9c0,0.7,0.3,1.3,0.7,1.7c0.5,0.4,1,0.6,1.7,0.6c0.5,0,1-0.1,1.3-0.4c0.4-0.2,0.6-0.6,0.7-1h1.3
		c-0.2,0.7-0.6,1.3-1.2,1.7c-0.6,0.4-1.3,0.7-2.2,0.7c-0.7,0-1.3-0.2-1.9-0.5c-0.6-0.3-1-0.8-1.3-1.3c-0.3-0.6-0.5-1.3-0.5-2
		c0-0.8,0.2-1.4,0.5-2c0.3-0.6,0.7-1,1.3-1.3c0.6-0.3,1.2-0.5,1.9-0.5c0.7,0,1.3,0.2,1.9,0.5c0.5,0.3,1,0.7,1.2,1.3s0.4,1.1,0.4,1.8
		C794.5,27.5,794.4,27.7,794.4,28z M792.9,25.8c-0.2-0.3-0.5-0.6-0.8-0.8c-0.4-0.2-0.7-0.3-1.2-0.3c-0.6,0-1.1,0.2-1.6,0.6
		c-0.4,0.4-0.7,0.9-0.7,1.6h4.7C793.2,26.5,793.1,26.1,792.9,25.8z"/>
	<path d="M800.9,21.3v10h-1.2v-10H800.9z"/>
	<path d="M803,22.4c-0.2-0.2-0.2-0.4-0.2-0.6c0-0.2,0.1-0.4,0.2-0.6c0.2-0.2,0.4-0.2,0.6-0.2c0.2,0,0.4,0.1,0.6,0.2
		c0.2,0.2,0.2,0.4,0.2,0.6c0,0.2-0.1,0.4-0.2,0.6c-0.2,0.2-0.3,0.2-0.6,0.2C803.4,22.6,803.2,22.6,803,22.4z M804.2,23.8v7.4H803
		v-7.4H804.2z"/>
	<path d="M809.3,24.9h-1.6v6.4h-1.2v-6.4h-1v-1h1v-0.5c0-0.8,0.2-1.4,0.6-1.8c0.4-0.4,1.1-0.6,2.1-0.6v1c-0.5,0-0.9,0.1-1.1,0.3
		c-0.2,0.2-0.3,0.6-0.3,1v0.5h1.6V24.9z"/>
	<path d="M817.5,28h-5.9c0,0.7,0.3,1.3,0.7,1.7c0.5,0.4,1,0.6,1.7,0.6c0.5,0,1-0.1,1.3-0.4c0.4-0.2,0.6-0.6,0.7-1h1.3
		c-0.2,0.7-0.6,1.3-1.2,1.7c-0.6,0.4-1.3,0.7-2.2,0.7c-0.7,0-1.3-0.2-1.9-0.5c-0.6-0.3-1-0.8-1.3-1.3c-0.3-0.6-0.5-1.3-0.5-2
		c0-0.8,0.2-1.4,0.5-2c0.3-0.6,0.7-1,1.3-1.3c0.6-0.3,1.2-0.5,1.9-0.5c0.7,0,1.3,0.2,1.9,0.5c0.5,0.3,1,0.7,1.2,1.3s0.4,1.1,0.4,1.8
		C817.5,27.5,817.5,27.7,817.5,28z M815.9,25.8c-0.2-0.3-0.5-0.6-0.8-0.8c-0.4-0.2-0.7-0.3-1.2-0.3c-0.6,0-1.1,0.2-1.6,0.6
		c-0.4,0.4-0.7,0.9-0.7,1.6h4.7C816.2,26.5,816.1,26.1,815.9,25.8z"/>
	<path d="M823.7,22.5c0.5,0.5,0.8,1.2,0.8,2c0,0.9-0.3,1.6-0.9,2.1c-0.6,0.5-1.4,0.7-2.4,0.7l0,1.3h-1.1l-0.1-2.1h0.4
		c0.9,0,1.6-0.1,2.1-0.4c0.5-0.3,0.8-0.8,0.8-1.5c0-0.5-0.2-1-0.5-1.3c-0.3-0.3-0.8-0.5-1.3-0.5c-0.6,0-1,0.2-1.3,0.5
		c-0.3,0.3-0.5,0.7-0.5,1.2h-1.2c0-0.5,0.1-1,0.4-1.4c0.2-0.4,0.6-0.7,1-1c0.4-0.2,1-0.3,1.5-0.3C822.4,21.7,823.1,22,823.7,22.5z
		 M820.1,31.1c-0.2-0.2-0.2-0.4-0.2-0.6c0-0.2,0.1-0.4,0.2-0.6c0.2-0.2,0.4-0.2,0.6-0.2c0.2,0,0.4,0.1,0.6,0.2
		c0.2,0.2,0.2,0.4,0.2,0.6c0,0.2-0.1,0.4-0.2,0.6c-0.2,0.2-0.3,0.2-0.6,0.2C820.4,31.3,820.2,31.2,820.1,31.1z"/>
	<path d="M834.7,31.2l-2.2-3.8H831v3.8h-1.2v-9.4h3c0.7,0,1.3,0.1,1.8,0.4c0.5,0.2,0.9,0.6,1.1,1c0.2,0.4,0.4,0.9,0.4,1.4
		c0,0.6-0.2,1.2-0.6,1.7c-0.4,0.5-0.9,0.8-1.7,1l2.4,3.9H834.7z M831,26.4h1.8c0.7,0,1.2-0.2,1.5-0.5c0.3-0.3,0.5-0.8,0.5-1.3
		c0-0.6-0.2-1-0.5-1.3c-0.3-0.3-0.8-0.5-1.5-0.5H831V26.4z"/>
	<path d="M844.7,28h-5.9c0,0.7,0.3,1.3,0.7,1.7c0.5,0.4,1,0.6,1.7,0.6c0.5,0,1-0.1,1.3-0.4c0.4-0.2,0.6-0.6,0.7-1h1.3
		c-0.2,0.7-0.6,1.3-1.2,1.7c-0.6,0.4-1.3,0.7-2.2,0.7c-0.7,0-1.3-0.2-1.9-0.5c-0.6-0.3-1-0.8-1.3-1.3c-0.3-0.6-0.5-1.3-0.5-2
		c0-0.8,0.2-1.4,0.5-2c0.3-0.6,0.7-1,1.3-1.3c0.6-0.3,1.2-0.5,1.9-0.5c0.7,0,1.3,0.2,1.9,0.5c0.5,0.3,1,0.7,1.2,1.3s0.4,1.1,0.4,1.8
		C844.7,27.5,844.7,27.7,844.7,28z M843.2,25.8c-0.2-0.3-0.5-0.6-0.8-0.8c-0.4-0.2-0.7-0.3-1.2-0.3c-0.6,0-1.1,0.2-1.6,0.6
		c-0.4,0.4-0.7,0.9-0.7,1.6h4.7C843.5,26.5,843.4,26.1,843.2,25.8z"/>
	<path d="M847.6,21.3v10h-1.2v-10H847.6z"/>
	<path d="M849.7,25.5c0.3-0.6,0.7-1,1.3-1.3c0.5-0.3,1.1-0.5,1.8-0.5c0.6,0,1.2,0.1,1.7,0.4c0.5,0.3,0.8,0.6,1.1,1.1v-1.3h1.2v7.4
		h-1.2v-1.4c-0.2,0.4-0.6,0.8-1.1,1.1c-0.5,0.3-1,0.4-1.7,0.4c-0.7,0-1.3-0.2-1.8-0.5c-0.5-0.3-0.9-0.8-1.3-1.4
		c-0.3-0.6-0.5-1.2-0.5-2C849.2,26.8,849.4,26.1,849.7,25.5z M855.1,26.1c-0.2-0.4-0.5-0.7-0.9-1c-0.4-0.2-0.8-0.3-1.3-0.3
		c-0.5,0-0.9,0.1-1.3,0.3c-0.4,0.2-0.7,0.5-0.9,0.9c-0.2,0.4-0.3,0.9-0.3,1.5c0,0.6,0.1,1.1,0.3,1.5c0.2,0.4,0.5,0.7,0.9,1
		c0.4,0.2,0.8,0.3,1.3,0.3c0.5,0,0.9-0.1,1.3-0.3c0.4-0.2,0.7-0.5,0.9-1c0.2-0.4,0.3-0.9,0.3-1.5S855.4,26.5,855.1,26.1z"/>
	<path d="M860.3,24.9v4.4c0,0.4,0.1,0.6,0.2,0.8c0.2,0.1,0.4,0.2,0.8,0.2h0.9v1h-1.1c-0.7,0-1.2-0.2-1.5-0.5
		c-0.3-0.3-0.5-0.8-0.5-1.6v-4.4h-1v-1h1V22h1.2v1.9h1.9v1H860.3z"/>
	<path d="M863.7,22.4c-0.2-0.2-0.2-0.4-0.2-0.6c0-0.2,0.1-0.4,0.2-0.6c0.2-0.2,0.4-0.2,0.6-0.2c0.2,0,0.4,0.1,0.6,0.2
		c0.2,0.2,0.2,0.4,0.2,0.6c0,0.2-0.1,0.4-0.2,0.6c-0.2,0.2-0.3,0.2-0.6,0.2C864.1,22.6,863.9,22.6,863.7,22.4z M864.9,23.8v7.4h-1.2
		v-7.4H864.9z"/>
	<path d="M868.4,30.9c-0.6-0.3-1-0.8-1.3-1.3c-0.3-0.6-0.5-1.3-0.5-2c0-0.8,0.2-1.4,0.5-2c0.3-0.6,0.8-1,1.3-1.3
		c0.6-0.3,1.2-0.5,1.9-0.5c0.7,0,1.3,0.2,1.9,0.5c0.6,0.3,1,0.8,1.3,1.3c0.3,0.6,0.5,1.2,0.5,2c0,0.8-0.2,1.4-0.5,2
		c-0.3,0.6-0.8,1-1.4,1.3c-0.6,0.3-1.2,0.5-1.9,0.5C869.5,31.4,868.9,31.2,868.4,30.9z M871.5,30c0.4-0.2,0.7-0.5,0.9-0.9
		c0.2-0.4,0.4-0.9,0.4-1.5c0-0.6-0.1-1.1-0.4-1.5c-0.2-0.4-0.5-0.7-0.9-0.9c-0.4-0.2-0.8-0.3-1.2-0.3c-0.5,0-0.9,0.1-1.2,0.3
		c-0.4,0.2-0.7,0.5-0.9,0.9c-0.2,0.4-0.3,0.9-0.3,1.5c0,0.6,0.1,1.1,0.3,1.5c0.2,0.4,0.5,0.7,0.9,0.9c0.4,0.2,0.8,0.3,1.2,0.3
		S871.1,30.2,871.5,30z"/>
	<path d="M881.4,24.5c0.6,0.5,0.8,1.3,0.8,2.4v4.4h-1.2v-4.2c0-0.7-0.2-1.3-0.6-1.7c-0.4-0.4-0.9-0.6-1.5-0.6
		c-0.6,0-1.2,0.2-1.5,0.6c-0.4,0.4-0.6,1-0.6,1.8v4.1h-1.2v-7.4h1.2v1.1c0.2-0.4,0.6-0.7,1-0.9c0.4-0.2,0.9-0.3,1.4-0.3
		C880.1,23.7,880.9,24,881.4,24.5z"/>
	<path d="M885.4,31.1c-0.5-0.2-0.8-0.5-1.1-0.8c-0.3-0.3-0.4-0.7-0.4-1.2h1.3c0,0.4,0.2,0.7,0.5,0.9c0.3,0.2,0.7,0.4,1.2,0.4
		c0.5,0,0.8-0.1,1.1-0.3c0.3-0.2,0.4-0.5,0.4-0.8c0-0.3-0.1-0.6-0.4-0.7c-0.3-0.2-0.7-0.3-1.3-0.5c-0.5-0.1-1-0.3-1.3-0.4
		c-0.3-0.1-0.6-0.4-0.9-0.7c-0.2-0.3-0.4-0.7-0.4-1.2c0-0.4,0.1-0.7,0.3-1c0.2-0.3,0.5-0.6,1-0.7c0.4-0.2,0.9-0.3,1.4-0.3
		c0.8,0,1.5,0.2,2,0.6c0.5,0.4,0.8,1,0.8,1.7h-1.2c0-0.4-0.2-0.7-0.5-0.9c-0.3-0.2-0.7-0.4-1.1-0.4c-0.4,0-0.8,0.1-1.1,0.3
		c-0.3,0.2-0.4,0.4-0.4,0.7c0,0.2,0.1,0.4,0.2,0.6c0.2,0.2,0.4,0.3,0.6,0.4c0.2,0.1,0.6,0.2,1,0.3c0.5,0.1,1,0.3,1.3,0.4
		c0.3,0.1,0.6,0.3,0.9,0.6c0.2,0.3,0.4,0.6,0.4,1.1c0,0.4-0.1,0.8-0.3,1.1c-0.2,0.3-0.5,0.6-1,0.8c-0.4,0.2-0.9,0.3-1.4,0.3
		C886.3,31.4,885.8,31.3,885.4,31.1z"/>
	<path d="M896.5,24.1c0.4,0.2,0.8,0.6,1.1,1.1c0.3,0.5,0.4,1.1,0.4,1.7v4.4h-1.2v-4.2c0-0.7-0.2-1.3-0.6-1.7
		c-0.4-0.4-0.9-0.6-1.5-0.6c-0.6,0-1.2,0.2-1.5,0.6c-0.4,0.4-0.6,1-0.6,1.8v4.1h-1.2v-10h1.2v3.6c0.2-0.4,0.6-0.7,1-0.9
		c0.4-0.2,0.9-0.3,1.4-0.3C895.5,23.7,896.1,23.8,896.5,24.1z"/>
	<path d="M900,22.4c-0.2-0.2-0.2-0.4-0.2-0.6c0-0.2,0.1-0.4,0.2-0.6c0.2-0.2,0.4-0.2,0.6-0.2c0.2,0,0.4,0.1,0.6,0.2
		c0.2,0.2,0.2,0.4,0.2,0.6c0,0.2-0.1,0.4-0.2,0.6c-0.2,0.2-0.3,0.2-0.6,0.2C900.4,22.6,900.2,22.6,900,22.4z M901.2,23.8v7.4H900
		v-7.4H901.2z"/>
	<path d="M905.6,24.1c0.5-0.3,1-0.4,1.7-0.4c0.7,0,1.3,0.2,1.8,0.5c0.5,0.3,1,0.8,1.3,1.3c0.3,0.6,0.5,1.2,0.5,2
		c0,0.7-0.2,1.4-0.5,2c-0.3,0.6-0.7,1-1.3,1.4c-0.5,0.3-1.1,0.5-1.8,0.5c-0.6,0-1.2-0.1-1.7-0.4c-0.5-0.3-0.8-0.6-1.1-1.1v4.9h-1.2
		V23.8h1.2v1.4C904.7,24.8,905.1,24.4,905.6,24.1z M909.2,26.1c-0.2-0.4-0.5-0.7-0.9-0.9c-0.4-0.2-0.8-0.3-1.3-0.3
		c-0.5,0-0.9,0.1-1.2,0.3c-0.4,0.2-0.7,0.5-0.9,1s-0.3,0.9-0.3,1.5c0,0.6,0.1,1,0.3,1.5s0.5,0.7,0.9,1c0.4,0.2,0.8,0.3,1.2,0.3
		c0.5,0,0.9-0.1,1.3-0.3c0.4-0.2,0.7-0.5,0.9-1s0.3-0.9,0.3-1.5C909.5,27,909.4,26.5,909.2,26.1z"/>
	<path d="M917,22.5c0.5,0.5,0.8,1.2,0.8,2c0,0.9-0.3,1.6-0.9,2.1c-0.6,0.5-1.4,0.7-2.4,0.7l0,1.3h-1.1l-0.1-2.1h0.4
		c0.9,0,1.6-0.1,2.1-0.4c0.5-0.3,0.8-0.8,0.8-1.5c0-0.5-0.2-1-0.5-1.3c-0.3-0.3-0.8-0.5-1.3-0.5c-0.6,0-1,0.2-1.3,0.5
		c-0.3,0.3-0.5,0.7-0.5,1.2h-1.2c0-0.5,0.1-1,0.4-1.4c0.2-0.4,0.6-0.7,1-1c0.4-0.2,1-0.3,1.5-0.3C915.7,21.7,916.4,22,917,22.5z
		 M913.3,31.1c-0.2-0.2-0.2-0.4-0.2-0.6c0-0.2,0.1-0.4,0.2-0.6c0.2-0.2,0.4-0.2,0.6-0.2c0.2,0,0.4,0.1,0.6,0.2
		c0.2,0.2,0.2,0.4,0.2,0.6c0,0.2-0.1,0.4-0.2,0.6c-0.2,0.2-0.3,0.2-0.6,0.2C913.7,31.3,913.5,31.2,913.3,31.1z"/>
</g>
<g>
	<path d="M880.4,128.6v6.9c0,0.8-0.2,1.4-0.7,1.9c-0.5,0.5-1.1,0.7-1.9,0.7c-0.8,0-1.4-0.2-1.9-0.7c-0.5-0.5-0.7-1.1-0.7-1.9h1.2
		c0,0.5,0.1,0.8,0.4,1.1c0.2,0.3,0.6,0.4,1,0.4c0.5,0,0.8-0.1,1-0.4c0.2-0.3,0.3-0.6,0.3-1v-6.9H880.4z"/>
	<path d="M884.1,137.7c-0.6-0.3-1-0.8-1.3-1.3c-0.3-0.6-0.5-1.3-0.5-2c0-0.8,0.2-1.4,0.5-2c0.3-0.6,0.8-1,1.3-1.3
		c0.6-0.3,1.2-0.5,1.9-0.5c0.7,0,1.3,0.2,1.9,0.5s1,0.8,1.3,1.3c0.3,0.6,0.5,1.2,0.5,2c0,0.8-0.2,1.4-0.5,2c-0.3,0.6-0.8,1-1.4,1.3
		c-0.6,0.3-1.2,0.5-1.9,0.5C885.3,138.1,884.7,138,884.1,137.7z M887.2,136.8c0.4-0.2,0.7-0.5,0.9-0.9c0.2-0.4,0.4-0.9,0.4-1.5
		c0-0.6-0.1-1.1-0.4-1.5c-0.2-0.4-0.5-0.7-0.9-0.9c-0.4-0.2-0.8-0.3-1.2-0.3c-0.5,0-0.9,0.1-1.2,0.3c-0.4,0.2-0.7,0.5-0.9,0.9
		c-0.2,0.4-0.3,0.9-0.3,1.5c0,0.6,0.1,1.1,0.3,1.5c0.2,0.4,0.5,0.7,0.9,0.9c0.4,0.2,0.8,0.3,1.2,0.3S886.9,137,887.2,136.8z"/>
	<path d="M891.5,129.2c-0.2-0.2-0.2-0.4-0.2-0.6c0-0.2,0.1-0.4,0.2-0.6c0.2-0.2,0.4-0.2,0.6-0.2c0.2,0,0.4,0.1,0.6,0.2
		c0.2,0.2,0.2,0.4,0.2,0.6c0,0.2-0.1,0.4-0.2,0.6c-0.2,0.2-0.3,0.2-0.6,0.2C891.8,129.4,891.6,129.4,891.5,129.2z M892.6,130.6v7.4
		h-1.2v-7.4H892.6z"/>
	<path d="M900.5,131.3c0.6,0.5,0.8,1.3,0.8,2.4v4.4h-1.2v-4.2c0-0.7-0.2-1.3-0.6-1.7c-0.4-0.4-0.9-0.6-1.5-0.6
		c-0.6,0-1.2,0.2-1.5,0.6c-0.4,0.4-0.6,1-0.6,1.8v4.1h-1.2v-7.4h1.2v1.1c0.2-0.4,0.6-0.7,1-0.9c0.4-0.2,0.9-0.3,1.4-0.3
		C899.2,130.5,900,130.8,900.5,131.3z"/>
	<path d="M907,132.3c0.3-0.6,0.7-1,1.3-1.3c0.5-0.3,1.2-0.5,1.9-0.5c0.9,0,1.7,0.2,2.2,0.7c0.6,0.4,1,1.1,1.2,1.8h-1.3
		c-0.1-0.4-0.4-0.8-0.7-1.1c-0.4-0.3-0.8-0.4-1.4-0.4c-0.7,0-1.3,0.2-1.7,0.7c-0.4,0.5-0.6,1.2-0.6,2c0,0.9,0.2,1.6,0.6,2.1
		c0.4,0.5,1,0.7,1.7,0.7c0.5,0,1-0.1,1.3-0.4s0.6-0.6,0.7-1.1h1.3c-0.2,0.8-0.6,1.4-1.2,1.8c-0.6,0.5-1.3,0.7-2.2,0.7
		c-0.7,0-1.3-0.2-1.9-0.5c-0.5-0.3-1-0.8-1.3-1.3c-0.3-0.6-0.5-1.2-0.5-2C906.5,133.5,906.7,132.9,907,132.3z"/>
	<path d="M916.4,128v10h-1.2v-10H916.4z"/>
	<path d="M925,130.6v7.4h-1.2v-1.1c-0.2,0.4-0.6,0.7-1,0.9c-0.4,0.2-0.9,0.3-1.4,0.3c-0.6,0-1.1-0.1-1.6-0.4
		c-0.5-0.2-0.8-0.6-1.1-1.1c-0.3-0.5-0.4-1.1-0.4-1.7v-4.3h1.2v4.2c0,0.7,0.2,1.3,0.6,1.7c0.4,0.4,0.9,0.6,1.5,0.6
		c0.7,0,1.2-0.2,1.6-0.6s0.6-1,0.6-1.8v-4.1H925z"/>
	<path d="M929.4,130.9c0.5-0.3,1-0.4,1.7-0.4c0.7,0,1.3,0.2,1.8,0.5c0.5,0.3,0.9,0.8,1.3,1.3c0.3,0.6,0.5,1.2,0.5,2
		c0,0.7-0.2,1.4-0.5,2c-0.3,0.6-0.7,1-1.3,1.4c-0.5,0.3-1.1,0.5-1.8,0.5c-0.6,0-1.2-0.1-1.7-0.4c-0.5-0.3-0.8-0.6-1.1-1.1v1.4h-1.2
		v-10h1.2v4C928.6,131.6,928.9,131.2,929.4,130.9z M933,132.8c-0.2-0.4-0.5-0.7-0.9-0.9c-0.4-0.2-0.8-0.3-1.3-0.3
		c-0.5,0-0.9,0.1-1.2,0.3s-0.7,0.5-0.9,1c-0.2,0.4-0.3,0.9-0.3,1.5c0,0.6,0.1,1,0.3,1.5c0.2,0.4,0.5,0.7,0.9,1
		c0.4,0.2,0.8,0.3,1.2,0.3c0.5,0,0.9-0.1,1.3-0.3c0.4-0.2,0.7-0.5,0.9-1c0.2-0.4,0.3-0.9,0.3-1.5C933.3,133.7,933.2,133.3,933,132.8
		z"/>
	<path d="M937.3,137.9c-0.5-0.2-0.8-0.5-1.1-0.8c-0.3-0.3-0.4-0.7-0.4-1.2h1.3c0,0.4,0.2,0.7,0.5,0.9c0.3,0.2,0.7,0.4,1.2,0.4
		c0.5,0,0.8-0.1,1.1-0.3c0.3-0.2,0.4-0.5,0.4-0.8c0-0.3-0.1-0.6-0.4-0.7c-0.3-0.2-0.7-0.3-1.3-0.5c-0.5-0.1-1-0.3-1.3-0.4
		c-0.3-0.1-0.6-0.4-0.9-0.7c-0.2-0.3-0.4-0.7-0.4-1.2c0-0.4,0.1-0.7,0.3-1c0.2-0.3,0.5-0.6,1-0.7c0.4-0.2,0.9-0.3,1.4-0.3
		c0.8,0,1.5,0.2,2,0.6c0.5,0.4,0.8,1,0.8,1.7h-1.2c0-0.4-0.2-0.7-0.5-0.9c-0.3-0.2-0.7-0.4-1.1-0.4c-0.4,0-0.8,0.1-1.1,0.3
		c-0.3,0.2-0.4,0.4-0.4,0.7c0,0.2,0.1,0.4,0.2,0.6c0.2,0.2,0.4,0.3,0.6,0.4c0.2,0.1,0.6,0.2,1,0.3c0.5,0.1,1,0.3,1.3,0.4
		c0.3,0.1,0.6,0.3,0.9,0.6c0.2,0.3,0.4,0.6,0.4,1.1c0,0.4-0.1,0.8-0.3,1.1c-0.2,0.3-0.5,0.6-1,0.8c-0.4,0.2-0.9,0.3-1.4,0.3
		C938.3,138.1,937.8,138,937.3,137.9z"/>
	<path d="M947.8,129.3c0.5,0.5,0.8,1.2,0.8,2c0,0.9-0.3,1.6-0.9,2.1c-0.6,0.5-1.4,0.7-2.4,0.7l0,1.3h-1.1l-0.1-2.1h0.4
		c0.9,0,1.6-0.1,2.1-0.4c0.5-0.3,0.8-0.8,0.8-1.5c0-0.5-0.2-1-0.5-1.3c-0.3-0.3-0.8-0.5-1.3-0.5c-0.6,0-1,0.2-1.3,0.5
		c-0.3,0.3-0.5,0.7-0.5,1.2h-1.2c0-0.5,0.1-1,0.4-1.4c0.2-0.4,0.6-0.7,1-1c0.4-0.2,1-0.3,1.5-0.3
		C946.6,128.5,947.3,128.8,947.8,129.3z M944.2,137.9c-0.2-0.2-0.2-0.4-0.2-0.6c0-0.2,0.1-0.4,0.2-0.6c0.2-0.2,0.4-0.2,0.6-0.2
		c0.2,0,0.4,0.1,0.6,0.2c0.2,0.2,0.2,0.4,0.2,0.6c0,0.2-0.1,0.4-0.2,0.6c-0.2,0.2-0.3,0.2-0.6,0.2
		C944.6,138.1,944.4,138,944.2,137.9z"/>
	<path d="M965.7,128.6L963,138h-1.4l-2.2-7.6l-2.3,7.6l-1.4,0l-2.6-9.4h1.3l2,8l2.3-8h1.4l2.2,7.9l2.1-7.9H965.7z"/>
	<path d="M972.3,130.9c0.4,0.2,0.8,0.6,1.1,1.1c0.3,0.5,0.4,1.1,0.4,1.7v4.4h-1.2v-4.2c0-0.7-0.2-1.3-0.6-1.7
		c-0.4-0.4-0.9-0.6-1.5-0.6c-0.6,0-1.2,0.2-1.5,0.6c-0.4,0.4-0.6,1-0.6,1.8v4.1h-1.2v-10h1.2v3.6c0.2-0.4,0.6-0.7,1-0.9
		c0.4-0.2,0.9-0.3,1.4-0.3C971.3,130.5,971.8,130.6,972.3,130.9z"/>
	<path d="M975.8,129.2c-0.2-0.2-0.2-0.4-0.2-0.6c0-0.2,0.1-0.4,0.2-0.6c0.2-0.2,0.4-0.2,0.6-0.2c0.2,0,0.4,0.1,0.6,0.2
		c0.2,0.2,0.2,0.4,0.2,0.6c0,0.2-0.1,0.4-0.2,0.6c-0.2,0.2-0.3,0.2-0.6,0.2C976.1,129.4,975.9,129.4,975.8,129.2z M977,130.6v7.4
		h-1.2v-7.4H977z"/>
	<path d="M979,132.3c0.3-0.6,0.7-1,1.3-1.3c0.5-0.3,1.2-0.5,1.9-0.5c0.9,0,1.7,0.2,2.2,0.7c0.6,0.4,1,1.1,1.2,1.8h-1.3
		c-0.1-0.4-0.4-0.8-0.7-1.1c-0.4-0.3-0.8-0.4-1.4-0.4c-0.7,0-1.3,0.2-1.7,0.7c-0.4,0.5-0.6,1.2-0.6,2c0,0.9,0.2,1.6,0.6,2.1
		c0.4,0.5,1,0.7,1.7,0.7c0.5,0,1-0.1,1.3-0.4s0.6-0.6,0.7-1.1h1.3c-0.2,0.8-0.6,1.4-1.2,1.8c-0.6,0.5-1.3,0.7-2.2,0.7
		c-0.7,0-1.3-0.2-1.9-0.5c-0.5-0.3-1-0.8-1.3-1.3c-0.3-0.6-0.5-1.2-0.5-2C978.6,133.5,978.7,132.9,979,132.3z"/>
	<path d="M992.4,130.9c0.4,0.2,0.8,0.6,1.1,1.1c0.3,0.5,0.4,1.1,0.4,1.7v4.4h-1.2v-4.2c0-0.7-0.2-1.3-0.6-1.7
		c-0.4-0.4-0.9-0.6-1.5-0.6c-0.6,0-1.2,0.2-1.5,0.6c-0.4,0.4-0.6,1-0.6,1.8v4.1h-1.2v-10h1.2v3.6c0.2-0.4,0.6-0.7,1-0.9
		c0.4-0.2,0.9-0.3,1.4-0.3C991.5,130.5,992,130.6,992.4,130.9z"/>
	<path d="M999.5,132.3c0.3-0.6,0.7-1,1.3-1.3c0.5-0.3,1.2-0.5,1.9-0.5c0.9,0,1.7,0.2,2.2,0.7c0.6,0.4,1,1.1,1.2,1.8h-1.3
		c-0.1-0.4-0.4-0.8-0.7-1.1c-0.4-0.3-0.8-0.4-1.4-0.4c-0.7,0-1.3,0.2-1.7,0.7c-0.4,0.5-0.6,1.2-0.6,2c0,0.9,0.2,1.6,0.6,2.1
		c0.4,0.5,1,0.7,1.7,0.7c0.5,0,1-0.1,1.3-0.4c0.4-0.3,0.6-0.6,0.7-1.1h1.3c-0.2,0.8-0.6,1.4-1.2,1.8c-0.6,0.5-1.3,0.7-2.2,0.7
		c-0.7,0-1.3-0.2-1.9-0.5c-0.5-0.3-1-0.8-1.3-1.3c-0.3-0.6-0.5-1.2-0.5-2C999,133.5,999.2,132.9,999.5,132.3z"/>
	<path d="M1008.9,128v10h-1.2v-10H1008.9z"/>
	<path d="M1017.5,130.6v7.4h-1.2v-1.1c-0.2,0.4-0.6,0.7-1,0.9c-0.4,0.2-0.9,0.3-1.4,0.3c-0.6,0-1.1-0.1-1.6-0.4
		c-0.5-0.2-0.8-0.6-1.1-1.1c-0.3-0.5-0.4-1.1-0.4-1.7v-4.3h1.2v4.2c0,0.7,0.2,1.3,0.6,1.7c0.4,0.4,0.9,0.6,1.5,0.6
		c0.7,0,1.2-0.2,1.6-0.6s0.6-1,0.6-1.8v-4.1H1017.5z"/>
	<path d="M1021.9,130.9c0.5-0.3,1-0.4,1.7-0.4c0.7,0,1.3,0.2,1.8,0.5c0.5,0.3,0.9,0.8,1.3,1.3c0.3,0.6,0.5,1.2,0.5,2
		c0,0.7-0.2,1.4-0.5,2c-0.3,0.6-0.7,1-1.3,1.4c-0.5,0.3-1.1,0.5-1.8,0.5c-0.6,0-1.2-0.1-1.7-0.4c-0.5-0.3-0.8-0.6-1.1-1.1v1.4h-1.2
		v-10h1.2v4C1021.1,131.6,1021.5,131.2,1021.9,130.9z M1025.5,132.8c-0.2-0.4-0.5-0.7-0.9-0.9c-0.4-0.2-0.8-0.3-1.3-0.3
		c-0.5,0-0.9,0.1-1.2,0.3c-0.4,0.2-0.7,0.5-0.9,1c-0.2,0.4-0.3,0.9-0.3,1.5c0,0.6,0.1,1,0.3,1.5s0.5,0.7,0.9,1
		c0.4,0.2,0.8,0.3,1.2,0.3c0.5,0,0.9-0.1,1.3-0.3c0.4-0.2,0.7-0.5,0.9-1c0.2-0.4,0.3-0.9,0.3-1.5
		C1025.9,133.7,1025.7,133.3,1025.5,132.8z"/>
	<path d="M1033.3,129.3c0.5,0.5,0.8,1.2,0.8,2c0,0.9-0.3,1.6-0.9,2.1c-0.6,0.5-1.4,0.7-2.4,0.7l0,1.3h-1.1l-0.1-2.1h0.4
		c0.9,0,1.6-0.1,2.1-0.4c0.5-0.3,0.8-0.8,0.8-1.5c0-0.5-0.2-1-0.5-1.3c-0.3-0.3-0.8-0.5-1.3-0.5c-0.6,0-1,0.2-1.3,0.5
		c-0.3,0.3-0.5,0.7-0.5,1.2h-1.2c0-0.5,0.1-1,0.4-1.4c0.2-0.4,0.6-0.7,1-1c0.4-0.2,1-0.3,1.5-0.3
		C1032,128.5,1032.7,128.8,1033.3,129.3z M1029.7,137.9c-0.2-0.2-0.2-0.4-0.2-0.6c0-0.2,0.1-0.4,0.2-0.6c0.2-0.2,0.4-0.2,0.6-0.2
		c0.2,0,0.4,0.1,0.6,0.2c0.2,0.2,0.2,0.4,0.2,0.6c0,0.2-0.1,0.4-0.2,0.6c-0.2,0.2-0.3,0.2-0.6,0.2
		C1030,138.1,1029.8,138,1029.7,137.9z"/>
</g>
<g>
	<path d="M857.4,217.6l-3.5,9.4h-1.4l-3.5-9.4h1.3l3,8.1l3-8.1H857.4z"/>
	<path d="M860.1,226.7c-0.6-0.3-1-0.8-1.3-1.3c-0.3-0.6-0.5-1.3-0.5-2c0-0.8,0.2-1.4,0.5-2c0.3-0.6,0.8-1,1.3-1.3
		c0.6-0.3,1.2-0.5,1.9-0.5c0.7,0,1.3,0.2,1.9,0.5c0.6,0.3,1,0.8,1.3,1.3c0.3,0.6,0.5,1.2,0.5,2c0,0.8-0.2,1.4-0.5,2
		c-0.3,0.6-0.8,1-1.4,1.3c-0.6,0.3-1.2,0.5-1.9,0.5C861.3,227.2,860.7,227,860.1,226.7z M863.2,225.8c0.4-0.2,0.7-0.5,0.9-0.9
		c0.2-0.4,0.4-0.9,0.4-1.5c0-0.6-0.1-1.1-0.4-1.5c-0.2-0.4-0.5-0.7-0.9-0.9s-0.8-0.3-1.2-0.3c-0.5,0-0.9,0.1-1.2,0.3
		c-0.4,0.2-0.7,0.5-0.9,0.9c-0.2,0.4-0.3,0.9-0.3,1.5c0,0.6,0.1,1.1,0.3,1.5c0.2,0.4,0.5,0.7,0.9,0.9c0.4,0.2,0.8,0.3,1.2,0.3
		S862.9,226,863.2,225.8z"/>
	<path d="M868.6,217.1v10h-1.2v-10H868.6z"/>
	<path d="M877.3,219.7v7.4h-1.2V226c-0.2,0.4-0.6,0.7-1,0.9c-0.4,0.2-0.9,0.3-1.4,0.3c-0.6,0-1.1-0.1-1.6-0.4
		c-0.5-0.2-0.8-0.6-1.1-1.1c-0.3-0.5-0.4-1.1-0.4-1.7v-4.3h1.2v4.2c0,0.7,0.2,1.3,0.6,1.7c0.4,0.4,0.9,0.6,1.5,0.6
		c0.7,0,1.2-0.2,1.6-0.6c0.4-0.4,0.6-1,0.6-1.8v-4.1H877.3z"/>
	<path d="M885.1,220.3c0.6,0.5,0.8,1.3,0.8,2.4v4.4h-1.2v-4.2c0-0.7-0.2-1.3-0.6-1.7c-0.4-0.4-0.9-0.6-1.5-0.6
		c-0.6,0-1.2,0.2-1.5,0.6c-0.4,0.4-0.6,1-0.6,1.8v4.1h-1.2v-7.4h1.2v1.1c0.2-0.4,0.6-0.7,1-0.9c0.4-0.2,0.9-0.3,1.4-0.3
		C883.9,219.5,884.6,219.8,885.1,220.3z"/>
	<path d="M889.5,220.7v4.4c0,0.4,0.1,0.6,0.2,0.8s0.4,0.2,0.8,0.2h0.9v1h-1.1c-0.7,0-1.2-0.2-1.5-0.5c-0.3-0.3-0.5-0.8-0.5-1.6v-4.4
		h-1v-1h1v-1.9h1.2v1.9h1.9v1H889.5z"/>
	<path d="M899.6,223.8h-5.9c0,0.7,0.3,1.3,0.7,1.7c0.5,0.4,1,0.6,1.7,0.6c0.5,0,1-0.1,1.3-0.4c0.4-0.2,0.6-0.6,0.7-1h1.3
		c-0.2,0.7-0.6,1.3-1.2,1.7c-0.6,0.4-1.3,0.7-2.2,0.7c-0.7,0-1.3-0.2-1.9-0.5c-0.6-0.3-1-0.8-1.3-1.3c-0.3-0.6-0.5-1.3-0.5-2
		c0-0.8,0.2-1.4,0.5-2c0.3-0.6,0.7-1,1.3-1.3c0.6-0.3,1.2-0.5,1.9-0.5c0.7,0,1.3,0.2,1.9,0.5c0.5,0.3,1,0.7,1.2,1.3
		c0.3,0.5,0.4,1.1,0.4,1.8C899.6,223.3,899.6,223.6,899.6,223.8z M898.1,221.6c-0.2-0.3-0.5-0.6-0.8-0.8c-0.4-0.2-0.7-0.3-1.2-0.3
		c-0.6,0-1.1,0.2-1.6,0.6c-0.4,0.4-0.7,0.9-0.7,1.6h4.7C898.4,222.3,898.3,221.9,898.1,221.6z"/>
	<path d="M908,223.8h-5.9c0,0.7,0.3,1.3,0.7,1.7c0.5,0.4,1,0.6,1.7,0.6c0.5,0,1-0.1,1.3-0.4c0.4-0.2,0.6-0.6,0.7-1h1.3
		c-0.2,0.7-0.6,1.3-1.2,1.7c-0.6,0.4-1.3,0.7-2.2,0.7c-0.7,0-1.3-0.2-1.9-0.5c-0.6-0.3-1-0.8-1.3-1.3c-0.3-0.6-0.5-1.3-0.5-2
		c0-0.8,0.2-1.4,0.5-2c0.3-0.6,0.7-1,1.3-1.3c0.6-0.3,1.2-0.5,1.9-0.5c0.7,0,1.3,0.2,1.9,0.5c0.5,0.3,1,0.7,1.2,1.3
		c0.3,0.5,0.4,1.1,0.4,1.8C908,223.3,908,223.6,908,223.8z M906.4,221.6c-0.2-0.3-0.5-0.6-0.8-0.8c-0.4-0.2-0.7-0.3-1.2-0.3
		c-0.6,0-1.1,0.2-1.6,0.6c-0.4,0.4-0.7,0.9-0.7,1.6h4.7C906.7,222.3,906.6,221.9,906.4,221.6z"/>
	<path d="M911.8,219.9c0.4-0.2,0.9-0.4,1.5-0.4v1.3h-0.3c-1.4,0-2.1,0.7-2.1,2.2v4h-1.2v-7.4h1.2v1.2
		C911.1,220.4,911.4,220.1,911.8,219.9z"/>
	<path d="M918.3,218.2c-0.2-0.2-0.2-0.4-0.2-0.6s0.1-0.4,0.2-0.6c0.2-0.2,0.4-0.2,0.6-0.2c0.2,0,0.4,0.1,0.6,0.2
		c0.2,0.2,0.2,0.4,0.2,0.6s-0.1,0.4-0.2,0.6c-0.2,0.2-0.3,0.2-0.6,0.2C918.7,218.5,918.5,218.4,918.3,218.2z M919.5,219.7v7.4h-1.2
		v-7.4H919.5z"/>
	<path d="M927.4,220.3c0.6,0.5,0.8,1.3,0.8,2.4v4.4H927v-4.2c0-0.7-0.2-1.3-0.6-1.7c-0.4-0.4-0.9-0.6-1.5-0.6
		c-0.6,0-1.2,0.2-1.5,0.6c-0.4,0.4-0.6,1-0.6,1.8v4.1h-1.2v-7.4h1.2v1.1c0.2-0.4,0.6-0.7,1-0.9c0.4-0.2,0.9-0.3,1.4-0.3
		C926.1,219.5,926.8,219.8,927.4,220.3z"/>
	<path d="M936.8,220.7h-1.6v6.4H934v-6.4h-1v-1h1v-0.5c0-0.8,0.2-1.4,0.6-1.8c0.4-0.4,1.1-0.6,2.1-0.6v1c-0.5,0-0.9,0.1-1.1,0.3
		c-0.2,0.2-0.3,0.6-0.3,1v0.5h1.6V220.7z"/>
	<path d="M945,223.8H939c0,0.7,0.3,1.3,0.7,1.7c0.5,0.4,1,0.6,1.7,0.6c0.5,0,1-0.1,1.3-0.4c0.4-0.2,0.6-0.6,0.7-1h1.3
		c-0.2,0.7-0.6,1.3-1.2,1.7c-0.6,0.4-1.3,0.7-2.2,0.7c-0.7,0-1.3-0.2-1.9-0.5c-0.6-0.3-1-0.8-1.3-1.3c-0.3-0.6-0.5-1.3-0.5-2
		c0-0.8,0.2-1.4,0.5-2c0.3-0.6,0.7-1,1.3-1.3c0.6-0.3,1.2-0.5,1.9-0.5c0.7,0,1.3,0.2,1.9,0.5c0.5,0.3,1,0.7,1.2,1.3
		c0.3,0.5,0.4,1.1,0.4,1.8C945,223.3,945,223.6,945,223.8z M943.4,221.6c-0.2-0.3-0.5-0.6-0.8-0.8c-0.4-0.2-0.7-0.3-1.2-0.3
		c-0.6,0-1.1,0.2-1.6,0.6c-0.4,0.4-0.7,0.9-0.7,1.6h4.7C943.7,222.3,943.6,221.9,943.4,221.6z"/>
	<path d="M947.7,226.9c-0.5-0.2-0.8-0.5-1.1-0.8c-0.3-0.3-0.4-0.7-0.4-1.2h1.3c0,0.4,0.2,0.7,0.5,0.9c0.3,0.2,0.7,0.4,1.2,0.4
		c0.5,0,0.8-0.1,1.1-0.3c0.3-0.2,0.4-0.5,0.4-0.8c0-0.3-0.1-0.6-0.4-0.7c-0.3-0.2-0.7-0.3-1.3-0.5c-0.5-0.1-1-0.3-1.3-0.4
		c-0.3-0.1-0.6-0.4-0.9-0.7c-0.2-0.3-0.4-0.7-0.4-1.2c0-0.4,0.1-0.7,0.3-1s0.5-0.6,1-0.7c0.4-0.2,0.9-0.3,1.4-0.3
		c0.8,0,1.5,0.2,2,0.6c0.5,0.4,0.8,1,0.8,1.7h-1.2c0-0.4-0.2-0.7-0.5-0.9c-0.3-0.2-0.7-0.4-1.1-0.4c-0.4,0-0.8,0.1-1.1,0.3
		c-0.3,0.2-0.4,0.4-0.4,0.7c0,0.2,0.1,0.4,0.2,0.6c0.2,0.2,0.4,0.3,0.6,0.4c0.2,0.1,0.6,0.2,1,0.3c0.5,0.1,1,0.3,1.3,0.4
		c0.3,0.1,0.6,0.3,0.9,0.6c0.2,0.3,0.4,0.6,0.4,1.1c0,0.4-0.1,0.8-0.3,1.1c-0.2,0.3-0.5,0.6-1,0.8c-0.4,0.2-0.9,0.3-1.4,0.3
		C948.7,227.2,948.2,227.1,947.7,226.9z"/>
	<path d="M955.2,220.7v4.4c0,0.4,0.1,0.6,0.2,0.8s0.4,0.2,0.8,0.2h0.9v1H956c-0.7,0-1.2-0.2-1.5-0.5c-0.3-0.3-0.5-0.8-0.5-1.6v-4.4
		h-1v-1h1v-1.9h1.2v1.9h1.9v1H955.2z"/>
	<path d="M959.7,226.9c-0.5-0.2-0.8-0.5-1.1-0.8c-0.3-0.3-0.4-0.7-0.4-1.2h1.3c0,0.4,0.2,0.7,0.5,0.9c0.3,0.2,0.7,0.4,1.2,0.4
		c0.5,0,0.8-0.1,1.1-0.3c0.3-0.2,0.4-0.5,0.4-0.8c0-0.3-0.1-0.6-0.4-0.7c-0.3-0.2-0.7-0.3-1.3-0.5c-0.5-0.1-1-0.3-1.3-0.4
		c-0.3-0.1-0.6-0.4-0.9-0.7c-0.2-0.3-0.4-0.7-0.4-1.2c0-0.4,0.1-0.7,0.3-1c0.2-0.3,0.5-0.6,1-0.7c0.4-0.2,0.9-0.3,1.4-0.3
		c0.8,0,1.5,0.2,2,0.6c0.5,0.4,0.8,1,0.8,1.7h-1.2c0-0.4-0.2-0.7-0.5-0.9c-0.3-0.2-0.7-0.4-1.1-0.4c-0.4,0-0.8,0.1-1.1,0.3
		c-0.3,0.2-0.4,0.4-0.4,0.7c0,0.2,0.1,0.4,0.2,0.6c0.2,0.2,0.4,0.3,0.6,0.4c0.2,0.1,0.6,0.2,1,0.3c0.5,0.1,1,0.3,1.3,0.4
		c0.3,0.1,0.6,0.3,0.9,0.6c0.2,0.3,0.4,0.6,0.4,1.1c0,0.4-0.1,0.8-0.3,1.1c-0.2,0.3-0.5,0.6-1,0.8c-0.4,0.2-0.9,0.3-1.4,0.3
		C960.6,227.2,960.1,227.1,959.7,226.9z"/>
	<path d="M970.2,218.3c0.5,0.5,0.8,1.2,0.8,2c0,0.9-0.3,1.6-0.9,2.1c-0.6,0.5-1.4,0.7-2.4,0.7l0,1.3h-1.1l-0.1-2.1h0.4
		c0.9,0,1.6-0.1,2.1-0.4c0.5-0.3,0.8-0.8,0.8-1.5c0-0.5-0.2-1-0.5-1.3c-0.3-0.3-0.8-0.5-1.3-0.5c-0.6,0-1,0.2-1.3,0.5
		c-0.3,0.3-0.5,0.7-0.5,1.2h-1.2c0-0.5,0.1-1,0.4-1.4c0.2-0.4,0.6-0.7,1-1c0.4-0.2,1-0.3,1.5-0.3
		C968.9,217.5,969.6,217.8,970.2,218.3z M966.6,226.9c-0.2-0.2-0.2-0.4-0.2-0.6c0-0.2,0.1-0.4,0.2-0.6c0.2-0.2,0.4-0.2,0.6-0.2
		c0.2,0,0.4,0.1,0.6,0.2c0.2,0.2,0.2,0.4,0.2,0.6c0,0.2-0.1,0.4-0.2,0.6c-0.2,0.2-0.3,0.2-0.6,0.2
		C966.9,227.1,966.7,227,966.6,226.9z"/>
</g>
<g>
	<path d="M23.7,129.2c-0.5-0.2-0.9-0.5-1.2-1c-0.3-0.4-0.4-0.9-0.4-1.4h1.4c0,0.5,0.2,0.8,0.6,1.2c0.3,0.3,0.8,0.5,1.4,0.5
		c0.6,0,1.1-0.2,1.4-0.5c0.4-0.3,0.5-0.7,0.5-1.2c0-0.4-0.1-0.7-0.3-0.9c-0.2-0.2-0.5-0.4-0.8-0.5c-0.3-0.1-0.7-0.3-1.2-0.4
		c-0.6-0.2-1.2-0.3-1.5-0.5c-0.4-0.2-0.7-0.4-1-0.8c-0.3-0.4-0.4-0.8-0.4-1.4c0-0.5,0.1-1,0.4-1.4c0.3-0.4,0.6-0.7,1.1-1
		c0.5-0.2,1.1-0.3,1.7-0.3c0.9,0,1.7,0.2,2.2,0.7c0.6,0.5,0.9,1.1,1,1.8h-1.4c0-0.4-0.2-0.7-0.6-1c-0.3-0.3-0.8-0.4-1.4-0.4
		c-0.5,0-1,0.1-1.3,0.4c-0.3,0.3-0.5,0.7-0.5,1.2c0,0.4,0.1,0.6,0.3,0.9c0.2,0.2,0.4,0.4,0.7,0.5c0.3,0.1,0.7,0.2,1.2,0.4
		c0.6,0.2,1.2,0.4,1.6,0.5c0.4,0.2,0.7,0.4,1,0.8c0.3,0.4,0.4,0.8,0.4,1.5c0,0.5-0.1,0.9-0.4,1.3s-0.6,0.8-1.1,1
		c-0.5,0.3-1.1,0.4-1.7,0.4C24.8,129.6,24.2,129.5,23.7,129.2z"/>
	<path d="M32.1,122.9v4.5c0,0.4,0.1,0.6,0.2,0.8c0.2,0.2,0.4,0.2,0.8,0.2h0.9v1.1H33c-0.7,0-1.2-0.2-1.6-0.5
		c-0.4-0.3-0.5-0.9-0.5-1.6v-4.5h-1v-1h1v-1.9h1.3v1.9h2v1H32.1z"/>
	<path d="M35.7,123.6c0.3-0.6,0.8-1.1,1.3-1.4c0.6-0.3,1.2-0.5,1.9-0.5c0.7,0,1.3,0.1,1.7,0.4c0.5,0.3,0.9,0.7,1.1,1.1v-1.4h1.3v7.7
		h-1.3v-1.4c-0.3,0.4-0.6,0.8-1.1,1.1c-0.5,0.3-1.1,0.4-1.7,0.4c-0.7,0-1.3-0.2-1.8-0.5c-0.5-0.3-1-0.8-1.3-1.4
		c-0.3-0.6-0.5-1.3-0.5-2.1C35.2,124.8,35.3,124.2,35.7,123.6z M41.3,124.1c-0.2-0.4-0.5-0.8-0.9-1c-0.4-0.2-0.8-0.3-1.3-0.3
		c-0.5,0-0.9,0.1-1.3,0.3c-0.4,0.2-0.7,0.5-0.9,1c-0.2,0.4-0.3,0.9-0.3,1.5c0,0.6,0.1,1.1,0.3,1.5c0.2,0.4,0.5,0.8,0.9,1
		c0.4,0.2,0.8,0.3,1.3,0.3c0.5,0,0.9-0.1,1.3-0.3c0.4-0.2,0.7-0.6,0.9-1c0.2-0.4,0.3-0.9,0.3-1.5C41.7,125.1,41.5,124.6,41.3,124.1z
		"/>
	<path d="M51.1,122.5c0.6,0.6,0.9,1.4,0.9,2.4v4.5h-1.3v-4.3c0-0.8-0.2-1.3-0.6-1.8c-0.4-0.4-0.9-0.6-1.6-0.6
		c-0.7,0-1.2,0.2-1.6,0.6c-0.4,0.4-0.6,1-0.6,1.8v4.2h-1.3v-7.7h1.3v1.1c0.3-0.4,0.6-0.7,1-0.9c0.4-0.2,0.9-0.3,1.4-0.3
		C49.8,121.7,50.5,122,51.1,122.5z"/>
	<path d="M54,123.6c0.3-0.6,0.8-1.1,1.3-1.4c0.6-0.3,1.2-0.5,1.9-0.5c0.6,0,1.1,0.1,1.7,0.4c0.5,0.3,0.9,0.6,1.2,1.1v-4.1h1.3v10.3
		h-1.3V128c-0.3,0.5-0.6,0.8-1.1,1.1c-0.5,0.3-1.1,0.4-1.7,0.4c-0.7,0-1.3-0.2-1.9-0.5c-0.6-0.3-1-0.8-1.3-1.4
		c-0.3-0.6-0.5-1.3-0.5-2.1C53.6,124.8,53.7,124.2,54,123.6z M59.7,124.1c-0.2-0.4-0.5-0.8-0.9-1c-0.4-0.2-0.8-0.3-1.3-0.3
		c-0.5,0-0.9,0.1-1.3,0.3c-0.4,0.2-0.7,0.5-0.9,1c-0.2,0.4-0.3,0.9-0.3,1.5c0,0.6,0.1,1.1,0.3,1.5c0.2,0.4,0.5,0.8,0.9,1
		c0.4,0.2,0.8,0.3,1.3,0.3c0.5,0,0.9-0.1,1.3-0.3c0.4-0.2,0.7-0.6,0.9-1c0.2-0.4,0.3-0.9,0.3-1.5C60.1,125.1,59.9,124.6,59.7,124.1z
		"/>
	<path d="M67.3,120.3c-0.2-0.2-0.3-0.4-0.3-0.6c0-0.2,0.1-0.4,0.3-0.6c0.2-0.2,0.4-0.3,0.6-0.3c0.2,0,0.4,0.1,0.6,0.3
		c0.2,0.2,0.2,0.4,0.2,0.6c0,0.2-0.1,0.4-0.2,0.6s-0.4,0.3-0.6,0.3C67.6,120.6,67.4,120.5,67.3,120.3z M68.5,121.8v7.7h-1.3v-7.7
		H68.5z"/>
	<path d="M76.7,122.5c0.6,0.6,0.9,1.4,0.9,2.4v4.5h-1.3v-4.3c0-0.8-0.2-1.3-0.6-1.8c-0.4-0.4-0.9-0.6-1.6-0.6
		c-0.7,0-1.2,0.2-1.6,0.6c-0.4,0.4-0.6,1-0.6,1.8v4.2h-1.3v-7.7h1.3v1.1c0.3-0.4,0.6-0.7,1-0.9c0.4-0.2,0.9-0.3,1.4-0.3
		C75.3,121.7,76.1,122,76.7,122.5z"/>
	<path d="M84.7,129.2c-0.5-0.2-0.9-0.5-1.2-1c-0.3-0.4-0.4-0.9-0.4-1.4h1.4c0,0.5,0.2,0.8,0.6,1.2c0.3,0.3,0.8,0.5,1.4,0.5
		c0.6,0,1.1-0.2,1.4-0.5c0.4-0.3,0.5-0.7,0.5-1.2c0-0.4-0.1-0.7-0.3-0.9c-0.2-0.2-0.5-0.4-0.8-0.5s-0.7-0.3-1.2-0.4
		c-0.6-0.2-1.2-0.3-1.5-0.5c-0.4-0.2-0.7-0.4-1-0.8c-0.3-0.4-0.4-0.8-0.4-1.4c0-0.5,0.1-1,0.4-1.4c0.3-0.4,0.6-0.7,1.1-1
		c0.5-0.2,1.1-0.3,1.7-0.3c0.9,0,1.7,0.2,2.2,0.7c0.6,0.5,0.9,1.1,1,1.8h-1.4c0-0.4-0.2-0.7-0.6-1c-0.3-0.3-0.8-0.4-1.4-0.4
		c-0.5,0-1,0.1-1.3,0.4c-0.3,0.3-0.5,0.7-0.5,1.2c0,0.4,0.1,0.6,0.3,0.9c0.2,0.2,0.4,0.4,0.7,0.5c0.3,0.1,0.7,0.2,1.2,0.4
		c0.6,0.2,1.2,0.4,1.6,0.5c0.4,0.2,0.7,0.4,1,0.8c0.3,0.4,0.4,0.8,0.4,1.5c0,0.5-0.1,0.9-0.4,1.3c-0.3,0.4-0.6,0.8-1.1,1
		c-0.5,0.3-1.1,0.4-1.7,0.4C85.8,129.6,85.2,129.5,84.7,129.2z"/>
	<path d="M91.7,122c0.4-0.8,1-1.4,1.8-1.8c0.7-0.4,1.6-0.6,2.5-0.6c1.1,0,2,0.3,2.8,0.8s1.4,1.2,1.7,2.2h-1.5
		c-0.3-0.6-0.7-1-1.2-1.4c-0.5-0.3-1.1-0.5-1.8-0.5c-0.7,0-1.3,0.2-1.8,0.5c-0.5,0.3-1,0.8-1.3,1.3c-0.3,0.6-0.5,1.3-0.5,2
		c0,0.8,0.2,1.5,0.5,2c0.3,0.6,0.7,1,1.3,1.3c0.5,0.3,1.2,0.5,1.8,0.5c0.7,0,1.3-0.2,1.8-0.5c0.5-0.3,0.9-0.8,1.2-1.3h1.5
		c-0.4,0.9-0.9,1.7-1.7,2.2s-1.7,0.8-2.8,0.8c-0.9,0-1.7-0.2-2.5-0.6c-0.7-0.4-1.3-1-1.8-1.8c-0.4-0.8-0.6-1.6-0.6-2.6
		S91.3,122.8,91.7,122z"/>
	<path d="M113,126.1h-6.1c0,0.8,0.3,1.3,0.8,1.8c0.5,0.4,1,0.6,1.7,0.6c0.6,0,1-0.1,1.4-0.4c0.4-0.3,0.6-0.6,0.8-1h1.4
		c-0.2,0.7-0.6,1.3-1.2,1.8c-0.6,0.5-1.4,0.7-2.3,0.7c-0.7,0-1.4-0.2-1.9-0.5c-0.6-0.3-1-0.8-1.3-1.4c-0.3-0.6-0.5-1.3-0.5-2.1
		c0-0.8,0.2-1.5,0.5-2.1c0.3-0.6,0.8-1.1,1.3-1.4c0.6-0.3,1.2-0.5,2-0.5c0.7,0,1.4,0.2,1.9,0.5c0.6,0.3,1,0.8,1.3,1.3
		c0.3,0.6,0.5,1.2,0.5,1.9C113,125.6,113,125.9,113,126.1z M111.4,123.8c-0.2-0.3-0.5-0.6-0.9-0.8c-0.4-0.2-0.8-0.3-1.2-0.3
		c-0.6,0-1.2,0.2-1.6,0.6c-0.5,0.4-0.7,1-0.8,1.7h4.8C111.7,124.6,111.6,124.2,111.4,123.8z"/>
	<path d="M116,119.1v10.3h-1.3v-10.3H116z"/>
	<path d="M125.1,126.1H119c0,0.8,0.3,1.3,0.8,1.8c0.5,0.4,1,0.6,1.7,0.6c0.6,0,1-0.1,1.4-0.4c0.4-0.3,0.6-0.6,0.8-1h1.4
		c-0.2,0.7-0.6,1.3-1.2,1.8c-0.6,0.5-1.4,0.7-2.3,0.7c-0.7,0-1.4-0.2-1.9-0.5c-0.6-0.3-1-0.8-1.3-1.4c-0.3-0.6-0.5-1.3-0.5-2.1
		c0-0.8,0.2-1.5,0.5-2.1c0.3-0.6,0.8-1.1,1.3-1.4c0.6-0.3,1.2-0.5,2-0.5c0.7,0,1.4,0.2,1.9,0.5c0.6,0.3,1,0.8,1.3,1.3
		c0.3,0.6,0.5,1.2,0.5,1.9C125.1,125.6,125.1,125.9,125.1,126.1z M123.5,123.8c-0.2-0.3-0.5-0.6-0.9-0.8c-0.4-0.2-0.8-0.3-1.2-0.3
		c-0.6,0-1.2,0.2-1.6,0.6c-0.5,0.4-0.7,1-0.8,1.7h4.8C123.8,124.6,123.7,124.2,123.5,123.8z"/>
	<path d="M126.8,123.6c0.3-0.6,0.8-1.1,1.3-1.4c0.6-0.3,1.2-0.5,1.9-0.5c0.9,0,1.7,0.2,2.3,0.7c0.6,0.5,1,1.1,1.2,1.9h-1.4
		c-0.1-0.5-0.4-0.8-0.8-1.1c-0.4-0.3-0.8-0.4-1.4-0.4c-0.7,0-1.3,0.2-1.8,0.7c-0.4,0.5-0.7,1.2-0.7,2.1c0,0.9,0.2,1.6,0.7,2.1
		c0.4,0.5,1,0.8,1.8,0.8c0.6,0,1-0.1,1.4-0.4c0.4-0.3,0.6-0.6,0.8-1.1h1.4c-0.2,0.8-0.6,1.4-1.2,1.9c-0.6,0.5-1.4,0.7-2.3,0.7
		c-0.7,0-1.4-0.2-1.9-0.5c-0.6-0.3-1-0.8-1.3-1.4c-0.3-0.6-0.5-1.3-0.5-2.1C126.4,124.8,126.5,124.2,126.8,123.6z"/>
	<path d="M136.9,122.9v4.5c0,0.4,0.1,0.6,0.2,0.8c0.2,0.2,0.4,0.2,0.8,0.2h0.9v1.1h-1.1c-0.7,0-1.2-0.2-1.6-0.5
		c-0.4-0.3-0.5-0.9-0.5-1.6v-4.5h-1v-1h1v-1.9h1.3v1.9h2v1H136.9z"/>
	<path d="M140.4,120.3c-0.2-0.2-0.3-0.4-0.3-0.6c0-0.2,0.1-0.4,0.3-0.6c0.2-0.2,0.4-0.3,0.6-0.3c0.2,0,0.4,0.1,0.6,0.3
		c0.2,0.2,0.2,0.4,0.2,0.6c0,0.2-0.1,0.4-0.2,0.6c-0.2,0.2-0.4,0.3-0.6,0.3C140.8,120.6,140.6,120.5,140.4,120.3z M141.7,121.8v7.7
		h-1.3v-7.7H141.7z"/>
	<path d="M145.2,129.1c-0.6-0.3-1-0.8-1.4-1.4c-0.3-0.6-0.5-1.3-0.5-2.1c0-0.8,0.2-1.5,0.5-2.1c0.3-0.6,0.8-1.1,1.4-1.4
		c0.6-0.3,1.2-0.5,2-0.5s1.4,0.2,2,0.5s1,0.8,1.4,1.4c0.3,0.6,0.5,1.3,0.5,2.1c0,0.8-0.2,1.5-0.5,2.1c-0.3,0.6-0.8,1.1-1.4,1.4
		c-0.6,0.3-1.3,0.5-2,0.5C146.5,129.6,145.8,129.4,145.2,129.1z M148.5,128.2c0.4-0.2,0.7-0.5,1-1c0.2-0.4,0.4-1,0.4-1.6
		c0-0.6-0.1-1.1-0.4-1.6c-0.2-0.4-0.6-0.7-1-1c-0.4-0.2-0.8-0.3-1.3-0.3c-0.5,0-0.9,0.1-1.3,0.3c-0.4,0.2-0.7,0.5-0.9,1
		c-0.2,0.4-0.3,1-0.3,1.6c0,0.6,0.1,1.2,0.3,1.6c0.2,0.4,0.5,0.7,0.9,1c0.4,0.2,0.8,0.3,1.3,0.3
		C147.6,128.5,148.1,128.4,148.5,128.2z"/>
	<path d="M158.8,122.5c0.6,0.6,0.9,1.4,0.9,2.4v4.5h-1.3v-4.3c0-0.8-0.2-1.3-0.6-1.8c-0.4-0.4-0.9-0.6-1.6-0.6
		c-0.7,0-1.2,0.2-1.6,0.6c-0.4,0.4-0.6,1-0.6,1.8v4.2h-1.3v-7.7h1.3v1.1c0.3-0.4,0.6-0.7,1-0.9c0.4-0.2,0.9-0.3,1.4-0.3
		C157.4,121.7,158.2,122,158.8,122.5z"/>
	<path d="M162.9,129.3c-0.5-0.2-0.8-0.5-1.1-0.8c-0.3-0.4-0.4-0.8-0.4-1.2h1.3c0,0.4,0.2,0.7,0.5,0.9c0.3,0.2,0.7,0.4,1.3,0.4
		c0.5,0,0.9-0.1,1.1-0.3c0.3-0.2,0.4-0.5,0.4-0.8c0-0.3-0.1-0.6-0.4-0.7c-0.3-0.2-0.8-0.3-1.4-0.5c-0.6-0.1-1-0.3-1.4-0.5
		c-0.4-0.2-0.7-0.4-0.9-0.7c-0.3-0.3-0.4-0.7-0.4-1.2c0-0.4,0.1-0.7,0.3-1.1c0.2-0.3,0.6-0.6,1-0.8c0.4-0.2,0.9-0.3,1.5-0.3
		c0.8,0,1.5,0.2,2.1,0.6c0.5,0.4,0.8,1,0.8,1.8h-1.3c0-0.4-0.2-0.7-0.5-1c-0.3-0.2-0.7-0.4-1.2-0.4c-0.5,0-0.8,0.1-1.1,0.3
		c-0.3,0.2-0.4,0.5-0.4,0.8c0,0.3,0.1,0.5,0.2,0.6c0.2,0.2,0.4,0.3,0.6,0.4c0.2,0.1,0.6,0.2,1,0.3c0.5,0.1,1,0.3,1.3,0.4
		s0.6,0.4,0.9,0.6s0.4,0.7,0.4,1.1c0,0.4-0.1,0.8-0.4,1.1c-0.2,0.3-0.6,0.6-1,0.8c-0.4,0.2-0.9,0.3-1.5,0.3
		C163.8,129.6,163.3,129.5,162.9,129.3z"/>
	<path d="M173.7,120.4c0.6,0.5,0.9,1.2,0.9,2.1c0,1-0.3,1.7-0.9,2.2c-0.6,0.5-1.4,0.7-2.5,0.7l0,1.3h-1.1l-0.1-2.2h0.4
		c0.9,0,1.6-0.1,2.2-0.4c0.5-0.3,0.8-0.8,0.8-1.6c0-0.6-0.2-1-0.5-1.3c-0.3-0.3-0.8-0.5-1.4-0.5c-0.6,0-1,0.2-1.4,0.5
		c-0.3,0.3-0.5,0.7-0.5,1.3h-1.2c0-0.6,0.1-1.1,0.4-1.5c0.3-0.4,0.6-0.8,1.1-1c0.5-0.2,1-0.3,1.6-0.3
		C172.4,119.6,173.2,119.9,173.7,120.4z M170,129.3c-0.2-0.2-0.3-0.4-0.3-0.6s0.1-0.4,0.3-0.6c0.2-0.2,0.4-0.3,0.6-0.3
		c0.2,0,0.4,0.1,0.6,0.3c0.2,0.2,0.2,0.4,0.2,0.6s-0.1,0.4-0.2,0.6c-0.2,0.2-0.4,0.3-0.6,0.3C170.4,129.6,170.2,129.5,170,129.3z"/>
</g>
<g>
	<path d="M81.2,239.8v9.7h-1.3v-4.4h-5v4.4h-1.3v-9.7H75v4.3h5v-4.3H81.2z"/>
	<path d="M84.7,249.2c-0.6-0.3-1-0.8-1.4-1.4c-0.3-0.6-0.5-1.3-0.5-2.1c0-0.8,0.2-1.5,0.5-2.1c0.3-0.6,0.8-1.1,1.4-1.4
		c0.6-0.3,1.2-0.5,2-0.5c0.7,0,1.4,0.2,2,0.5c0.6,0.3,1,0.8,1.4,1.4c0.3,0.6,0.5,1.3,0.5,2.1c0,0.8-0.2,1.5-0.5,2.1
		c-0.3,0.6-0.8,1.1-1.4,1.4c-0.6,0.3-1.3,0.5-2,0.5C86,249.7,85.3,249.5,84.7,249.2z M88,248.2c0.4-0.2,0.7-0.5,1-1
		c0.2-0.4,0.4-0.9,0.4-1.6c0-0.6-0.1-1.1-0.4-1.6s-0.6-0.7-1-1c-0.4-0.2-0.8-0.3-1.3-0.3c-0.5,0-0.9,0.1-1.3,0.3
		c-0.4,0.2-0.7,0.5-0.9,1c-0.2,0.4-0.3,0.9-0.3,1.6c0,0.6,0.1,1.2,0.3,1.6c0.2,0.4,0.5,0.7,0.9,1c0.4,0.2,0.8,0.3,1.3,0.3
		S87.6,248.4,88,248.2z"/>
	<path d="M102.5,241.9l-2.4,7.7h-1.3l-1.8-6.1l-1.8,6.1h-1.3l-2.4-7.7h1.3l1.8,6.4l1.9-6.4h1.3l1.9,6.4l1.7-6.4H102.5z"/>
	<path d="M109,242.9v4.5c0,0.4,0.1,0.6,0.2,0.8c0.2,0.2,0.4,0.2,0.8,0.2h0.9v1.1h-1.1c-0.7,0-1.2-0.2-1.6-0.5
		c-0.4-0.3-0.5-0.9-0.5-1.6v-4.5h-1v-1h1V240h1.3v1.9h2v1H109z"/>
	<path d="M114,249.2c-0.6-0.3-1-0.8-1.4-1.4c-0.3-0.6-0.5-1.3-0.5-2.1c0-0.8,0.2-1.5,0.5-2.1c0.3-0.6,0.8-1.1,1.4-1.4
		c0.6-0.3,1.2-0.5,2-0.5s1.4,0.2,2,0.5c0.6,0.3,1,0.8,1.4,1.4c0.3,0.6,0.5,1.3,0.5,2.1c0,0.8-0.2,1.5-0.5,2.1
		c-0.3,0.6-0.8,1.1-1.4,1.4c-0.6,0.3-1.3,0.5-2,0.5C115.2,249.7,114.5,249.5,114,249.2z M117.2,248.2c0.4-0.2,0.7-0.5,1-1
		c0.2-0.4,0.4-0.9,0.4-1.6c0-0.6-0.1-1.1-0.4-1.6s-0.6-0.7-1-1c-0.4-0.2-0.8-0.3-1.3-0.3c-0.5,0-0.9,0.1-1.3,0.3
		c-0.4,0.2-0.7,0.5-0.9,1c-0.2,0.4-0.3,0.9-0.3,1.6c0,0.6,0.1,1.2,0.3,1.6c0.2,0.4,0.5,0.7,0.9,1c0.4,0.2,0.8,0.3,1.3,0.3
		C116.4,248.6,116.8,248.4,117.2,248.2z"/>
	<path d="M126.6,251.2c0,0.7-0.2,1.2-0.5,1.5c-0.3,0.3-0.8,0.5-1.5,0.5h-0.7v-1.1h0.5c0.4,0,0.6-0.1,0.7-0.2
		c0.1-0.1,0.2-0.4,0.2-0.7v-9.3h1.3V251.2z M125.3,240.4c-0.2-0.2-0.2-0.4-0.2-0.6s0.1-0.4,0.2-0.6c0.2-0.2,0.4-0.3,0.6-0.3
		s0.4,0.1,0.6,0.3c0.2,0.2,0.2,0.4,0.2,0.6s-0.1,0.4-0.2,0.6c-0.2,0.2-0.4,0.3-0.6,0.3S125.5,240.6,125.3,240.4z"/>
	<path d="M130.1,249.2c-0.6-0.3-1-0.8-1.4-1.4c-0.3-0.6-0.5-1.3-0.5-2.1c0-0.8,0.2-1.5,0.5-2.1c0.3-0.6,0.8-1.1,1.4-1.4
		c0.6-0.3,1.2-0.5,2-0.5s1.4,0.2,2,0.5c0.6,0.3,1,0.8,1.4,1.4c0.3,0.6,0.5,1.3,0.5,2.1c0,0.8-0.2,1.5-0.5,2.1
		c-0.3,0.6-0.8,1.1-1.4,1.4c-0.6,0.3-1.3,0.5-2,0.5C131.3,249.7,130.7,249.5,130.1,249.2z M133.3,248.2c0.4-0.2,0.7-0.5,1-1
		c0.2-0.4,0.4-0.9,0.4-1.6c0-0.6-0.1-1.1-0.4-1.6s-0.6-0.7-1-1c-0.4-0.2-0.8-0.3-1.3-0.3c-0.5,0-0.9,0.1-1.3,0.3
		c-0.4,0.2-0.7,0.5-0.9,1c-0.2,0.4-0.3,0.9-0.3,1.6c0,0.6,0.1,1.2,0.3,1.6c0.2,0.4,0.5,0.7,0.9,1c0.4,0.2,0.8,0.3,1.3,0.3
		C132.5,248.6,132.9,248.4,133.3,248.2z"/>
	<path d="M137.7,240.4c-0.2-0.2-0.3-0.4-0.3-0.6s0.1-0.4,0.3-0.6c0.2-0.2,0.4-0.3,0.6-0.3c0.2,0,0.4,0.1,0.6,0.3
		c0.2,0.2,0.2,0.4,0.2,0.6s-0.1,0.4-0.2,0.6c-0.2,0.2-0.4,0.3-0.6,0.3C138.1,240.6,137.9,240.6,137.7,240.4z M138.9,241.9v7.7h-1.3
		v-7.7H138.9z"/>
	<path d="M147.1,242.6c0.6,0.6,0.9,1.4,0.9,2.4v4.5h-1.3v-4.3c0-0.8-0.2-1.3-0.6-1.8c-0.4-0.4-0.9-0.6-1.6-0.6
		c-0.7,0-1.2,0.2-1.6,0.6c-0.4,0.4-0.6,1-0.6,1.8v4.2h-1.3v-7.7h1.3v1.1c0.3-0.4,0.6-0.7,1-0.9c0.4-0.2,0.9-0.3,1.4-0.3
		C145.8,241.7,146.5,242,147.1,242.6z"/>
	<path d="M161.2,242.6c-0.3-0.6-0.7-1-1.2-1.3c-0.5-0.3-1.1-0.5-1.8-0.5s-1.3,0.2-1.8,0.5c-0.5,0.3-1,0.8-1.3,1.3
		c-0.3,0.6-0.5,1.3-0.5,2c0,0.8,0.2,1.4,0.5,2c0.3,0.6,0.7,1,1.3,1.3c0.5,0.3,1.2,0.5,1.8,0.5c1,0,1.7-0.3,2.3-0.9
		c0.6-0.6,1-1.3,1.1-2.3h-3.9v-1h5.2v1c-0.1,0.8-0.3,1.5-0.8,2.2c-0.4,0.7-1,1.2-1.7,1.6c-0.7,0.4-1.5,0.6-2.3,0.6
		c-0.9,0-1.7-0.2-2.5-0.6c-0.7-0.4-1.3-1-1.8-1.8c-0.4-0.8-0.7-1.6-0.7-2.6c0-1,0.2-1.8,0.7-2.6c0.4-0.8,1-1.4,1.8-1.8
		c0.7-0.4,1.6-0.6,2.5-0.6c1,0,1.9,0.3,2.7,0.8c0.8,0.5,1.4,1.2,1.7,2.2H161.2z"/>
	<path d="M166,249.2c-0.6-0.3-1-0.8-1.4-1.4c-0.3-0.6-0.5-1.3-0.5-2.1c0-0.8,0.2-1.5,0.5-2.1c0.3-0.6,0.8-1.1,1.4-1.4
		c0.6-0.3,1.2-0.5,2-0.5s1.4,0.2,2,0.5c0.6,0.3,1,0.8,1.4,1.4c0.3,0.6,0.5,1.3,0.5,2.1c0,0.8-0.2,1.5-0.5,2.1
		c-0.3,0.6-0.8,1.1-1.4,1.4c-0.6,0.3-1.3,0.5-2,0.5C167.3,249.7,166.6,249.5,166,249.2z M169.3,248.2c0.4-0.2,0.7-0.5,1-1
		c0.2-0.4,0.4-0.9,0.4-1.6c0-0.6-0.1-1.1-0.4-1.6s-0.6-0.7-1-1c-0.4-0.2-0.8-0.3-1.3-0.3c-0.5,0-0.9,0.1-1.3,0.3
		c-0.4,0.2-0.7,0.5-0.9,1c-0.2,0.4-0.3,0.9-0.3,1.6c0,0.6,0.1,1.2,0.3,1.6c0.2,0.4,0.5,0.7,0.9,1c0.4,0.2,0.8,0.3,1.3,0.3
		C168.4,248.6,168.9,248.4,169.3,248.2z"/>
	<path d="M175,249.2c-0.6-0.3-1-0.8-1.4-1.4c-0.3-0.6-0.5-1.3-0.5-2.1c0-0.8,0.2-1.5,0.5-2.1c0.3-0.6,0.8-1.1,1.4-1.4
		c0.6-0.3,1.2-0.5,2-0.5s1.4,0.2,2,0.5c0.6,0.3,1,0.8,1.4,1.4c0.3,0.6,0.5,1.3,0.5,2.1c0,0.8-0.2,1.5-0.5,2.1
		c-0.3,0.6-0.8,1.1-1.4,1.4c-0.6,0.3-1.3,0.5-2,0.5C176.2,249.7,175.6,249.5,175,249.2z M178.2,248.2c0.4-0.2,0.7-0.5,1-1
		c0.2-0.4,0.4-0.9,0.4-1.6c0-0.6-0.1-1.1-0.4-1.6s-0.6-0.7-1-1c-0.4-0.2-0.8-0.3-1.3-0.3c-0.5,0-0.9,0.1-1.3,0.3
		c-0.4,0.2-0.7,0.5-0.9,1c-0.2,0.4-0.3,0.9-0.3,1.6c0,0.6,0.1,1.2,0.3,1.6c0.2,0.4,0.5,0.7,0.9,1c0.4,0.2,0.8,0.3,1.3,0.3
		C177.4,248.6,177.8,248.4,178.2,248.2z"/>
	<path d="M187.4,242.2c0.5,0.3,0.9,0.7,1.1,1.1v-1.4h1.3v7.8c0,0.7-0.2,1.3-0.4,1.9s-0.7,1-1.3,1.3c-0.6,0.3-1.2,0.5-1.9,0.5
		c-1,0-1.8-0.2-2.5-0.7c-0.7-0.5-1.1-1.1-1.2-1.9h1.3c0.1,0.5,0.4,0.8,0.9,1.1c0.4,0.3,1,0.4,1.6,0.4c0.7,0,1.3-0.2,1.7-0.7
		c0.4-0.4,0.7-1.1,0.7-1.8v-1.6c-0.3,0.4-0.6,0.8-1.1,1.1s-1.1,0.4-1.7,0.4c-0.7,0-1.3-0.2-1.9-0.5c-0.6-0.3-1-0.8-1.3-1.4
		c-0.3-0.6-0.5-1.3-0.5-2.1c0-0.8,0.2-1.5,0.5-2.1c0.3-0.6,0.8-1,1.3-1.4c0.6-0.3,1.2-0.5,1.9-0.5
		C186.4,241.8,186.9,241.9,187.4,242.2z M188.2,244.2c-0.2-0.4-0.5-0.8-0.9-1c-0.4-0.2-0.8-0.3-1.3-0.3c-0.5,0-0.9,0.1-1.3,0.3
		c-0.4,0.2-0.7,0.6-0.9,1c-0.2,0.4-0.3,0.9-0.3,1.5c0,0.6,0.1,1.1,0.3,1.5c0.2,0.4,0.5,0.8,0.9,1c0.4,0.2,0.8,0.3,1.3,0.3
		c0.5,0,0.9-0.1,1.3-0.3c0.4-0.2,0.7-0.6,0.9-1c0.2-0.4,0.3-0.9,0.3-1.5S188.4,244.6,188.2,244.2z"/>
	<path d="M193.3,239.2v10.3H192v-10.3H193.3z"/>
	<path d="M202.4,246.2h-6.1c0,0.8,0.3,1.3,0.8,1.8c0.5,0.4,1,0.6,1.7,0.6c0.6,0,1-0.1,1.4-0.4c0.4-0.3,0.6-0.6,0.8-1h1.4
		c-0.2,0.7-0.6,1.3-1.2,1.8c-0.6,0.5-1.4,0.7-2.3,0.7c-0.7,0-1.4-0.2-1.9-0.5c-0.6-0.3-1-0.8-1.3-1.4c-0.3-0.6-0.5-1.3-0.5-2.1
		c0-0.8,0.2-1.5,0.5-2.1c0.3-0.6,0.8-1.1,1.3-1.4c0.6-0.3,1.2-0.5,2-0.5c0.7,0,1.4,0.2,1.9,0.5c0.6,0.3,1,0.8,1.3,1.3
		c0.3,0.6,0.5,1.2,0.5,1.9C202.4,245.7,202.4,245.9,202.4,246.2z M200.8,243.9c-0.2-0.3-0.5-0.6-0.9-0.8c-0.4-0.2-0.8-0.3-1.2-0.3
		c-0.6,0-1.2,0.2-1.6,0.6c-0.5,0.4-0.7,1-0.8,1.7h4.8C201.1,244.7,201,244.3,200.8,243.9z"/>
	<path d="M208.8,240.5c0.6,0.5,0.9,1.2,0.9,2.1c0,1-0.3,1.7-0.9,2.2c-0.6,0.5-1.4,0.7-2.5,0.7l0,1.3h-1.1l-0.1-2.2h0.4
		c0.9,0,1.6-0.1,2.2-0.4s0.8-0.8,0.8-1.6c0-0.6-0.2-1-0.5-1.3c-0.3-0.3-0.8-0.5-1.4-0.5c-0.6,0-1,0.2-1.4,0.5
		c-0.3,0.3-0.5,0.7-0.5,1.3h-1.2c0-0.6,0.1-1.1,0.4-1.5c0.3-0.4,0.6-0.8,1.1-1c0.5-0.2,1-0.3,1.6-0.3
		C207.5,239.7,208.2,239.9,208.8,240.5z M205.1,249.4c-0.2-0.2-0.3-0.4-0.3-0.6s0.1-0.4,0.3-0.6c0.2-0.2,0.4-0.3,0.6-0.3
		c0.2,0,0.4,0.1,0.6,0.3c0.2,0.2,0.2,0.4,0.2,0.6s-0.1,0.4-0.2,0.6c-0.2,0.2-0.4,0.3-0.6,0.3C205.4,249.6,205.2,249.5,205.1,249.4z"
		/>
</g>
<g>
	<path d="M141.4,26.9v9.7h-1.3v-4.4h-5v4.4h-1.3v-9.7h1.3v4.3h5v-4.3H141.4z"/>
	<path d="M144.9,36.3c-0.6-0.3-1-0.8-1.4-1.4c-0.3-0.6-0.5-1.3-0.5-2.1c0-0.8,0.2-1.5,0.5-2.1s0.8-1.1,1.4-1.4
		c0.6-0.3,1.2-0.5,2-0.5s1.4,0.2,2,0.5c0.6,0.3,1,0.8,1.4,1.4c0.3,0.6,0.5,1.3,0.5,2.1c0,0.8-0.2,1.5-0.5,2.1
		c-0.3,0.6-0.8,1.1-1.4,1.4c-0.6,0.3-1.3,0.5-2,0.5C146.2,36.8,145.5,36.6,144.9,36.3z M148.2,35.3c0.4-0.2,0.7-0.5,1-1
		c0.2-0.4,0.4-1,0.4-1.6c0-0.6-0.1-1.1-0.4-1.6c-0.2-0.4-0.6-0.7-1-1c-0.4-0.2-0.8-0.3-1.3-0.3c-0.5,0-0.9,0.1-1.3,0.3
		c-0.4,0.2-0.7,0.5-0.9,1c-0.2,0.4-0.3,1-0.3,1.6c0,0.6,0.1,1.2,0.3,1.6c0.2,0.4,0.5,0.7,0.9,1c0.4,0.2,0.8,0.3,1.3,0.3
		S147.8,35.5,148.2,35.3z"/>
	<path d="M162.7,29l-2.4,7.7H159l-1.8-6.1l-1.8,6.1H154l-2.4-7.7h1.3l1.8,6.4l1.9-6.4h1.3l1.9,6.4l1.7-6.4H162.7z"/>
	<path d="M169.2,30v4.5c0,0.4,0.1,0.6,0.2,0.8c0.2,0.2,0.4,0.2,0.8,0.2h0.9v1.1h-1.1c-0.7,0-1.2-0.2-1.6-0.5
		c-0.4-0.3-0.5-0.9-0.5-1.6V30h-1v-1h1v-1.9h1.3V29h2v1H169.2z"/>
	<path d="M174.2,36.3c-0.6-0.3-1-0.8-1.4-1.4c-0.3-0.6-0.5-1.3-0.5-2.1c0-0.8,0.2-1.5,0.5-2.1c0.3-0.6,0.8-1.1,1.4-1.4
		c0.6-0.3,1.2-0.5,2-0.5c0.7,0,1.4,0.2,2,0.5s1,0.8,1.4,1.4c0.3,0.6,0.5,1.3,0.5,2.1c0,0.8-0.2,1.5-0.5,2.1
		c-0.3,0.6-0.8,1.1-1.4,1.4c-0.6,0.3-1.3,0.5-2,0.5C175.4,36.8,174.7,36.6,174.2,36.3z M177.4,35.3c0.4-0.2,0.7-0.5,1-1
		c0.2-0.4,0.4-1,0.4-1.6c0-0.6-0.1-1.1-0.4-1.6c-0.2-0.4-0.6-0.7-1-1c-0.4-0.2-0.8-0.3-1.3-0.3c-0.5,0-0.9,0.1-1.3,0.3
		c-0.4,0.2-0.7,0.5-0.9,1c-0.2,0.4-0.3,1-0.3,1.6c0,0.6,0.1,1.2,0.3,1.6c0.2,0.4,0.5,0.7,0.9,1c0.4,0.2,0.8,0.3,1.3,0.3
		C176.6,35.7,177,35.5,177.4,35.3z"/>
	<path d="M187.9,29.3c0.5-0.3,1.1-0.4,1.7-0.4c0.7,0,1.3,0.2,1.9,0.5c0.5,0.3,1,0.8,1.3,1.4c0.3,0.6,0.5,1.3,0.5,2.1
		c0,0.8-0.2,1.5-0.5,2.1c-0.3,0.6-0.8,1.1-1.3,1.4c-0.6,0.3-1.2,0.5-1.9,0.5c-0.7,0-1.2-0.1-1.7-0.4c-0.5-0.3-0.9-0.7-1.1-1.1v1.4
		h-1.3V26.3h1.3v4.1C187,30,187.4,29.6,187.9,29.3z M191.6,31.3c-0.2-0.4-0.5-0.8-0.9-1c-0.4-0.2-0.8-0.3-1.3-0.3
		c-0.5,0-0.9,0.1-1.3,0.3c-0.4,0.2-0.7,0.6-0.9,1s-0.4,0.9-0.4,1.5c0,0.6,0.1,1.1,0.4,1.5s0.6,0.8,0.9,1c0.4,0.2,0.8,0.3,1.3,0.3
		c0.5,0,0.9-0.1,1.3-0.3c0.4-0.2,0.7-0.6,0.9-1c0.2-0.4,0.4-0.9,0.4-1.5C191.9,32.2,191.8,31.7,191.6,31.3z"/>
	<path d="M201.8,33.3h-6.1c0,0.8,0.3,1.3,0.8,1.8c0.5,0.4,1,0.6,1.7,0.6c0.6,0,1-0.1,1.4-0.4c0.4-0.3,0.6-0.6,0.8-1h1.4
		c-0.2,0.7-0.6,1.3-1.2,1.8c-0.6,0.5-1.4,0.7-2.3,0.7c-0.7,0-1.4-0.2-1.9-0.5c-0.6-0.3-1-0.8-1.3-1.4c-0.3-0.6-0.5-1.3-0.5-2.1
		c0-0.8,0.2-1.5,0.5-2.1c0.3-0.6,0.8-1.1,1.3-1.4c0.6-0.3,1.2-0.5,2-0.5c0.7,0,1.4,0.2,1.9,0.5c0.6,0.3,1,0.8,1.3,1.3
		c0.3,0.6,0.5,1.2,0.5,1.9C201.9,32.8,201.9,33,201.8,33.3z M200.2,31c-0.2-0.3-0.5-0.6-0.9-0.8c-0.4-0.2-0.8-0.3-1.2-0.3
		c-0.6,0-1.2,0.2-1.6,0.6c-0.5,0.4-0.7,1-0.8,1.7h4.8C200.6,31.8,200.5,31.4,200.2,31z"/>
	<path d="M203.6,30.7c0.3-0.6,0.8-1.1,1.3-1.4c0.6-0.3,1.2-0.5,1.9-0.5c0.9,0,1.7,0.2,2.3,0.7c0.6,0.5,1,1.1,1.2,1.9H209
		c-0.1-0.5-0.4-0.8-0.8-1.1c-0.4-0.3-0.8-0.4-1.4-0.4c-0.7,0-1.3,0.2-1.8,0.7c-0.4,0.5-0.7,1.2-0.7,2.1c0,0.9,0.2,1.6,0.7,2.1
		c0.4,0.5,1,0.8,1.8,0.8c0.6,0,1-0.1,1.4-0.4c0.4-0.3,0.6-0.6,0.8-1.1h1.4c-0.2,0.8-0.6,1.4-1.2,1.9c-0.6,0.5-1.4,0.7-2.3,0.7
		c-0.7,0-1.4-0.2-1.9-0.5c-0.6-0.3-1-0.8-1.3-1.4c-0.3-0.6-0.5-1.3-0.5-2.1C203.1,32,203.2,31.3,203.6,30.7z"/>
	<path d="M213.4,36.3c-0.6-0.3-1-0.8-1.4-1.4c-0.3-0.6-0.5-1.3-0.5-2.1c0-0.8,0.2-1.5,0.5-2.1s0.8-1.1,1.4-1.4
		c0.6-0.3,1.2-0.5,2-0.5s1.4,0.2,2,0.5s1,0.8,1.4,1.4c0.3,0.6,0.5,1.3,0.5,2.1c0,0.8-0.2,1.5-0.5,2.1c-0.3,0.6-0.8,1.1-1.4,1.4
		c-0.6,0.3-1.3,0.5-2,0.5C214.7,36.8,214,36.6,213.4,36.3z M216.7,35.3c0.4-0.2,0.7-0.5,1-1c0.2-0.4,0.4-1,0.4-1.6
		c0-0.6-0.1-1.1-0.4-1.6c-0.2-0.4-0.6-0.7-1-1c-0.4-0.2-0.8-0.3-1.3-0.3c-0.5,0-0.9,0.1-1.3,0.3c-0.4,0.2-0.7,0.5-0.9,1
		c-0.2,0.4-0.3,1-0.3,1.6c0,0.6,0.1,1.2,0.3,1.6c0.2,0.4,0.5,0.7,0.9,1c0.4,0.2,0.8,0.3,1.3,0.3C215.8,35.7,216.3,35.5,216.7,35.3z"
		/>
	<path d="M231.8,29.2c0.5,0.2,0.8,0.6,1.1,1.1c0.3,0.5,0.4,1.1,0.4,1.8v4.5H232v-4.3c0-0.8-0.2-1.3-0.6-1.8
		c-0.4-0.4-0.9-0.6-1.5-0.6c-0.7,0-1.2,0.2-1.6,0.6c-0.4,0.4-0.6,1-0.6,1.8v4.2h-1.3v-4.3c0-0.8-0.2-1.3-0.6-1.8
		c-0.4-0.4-0.9-0.6-1.5-0.6c-0.7,0-1.2,0.2-1.6,0.6c-0.4,0.4-0.6,1-0.6,1.8v4.2H221V29h1.3v1.1c0.3-0.4,0.6-0.7,1-0.9
		c0.4-0.2,0.9-0.3,1.4-0.3c0.6,0,1.2,0.1,1.7,0.4c0.5,0.3,0.9,0.7,1.1,1.3c0.2-0.5,0.6-1,1.1-1.3c0.5-0.3,1-0.4,1.6-0.4
		C230.8,28.8,231.3,29,231.8,29.2z"/>
	<path d="M242.3,33.3h-6.1c0,0.8,0.3,1.3,0.8,1.8c0.5,0.4,1,0.6,1.7,0.6c0.6,0,1-0.1,1.4-0.4c0.4-0.3,0.6-0.6,0.8-1h1.4
		c-0.2,0.7-0.6,1.3-1.2,1.8c-0.6,0.5-1.4,0.7-2.3,0.7c-0.7,0-1.4-0.2-1.9-0.5c-0.6-0.3-1-0.8-1.3-1.4c-0.3-0.6-0.5-1.3-0.5-2.1
		c0-0.8,0.2-1.5,0.5-2.1c0.3-0.6,0.8-1.1,1.3-1.4c0.6-0.3,1.2-0.5,2-0.5c0.7,0,1.4,0.2,1.9,0.5c0.6,0.3,1,0.8,1.3,1.3
		c0.3,0.6,0.5,1.2,0.5,1.9C242.4,32.8,242.4,33,242.3,33.3z M240.7,31c-0.2-0.3-0.5-0.6-0.9-0.8c-0.4-0.2-0.8-0.3-1.2-0.3
		c-0.6,0-1.2,0.2-1.6,0.6c-0.5,0.4-0.7,1-0.8,1.7h4.8C241.1,31.8,240.9,31.4,240.7,31z"/>
	<path d="M250.2,29.3c0.5-0.3,1.1-0.4,1.7-0.4c0.7,0,1.3,0.2,1.9,0.5c0.6,0.3,1,0.8,1.3,1.4c0.3,0.6,0.5,1.3,0.5,2.1
		c0,0.8-0.2,1.5-0.5,2.1c-0.3,0.6-0.8,1.1-1.3,1.4c-0.6,0.3-1.2,0.5-1.9,0.5c-0.7,0-1.2-0.1-1.7-0.4s-0.9-0.7-1.1-1.1v5h-1.3V29h1.3
		v1.4C249.3,30,249.7,29.6,250.2,29.3z M253.9,31.3c-0.2-0.4-0.5-0.8-0.9-1c-0.4-0.2-0.8-0.3-1.3-0.3c-0.5,0-0.9,0.1-1.3,0.3
		c-0.4,0.2-0.7,0.6-0.9,1s-0.4,0.9-0.4,1.5c0,0.6,0.1,1.1,0.4,1.5s0.6,0.8,0.9,1c0.4,0.2,0.8,0.3,1.3,0.3c0.5,0,0.9-0.1,1.3-0.3
		c0.4-0.2,0.7-0.6,0.9-1c0.2-0.4,0.4-0.9,0.4-1.5C254.2,32.2,254.1,31.7,253.9,31.3z"/>
	<path d="M258.6,36.3c-0.6-0.3-1-0.8-1.4-1.4c-0.3-0.6-0.5-1.3-0.5-2.1c0-0.8,0.2-1.5,0.5-2.1s0.8-1.1,1.4-1.4
		c0.6-0.3,1.2-0.5,2-0.5s1.4,0.2,2,0.5s1,0.8,1.4,1.4c0.3,0.6,0.5,1.3,0.5,2.1c0,0.8-0.2,1.5-0.5,2.1c-0.3,0.6-0.8,1.1-1.4,1.4
		c-0.6,0.3-1.3,0.5-2,0.5C259.8,36.8,259.2,36.6,258.6,36.3z M261.8,35.3c0.4-0.2,0.7-0.5,1-1c0.2-0.4,0.4-1,0.4-1.6
		c0-0.6-0.1-1.1-0.4-1.6c-0.2-0.4-0.6-0.7-1-1c-0.4-0.2-0.8-0.3-1.3-0.3c-0.5,0-0.9,0.1-1.3,0.3c-0.4,0.2-0.7,0.5-0.9,1
		c-0.2,0.4-0.3,1-0.3,1.6c0,0.6,0.1,1.2,0.3,1.6c0.2,0.4,0.5,0.7,0.9,1c0.4,0.2,0.8,0.3,1.3,0.3S261.4,35.5,261.8,35.3z"/>
	<path d="M268.6,29.3c0.5-0.3,1.1-0.4,1.7-0.4c0.7,0,1.3,0.2,1.9,0.5c0.6,0.3,1,0.8,1.3,1.4c0.3,0.6,0.5,1.3,0.5,2.1
		c0,0.8-0.2,1.5-0.5,2.1c-0.3,0.6-0.8,1.1-1.3,1.4c-0.6,0.3-1.2,0.5-1.9,0.5c-0.7,0-1.2-0.1-1.7-0.4c-0.5-0.3-0.9-0.7-1.1-1.1v5
		h-1.3V29h1.3v1.4C267.7,30,268.1,29.6,268.6,29.3z M272.3,31.3c-0.2-0.4-0.5-0.8-0.9-1c-0.4-0.2-0.8-0.3-1.3-0.3
		c-0.5,0-0.9,0.1-1.3,0.3c-0.4,0.2-0.7,0.6-0.9,1c-0.2,0.4-0.4,0.9-0.4,1.5c0,0.6,0.1,1.1,0.4,1.5c0.2,0.4,0.6,0.8,0.9,1
		c0.4,0.2,0.8,0.3,1.3,0.3c0.5,0,0.9-0.1,1.3-0.3c0.4-0.2,0.7-0.6,0.9-1s0.4-0.9,0.4-1.5C272.6,32.2,272.5,31.7,272.3,31.3z"/>
	<path d="M282.4,29v7.7h-1.3v-1.1c-0.2,0.4-0.6,0.7-1,0.9s-0.9,0.3-1.4,0.3c-0.6,0-1.1-0.1-1.6-0.4c-0.5-0.2-0.8-0.6-1.1-1.1
		c-0.3-0.5-0.4-1.1-0.4-1.8V29h1.3v4.3c0,0.8,0.2,1.3,0.6,1.7c0.4,0.4,0.9,0.6,1.6,0.6c0.7,0,1.2-0.2,1.6-0.6s0.6-1,0.6-1.8V29
		H282.4z"/>
	<path d="M285.8,26.3v10.3h-1.3V26.3H285.8z"/>
	<path d="M288,30.7c0.3-0.6,0.8-1.1,1.3-1.4c0.6-0.3,1.2-0.5,1.9-0.5c0.7,0,1.3,0.1,1.7,0.4s0.9,0.7,1.1,1.1V29h1.3v7.7H294v-1.4
		c-0.3,0.4-0.6,0.8-1.1,1.1c-0.5,0.3-1.1,0.4-1.7,0.4c-0.7,0-1.3-0.2-1.8-0.5c-0.5-0.3-1-0.8-1.3-1.4c-0.3-0.6-0.5-1.3-0.5-2.1
		C287.5,32,287.7,31.3,288,30.7z M293.7,31.3c-0.2-0.4-0.5-0.8-0.9-1c-0.4-0.2-0.8-0.3-1.3-0.3c-0.5,0-0.9,0.1-1.3,0.3
		c-0.4,0.2-0.7,0.5-0.9,1c-0.2,0.4-0.3,0.9-0.3,1.5c0,0.6,0.1,1.1,0.3,1.5c0.2,0.4,0.5,0.8,0.9,1c0.4,0.2,0.8,0.3,1.3,0.3
		c0.5,0,0.9-0.1,1.3-0.3c0.4-0.2,0.7-0.6,0.9-1c0.2-0.4,0.3-0.9,0.3-1.5S293.9,31.7,293.7,31.3z"/>
	<path d="M299.7,29.2c0.4-0.2,0.9-0.4,1.5-0.4v1.3h-0.3c-1.4,0-2.1,0.8-2.1,2.3v4.2h-1.3V29h1.3v1.2
		C298.9,29.8,299.3,29.5,299.7,29.2z"/>
	<path d="M307.4,27.6c0.6,0.5,0.9,1.2,0.9,2.1c0,1-0.3,1.7-0.9,2.2c-0.6,0.5-1.4,0.7-2.5,0.7l0,1.3h-1.1l-0.1-2.2h0.4
		c0.9,0,1.6-0.1,2.2-0.4c0.5-0.3,0.8-0.8,0.8-1.6c0-0.6-0.2-1-0.5-1.3c-0.3-0.3-0.8-0.5-1.4-0.5c-0.6,0-1,0.2-1.4,0.5
		c-0.3,0.3-0.5,0.7-0.5,1.3h-1.2c0-0.6,0.1-1.1,0.4-1.5c0.3-0.4,0.6-0.8,1.1-1c0.5-0.2,1-0.3,1.6-0.3
		C306.1,26.8,306.8,27,307.4,27.6z M303.6,36.5c-0.2-0.2-0.3-0.4-0.3-0.6c0-0.2,0.1-0.4,0.3-0.6c0.2-0.2,0.4-0.3,0.6-0.3
		c0.2,0,0.4,0.1,0.6,0.3c0.2,0.2,0.2,0.4,0.2,0.6c0,0.2-0.1,0.4-0.2,0.6c-0.2,0.2-0.4,0.3-0.6,0.3C304,36.7,303.8,36.6,303.6,36.5z"
		/>
</g>
</svg>
