<?xml version="1.0" encoding="utf-8"?>
<!-- Generator: Adobe Illustrator 25.0.1, SVG Export Plug-In . SVG Version: 6.00 Build 0)  -->
<svg version="1.1" id="_x34_ef1610a-9e03-48a5-8dcf-c01d7d13df94"
	 xmlns="http://www.w3.org/2000/svg" xmlns:xlink="http://www.w3.org/1999/xlink" x="0px" y="0px" viewBox="0 0 949.8 661.5"
	 style="enable-background:new 0 0 949.8 661.5;" xml:space="preserve">
<style type="text/css">
	.st0{fill:#23A6D5;}
	.st1{opacity:0.1;fill:#23A6D5;enable-background:new    ;}
	.st2{fill:url(#SVGID_1_);}
	.st3{fill:#444176;}
	.st4{opacity:0.1;enable-background:new    ;}
	.st5{fill:#565387;}
	.st6{opacity:0.1;}
	.st7{fill:#CED2DF;}
	.st8{fill:#493545;}
	.st9{fill:#EC8C9C;}
	.st10{fill:#EBF1F6;}
	.st11{fill:url(#SVGID_2_);}
	.st12{fill:url(#SVGID_3_);}
	.st13{fill:#FFBDC6;}
	.st14{fill:#7679B4;}
	.st15{fill:#A66477;}
	.st16{fill:#F2F1F2;}
	.st17{fill:#565388;}
	.st18{fill:url(#SVGID_4_);}
	.st19{opacity:5.000000e-02;enable-background:new    ;}
	.st20{fill:#3E3D77;}
	.st21{fill:#C77485;}
	.st22{fill:#FFAAC4;}
	.st23{fill:none;stroke:#535461;stroke-width:2;stroke-miterlimit:10;}
	.st24{opacity:0.5;fill:#DEE3F3;enable-background:new    ;}
	.st25{fill:none;stroke:#23A6D5;stroke-miterlimit:10;}
	.st26{fill:#A8A8A8;}
	.st27{opacity:0.2;enable-background:new    ;}
	.st28{fill:#FFD037;}
</style>
<circle class="st0" cx="95.1" cy="66" r="46.5"/>
<path class="st1" d="M89.5,160.7c19.5,44.1-5.4,94.9-34.7,133.1c-9.8,12.8-20.6,26.3-22,42.3c-1.6,19.7,11.7,37.8,27.5,49.6
	c28.8,21.5,68.2,28.2,102.5,17.3c29.6-9.4,54.6-30.6,84.5-39.1c50-14.3,103,9.4,145.8,39c30.3,20.9,62.8,46.4,99.3,41.9
	c25.7-3.2,47.5-21.2,62.3-42.5c7.2-10.3,13.4-21.8,23.8-28.7c6.2-4.1,13.5-6.3,20.7-7.9c66.4-14.2,136.8,20.4,202.4,2.6
	c44.3-12,79.5-47,101.5-87.3s32.2-85.7,40.7-130.8c6.1-32,11.1-66.6-2.8-96C926.1,23.2,892,4.3,857.7,0.8S789,7,757.4,20.8
	C718,38,679.3,62.2,636.2,62.3c-29.3,0.1-57.3-11.2-85.4-19.8C503.9,28.1,455.2,21,406.6,14.4C360,8.1,313,2.2,266.2,6
	c-33.1,2.6-62.4,15.3-94.5,21.1c-21,3.8-42,1-62.6,7.4c-25.3,7.9-51.4,26.3-52.8,55.2C55.1,117.2,79.1,137.3,89.5,160.7z"/>
<linearGradient id="SVGID_1_" gradientUnits="userSpaceOnUse" x1="585.6489" y1="-3.6681" x2="585.6489" y2="410.297" gradientTransform="matrix(1 0 0 -1 -125.1 540.0356)">
	<stop  offset="0" style="stop-color:#808080;stop-opacity:0.25"/>
	<stop  offset="0.54" style="stop-color:#808080;stop-opacity:0.12"/>
	<stop  offset="1" style="stop-color:#808080;stop-opacity:0.1"/>
</linearGradient>
<path class="st2" d="M601.9,199.9c-4.3-11.1-15.3-37.3-22.5-32.1c-9.2,6.6,9.2,35.5,9.2,35.5c0.5,5.3-9.8,16.4-15.3,21.9
	c0-0.4,0-0.7,0-0.7c-0.1,0.2-0.1,0.4-0.2,0.6l-0.5-0.3c-0.1,0.4-0.3,0.8-0.7,1.2c0-0.8,0-1.2,0-1.2c-1.1,4.5-19.6,10.2-19.6,10.2
	s-0.5,0-1.4,0c-5.1,0-18.5-1.2-24.7-11.1c-3.2-5.4-7.3-10.2-12.1-14.1c-1.7-1.3-3.7-2.1-5.8-2.2c-17.1-1.1-31-9.8-33.8-11.6
	l-0.5-0.4l-0.1,0.3c-0.7-0.9-1.3-1.9-1.9-2.9l0,0l-0.3-0.5c8.5-4.2,13.8-12.9,13.8-22.3c0-0.2,0-0.4,0-0.5c1.5-2.6,2.3-5.6,2.3-8.6
	v-3l3.9-3.5c1.8-1.6,3.6-3.3,4.5-5.5c0.4-0.9,0.5-1.8,0.5-2.8c0.2-1.7-0.5-3.3-1.8-4.3c-3-2.1-8,0-10.2-2.9c-1-1.3-0.8-3.1-1.3-4.6
	c-1-3.1-4.6-4.8-7.9-4.8s-6.5,1.2-9.7,2.1c-6.7,1.9-13.7,2.6-20.7,1.9c-1.9-0.3-3.8-0.3-5.7,0.2c-2.3,0.9-4,2.9-4.6,5.3
	c-0.2,0.9-0.4,1.8-0.4,2.7c-2.8,3.1-4.3,7.2-4.3,11.4v7.7c0,4.1,1.5,8.1,4.2,11.2c0.6,7.3,4.5,14,10.5,18.2c0,0.2,0,0.4,0,0.6
	l0.1,0.1c-0.2,2.4-0.5,4.7-1.1,7.1v-0.5c0,0-14,7.5-29,7.6h-1.7c-3-0.1-5.8,1-8,3c-4.4,4.2-12.2,10.8-17,10.8
	c-1,0-26.2,4.9-30.4,5.8l-7.8-7.6l-0.2,0.5l-0.5-0.5c-0.9,0.1-1.7,0.2-2.5,0.4c-4-4.7-12-15.8-13.9-30.5c0,0,17.3-19.7,10.9-38
	c-5.4-15.6-20.4,17.9-24.6,28c-0.7,1.8-0.8,3.7-0.3,5.5l14,45.2c-1.3,3.5-1.7,7.3-1.1,11h-0.2l10.2,13.1c0,0,7.7,3.3,19.7,3.2
	c8.8,0,17.6-1.7,25.7-4.9h2.4l-0.5,0.2h12.2l7.7,23.4c-0.3,2.1-4,31.9-7,38.5c-0.9,2.2-1.3,4.6-1.2,7c0.2,4.6,0.9,9.1,2.2,13.5
	l6.8-0.3l-0.3,0.5c-5.7,11.8-15.3,32.7-21,52.3l-9.9,20l7.4,89.7l0,0h0.3l0,0l0.6,0.1l0,0c0.8,0.1,2,0.3,3.6,0.5l-0.6,1l-16.3,27
	c0,0-11.6,23.8,14.1,19.3c0,0,9.5-2.8,13.4-19l16.9-15.9c0,0,0.8-10.5-4-14.8c-0.3-4.9-1.1-19.1,0.1-22.5c1.4-4.1-6-51.8-6-51.8
	s26.8-55.5,43-56.9c1.2-0.1,2.4,0.1,3.5,0.5c13.3,4.3,29.5,36.6,34.2,46.6l0,0l0.2,0.5v0.1l0.2,0.4v0.1l0.2,0.3v0.1l0.1,0.3v0.1
	l0.1,0.3v0.1l0.1,0.2v0.1l0.1,0.1v0.1v0.1l0,0l0,0.1l2.1,62.5l0,0l0,0l0,0l0.2,0.1l0,0h0.1l-0.2,1.3l-0.9,6.5
	c0,0,11.6,24.5,10.9,27.6s7.8,15.5,19.7,12.1c12-3.5,4.9-22.9,4.9-22.9l-11.5-23.8l-0.5-1.1c1.1-0.7,2.2-1.5,3.2-2.4
	c0,0-3.5-25.5,0-31s4.6-30.7,4.6-30.7s-2.5-17.3-6.7-24.8l-17.7-63.3c5.3,4.9,9.4,6.9,12.9,6.7h0.6c1.5,0,3-0.3,4.3-1.1
	c0.7-0.4,1.4-0.9,2-1.4c0.1-0.1,0.2-0.2,0.3-0.3l0,0c4.9-4.1-5.6-20.4-11.6-30c-5.8-9.3,2.2-34.6,2.8-36.5c0.5-0.4,1.1-0.7,1.7-1
	c1.2-0.5,2.6-0.8,3.9-0.9c5.7,0.2,12.8,3.5,21.5,5.2c6.1,1,12.2,1.5,18.4,1.4h0.4c2.5,0,4.7,0,6.5-0.1c1.6-0.1,3.2-0.5,4.7-1.3l0,0
	c1.2-0.7,2.4-1.6,3.3-2.7l15.3-17.3l-0.4,0.2c0.7-2,0.7-4.1,0-6.1l16.2-28C602.8,206.4,603.1,203,601.9,199.9z"/>
<path class="st3" d="M419.8,505.9l-16.3,15.7c-3.7,16-12.9,18.7-12.9,18.7c-24.8,4.4-13.6-19-13.6-19l15.8-26.7l1.9-3.3
	c0,0,11.2-3.4,18.7-1.4c0.9,0.3,1.8,0.7,2.5,1.4C420.6,495.4,419.8,505.9,419.8,505.9z"/>
<path class="st3" d="M520.5,519.9c-11.6,3.4-19.7-8.8-19-11.9s-10.6-27.2-10.6-27.2l0.9-6.4l0.8-5.9l19,1.4l1.8,3.8l11.1,23.5
	C524.5,497.1,532,516.5,520.5,519.9z"/>
<path class="st4" d="M416,494c-1.8,3.1-16.3,1.5-23.4,0.6l1.9-3.3c0,0,11.2-3.4,18.7-1.4c0.9,0.3,1.8,0.7,2.5,1.4
	C416,493,416,494,416,494z"/>
<path class="st4" d="M513.4,473.6c-9.7,6.5-20.1,1.6-21.7,0.8l0.8-5.9l19,1.4L513.4,473.6z"/>
<path class="st5" d="M516.1,439.6c-3.4,5.4,0,30.6,0,30.6c-11.2,10.2-24.5,2.7-24.5,2.7l-2-61.6c0,0-22.1-50.7-37.8-49.3
	s-41.5,56.1-41.5,56.1s7.1,46.9,5.8,51s0,23.8,0,23.8c-2.4,4.1-27.2,0-27.2,0l-7.1-88.5l9.5-19.7c5.5-19.3,14.7-40,20.3-51.6
	c2.8-5.8,4.6-9.3,4.6-9.3l18.1-3.8l58.8-12.2l21.1,76.8c4.1,7.5,6.5,24.5,6.5,24.5S519.5,434.1,516.1,439.6z"/>
<g class="st6">
	<path d="M497,472.9l-2-61.6c0,0-22.1-50.7-37.8-49.3c-0.7,0.1-1.4,0.2-2,0.5c15.3,5.1,34.4,48.9,34.4,48.9l2,61.6
		c4.2,2.1,8.9,3,13.5,2.5C502.3,475,499.5,474.2,497,472.9z"/>
	<path d="M394.3,493l-7.1-88.5l9.5-19.8c5.5-19.3,14.7-40,20.3-51.6c2.8-5.8,4.6-9.3,4.6-9.3l18.1-3.8l53.6-11.1l-0.3-1.1
		l-58.8,12.2l-18.1,3.8c0,0-1.8,3.5-4.6,9.3c-5.6,11.6-14.8,32.3-20.3,51.6l-9.5,19.7l7.1,88.5c0,0,13.6,2.2,21.6,1.7
		C405,494.4,399.6,493.8,394.3,493z"/>
</g>
<path class="st7" d="M352.9,219c0,0-19.4,1-16.7,21.4l5.4,0.7l8.2-8.8l4.1-7.5v-1.7L352.9,219z"/>
<path class="st4" d="M352.9,219c0,0-19.4,1-16.7,21.4l5.4,0.7l8.2-8.8l4.1-7.5v-1.7L352.9,219z"/>
<path class="st7" d="M568.6,226.5c0,0,16,8.5,11.9,18.4l-5.1,2l-6.8-3.7l-1-8.8l0.7-6.1L568.6,226.5z"/>
<path class="st4" d="M568.6,226.5c0,0,16,8.5,11.9,18.4l-5.1,2l-6.8-3.7l-1-8.8l0.7-6.1L568.6,226.5z"/>
<path class="st8" d="M452.3,138.7h13.6c11.6,0,21.1,9.4,21.1,21.1l0,0c0,11.6-9.4,21.1-21.1,21.1h-13.6c-11.6,0-21.1-9.4-21.1-21.1
	l0,0C431.2,148.1,440.6,138.7,452.3,138.7z"/>
<path class="st9" d="M352.8,221.9l-11.9,19l-1-3.4l-16.2-52.7c-0.6-1.8-0.5-3.7,0.3-5.5c4.1-9.9,18.5-43,23.7-27.5
	c6.1,18-10.5,37.4-10.5,37.4c1.9,15.8,10.8,27.2,14.2,31.1C352.2,221.3,352.8,221.9,352.8,221.9z"/>
<path class="st9" d="M566.1,230c0,0,18.7-17.7,18-24.8c0,0-17.7-28.6-8.8-35c7-5.1,17.6,20.7,21.8,31.6c1.1,3,0.8,6.3-0.7,9
	l-22.4,39.6L566.1,230z"/>
<path class="st9" d="M444.9,180.7c0,0,3.4,21.8-6.5,29.9s28.2,8.1,28.2,8.1l13.6-12.6c0,0-15.7-14.6-10.9-25.5L444.9,180.7z"/>
<path class="st4" d="M444.3,205.5c0,0,14.6,10.9,29.3-1.4l23.8,49.3l-1.4,60.2c0,0-49.3,25.5-69.7,9.9s-3.4-23.8-3.4-23.8l-4.8-46.3
	l5.1-29.9c0,0,9.2-14.3,9.9-14.3S444.3,205.5,444.3,205.5z"/>
<path class="st10" d="M444.3,204.9c0,0,14.6,10.9,29.3-1.4l23.8,49.3L496,313c0,0-49.3,25.5-69.7,9.9s-3.4-23.8-3.4-23.8l-4.8-46.3
	l5.1-29.9c0,0,9.2-14.3,9.9-14.3S444.3,204.9,444.3,204.9z"/>
<path class="st4" d="M444.3,199.8c0,0-13.9,7.9-28.9,7.5c-2.9-0.1-5.6,1-7.7,2.9c-4.3,4.1-11.8,10.6-16.5,10.6
	c-1,0-29.9,5.8-29.9,5.8l-7.6-7.6c0,0-11.4,22.3-16.8,21.3l9.9,12.9c0,0,18.7,8.2,43.2-1.7h14.3l7.5,23.1c0,0-3.7,31.3-6.8,38.1
	s1,20.1,1,20.1l26.9-1c0,0,1.4-13.3,3.4-15s-7.1-60.2-7.1-60.2s-6.1-33,16.3-44.9L444.3,199.8z"/>
<path class="st4" d="M434.1,320.1c-1,4-1.7,8.1-2.1,12.3l-20.6,0.8c2.8-5.8,4.6-9.3,4.6-9.3L434.1,320.1z"/>
<path class="st4" d="M352.8,221.9l-11.9,19l-1-3.4c4.4-4.3,9.5-13.4,11.5-17.2C352.2,221.3,352.8,221.9,352.8,221.9z"/>
<path class="st7" d="M444.3,199.8c0,0-14.6,7.9-29.6,7.5c-2.9-0.1-5.6,1-7.7,2.9c-4.3,4.1-11.8,10.6-16.5,10.6
	c-1,0-29.9,5.8-29.9,5.8l-7.7-7.7c0,0-11.4,22.3-16.8,21.3l9.9,12.9c0,0,18.7,8.2,43.2-1.7h14.3l7.5,23.1c0,0-3.7,31.3-6.8,38.1
	s1,20.1,1,20.1l26.9-1c0,0,1.4-13.3,3.4-15s-7.1-60.2-7.1-60.2s-6.1-33,16.3-44.9L444.3,199.8z"/>
<path class="st4" d="M473.5,197.7c0,0,13.9,10.6,32.4,11.8c2,0.1,4,0.9,5.5,2.1c4.7,4,8.6,8.7,11.7,14c7.5,12.3,25.8,10.9,25.8,10.9
	s17.9-5.6,18.9-10c0,0,0.5,24,11.7,18.2l-14.8,17c-1.9,2.2-4.6,3.5-7.5,3.6c-5.5,0.2-15.2,0.3-23.3-1.3c-12.3-2.4-21.1-8.2-27.6-3.1
	c0,0-8.5,26.5-2.7,36.1s16,25.5,11.2,29.6c-4.8,4.1-10.6,3.7-20.1-6.1S484.5,294,484.5,294l2.4-42.9c0,0-9.2-32.3-18-38.8
	L473.5,197.7z"/>
<path class="st4" d="M581,244.3l-14.8,17.1c-1,1.1-2.2,2-3.6,2.7l0,0c-1.2,0.5-2.5,0.9-3.9,0.9c-5.5,0.2-15.2,0.3-23.3-1.3
	c-11.5-2.2-19.9-7.4-26.3-3.9c-0.4,0.2-0.9,0.5-1.3,0.9c0,0-8.5,26.5-2.7,36.1s16,25.5,11.2,29.6c-0.8,0.7-1.7,1.3-2.7,1.7
	c-4.3,1.9-9.6,0.3-17.4-7.9c-9.5-9.9-10.5-26.5-10.5-26.5l2.4-42.9c0,0-9.2-32.3-18-38.8l3.9-14c2.7,1.8,16.1,10.4,32.6,11.5
	c2,0.1,4,0.9,5.6,2.1c4.7,4,8.6,8.7,11.7,14c7.5,12.3,25.8,10.9,25.8,10.9c4.4-1.4,8.7-3.1,12.9-5.1l0,0c2.6-1.3,4.9-2.7,6-4
	c0.3-0.3,0.5-0.8,0.7-1.2C569.3,226.2,569.8,250.1,581,244.3z"/>
<path class="st7" d="M580.3,244.7l-14.8,17.1c-0.8,0.9-1.8,1.7-2.9,2.3l0,0c-1.4,0.8-3,1.2-4.5,1.3c-5.5,0.2-15.2,0.3-23.3-1.3
	c-11-2.1-19.3-7.1-25.6-4.3c-0.7,0.3-1.4,0.7-2,1.2c0,0-8.5,26.5-2.7,36.1s16,25.5,11.2,29.6c-0.6,0.5-1.3,1-2,1.4
	c-4.4,2.4-9.8,1-18.1-7.5c-9.5-9.9-10.5-26.5-10.5-26.5l2.4-42.9c0,0-9.2-32.3-18-38.8l4.1-14.6l0.5,0.3
	c2.7,1.8,16.1,10.4,32.6,11.5c2,0.1,4,0.9,5.6,2.1c4.7,4,8.6,8.7,11.7,14c7.5,12.3,25.8,10.9,25.8,10.9c4.4-1.4,8.7-3.1,12.9-5.1
	l0,0c3.1-1.6,5.6-3.3,6-4.9c0,0,0,0.3,0,0.9C568.9,231.5,570.4,249.8,580.3,244.7z"/>
<path class="st4" d="M469.7,181.2h-25c0.5,4,0.7,8,0.5,12c7.8,5.5,17.9,6.2,26.4,1.9C469.2,190.7,467.8,185.6,469.7,181.2z"/>
<circle class="st9" cx="459.9" cy="172.5" r="24.8"/>
<path class="st4" d="M454.8,168.1c2.8-0.3,5.5-1.3,8.3-0.8c2.5,0.5,4.6,2.2,7.1,2.7c4.8,1,9.2-2.5,12.8-5.8l7.8-7.1
	c1.7-1.6,3.5-3.2,4.4-5.4s0.6-5-1.3-6.4c-2.8-2-7.8,0-9.8-2.8c-0.9-1.3-0.8-3-1.3-4.5c-1-3.1-4.4-4.7-7.7-4.8s-6.3,1.1-9.4,2
	c-6.5,1.9-13.3,2.5-20,1.9c-1.8-0.3-3.7-0.3-5.5,0.2c-2.2,1-3.9,2.9-4.4,5.3c-1.5,5.4,1.1,14.2,3.7,19.1S449.5,168.8,454.8,168.1z"
	/>
<path class="st8" d="M454.8,167.4c2.8-0.3,5.5-1.3,8.3-0.8c2.5,0.5,4.6,2.2,7.1,2.7c4.8,1,9.2-2.5,12.8-5.8l7.8-7.1
	c1.7-1.6,3.5-3.2,4.4-5.4s0.6-5-1.3-6.4c-2.8-2-7.8,0-9.8-2.8c-0.9-1.3-0.8-3-1.3-4.5c-1-3.1-4.4-4.7-7.7-4.8s-6.3,1.1-9.4,2
	c-6.5,1.9-13.3,2.5-20,1.9c-1.8-0.3-3.7-0.3-5.5,0.2c-2.2,1-3.9,2.9-4.4,5.3c-1.5,5.4,1.1,14.2,3.7,19.1S449.5,168,454.8,167.4z"/>
<path class="st4" d="M411.4,274.8c0,0,5.4,0.7,8.2,4.1s7.5,4.4,7.5,4.4"/>
<path class="st4" d="M362.5,229.9c0,0,4.4,9.9,1.7,10.9s-1.7,8.2-1.7,8.2"/>
<g class="st6">
	<path d="M364,226.5c0,0,28.9-5.8,29.9-5.8c4.7,0,12.2-6.5,16.5-10.6c1.3-1.2,2.9-2.1,4.7-2.6h-0.4c-2.9-0.1-5.6,1-7.7,2.9
		c-4.3,4.1-11.8,10.6-16.5,10.6c-0.8,0-19.3,3.7-26.8,5.2L364,226.5z"/>
	<path d="M444.3,201.2v-1.3c-7,3.5-14.4,5.9-22.2,7.1C429.8,206.3,437.3,204.4,444.3,201.2z"/>
	<path d="M408.6,332.6c0,0-4.1-13.3-1-20.1s6.8-38.1,6.8-38.1l-7.5-23.1h-14.3l-0.9,0.3h11.8l7.5,23.1c0,0-3.7,31.3-6.8,38.1
		s1,20.1,1,20.1l26.9-1v-0.2L408.6,332.6z"/>
</g>
<g class="st6">
	<path d="M516.1,321.2c-0.6,0.5-1.3,1-2,1.4c-4.4,2.4-9.8,1-18.1-7.5c-7.6-7.8-9.8-20-10.3-24.6l-0.2,3.5c0,0,1,16.7,10.5,26.5
		c8.3,8.5,13.7,9.9,18.1,7.5c0.7-0.4,1.4-0.9,2-1.4c1.4-1.2,1.5-3.5,0.8-6.4C516.6,320.6,516.4,320.9,516.1,321.2z"/>
	<path d="M575.5,245.2l-9.6,11.1c-0.8,0.9-1.8,1.7-2.9,2.3l0,0c-1.4,0.8-3,1.2-4.5,1.3c-5.5,0.2-15.2,0.3-23.3-1.3
		c-11-2.1-19.3-7.1-25.6-4.3c-0.7,0.3-1.4,0.7-2,1.2c0,0-5.5,17.1-4.7,28.8c0.7-10.9,4.7-23.4,4.7-23.4c0.6-0.5,1.3-0.9,2-1.2
		c6.3-2.8,14.5,2.1,25.6,4.3c8.1,1.6,17.8,1.5,23.3,1.3c1.6-0.1,3.1-0.5,4.5-1.3l0,0c1.1-0.6,2.1-1.4,2.9-2.3l14.8-17.1
		C579.2,245.6,577.2,245.8,575.5,245.2z"/>
</g>
<linearGradient id="SVGID_2_" gradientUnits="userSpaceOnUse" x1="266.195" y1="172.1656" x2="266.195" y2="172.3856" gradientTransform="matrix(1 0 0 -1 -125.1 540.0356)">
	<stop  offset="0" style="stop-color:#808080;stop-opacity:0.25"/>
	<stop  offset="0.54" style="stop-color:#808080;stop-opacity:0.12"/>
	<stop  offset="1" style="stop-color:#808080;stop-opacity:0.1"/>
</linearGradient>
<path class="st11" d="M140.6,367.7c0.2,0.2,0.6,0.3,0.9,0.1C141.2,367.8,140.9,367.7,140.6,367.7z"/>
<linearGradient id="SVGID_3_" gradientUnits="userSpaceOnUse" x1="252.5703" y1="54.3381" x2="252.5703" y2="388.3004" gradientTransform="matrix(1 0 0 -1 -125.1 540.0356)">
	<stop  offset="0" style="stop-color:#808080;stop-opacity:0.25"/>
	<stop  offset="0.54" style="stop-color:#808080;stop-opacity:0.12"/>
	<stop  offset="1" style="stop-color:#808080;stop-opacity:0.1"/>
</linearGradient>
<path class="st12" d="M242.5,202c-1.8-0.5-4.4-1.4-7.5-2.5c3.2-4.1,5.6-8.9,6.9-13.9l-0.3,0.1c0.1-0.3,0.2-0.6,0.3-0.9
	c-5.9,2.4-12.5-1.7-16.7-6.9s-7-11.7-11.6-16.6c-1.9-1.9-4-3.7-6.1-5.3c-1.4-1-2.8-2.1-4.5-2.2c-2.7-0.1-4.8,2.5-7.3,3.3
	c-1.7,0.4-3.5,0.3-5.1-0.2c-6.6-1.5-13-4.3-19.8-5.1c-3.6-0.4-7.3,0-10.7,1.2c-3.4,1.3-5,3.9-7.7,5.9c-3,2.2-8.9,2.2-12.4,2.5
	c-4.2,0.5-8.5,0.7-12.8,0.5c-2.4-0.2-4.9-0.1-7.3,0.3c-5.1,1.1-9.1,5.1-12.9,9c-1,0.9-1.8,2-2.1,3.4c0,0.4,0,0.7,0,1.1
	c0,1,0.1,2,0.5,3c1.2,3.5,2.8,6.8,4.9,9.8c1.6,2.2,3.4,4.3,4.2,6.9c0.4,1.3,0.6,2.6,0.6,4c0,1.4-0.2,2.9-0.4,4.3
	c-0.7,3.9-1.8,7.8-3.3,11.5c-0.9,1.9-1.6,3.9-1.9,6c0,0.4,0,0.9,0,1.3c-0.3,6.6,6.4,11.4,7.7,17.9c0.1,0.5,0.2,1.1,0.2,1.6
	c-0.1,4.1-2.5,8.1-5.9,9.7c0.3,0.1,0.6,0.2,0.9,0.3c-0.3,0.2-0.6,0.4-0.9,0.5c0.6,0.2,1.3,0.5,1.9,0.6c-3.9,3.4-7.2,7.5-9.7,12
	C92.3,286.8,13.9,329,13.9,329l1.2,0.7l-0.9,0.6c-6.8,4.5-22.7,17.7-8.3,34.3c0,0,11.2-17.7,19.1-25.3c0.4-0.3,0.7-0.6,1-0.9
	c0.3,0.5,0.5,1.2,0.3,1.8l51.5-29c0,0,18.3-12.8,23.4-15.7c3.6-2.2,7.5-3.9,11.6-5l-0.6,0.3c1.9-0.5,3.9-0.8,5.9-0.8
	c9.1,0.1,19,6.8,22.2,33.3c4.4,35.4,2.3,41.8,0.9,42.7c-0.2,0-0.3,0-0.5-0.1c0,0,0.1,0.1,0.1,0.1c-0.2,0-0.4,0-0.6-0.1
	c0.2,0.2,0.5,0.3,0.8,0.2c0.2,0.1,0.4,0,0.6-0.1l0,0c0.2,0,0.5,0,0.7,0c0,0.3,0,0.7-0.1,1c-0.1,0-0.4,0.2,0,0.2l0,0
	c-0.1,2-0.1,4.2,0,6.4c-4.5,0.3-9.1,0.5-13,0.8l0.4-1.9l0.2-0.8c3.5-0.3,6.8-1.3,7.2-4.1c0.9-6.2-7.7-9.5-14.9-9.9
	c-7.2-0.4-50.7,2.5-50.7,2.5s-6.5,8.4,14.1,11c0.6,0.3,1.3,0.7,1.9,1c8.1,4.6,19.1,13.1,24.3,17.3l0.7,0.6l-2.4,1.9
	c12.8,2.9,25.1,51.7,31.9,74s21.7,21.5,34.1,18.2c11.6-3.1,13-36.7,13.2-40.9v-0.4l20.6,25.4l1.6,1.9c0.6,0.3,1.2,0.6,1.8,0.9
	c15.6,7.4,32.8-6.8,27.9-23c-5-16.3-12.6-40.5-17.8-50.7c-4.3-8.5-9.8-22.8-13.2-31.6c0.4-0.2,0.9-0.4,1.3-0.6c0,0-0.1-0.4-0.2-1.1
	l0.2-0.1c0,0-5-25.7-5.2-44c0-0.3,0-0.7,0-1c0-0.2,0-0.4,0-0.6c3.7-0.9,6.1-1.2,6.1-1.2l0.1-0.8l-0.4,0.1l2.1-23.7
	c0,0,7.6-16.2,1.8-22.9c-1.8-2-3-4.4-3.4-7c-1-6.2,0-16.5,13.5-25.1c20.9-13.2,29-24,29-24S255.3,205.8,242.5,202z M201.1,218.4
	v-10.9c3.9-0.2,7.8,0.3,11.7,0c1.9-0.1,3.8-0.5,5.6-1l0.9,0.6C213.7,211.6,207.6,215.3,201.1,218.4z M142,390.1
	c1.5,1.1,3.1,2.2,4.6,3.3c0.9,5.4,1.8,9.2,1.8,9.5C146.7,398.4,144.5,394.1,142,390.1z"/>
<path class="st13" d="M175,381.1l-0.9,4.9l-0.7,3.7l-1.3,6.8l-12.2,8.5c0,0-1.1-0.9-2.9-2.4c-5-4.1-15.5-12.5-23.3-17
	c-2-1.3-4.1-2.3-6.4-3L175,381.1z"/>
<path class="st4" d="M175,381.1l-0.9,4.9c-2.7,0.1-5.4,0-8.1-0.4l-28.5,0.4c-1.4-0.1-2.6-0.2-3.8-0.3c-2-1.3-4.1-2.3-6.4-3
	L175,381.1z"/>
<path class="st14" d="M166.1,384.8c0,0,14.3,2.4,15.1-3.7s-7.3-9.3-14.2-9.8s-48.5,2.5-48.5,2.5s-7.3,9.8,19.1,11.4L166.1,384.8z"/>
<path class="st4" d="M175,381.1l-0.9,4.9l-0.7,3.7l-1.3,6.8l-12.2,8.5c0,0-1.1-0.9-2.9-2.4c-5-4.1-15.5-12.5-23.3-17
	c-2-1.3-4.1-2.3-6.4-3L175,381.1z"/>
<path class="st4" d="M175,381.1l-0.9,4.9c-2.7,0.1-5.4,0-8.1-0.4l-28.5,0.4c-1.4-0.1-2.6-0.2-3.8-0.3c-2-1.3-4.1-2.3-6.4-3
	L175,381.1z"/>
<path class="st4" d="M166.1,384.8c0,0,14.3,2.4,15.1-3.7s-7.3-9.3-14.2-9.8s-48.5,2.5-48.5,2.5s-7.3,9.8,19.1,11.4L166.1,384.8z"/>
<rect x="122.7" y="183.9" class="st15" width="74.5" height="88.4"/>
<rect x="122.7" y="183.9" class="st8" width="74.5" height="88.4"/>
<path class="st13" d="M35.3,335.3c-1.2,0.3-2.8,1.5-4.5,3.2c-7.5,7.4-18.3,24.9-18.3,24.9c-13.8-16.4,1.5-29.3,8-33.8
	c1.6-1.1,2.6-1.7,2.6-1.7L35.3,335.3z"/>
<path class="st13" d="M174.2,211.9c0,0,3.7,25.7,16.3,31.8s-16.3,17.5-16.3,17.5l-39.5-14.7c0,0,22.4-7.3,17.9-28.9L174.2,211.9z"/>
<path class="st13" d="M131.9,366.2l-0.9,4.9l-0.7,3.7l-1.3,6.8l-12.2,8.5c0,0-1.1-0.9-2.9-2.4c-5-4.1-15.5-12.5-23.3-17
	c-2-1.3-4.1-2.3-6.4-3L131.9,366.2z"/>
<path class="st4" d="M131.9,366.2l-0.9,4.9c-2.7,0.1-5.4,0-8.1-0.4l-28.5,0.4c-1.4-0.1-2.6-0.2-3.8-0.3c-2-1.3-4.1-2.3-6.4-3
	L131.9,366.2z"/>
<path class="st14" d="M122.9,369.9c0,0,14.3,2.4,15.1-3.7s-7.3-9.4-14.3-9.8c-6.9-0.4-48.5,2.4-48.5,2.4s-7.3,9.8,19.1,11.4
	L122.9,369.9z"/>
<path class="st4" d="M130.3,374.9l-1.3,6.8l-12.2,8.5c0,0-1.1-0.9-2.9-2.4l16.2-13.3L130.3,374.9z"/>
<path class="st14" d="M210.9,468.1c-0.6-0.3-1.1-0.6-1.7-0.9l-1.5-1.9l-19.7-25v0.4c-0.1,4.2-1.5,37.3-12.6,40.3
	c-11.8,3.3-26.1,4.1-32.6-17.9s-18.3-70-30.5-72.9l18.1-14.9c0,0,12,14,16.9,27.5c-0.2-0.9-8.5-39.6-1.6-46.4h59.5
	c0,0,9.2,26.1,15.5,39.1c4.9,10.1,12.3,33.8,17,49.9C242.3,461.4,225.9,475.4,210.9,468.1z"/>
<path class="st4" d="M209.2,363.8c-9.2,5.4-49.5,3.2-62.6,2.3l-3.6-0.3c-0.4,0,0.1-0.2,0.1-0.2l0.4-3.7l9.8-24.8l52.3-30.3
	c-1.1,3.2-1.4,8.1-1.3,13.7C204.5,338.4,209.2,363.8,209.2,363.8z"/>
<path class="st16" d="M209.2,362.6c-9.2,5.4-49.5,3.2-62.6,2.3l-3.6-0.3h-0.6l0.6-0.2l3.2-0.9l6.9-27.7l52.3-30.3
	c-1.1,3.2-1.4,8.1-1.3,13.7C204.5,337.2,209.2,362.6,209.2,362.6z"/>
<path class="st4" d="M204.3,319.2c-10.6,2.5-34.1,9.7-43.1,27c-6,11.6-11,16.5-14.6,18.6l-3.6-0.3l0.1-0.2l3.2-0.9l6.9-27.7
	l52.3-30.3C204.5,308.8,204.2,313.6,204.3,319.2z"/>
<path class="st4" d="M23.1,327.9l12.2,7.3c-1.2,0.3-2.8,1.5-4.5,3.2c-1-3-7.4-7.1-10.3-8.9C22,328.5,23.1,327.9,23.1,327.9z"/>
<path class="st4" d="M140.9,365.1c-0.3,0.2-0.6,0.1-0.9-0.1C140.3,365.1,140.6,365.1,140.9,365.1z"/>
<path class="st17" d="M168.5,242c0,0-11,1.2-18.7-6.9c0,0-32.6,9.4-43.6,30.5s-85.9,62.7-85.9,62.7s13,7.3,11.8,11l49.3-28.5
	c0,0,17.5-12.6,22.4-15.5s31.8-20.4,37.5,27.3s0,42,0,42s8.1,2.9,20-20s48.5-28.1,48.5-28.1l2-24c0,0,7.3-15.9,1.7-22.6
	c-1.7-2-2.8-4.3-3.3-6.9c-0.9-6.1,0-16.3,13-24.7c20-13,27.7-23.6,27.7-23.6s0.4-7.7-11.8-11.4s-61.9-23.6-61.9-23.6l-1.6,6.9
	l39.1,27.7c0,0-19.5,15.9-35,15.5C179.5,229.8,182.4,241.6,168.5,242z"/>
<path class="st4" d="M176.1,223c-1-3.3-1.7-6.6-2.3-10l-21.6,5.7c0.9,4.1,0.8,8.4-0.5,12.5C160.8,233.6,170.3,230.4,176.1,223
	L176.1,223z"/>
<circle class="st13" cx="158.1" cy="207.6" r="23.2"/>
<path class="st4" d="M170.5,154.8c6.4,0.7,12.6,3.5,18.9,5c1.6,0.5,3.3,0.6,4.9,0.2c2.5-0.8,4.5-3.3,7-3.3c1.6,0,3,1.1,4.3,2.1
	c2.1,1.6,4,3.3,5.9,5.2c4.4,4.8,7.1,11.1,11.1,16.3s10.3,9.2,16,6.8c-3.9,15-16.5,26.5-30.1,27.4c-5.5,0.4-11-0.8-16.3,0.8
	c-1.3,0.5-2.7,0.9-4.1,1c-3,0-5.5-2.8-7.4-5.5c-4.4-6.4-8-13.6-13-19.4c-1.6-1.9-3.6-3.8-5.9-4.1s-4.5,0.8-6.6,1.8
	c-3.4,1.8-6.9,3.6-9.6,6.7s-4.3,7.6-3.2,11.7c0.6,2.2,2,4.2,2,6.5c0,3.7-3.2,6.4-3.9,10c-0.1,1.5-0.2,3-0.2,4.6
	c-0.3,4.9-3.5,9-6.9,12.1c-1.3,1.2-2.8,2.5-3.1,4.4c-0.3,1.3,0,2.6-0.2,3.9c-0.5,3.2-3.7,4.8-6.5,5.3c-3.3,0.5-6.7,0.1-9.8-1.2
	c4-1.9,6.4-7.2,5.5-12c-1.3-6.6-7.9-11.4-7.3-18.1c0.3-2.1,0.9-4.1,1.8-6c1.4-3.6,2.5-7.4,3.1-11.3c0.7-3,0.6-6.1-0.2-9
	c-0.9-2.6-2.6-4.6-4.1-6.8c-2-3-3.6-6.2-4.7-9.6c-0.4-1-0.6-2.1-0.4-3.2c0.3-1.3,1-2.4,2-3.3c3.6-3.8,7.5-7.8,12.4-8.9
	c2.3-0.4,4.7-0.5,7-0.3c4.1,0.1,8.2,0,12.2-0.5c3.3-0.4,9-0.3,11.8-2.5c2.6-2,4.1-4.5,7.4-5.8C163.4,154.7,167,154.3,170.5,154.8z"
	/>
<path class="st4" d="M183.4,394.5c0,0,13.4,26.5,9.4,34.6"/>
<path class="st4" d="M207.8,465.3l-19.7-25v0.4c0,0-1.1-8.1,2.6-5.4c8.2,5.9,21.4,15.7,21.6,17.4S209.6,461.2,207.8,465.3z"/>
<g class="st6">
	<path d="M179.9,229.8c0,0,1.7,6.9-3.7,10.3c8.3-1.4,8.6-7.9,8.4-10.6C183,229.7,181.5,229.8,179.9,229.8z"/>
	<path d="M25.2,326.7c0,0,74.9-41.5,85.9-62.7c7.9-15.2,26.9-24.3,37-28.3c-7.4,2.5-32.2,11.9-41.5,29.9
		c-11,21.2-85.9,62.7-85.9,62.7L25.2,326.7z"/>
	<path d="M194.5,226.5c12.8-4,24.9-13.9,24.9-13.9L180.3,185l0.9-3.8l-3.7-1.5l-1.6,6.9l39.1,27.7
		C208.7,219.2,201.8,223.3,194.5,226.5z"/>
	<path d="M194.7,320.4c5-1.7,10.1-3,15.3-3.9l0.1-0.8C204.9,316.9,199.7,318.4,194.7,320.4z"/>
	<path d="M147.3,363.1H147c-0.3,0.2-0.6,0.1-0.9-0.1c0.3,0.1,0.6,0.1,0.9,0.1c1.3-0.8,3.4-6.9-0.9-42.1
		c-4.5-37.6-22.2-34.6-31.8-30.3c9.9-2.7,23.5-0.4,27.3,31.9c4.2,35.2,2.2,41.3,0.9,42.1C144.2,364.6,145.9,364.1,147.3,363.1z"/>
	<path d="M142.5,364.7c-0.3,0-0.6,0-0.9-0.1C141.9,364.8,142.2,364.9,142.5,364.7z"/>
</g>
<path class="st8" d="M170.5,154c6.4,0.7,12.6,3.5,18.9,5c1.6,0.5,3.3,0.6,4.9,0.2c2.5-0.8,4.5-3.3,7-3.3c1.6,0,3,1.1,4.3,2.1
	c2.1,1.6,4,3.3,5.9,5.2c4.4,4.8,7.1,11.1,11.1,16.3s10.3,9.2,16,6.8c-3.9,15-16.5,26.5-30.1,27.4c-5.5,0.4-11-0.8-16.3,0.8
	c-1.3,0.5-2.7,0.9-4.1,1c-3,0-5.5-2.8-7.4-5.5c-4.4-6.4-8-13.6-13-19.4c-1.6-1.9-3.6-3.8-5.9-4.1s-4.5,0.8-6.6,1.8
	c-3.4,1.8-6.9,3.6-9.6,6.7s-4.3,7.6-3.2,11.7c0.6,2.2,2,4.2,2,6.5c0,3.7-3.2,6.4-3.9,10c-0.1,1.5-0.2,3-0.2,4.6
	c-0.3,4.9-3.5,9-6.9,12.1c-1.3,1.2-2.8,2.5-3.1,4.4c-0.3,1.3,0,2.6-0.2,3.9c-0.5,3.2-3.7,4.8-6.5,5.3c-3.3,0.5-6.7,0.1-9.8-1.2
	c4-1.9,6.4-7.2,5.5-12c-1.3-6.6-7.9-11.4-7.3-18.1c0.3-2.1,0.9-4.1,1.8-6c1.4-3.6,2.5-7.4,3.1-11.3c0.7-3,0.6-6.1-0.2-9
	c-0.9-2.6-2.6-4.6-4.1-6.8c-2-3-3.6-6.2-4.7-9.6c-0.4-1-0.6-2.1-0.4-3.2c0.3-1.3,1-2.4,2-3.3c3.6-3.8,7.5-7.8,12.4-8.9
	c2.3-0.4,4.7-0.5,7-0.3c4.1,0.1,8.2,0,12.2-0.5c3.3-0.4,9-0.3,11.8-2.5c2.6-2,4.1-4.5,7.4-5.8C163.4,153.9,167,153.5,170.5,154z"/>
<linearGradient id="SVGID_4_" gradientUnits="userSpaceOnUse" x1="852.6646" y1="57.2516" x2="852.6646" y2="464.2754" gradientTransform="matrix(1 0 0 -1 -125.1 540.0356)">
	<stop  offset="0" style="stop-color:#808080;stop-opacity:0.25"/>
	<stop  offset="0.54" style="stop-color:#808080;stop-opacity:0.12"/>
	<stop  offset="1" style="stop-color:#808080;stop-opacity:0.1"/>
</linearGradient>
<path class="st18" d="M833.5,101.8L833.5,101.8c0-0.1,0-0.3,0-0.4s0-0.3-0.1-0.4h-0.2c0-0.3,0-0.5,0-0.8c-0.4-9.3-13.2-29-18.4-23.2
	c-4.5,5.1,2.3,17.9,5.8,23.6l0.3,0.5l-0.2-0.1c0,0-14.3,42.7-16,44.3s-13.5,35.2-29,39c-3.1,0.7-5.6,1.4-7.8,2l0.2-0.6
	c1-3.3,2.2-6.4,2.7-10s0-8-1.8-9.8c-0.9-0.9-2-1-2.7-2.4c-0.5-1.2-0.7-2.5-0.8-3.9l-1.3-16.2l0.9-0.3c5.6-1.8,11-6,11.6-11.7
	c-0.2,0.1-0.4,0.1-0.6,0.2c0.1-0.3,0.1-0.7,0.2-1c-4.7,1.8-9-3-13.5-5.2c-7.4-3.6-15.9-0.2-23.5,0.6c-8.7,0.9-16.9-2.6-25.8-2
	c-4.8,0.4-10.2,3.6-9.9,8.4c0.2,2.6,2,4.8,2.8,7.3c1.9,6-2.3,12.1-6.1,17.3c-2.5,3.4-4.8,7.5-5.2,11.5c-8.6-9-17.9-19.4-19-23.3
	l-24.9-42.7c0,0-0.6,0.6-1.5,1.6c-0.2-0.5-0.3-1-0.5-1.5c-3.2-8.9-12.2-30.5-23.6-26.5s4.7,26.1,11.8,34.9l1,1.2
	c-0.6,0.1-1.2,0.1-1.8-0.1l27.8,47.7c0,0,5,9.1,9.7,11.6c0,0,34.5,43.5,34.9,52.2s15.5,31.9,15.5,31.9s5,37.7-3.8,44.3h0.1h0.1h0.1
	h0.1h0.2h0.1h0.1h0.2h0.1h0.2h0.1c-0.4,0.4-0.8,0.9-1.3,1.4c-6.5,7.3-14.9,22.8-3.5,49.3c16.8,39,19.4,54.3,19.4,54.3
	s-32,1.7-38.3,2.9c-5.6,1.1-27.3,1.9-32.2,2c-1.8-2.1-7-6.6-14.1,0c-8.8,8.3-15.2,36-15.2,36s-3.4,22.4,8,16.6
	c0,0,13.5-18.7,17.3-19.5c1.9-0.4,3.9-3.2,5.4-5.8l0.1,0l0,0c0.1,0,0.5-0.2,1.1-0.4l0,0c2.8-1.1,10.5-3.8,16.6-2.5
	c3.3,0.7,17.6,0.9,32.6,0.9c-3.4,8.1-9.4,29-9.4,29s-2.5,19.5,5.9,18.7c6-0.6,15.2-15.9,20-24.7c3.5-2.5,13.5-11.7,20.8-11
	l49.7-19.1c0,0,11.8-6.6,5.5-28.6c-5-17.5-19.2-53.2-24.8-67.1l0,0l-0.2-0.4c-1.4-3.4-2.2-5.4-2.2-5.4l0,0c-2.3-6.4-3.8-13-4.5-19.7
	c0-0.5-0.1-1.1-0.1-1.6c0.7-0.3,1.4-0.7,2-1.1c0,0-4.6-46.8,0-51.8l0,0l0,0l0.1-0.1l0,0v-0.1l0,0l0.1-0.1l0,0l0.2-0.2l0,0l0.2-0.3
	l0,0c0.3-0.3,0.5-0.7,0.9-1.2l0,0c2.7-3.9,7.6-12.7,6.2-23.2l0,0c-0.1-0.5-0.1-0.9-0.2-1.4l0,0c-0.5-2.8-1.5-5.6-2.9-8.1
	c-0.2-1.1-0.3-2.1-0.4-3.2c0-0.6,0-1.3,0-2v-0.1c0-0.2,0-0.4,0-0.6v-0.1c0-0.5,0.1-1,0.2-1.4V210c0-0.2,0-0.4,0.1-0.5v-0.2
	c0-0.2,0.1-0.4,0.1-0.5v-0.2c0.1-0.2,0.1-0.5,0.2-0.7v-0.1c0.1-0.2,0.1-0.4,0.2-0.6l0.1-0.2l0.2-0.5l0.1-0.2
	c0.1-0.2,0.2-0.4,0.3-0.5l0.1-0.1c0.1-0.2,0.2-0.4,0.4-0.6l0.1-0.2l0.3-0.5l0.2-0.2l0.3-0.4l0.2-0.2c0.2-0.2,0.4-0.4,0.6-0.6
	c5.5-5,29.9-41.9,29.9-41.9s5.9-8.3,5.9-13.7C824.1,147.1,834.6,112.4,833.5,101.8z M768,411.6c-0.6-5.7-1.2-12.7-1.8-20l9.5,14.8
	C775.7,406.4,774.8,411,768,411.6z"/>
<path class="st8" d="M668.7,408.5c0,0-5.7-9-14.3-0.8s-14.7,35.4-14.7,35.4s-3.3,22,7.7,16.3c0,0,13-18.3,16.7-19.1s7.7-11,7.7-11
	L668.7,408.5z"/>
<path class="st8" d="M729.8,430.5c0,0-7.7-3.7-10.2-0.8S709,461,709,461s-2.4,18.7,5.7,17.9s22.4-30.2,22.4-30.2L729.8,430.5z"/>
<path class="st19" d="M729.8,430.5c0,0-7.7-3.7-10.2-0.8S709,461,709,461s-2.4,18.7,5.7,17.9s22.4-30.2,22.4-30.2L729.8,430.5z"/>
<path class="st20" d="M756.7,375.1l17.5,27.3c0,0-1.2,6.1-11.8,4.9L726.1,430c0,0-3.2,27.8,6.9,25.3c1.6-0.4,13-12.2,21.2-11.4
	l48.1-18.7c0,0,11.4-6.5,5.3-28.1s-26.3-71.6-26.3-71.6l-31.9,17.9L756.7,375.1z"/>
<path class="st19" d="M756.7,375.1l17.5,27.3c0,0-1.2,6.1-11.8,4.9L726.1,430c0,0-3.2,27.8,6.9,25.3c1.6-0.4,13-12.2,21.2-11.4
	l48.1-18.7c0,0,11.4-6.5,5.3-28.1s-26.3-71.6-26.3-71.6l-31.9,17.9L756.7,375.1z"/>
<path class="st20" d="M767.7,415.4c2.4,15.5-11.4,16.7-11.4,16.7s-62.3,1.2-69.7-0.4s-17.1,2.8-17.1,2.8
	c-12.6-7.7-2.4-26.9-2.4-26.9s26.1-0.8,32.2-2s37.1-2.9,37.1-2.9s-2.4-15.1-18.7-53.4c-11.1-26-3-41.3,3.4-48.4
	c1.6-1.9,3.5-3.5,5.6-4.9l50.1,2.4c-0.1,2.5,0,5.1,0.3,7.6c0.9,8.6,3.1,17.1,6.7,25c-2.8,0-21.2,17.1-21.2,17.1
	S765.2,399.9,767.7,415.4z"/>
<path class="st4" d="M670.7,409.3c0,0,26.1-0.8,32.2-2s37.1-2.8,37.1-2.8s-2.4-15.1-18.7-53.4c-11.1-26-3-41.3,3.4-48.4
	c1.6-1.9,3.5-3.5,5.6-4.9l46.4,2.3c0-0.5,0-1,0-1.5l-50.1-2.4c-2.1,1.4-4,3-5.6,4.9c-6.3,7.1-14.4,22.4-3.4,48.4
	c16.3,38.2,18.8,53.3,18.8,53.3s-31,1.6-37.1,2.8s-32.2,2-32.2,2s-10.2,19.2,2.4,26.9c0,0,0.4-0.2,1-0.4
	C662.1,425.5,670.7,409.3,670.7,409.3z"/>
<rect x="720" y="146.6" class="st8" width="25.3" height="63.9"/>
<rect x="720" y="146.6" class="st4" width="25.3" height="63.9"/>
<path class="st8" d="M759.7,137.2c0.9,0.2,1.8,0.3,2.4,1.5c0.4,1,0.6,2,0.6,3l1.6,19.8c0,1.3,0.3,2.6,0.7,3.8
	c0.7,1.3,1.8,1.5,2.7,2.4c1.8,1.7,2.3,6.1,1.8,9.6s-1.7,6.6-2.6,9.8c-1.4,4.6-2.3,9.8-4.2,13.6s-5.4,6-7.6,2.7s-1.9-9.8-2.4-15.2
	c-0.7-9-4.2-16.8-4.5-25.8c-0.2-7.3,1.8-14.2,3-21.1c0.9-4.8,0.9-10.6,2.2-14.9C754.5,131.5,756.6,136.3,759.7,137.2z"/>
<path class="st4" d="M759.7,137.2c0.9,0.2,1.8,0.3,2.4,1.5c0.4,1,0.6,2,0.6,3l1.6,19.8c0,1.3,0.3,2.6,0.7,3.8
	c0.7,1.3,1.8,1.5,2.7,2.4c1.8,1.7,2.3,6.1,1.8,9.6s-1.7,6.6-2.6,9.8c-1.4,4.6-2.3,9.8-4.2,13.6s-5.4,6-7.6,2.7s-1.9-9.8-2.4-15.2
	c-0.7-9-4.2-16.8-4.5-25.8c-0.2-7.3,1.8-14.2,3-21.1c0.9-4.8,0.9-10.6,2.2-14.9C754.5,131.5,756.6,136.3,759.7,137.2z"/>
<path class="st21" d="M652.8,109.1l-9.8,8.1c0,0-1.2-1.4-2.9-3.6c-6.8-8.7-22.4-30.4-11.4-34.3s19.8,17.3,22.8,26.1
	C652.4,107.7,652.8,109.1,652.8,109.1z"/>
<path class="st21" d="M829.2,106.3c-4.1,6.1-9.8,0-9.8,0s-0.7-1.1-1.8-2.9c-3.3-5.7-9.9-18.2-5.6-23.2c5-5.7,17.4,13.7,17.8,22.8
	C830,104.1,829.7,105.3,829.2,106.3z"/>
<path class="st21" d="M729,172.2c0,0,8.2,26.1,5.7,33.8s17.5,16.7,17.5,16.7H775c0,0,8.2-16.7,6.1-21.6s-19.5-8.5-19.5-8.5
	s-10.2,0-9.8-27.3L729,172.2z"/>
<path class="st4" d="M652.8,109.1l-9.8,8.1c0,0-1.2-1.4-2.9-3.6c3.5-0.6,9.1-5.8,11.5-8.2C652.4,107.7,652.8,109.1,652.8,109.1z"/>
<path class="st4" d="M829.2,106.3c-4.1,6.1-9.8,0-9.8,0s-0.7-1.1-1.8-2.9l0.1-0.4c2.6,1.9,10.8,0.3,12.1,0
	C830,104.1,829.7,105.3,829.2,106.3z"/>
<path class="st4" d="M776.9,306.1c-12.6,5.8-53.5-4.5-56-5.1c1.6-1.9,3.5-3.5,5.6-4.9l50.1,2.4C776.5,301,776.6,303.5,776.9,306.1z"
	/>
<path class="st22" d="M734.3,194.6c0,0-9.8,3.3-23.6-9.4c0,0-31-30.5-33-37.9l-24-42c0,0-10.2,11-14.3,9.4l26.9,46.8
	c0,0,4.9,9,9.4,11.4c0,0,33.4,42.8,33.8,51.3s15,31.5,15,31.5s4.9,37.1-3.7,43.6c0,0,47.7,12.2,57.8,4.1c0,0-4.5-46,0-50.9
	c0,0,13.8-16.3,4.5-34.2c0,0-2-9.8,3.3-14.7s28.9-41.1,28.9-41.1s5.7-8.1,5.7-13.4c0,0,10.6-35.8,9-45.2c0,0-9.4,2-12.2,0
	c0,0-13.8,42-15.5,43.6s-13,34.6-28.1,38.3s-17.5,5.3-17.5,5.3s29.3,18.3,15.1,26.5S734.3,194.6,734.3,194.6z"/>
<path class="st4" d="M752.8,178.5c-0.5-3.8-0.7-7.7-0.6-11.6l-22.8,6.9c0.6,1.5,1.1,3.1,1.4,4.7c2.6,1.1,6.1,3.9,9.2,3.9
	C744.6,182.5,749.1,181.2,752.8,178.5z"/>
<circle class="st21" cx="739.6" cy="160" r="21.2"/>
<path class="st4" d="M714.4,127.4c-4.7,0.4-9.9,3.6-9.6,8.3c0.1,2.6,1.9,4.7,2.7,7.2c1.8,6-2.3,11.9-5.9,17s-7,11.8-3.9,17.2
	c0.9,1.3,1.8,2.5,2.9,3.7c3.8,5.2,3.8,12.1,5.5,18.4c4.5,16.5,21.1,26.6,37.8,23c-3-3.9-4.5-8.7-4.3-13.6c0.2-3.6,1.4-7.3,0-10.6
	c-1.8-4.2-7-5.9-9.7-9.6s-2.5-8.8-1.2-13.2s3.5-8.5,4.6-13c0.3-1.3,0.6-2.6,1-3.9c1.9-5.3,7.5-8.4,13-9.8s11.3-1.4,16.7-3.2
	s10.6-5.9,11.2-11.5c-4.5,1.8-8.7-2.9-13.1-5.1c-7.2-3.6-15.4-0.2-22.8,0.6C730.9,130.3,722.9,126.8,714.4,127.4z"/>
<path class="st8" d="M714,126.6c-4.7,0.4-9.9,3.6-9.6,8.3c0.1,2.6,1.9,4.7,2.7,7.2c1.8,6-2.3,11.9-5.9,17s-7,11.8-3.9,17.2
	c0.9,1.3,1.8,2.5,2.9,3.7c3.8,5.2,3.8,12.1,5.5,18.4c4.5,16.5,21.1,26.6,37.8,23c-3-3.9-4.5-8.7-4.3-13.6c0.2-3.6,1.4-7.3,0-10.6
	c-1.8-4.2-7-5.9-9.7-9.6s-2.5-8.8-1.2-13.2s3.5-8.5,4.6-13c0.3-1.3,0.6-2.6,1-3.9c1.9-5.3,7.5-8.4,13-9.8s11.3-1.4,16.7-3.2
	s10.6-5.9,11.2-11.5c-4.5,1.8-8.7-2.9-13.1-5.1c-7.2-3.6-15.4-0.2-22.8,0.6C730.5,129.4,722.5,125.9,714,126.6z"/>
<path class="st4" d="M760.6,207.1c0,0,8.5,7.6,10.2,10.9"/>
<path class="st4" d="M778.9,252.3c0,0-10.6,0-15.5,1.2s-16.7,0-16.7,0"/>
<g class="st6">
	<path d="M771.8,217.4c-0.9,0.5-1.9,0.9-2.9,1.1c2.7,0.6,5.4,0.2,7.8-1.1c14.3-8.1-15.1-26.5-15.1-26.5h-4.9
		C756.7,191,786,209.3,771.8,217.4z"/>
	<path d="M830.1,104.5c0-0.3-0.1-0.5-0.1-0.7c-1.7,0.3-3.4,0.6-5.1,0.8C826.6,104.8,828.4,104.8,830.1,104.5z"/>
	<path d="M725.7,299.3c8.5-6.5,3.7-43.6,3.7-43.6s-14.7-22.8-15.1-31.4S680.5,173,680.5,173c-4.5-2.4-9.4-11.4-9.4-11.4
		s-27.7-45.2-31.8-46.8l26.9,46.8c0,0,4.9,9,9.4,11.4c0,0,33.4,42.8,33.8,51.3s15.1,31.4,15.1,31.4s4.9,37.1-3.7,43.6
		c0,0,29.3,7.5,46.8,6.8C750.1,305.6,725.7,299.3,725.7,299.3z"/>
	<path d="M734.5,195l-0.2-0.3c-0.3,0.1-0.6,0.1-0.8,0.2C733.8,194.9,734.2,194.9,734.5,195z"/>
</g>
<g class="st6">
	<path d="M830,103.8l-0.3,0.1c-0.4,12.5-9.1,41.9-9.1,41.9c0,5.3-5.7,13.4-5.7,13.4s-23.6,36.3-28.9,41.1s-3.3,14.7-3.3,14.7l0,0.1
		c-0.2-3.3,0.2-8.4,3.6-11.5c5.3-4.9,28.9-41.1,28.9-41.1s5.7-8.1,5.7-13.4C821,149,831.6,113.2,830,103.8z"/>
	<path d="M778.3,249.2c0.6,3.5,0.2-0.2,0.4,3.3c0,0,10-11.7,7.3-26.2C786.8,239.2,778.3,249.2,778.3,249.2z"/>
</g>
<ellipse class="st1" cx="469.8" cy="620.4" rx="427.7" ry="41.1"/>
<path class="st23" d="M304,578.8c0,0-14.6-49.5,2.7-85.8c7.4-15.2,9.6-32.4,6.3-49c-1.6-7.9-3.9-15.6-6.9-23"/>
<path class="st0" d="M316.9,397.9c0,6.1-11,23.6-11,23.6s-11-17.6-11-23.6c-0.4-6.1,4.1-11.3,10.2-11.8s11.3,4.1,11.8,10.2
	C316.9,396.9,316.9,397.4,316.9,397.9L316.9,397.9z"/>
<path class="st0" d="M335,431.5c-3.3,5.1-22,13.9-22,13.9s0.3-20.7,3.6-25.8c2.9-5.3,9.6-7.2,14.9-4.3s7.2,9.6,4.3,14.9
	C335.6,430.7,335.3,431.1,335,431.5L335,431.5z"/>
<path class="st0" d="M334.2,488.9c-5.4,2.7-26,0.8-26,0.8s10.8-17.7,16.2-20.4c5.2-3.1,12-1.4,15.1,3.8c3.1,5.2,1.4,12-3.8,15.1
	C335.2,488.4,334.8,488.7,334.2,488.9L334.2,488.9z"/>
<path class="st0" d="M323.9,532.1c-4.9,3.6-25.5,5.2-25.5,5.2s7.6-19.3,12.5-22.9c5.2-3.2,12-1.5,15.1,3.7
	C328.7,522.7,327.8,528.6,323.9,532.1L323.9,532.1z"/>
<path class="st0" d="M289.9,446.5c4.4,4.2,24.6,8.6,24.6,8.6s-5-20.1-9.3-24.3c-4-4.5-11-4.9-15.5-0.9s-4.9,11-0.9,15.5
	C289.1,445.8,289.5,446.2,289.9,446.5z"/>
<path class="st0" d="M278.4,497.3c5.4,2.7,26,0.8,26,0.8s-10.7-17.7-16.1-20.4c-5.6-2.3-12,0.3-14.4,5.9
	C271.8,488.7,273.8,494.5,278.4,497.3L278.4,497.3z"/>
<path class="st0" d="M274,548.2c4.9,3.6,25.5,5.2,25.5,5.2s-7.6-19.3-12.5-22.9c-4.6-4-11.5-3.6-15.5,1c-4,4.6-3.6,11.5,1,15.5
	C273,547.4,273.5,547.8,274,548.2L274,548.2z"/>
<path class="st1" d="M316.9,397.9c0,6.1-11,23.6-11,23.6s-11-17.6-11-23.6c-0.4-6.1,4.1-11.3,10.2-11.8s11.3,4.1,11.8,10.2
	C316.9,396.9,316.9,397.4,316.9,397.9L316.9,397.9z"/>
<path class="st1" d="M335,431.5c-3.3,5.1-22,13.9-22,13.9s0.3-20.7,3.6-25.8c2.9-5.3,9.6-7.2,14.9-4.3s7.2,9.6,4.3,14.9
	C335.6,430.7,335.3,431.1,335,431.5L335,431.5z"/>
<path class="st1" d="M334.2,488.9c-5.4,2.7-26,0.8-26,0.8s10.8-17.7,16.2-20.4c5.2-3.1,12-1.4,15.1,3.8c3.1,5.2,1.4,12-3.8,15.1
	C335.2,488.4,334.8,488.7,334.2,488.9L334.2,488.9z"/>
<path class="st1" d="M323.9,532.1c-4.9,3.6-25.5,5.2-25.5,5.2s7.6-19.3,12.5-22.9c5.2-3.2,12-1.5,15.1,3.7
	C328.7,522.7,327.8,528.6,323.9,532.1L323.9,532.1z"/>
<path class="st1" d="M289.9,446.5c4.4,4.2,24.6,8.6,24.6,8.6s-5-20.1-9.3-24.3c-4-4.5-11-4.9-15.5-0.9s-4.9,11-0.9,15.5
	C289.1,445.8,289.5,446.2,289.9,446.5z"/>
<path class="st1" d="M278.4,497.3c5.4,2.7,26,0.8,26,0.8s-10.7-17.7-16.1-20.4c-5.6-2.3-12,0.3-14.4,5.9
	C271.8,488.7,273.8,494.5,278.4,497.3L278.4,497.3z"/>
<path class="st1" d="M274,548.2c4.9,3.6,25.5,5.2,25.5,5.2s-7.6-19.3-12.5-22.9c-4.6-4-11.5-3.6-15.5,1c-4,4.6-3.6,11.5,1,15.5
	C273,547.4,273.5,547.8,274,548.2L274,548.2z"/>
<path class="st23" d="M598.7,579.5c0,0-14.6-49.5,2.7-85.8c7.4-15.2,9.6-32.4,6.3-49c-1.6-7.9-3.9-15.6-6.9-23"/>
<path class="st0" d="M611.5,398.6c0,6.1-11,23.6-11,23.6s-11-17.6-11-23.6c0.4-6.1,5.7-10.6,11.8-10.2
	C606.7,388.9,611.1,393.2,611.5,398.6L611.5,398.6z"/>
<path class="st0" d="M629.7,432.2c-3.3,5.1-22,13.9-22,13.9s0.3-20.7,3.6-25.8c2.9-5.3,9.6-7.2,14.9-4.3s7.2,9.6,4.3,14.9
	C630.2,431.4,630,431.8,629.7,432.2z"/>
<path class="st0" d="M628.9,489.6c-5.4,2.7-26,0.8-26,0.8s10.8-17.7,16.2-20.4c5.2-3.1,12-1.5,15.1,3.7s1.5,12-3.7,15.1
	C630,489.1,629.4,489.4,628.9,489.6z"/>
<path class="st0" d="M618.5,532.8c-4.9,3.6-25.5,5.2-25.5,5.2s7.6-19.3,12.5-22.9c5.2-3.2,12-1.5,15.1,3.7
	C623.3,523.4,622.4,529.3,618.5,532.8L618.5,532.8z"/>
<path class="st0" d="M584.6,447.3c4.3,4.2,24.6,8.6,24.6,8.6s-5-20.1-9.3-24.3c-4-4.5-11-4.9-15.5-0.9c-4.5,4-4.9,11-0.9,15.5
	C583.8,446.5,584.2,446.9,584.6,447.3L584.6,447.3z"/>
<path class="st0" d="M573.1,498c5.4,2.7,26,0.8,26,0.8s-10.8-17.7-16.2-20.4c-5.6-2.3-12,0.3-14.4,5.9
	C566.4,489.4,568.4,495.2,573.1,498L573.1,498z"/>
<path class="st0" d="M568.7,548.9c4.9,3.6,25.5,5.2,25.5,5.2s-7.6-19.3-12.5-22.9c-5.2-3.2-12-1.5-15.1,3.7
	C563.9,539.5,564.7,545.3,568.7,548.9L568.7,548.9z"/>
<path class="st1" d="M611.5,398.6c0,6.1-11,23.6-11,23.6s-11-17.6-11-23.6c0.4-6.1,5.7-10.6,11.8-10.2
	C606.7,388.9,611.1,393.2,611.5,398.6L611.5,398.6z"/>
<path class="st1" d="M629.7,432.2c-3.3,5.1-22,13.9-22,13.9s0.3-20.7,3.6-25.8c2.9-5.3,9.6-7.2,14.9-4.3s7.2,9.6,4.3,14.9
	C630.2,431.4,630,431.8,629.7,432.2z"/>
<path class="st1" d="M628.9,489.6c-5.4,2.7-26,0.8-26,0.8s10.8-17.7,16.2-20.4c5.2-3.1,12-1.5,15.1,3.7s1.5,12-3.7,15.1
	C630,489.1,629.4,489.4,628.9,489.6z"/>
<path class="st1" d="M618.5,532.8c-4.9,3.6-25.5,5.2-25.5,5.2s7.6-19.3,12.5-22.9c5.2-3.2,12-1.5,15.1,3.7
	C623.3,523.4,622.4,529.3,618.5,532.8L618.5,532.8z"/>
<path class="st1" d="M584.6,447.3c4.3,4.2,24.6,8.6,24.6,8.6s-5-20.1-9.3-24.3c-4-4.5-11-4.9-15.5-0.9c-4.5,4-4.9,11-0.9,15.5
	C583.8,446.5,584.2,446.9,584.6,447.3L584.6,447.3z"/>
<path class="st1" d="M573.1,498c5.4,2.7,26,0.8,26,0.8s-10.8-17.7-16.2-20.4c-5.6-2.3-12,0.3-14.4,5.9
	C566.4,489.4,568.4,495.2,573.1,498L573.1,498z"/>
<path class="st1" d="M568.7,548.9c4.9,3.6,25.5,5.2,25.5,5.2s-7.6-19.3-12.5-22.9c-5.2-3.2-12-1.5-15.1,3.7
	C563.9,539.5,564.7,545.3,568.7,548.9L568.7,548.9z"/>
<path class="st24" d="M669.9,15.3h-6.3c2.4,0.1,4.5-1.8,4.6-4.2c0.1-2.4-1.8-4.5-4.2-4.6c-0.1,0-0.3,0-0.4,0h-50.9
	c-2.4,0.1-4.3,2.2-4.2,4.6c0.1,2.3,1.9,4.1,4.2,4.2h6.3c-2.4,0.1-4.3,2.2-4.2,4.6c0.1,2.3,1.9,4.1,4.2,4.2h-8.8
	c-2.4-0.1-4.5,1.8-4.6,4.2c-0.1,2.4,1.8,4.5,4.2,4.6c0.1,0,0.3,0,0.4,0h50.9c2.4,0.1,4.5-1.8,4.6-4.2c0.1-2.4-1.8-4.5-4.2-4.6
	c-0.1,0-0.3,0-0.4,0h8.8c2.4-0.1,4.3-2.2,4.2-4.6C674,17.2,672.2,15.4,669.9,15.3z"/>
<path class="st24" d="M375.7,41h-4.8c1.8,0.1,3.4-1.3,3.5-3.2c0.1-1.8-1.3-3.4-3.2-3.5c-0.1,0-0.2,0-0.4,0h-38.7
	c-1.8,0.1-3.3,1.7-3.2,3.5c0.1,1.7,1.5,3.1,3.2,3.2h4.8c-1.8-0.1-3.4,1.3-3.5,3.2c-0.1,1.8,1.3,3.4,3.2,3.5c0.1,0,0.2,0,0.4,0h-6.7
	c-1.8-0.1-3.4,1.3-3.5,3.2c-0.1,1.8,1.3,3.4,3.2,3.5c0.1,0,0.2,0,0.4,0H369c1.8,0.1,3.4-1.3,3.5-3.2c0.1-1.8-1.3-3.4-3.2-3.5
	c-0.1,0-0.2,0-0.4,0h6.7c1.8-0.1,3.3-1.7,3.2-3.5C378.7,42.4,377.4,41,375.7,41z"/>
<path class="st25" d="M50.7,514.8c0,0,17.5,34.3,3.2,53.1s1.3,70,1.3,70"/>
<path class="st0" d="M55.9,504c0,6.6-4.9,12-4.9,12s-4.9-5.4-4.9-12s4.9-12,4.9-12S55.9,497.4,55.9,504z"/>
<path class="st25" d="M59.8,514.8c0,0-17.5,34.3-3.2,53.1s-1.3,70-1.3,70"/>
<path class="st0" d="M54.6,504c0,6.6,4.9,12,4.9,12s4.9-5.4,4.9-12s-4.9-12-4.9-12S54.6,497.4,54.6,504z"/>
<path class="st4" d="M54.6,504c0,6.6,4.9,12,4.9,12s4.9-5.4,4.9-12s-4.9-12-4.9-12S54.6,497.4,54.6,504z"/>
<path class="st25" d="M66.9,514.8c0,0,17.5,34.3,3.2,53.1s1.3,70,1.3,70"/>
<path class="st0" d="M72.1,504c0,6.6-4.9,12-4.9,12s-4.9-5.4-4.9-12s4.9-12,4.9-12S72.1,497.4,72.1,504z"/>
<path class="st0" d="M69.3,531.5c-4.6,4.8-11.8,5.3-11.8,5.3s0.2-7.2,4.8-12s11.8-5.3,11.8-5.3S73.9,526.8,69.3,531.5z"/>
<path class="st0" d="M69.8,555.2c-4.6,4.8-11.8,5.3-11.8,5.3s0.2-7.2,4.8-12s11.8-5.3,11.8-5.3S74.4,550.5,69.8,555.2z"/>
<path class="st0" d="M44.9,568.3c4.3,5,4.2,12.2,4.2,12.2s-7.2-0.9-11.5-5.9s-4.2-12.2-4.2-12.2S40.6,563.3,44.9,568.3z"/>
<path class="st0" d="M48.9,517.8c5.5,3.7,7.3,10.7,7.3,10.7s-7.2,1.1-12.7-2.6s-7.3-10.7-7.3-10.7S43.4,514.1,48.9,517.8z"/>
<path class="st4" d="M48.9,517.8c5.5,3.7,7.3,10.7,7.3,10.7s-7.2,1.1-12.7-2.6s-7.3-10.7-7.3-10.7S43.4,514.1,48.9,517.8z"/>
<path class="st25" d="M76,514.8c0,0-17.5,34.3-3.2,53.1s-1.3,70-1.3,70"/>
<path class="st0" d="M70.8,504c0,6.6,4.9,12,4.9,12s4.9-5.4,4.9-12s-4.9-12-4.9-12S70.8,497.4,70.8,504z"/>
<path class="st4" d="M70.8,504c0,6.6,4.9,12,4.9,12s4.9-5.4,4.9-12s-4.9-12-4.9-12S70.8,497.4,70.8,504z"/>
<path class="st0" d="M72.2,532c-4.6,4.7-5,12-5,12s7.2-0.4,11.9-5.1s5-12,5-12S76.8,527.3,72.2,532z"/>
<path class="st4" d="M72.2,532c-4.6,4.7-5,12-5,12s7.2-0.4,11.9-5.1s5-12,5-12S76.8,527.3,72.2,532z"/>
<path class="st0" d="M81.3,564.9c-4.6,4.7-5,12-5,12s7.2-0.4,11.9-5.1s5-12,5-12S85.9,560.1,81.3,564.9z"/>
<path class="st25" d="M67.9,557.7c0,0,10.5-16.6,25.3-17"/>
<path class="st25" d="M59.7,547.6c0,0-10.5-16.6-25.3-17"/>
<path class="st25" d="M58.3,571.3c0,0,10.5-16.6,25.3-17"/>
<circle class="st0" cx="92.7" cy="540.6" r="2.7"/>
<circle class="st0" cx="34.6" cy="530.8" r="2.7"/>
<path class="st25" d="M66,576.8c0,0-10.5-16.6-25.3-17"/>
<circle class="st0" cx="41" cy="559.9" r="2.7"/>
<circle class="st0" cx="83.8" cy="554.5" r="2.7"/>
<path class="st26" d="M124.3,617.9c0,0-25.4-5.1-32.2-11.9s-37.2-18.6-40.6-10.1s-45.7,37.2-16.9,42.3s67.7,6.8,76.1,3.4
	S124.3,617.9,124.3,617.9z"/>
<path class="st27" d="M34.6,635.1c28.8,5.1,67.7,6.8,76.1,3.4c6.4-2.6,10.9-15,12.7-20.7l0.9,0.2c0,0-5.1,20.3-13.5,23.7
	s-47.4,1.7-76.2-3.4c-8.3-1.5-10.7-4.9-9.8-9.3C25.5,631.8,28.4,634,34.6,635.1z"/>
<path class="st0" d="M894.8,522.5c0,0,8.4,11-3.9,27.5s-22.3,30.5-18.3,40.8c0,0,18.5-30.7,33.5-31.2
	C921.3,559.3,911.4,541,894.8,522.5z"/>
<path class="st4" d="M894.8,522.5c0.7,1.1,1.3,2.2,1.7,3.4c14.7,17.2,22.5,33.3,8.4,33.7c-13.1,0.4-28.9,23.9-32.7,29.8
	c0.1,0.5,0.3,0.9,0.5,1.3c0,0,18.5-30.7,33.5-31.2S911.4,541,894.8,522.5z"/>
<path class="st28" d="M910.4,536.5c0,3.9-0.4,7-1,7s-1-3.1-1-7s0.5-2,1.1-2S910.4,532.7,910.4,536.5z"/>
<path class="st28" d="M915.8,541.1c-3.4,1.8-6.3,3-6.6,2.5s2.3-2.3,5.7-4.2s2.1-0.5,2.3,0S919.1,539.3,915.8,541.1z"/>
<path class="st0" d="M850.6,522.5c0,0-8.4,11,3.9,27.5s22.3,30.5,18.3,40.8c0,0-18.5-30.7-33.5-31.2S834,541,850.6,522.5z"/>
<path class="st4" d="M850.6,522.5c-0.7,1.1-1.3,2.2-1.7,3.4c-14.7,17.2-22.5,33.3-8.4,33.7c13.1,0.4,28.9,23.9,32.7,29.8
	c-0.1,0.5-0.3,0.9-0.5,1.3c0,0-18.5-30.7-33.5-31.2S834,541,850.6,522.5z"/>
<path class="st28" d="M835,536.5c0,3.9,0.4,7,1,7s1-3.1,1-7s-0.5-2-1.1-2S835,532.7,835,536.5z"/>
<path class="st28" d="M829.6,541.1c3.4,1.8,6.3,3,6.6,2.5s-2.3-2.3-5.7-4.2s-2-0.5-2.3,0S826.3,539.3,829.6,541.1z"/>
<path class="st26" d="M837.7,589.4c0,0,23.4-0.7,30.5-5.8s36-11,37.8-3s35.2,40.1,8.8,40.3s-61.5-4.1-68.5-8.4
	S837.7,589.4,837.7,589.4z"/>
<path class="st27" d="M915.2,618.2c-26.5,0.2-61.5-4.1-68.5-8.4c-5.4-3.3-7.5-15-8.2-20.4h-0.8c0,0,1.5,18.9,8.5,23.2
	s42.1,8.6,68.5,8.4c7.6-0.1,10.3-2.8,10.1-6.8C923.8,616.7,920.9,618.2,915.2,618.2z"/>
<path class="st24" d="M177.8,74.6h-6.3c2.4,0.1,4.5-1.8,4.6-4.2s-1.8-4.5-4.2-4.6c-0.1,0-0.3,0-0.4,0h-50.9
	c-2.4,0.1-4.3,2.2-4.2,4.6c0.1,2.3,1.9,4.1,4.2,4.2h6.3c-2.4,0.1-4.3,2.2-4.2,4.6c0.1,2.3,1.9,4.1,4.2,4.2h-8.8
	c-2.4,0.1-4.3,2.2-4.2,4.6c0.1,2.3,1.9,4.1,4.2,4.2H169c2.4,0.1,4.5-1.8,4.6-4.2s-1.8-4.5-4.2-4.6c-0.1,0-0.3,0-0.4,0h8.8
	c2.4-0.1,4.3-2.2,4.2-4.6C181.9,76.6,180.1,74.7,177.8,74.6z"/>
</svg>
