<svg width="16" height="12" viewBox="0 0 16 12" fill="none" xmlns="http://www.w3.org/2000/svg">
<path d="M6.5 5.5H1C0.734784 5.5 0.48043 5.39464 0.292893 5.20711C0.105357 5.01957 0 4.76522 0 4.5V1C0 0.734784 0.105357 0.48043 0.292893 0.292893C0.48043 0.105357 0.734784 0 1 0H6.5C6.76522 0 7.01957 0.105357 7.20711 0.292893C7.39464 0.48043 7.5 0.734784 7.5 1V4.5C7.5 4.76522 7.39464 5.01957 7.20711 5.20711C7.01957 5.39464 6.76522 5.5 6.5 5.5ZM1 1V4.5H6.5V1H1Z" fill="black"/>
<path d="M15 5.5H9.5C9.23478 5.5 8.98043 5.39464 8.79289 5.20711C8.60536 5.01957 8.5 4.76522 8.5 4.5V1C8.5 0.734784 8.60536 0.48043 8.79289 0.292893C8.98043 0.105357 9.23478 0 9.5 0H15C15.2652 0 15.5196 0.105357 15.7071 0.292893C15.8946 0.48043 16 0.734784 16 1V4.5C16 4.76522 15.8946 5.01957 15.7071 5.20711C15.5196 5.39464 15.2652 5.5 15 5.5ZM9.5 1V4.5H15V1H9.5Z" fill="black"/>
<path d="M6.5 12H1C0.734784 12 0.48043 11.8946 0.292893 11.7071C0.105357 11.5196 0 11.2652 0 11V7.5C0 7.23478 0.105357 6.98043 0.292893 6.79289C0.48043 6.60536 0.734784 6.5 1 6.5H6.5C6.76522 6.5 7.01957 6.60536 7.20711 6.79289C7.39464 6.98043 7.5 7.23478 7.5 7.5V11C7.5 11.2652 7.39464 11.5196 7.20711 11.7071C7.01957 11.8946 6.76522 12 6.5 12ZM1 7.5V11H6.5V7.5H1Z" fill="black"/>
<path d="M15 12H9.5C9.23478 12 8.98043 11.8946 8.79289 11.7071C8.60536 11.5196 8.5 11.2652 8.5 11V7.5C8.5 7.23478 8.60536 6.98043 8.79289 6.79289C8.98043 6.60536 9.23478 6.5 9.5 6.5H15C15.2652 6.5 15.5196 6.60536 15.7071 6.79289C15.8946 6.98043 16 7.23478 16 7.5V11C16 11.2652 15.8946 11.5196 15.7071 11.7071C15.5196 11.8946 15.2652 12 15 12ZM9.5 7.5V11H15V7.5H9.5Z" fill="black"/>
</svg>
