<?xml version="1.0" encoding="utf-8"?>
<!-- Generator: Adobe Illustrator 25.0.1, SVG Export Plug-In . SVG Version: 6.00 Build 0)  -->
<svg version="1.1" id="Layer_1" xmlns="http://www.w3.org/2000/svg" xmlns:xlink="http://www.w3.org/1999/xlink" x="0px" y="0px"
	 viewBox="0 0 1920 1080" style="enable-background:new 0 0 1920 1080;" xml:space="preserve">
<style type="text/css">
	.st0{fill:url(#SVGID_1_);}
	.st1{opacity:0.54;fill:url(#SVGID_2_);}
	.st2{fill:url(#SVGID_3_);}
	.st3{opacity:0.47;fill:url(#SVGID_4_);}
	.st4{fill:url(#SVGID_5_);}
	.st5{fill:url(#SVGID_6_);}
	.st6{opacity:0.6;}
	.st7{fill:#FFFFFF;}
	.st8{opacity:0.63;fill:#FFFFFF;}
	.st9{opacity:0.64;fill:#FFFFFF;}
	.st10{opacity:0.25;fill:#FFFFFF;}
	.st11{opacity:0.95;fill:#FFFFFF;}
</style>
<linearGradient id="SVGID_1_" gradientUnits="userSpaceOnUse" x1="-2.3343" y1="87.5499" x2="1921.6031" y2="958.1293">
	<stop  offset="8.938678e-03" style="stop-color:#6658E1"/>
	<stop  offset="0.9611" style="stop-color:#27EFD5"/>
</linearGradient>
<path class="st0" d="M1920,0v925.7c-1,2.2-2,4.3-3,6.3c-49.5,45.1-105.2,74.5-166.9,93c-161.6,48.6-365,23.3-608.1,11
	c-191.8-9.7-354.2-43.4-505.1-66.2c-58.5-8.8-115.3-16-171.4-19.5c-141.4-8.8-278.3,5.8-427.3,76.5c-12.6,6-25.4,12.4-38.2,19.2V0
	H1920z"/>
<linearGradient id="SVGID_2_" gradientUnits="userSpaceOnUse" x1="1609.9714" y1="512.52" x2="1920" y2="512.52">
	<stop  offset="8.938539e-03" style="stop-color:#42AEDA"/>
	<stop  offset="0.9611" style="stop-color:#27EFD5;stop-opacity:0"/>
</linearGradient>
<path class="st1" d="M1918.1,0c0.6,0.7,1.3,1.5,1.9,2.2v923.5c-1,2.2-2,4.3-3,6.3c-49.5,45.1-105.2,74.5-166.9,93
	c-69.1-48.6-138.5-125.8-140.1-217.4c-0.9-53.4,21.5-91.3,49.5-126.9c44.4-56.3,102.8-106.6,105.5-202.9
	c3.1-112.8-74.6-135.9-76-267.1c-0.4-35,4.8-72,14.1-107c10.5-39.2,26.3-75.8,45.5-103.8H1918.1z"/>
<linearGradient id="SVGID_3_" gradientUnits="userSpaceOnUse" x1="-153.9232" y1="438.4349" x2="202.9354" y2="599.913">
	<stop  offset="0" style="stop-color:#41B0DA;stop-opacity:0"/>
	<stop  offset="0.9911" style="stop-color:#47A3DB"/>
</linearGradient>
<path class="st2" d="M187,627C142,744.3,47.2,798,0,933.2V83C44.5,189.2,269.8,411,187,627z"/>
<linearGradient id="SVGID_4_" gradientUnits="userSpaceOnUse" x1="-114.2099" y1="285.1529" x2="650.6537" y2="631.2527">
	<stop  offset="0" style="stop-color:#47A3DB;stop-opacity:0"/>
	<stop  offset="1" style="stop-color:#45A8DB"/>
</linearGradient>
<path class="st3" d="M803,212.4c-8.2,318.9-350.2,248.3-337.5,738c-141.4-8.8-278.3,5.8-427.3,76.5C25.4,1006.2,12.6,984,0,960.3V0
	h742.2C781.3,57.6,805.2,127.1,803,212.4z"/>
<linearGradient id="SVGID_5_" gradientUnits="userSpaceOnUse" x1="1271.2825" y1="719.2338" x2="1327.6115" y2="1002.8272">
	<stop  offset="8.938678e-03" style="stop-color:#44A8DA;stop-opacity:0"/>
	<stop  offset="1" style="stop-color:#3AF0D9"/>
</linearGradient>
<path class="st4" d="M1659.5,680.8C1740.8,621.8,1812,555.9,1920,541v384.7c-1,2.2-2,4.3-3,6.3c-49.5,45.1-105.2,74.5-166.9,93
	c-161.6,48.6-365,23.3-608.1,11c-191.8-9.7-354.2-43.4-505.1-66.2c0.7,0,1.3,0.1,2.1,0.2c100.5,9.2,281-292.2,585-212
	C1443.4,815.8,1559.1,753.6,1659.5,680.8z"/>
<linearGradient id="SVGID_6_" gradientUnits="userSpaceOnUse" x1="1499.9928" y1="312.2309" x2="1544.5109" y2="-35.9518">
	<stop  offset="1.634557e-02" style="stop-color:#3AC2D9"/>
	<stop  offset="1" style="stop-color:#47A3DB;stop-opacity:4.525140e-02"/>
</linearGradient>
<path class="st5" d="M1920,0v297.1c-42.9-65.1-93.9-162.2-203-190.1c-4.6-1.2-9.2-2.2-13.9-3.2C1598.5,82,1471.8,109.4,1386,172
	c-37,27-118,129-212,84c-96.4-46.1-78-202.6-15.8-256H1920z"/>
<g class="st6">
	
		<image style="overflow:visible;opacity:0.46;" width="49" height="49" xlink:href="B7D6C28D.png"  transform="matrix(1 0 0 1 475 76)">
	</image>
	<g>
		<image style="overflow:visible;" width="34" height="34" xlink:href="B7D6C28F.png"  transform="matrix(1 0 0 1 482 83)">
		</image>
		<g>
			<circle class="st7" cx="499.1" cy="100.3" r="1.5"/>
		</g>
	</g>
</g>
<g class="st6">
	
		<image style="overflow:visible;opacity:0.46;" width="50" height="49" xlink:href="B7D6C28A.png"  transform="matrix(1 0 0 1 723 730)">
	</image>
	<g>
		
			<image style="overflow:visible;opacity:0.88;" width="34" height="34" xlink:href="B7D6C28B.png"  transform="matrix(1 0 0 1 731 738)">
		</image>
		<g>
			<circle class="st7" cx="748" cy="754.8" r="1.5"/>
		</g>
	</g>
</g>
<g class="st6">
	
		<image style="overflow:visible;opacity:0.46;" width="48" height="47" xlink:href="B7D6C295.png"  transform="matrix(1 0 0 1 294 603)">
	</image>
	<g>
		
			<image style="overflow:visible;opacity:0.88;" width="34" height="34" xlink:href="B7D6C297.png"  transform="matrix(1 0 0 1 301 610)">
		</image>
		<g>
			<circle class="st8" cx="317.9" cy="626.6" r="1.5"/>
		</g>
	</g>
</g>
<g class="st6">
	
		<image style="overflow:visible;opacity:0.46;" width="47" height="47" xlink:href="B7D6C29A.png"  transform="matrix(1 0 0 1 530 446)">
	</image>
	<g>
		
			<image style="overflow:visible;opacity:0.88;" width="35" height="34" xlink:href="B7D6C29B.png"  transform="matrix(1 0 0 1 536 452)">
		</image>
		<g>
			<circle class="st9" cx="553.5" cy="469.4" r="1.5"/>
		</g>
	</g>
</g>
<g>
	
		<image style="overflow:visible;opacity:0.46;" width="50" height="50" xlink:href="B7D6C29D.png"  transform="matrix(1 0 0 1 1508 517)">
	</image>
	<g>
		
			<image style="overflow:visible;opacity:0.88;" width="34" height="34" xlink:href="920A1E66.png"  transform="matrix(1 0 0 1 1516 525)">
		</image>
		<g>
			<circle class="st7" cx="1533" cy="542" r="2"/>
		</g>
	</g>
</g>
<g>
	
		<image style="overflow:visible;opacity:0.46;" width="50" height="50" xlink:href="920A1E61.png"  transform="matrix(1 0 0 1 1508 235)">
	</image>
	<g>
		
			<image style="overflow:visible;opacity:0.88;" width="34" height="34" xlink:href="920A1E62.png"  transform="matrix(1 0 0 1 1516 243)">
		</image>
		<g>
			<circle class="st7" cx="1533" cy="260" r="2"/>
		</g>
	</g>
</g>
<g>
	
		<image style="overflow:visible;opacity:0.46;" width="41" height="40" xlink:href="920A1E60.png"  transform="matrix(1 0 0 1 1808 358)">
	</image>
	<g>
		
			<image style="overflow:visible;opacity:0.88;" width="33" height="32" xlink:href="920A1E7E.png"  transform="matrix(1 0 0 1 1812 362)">
		</image>
		<g>
			<circle class="st10" cx="1828.6" cy="378" r="1"/>
		</g>
	</g>
</g>
<g>
	
		<image style="overflow:visible;opacity:0.46;" width="41" height="40" xlink:href="920A1E63.png"  transform="matrix(1 0 0 1 1653.4142 390)">
	</image>
	<g>
		
			<image style="overflow:visible;opacity:0.88;" width="33" height="32" xlink:href="920A1E67.png"  transform="matrix(1 0 0 1 1657.4142 394)">
		</image>
		<g>
			<circle class="st10" cx="1674" cy="410" r="1"/>
		</g>
	</g>
</g>
<g>
	
		<image style="overflow:visible;opacity:0.46;" width="46" height="44" xlink:href="920A1E65.png"  transform="matrix(1 0 0 1 70 379)">
	</image>
	<g>
		
			<image style="overflow:visible;opacity:0.88;" width="32" height="32" xlink:href="920A1E6C.png"  transform="matrix(1 0 0 1 77 385)">
		</image>
		<g>
			<circle class="st11" cx="93" cy="401" r="1"/>
		</g>
	</g>
</g>
<g>
	
		<image style="overflow:visible;opacity:0.46;" width="38" height="36" xlink:href="920A1E6D.png"  transform="matrix(1 0 0 1 275 382)">
	</image>
	<g>
		
			<image style="overflow:visible;opacity:0.88;" width="32" height="32" xlink:href="920A1E85.png"  transform="matrix(1 0 0 1 278 384)">
		</image>
		<g>
			<circle class="st10" cx="294" cy="400" r="1"/>
		</g>
	</g>
</g>
<g>
	
		<image style="overflow:visible;opacity:0.56;" width="46" height="44" xlink:href="920A1E87.png"  transform="matrix(1 0 0 1 295 605)">
	</image>
	<g>
		
			<image style="overflow:visible;opacity:0.88;" width="32" height="32" xlink:href="920A1E84.png"  transform="matrix(1 0 0 1 302 611)">
		</image>
		<g>
			<circle class="st7" cx="318" cy="627" r="1"/>
		</g>
	</g>
</g>
<g>
	
		<image style="overflow:visible;opacity:0.56;" width="46" height="44" xlink:href="920A1E83.png"  transform="matrix(1 0 0 1 474 78)">
	</image>
	<g>
		
			<image style="overflow:visible;opacity:0.88;" width="32" height="32" xlink:href="920A1E8D.png"  transform="matrix(1 0 0 1 481 84)">
		</image>
		<g>
			<circle class="st7" cx="497" cy="100" r="1"/>
		</g>
	</g>
</g>
<g>
	
		<image style="overflow:visible;opacity:0.56;" width="46" height="44" xlink:href="920A1E8F.png"  transform="matrix(1 0 0 1 1663 951)">
	</image>
	<g>
		
			<image style="overflow:visible;opacity:0.88;" width="32" height="32" xlink:href="920A1E8C.png"  transform="matrix(1 0 0 1 1670 957)">
		</image>
		<g>
			<circle class="st7" cx="1686" cy="973" r="1"/>
		</g>
	</g>
</g>
<g>
	
		<image style="overflow:visible;opacity:0.46;" width="38" height="36" xlink:href="920A1E86.png"  transform="matrix(1 0 0 1 142 723)">
	</image>
	<g>
		
			<image style="overflow:visible;opacity:0.88;" width="32" height="32" xlink:href="920A1EB9.png"  transform="matrix(1 0 0 1 145 725)">
		</image>
		<g>
			<circle class="st10" cx="161" cy="741" r="1"/>
		</g>
	</g>
</g>
<g>
	
		<image style="overflow:visible;opacity:0.46;" width="38" height="36" xlink:href="920A1EBA.png"  transform="matrix(1 0 0 1 607 937)">
	</image>
	<g>
		
			<image style="overflow:visible;opacity:0.88;" width="32" height="32" xlink:href="920A1EA8.png"  transform="matrix(1 0 0 1 610 939)">
		</image>
		<g>
			<circle class="st10" cx="626" cy="955" r="1"/>
		</g>
	</g>
</g>
<g>
	
		<image style="overflow:visible;opacity:0.46;" width="41" height="40" xlink:href="920A1E97.png"  transform="matrix(1 0 0 1 1687.4142 758)">
	</image>
	<g>
		
			<image style="overflow:visible;opacity:0.88;" width="33" height="32" xlink:href="920A1E98.png"  transform="matrix(1 0 0 1 1691.4142 762)">
		</image>
		<g>
			<circle class="st10" cx="1708" cy="778" r="1"/>
		</g>
	</g>
</g>
<g>
	
		<image style="overflow:visible;opacity:0.46;" width="38" height="36" xlink:href="920A1E9B.png"  transform="matrix(1 0 0 1 360 861)">
	</image>
	<g>
		
			<image style="overflow:visible;opacity:0.88;" width="32" height="32" xlink:href="920A1E99.png"  transform="matrix(1 0 0 1 363 863)">
		</image>
		<g>
			<circle class="st10" cx="379" cy="879" r="1"/>
		</g>
	</g>
</g>
<g>
	
		<image style="overflow:visible;opacity:0.46;" width="41" height="40" xlink:href="920A1E9F.png"  transform="matrix(1 0 0 1 1328.4142 79)">
	</image>
	<g>
		
			<image style="overflow:visible;opacity:0.88;" width="33" height="32" xlink:href="920A1E9A.png"  transform="matrix(1 0 0 1 1332.4142 83)">
		</image>
		<g>
			<circle class="st10" cx="1349" cy="99" r="1"/>
		</g>
	</g>
</g>
</svg>
